<?xml version="1.0" standalone="no"?>
<!DOCTYPE svg PUBLIC "-//W3C//DTD SVG 1.1//EN" "http://www.w3.org/Graphics/SVG/1.1/DTD/svg11.dtd">
<svg xmlns="http://www.w3.org/2000/svg">
<defs >
<font id="Mali" horiz-adv-x="603" ><font-face
    font-family="Mali SemiBold"
    units-per-em="1000"
    panose-1="0 0 7 0 0 0 0 0 0 0"
    ascent="1050"
    descent="-250"
    alphabetic="0" />
<glyph unicode=" " glyph-name="space" horiz-adv-x="347" />
<glyph unicode="!" glyph-name="exclam" horiz-adv-x="273" d="M113 197T105 211T99 244L168 672Q171 694 186 706T222 719Q240 719 249 708T258 681Q258 673 257 669L187 243Q183 221 168 209T133 197Q113 197 105 211ZM66 0T47 19T28 66Q28 100 57 128T122 157Q150
157 169 138T189 91Q189 69 175 48T139 13T94 0Q66 0 47 19Z" />
<glyph unicode="&quot;" glyph-name="quotedbl" horiz-adv-x="410" d="M145 473T134 482T125 507L133 547Q137 567 145 610T159 686Q162 700 176 707T209 715Q228 715 240 708T251 686L218 505Q215 490 201 482T165 473Q145 473 134 482ZM301 473T290 482T282
507L290 547Q294 567 302 610T316 686Q318 700 332 707T366 715Q385 715 397 708T408 686L393 603L375 505Q372 490 358 482T321 473Q301 473 290 482Z" />
<glyph unicode="#" glyph-name="numbersign" horiz-adv-x="622" d="M562 445T572 436T583 412Q583 389 568 376T529 362H506L456 214H492Q509 214 519 205T530 180Q530 161 514 146T478 130H428L396 34Q384 -3 345 -3Q330 -3 321 6T311 27Q311 33 312 36L343 130H199L168
34Q162 16 149 6T119 -4Q103 -4 94 4T85 28Q85 37 88 47L115 130H90Q72 130 62 138T52 162Q52 183 67 198T104 213H142L191 365H165Q147 365 137 373T126 397Q126 403 127 406Q130 425 145 437T180 449H218L261 583Q276 626 311 626Q328 626 337 617T347 592Q347
585 344 574L303 448L449 446L498 592Q509 628 547 628Q563 628 572 619T581 595Q581 587 578 578L534 445H544Q562 445 572 436ZM421 363L276 364L226 213L371 214L421 363Z" />
<glyph unicode="$" glyph-name="dollar" horiz-adv-x="605" d="M377 504T376 498L361 413L359 400H360Q436 375 488 333T541 204Q541 141 507 95T415 25T288 0H286Q277 -41 271 -81Q267 -105 238 -105Q225 -105 218 -100T211 -85L220 -40L229 5Q148 19 102 70T55
197Q55 240 73 261T130 282Q164 282 174 268T184 228Q184 183 199 154T249 115L283 301Q103 360 103 490Q103 550 137 598T228 676T353 708L367 786Q369 795 378 802T400 809Q413 809 421 803T428 788L413 705Q492 693 541 644T590 526Q590 483 572 465T515 447Q483
447 475 458T466 497Q466 536 448 562T393 596Q377 504 376 498ZM227 462T244 448T304 419Q313 477 334 596Q288 587 258 556T227 488Q227 462 244 448ZM417 232T397 250T338 282L307 111Q354 116 385 140T417 203Q417 232 397 250Z" />
<glyph unicode="%" glyph-name="percent" horiz-adv-x="932" d="M265 -3T250 8T235 37Q235 46 238 52T248 68L619 701Q627 716 644 724T682 733Q704 733 719 722T735 694Q735 687 732 681T726 669T721 660L356 32Q346 16 328 7T289 -3Q265 -3 250 8ZM229 414T192
447T155 533Q155 579 180 617T248 678T338 700Q398 700 434 667T470 582Q470 536 445 498T378 437T288 414Q229 414 192 447ZM329 500T348 519T368 567Q368 588 355 601T323 614Q298 614 278 595T257 545Q257 525 270 513T305 500Q329 500 348 519ZM584 51T547
85T509 171Q509 216 534 254T602 315T693 337Q753 337 789 303T826 218Q826 172 801 134T734 73T644 51Q584 51 547 85ZM689 137T706 157T723 206Q723 226 713 239T679 252Q649 252 631 231T613 180Q613 160 624 149T658 137Q689 137 706 157Z" />
<glyph unicode="&amp;" glyph-name="ampersand" horiz-adv-x="740" d="M648 97T648 74Q648 47 633 29T593 11Q580 11 556 23Q515 45 477 68Q434 41 386 27T288 12Q187 12 131 57T75 191Q75 245 109 300T195 397Q169 416 155 445T140 508Q140 562 168 604T243 670T347
693Q393 693 432 675T493 623T516 547Q516 476 478 439T364 379Q417 244 471 194Q508 241 508 287Q508 308 504 322Q502 336 502 341Q502 359 521 372T562 385Q596 385 609 359Q619 337 619 300Q619 213 559 140Q575 131 604 119L625 109Q648 97 648 74ZM307 608T279
579T251 509Q251 485 266 470T314 450Q359 457 383 479T407 545Q407 576 389 592T344 608Q307 608 279 579ZM339 98T394 129L390 133Q350 170 321 225T279 352Q237 327 212 281T187 195Q187 152 213 125T288 98Q339 98 394 129Z" />
<glyph unicode="&apos;" glyph-name="quotesingle" horiz-adv-x="252" d="M144 473T133 482T124 507L132 547Q136 567 144 610T158 686Q161 700 175 707T208 715Q227 715 239 708T250 686L217 505Q214 490 200 482T164 473Q144 473 133 482Z" />
<glyph unicode="(" glyph-name="parenleft" horiz-adv-x="365" d="M184 -126T177 -124T164 -115Q110 -60 81 19T52 193Q52 295 86 405T183 604T322 736Q337 745 352 745Q371 745 385 733T396 703Q394 684 384 674T364 658T349 649Q289 609 244 535T176 372T152
201Q152 115 173 60T230 -37Q246 -56 246 -75Q246 -95 231 -110T198 -126Q184 -126 177 -124Z" />
<glyph unicode=")" glyph-name="parenright" horiz-adv-x="365" d="M20 -126T7 -116T-6 -89Q-6 -66 7 -54T41 -30Q101 13 146 88T215 250T239 418Q239 502 215 555T151 656Q135 673 135 694Q135 713 154 729T192 745Q206 745 212 743T225 734Q280 678 309 599T338
425Q338 324 304 216T207 19T68 -117Q53 -126 38 -126Q20 -126 7 -116Z" />
<glyph unicode="*" glyph-name="asterisk" horiz-adv-x="504" d="M477 611T485 602T494 582Q494 571 487 562T467 548L344 497L450 446Q463 439 463 426Q463 409 451 395T424 381Q411 381 396 388L329 428L315 345Q313 332 300 323T269 314Q251 314 242 322T235
345L249 429L172 394Q166 391 158 388T144 385Q133 385 125 393T116 415Q116 437 137 445L256 497L141 553Q130 558 130 574Q130 587 142 600T166 614Q177 614 191 606L271 561L287 656Q293 690 333 690Q368 690 368 664Q368 659 367 656L351 561L432 601Q434 602
446 606T466 611Q477 611 485 602Z" />
<glyph unicode="+" glyph-name="plus" horiz-adv-x="553" d="M500 354T510 346T520 322Q520 264 459 264H323L301 139Q292 89 246 89Q226 89 217 97T208 121L218 187L231 265Q139 265 95 266Q55 267 55 298Q55 325 70 341T111 357Q195 357 247 356L268 472Q272
496 284 508T323 520Q362 520 362 488Q362 477 339 355Q393 354 476 354Q500 354 510 346Z" />
<glyph unicode="," glyph-name="comma" horiz-adv-x="305" d="M165 176T188 152T212 85Q212 42 193 -3T143 -78Q118 -101 86 -115T26 -129Q-8 -129 -8 -103Q-8 -86 3 -75T29 -64Q46 -64 66 -56T101 -35Q126 -14 142 13Q122 2 95 2Q63 2 42 24T21 76Q21 117 51
146T124 176Q165 176 188 152ZM121 56T132 67T143 96Q143 107 136 114T116 121Q100 121 89 109T77 81Q77 69 84 63T104 56Q121 56 132 67Z" />
<glyph unicode="-" glyph-name="hyphen" horiz-adv-x="422" d="M81 321T72 332T63 360Q63 386 78 403T117 421L232 420Q301 420 360 424Q383 426 395 415T407 385Q407 360 389 342T344 322Q288 319 207 319Q174 319 157 320L96 321Q81 321 72 332Z" />
<glyph unicode="." glyph-name="period" horiz-adv-x="304" d="M80 1T63 18T46 61Q46 99 74 127T138 155Q164 155 182 136T201 89Q201 55 172 28T108 1Q80 1 63 18Z" />
<glyph unicode="/" glyph-name="slash" horiz-adv-x="564" d="M87 -4T72 8T56 39Q56 53 67 75L478 874Q486 889 497 895T525 902Q548 902 565 889T583 855Q583 843 578 834T572 824L163 31Q144 -4 115 -4Q87 -4 72 8Z" />
<glyph unicode="0" glyph-name="zero" horiz-adv-x="634" d="M209 14T154 45T68 130T38 254Q38 357 82 450T204 601T377 659Q452 659 508 625T594 532T624 398Q624 291 581 204T459 65T283 14Q209 14 154 45ZM351 110T399 148T472 249T498 385Q498 464 465 513T374
563Q317 563 269 517T192 400T163 262Q163 193 196 152T288 110Q351 110 399 148Z" />
<glyph unicode="1" glyph-name="one" horiz-adv-x="444" d="M375 672T393 655T407 613L308 52Q304 30 285 17T238 3Q214 3 202 14T190 42Q190 49 191 52L270 499Q246 473 201 431Q196 426 187 423T167 419Q143 419 130 431T118 461Q118 482 143 505Q192 552 278
645Q289 657 307 664T344 672Q375 672 393 655Z" />
<glyph unicode="2" glyph-name="two" horiz-adv-x="558" d="M450 106T465 95T481 65Q481 40 464 24T419 8Q408 8 362 10Q260 13 235 13Q132 13 60 9Q39 9 26 18T12 44Q12 104 97 184T290 332Q426 418 426 519Q426 558 403 581T337 605Q294 605 260 572T216 492Q211
468 195 458T148 448Q99 448 99 488Q99 544 132 593T221 672T340 702Q398 702 446 680T522 618T551 528Q551 445 496 378T346 252Q218 176 168 108Q197 109 252 109Q301 109 427 106Q450 106 465 95Z" />
<glyph unicode="3" glyph-name="three" horiz-adv-x="595" d="M522 339T540 308T559 234Q559 169 526 116T434 33T299 3Q179 3 105 52T31 196Q31 229 36 255Q41 283 60 298T108 313Q135 313 147 301T158 270L155 240L153 219Q153 101 292 101Q356 101 398 133T441
224Q441 307 330 307Q288 307 288 342Q288 371 302 387T345 404Q405 404 438 431T472 511Q472 543 451 564T394 586Q349 586 312 558T270 487Q267 457 267 452Q267 434 249 420T201 405Q182 405 168 412T150 435Q147 452 147 465Q147 524 180 574T271 653T394 683Q448
683 495 663T570 605T598 522Q598 468 569 424T490 357Q522 339 540 308Z" />
<glyph unicode="4" glyph-name="four" horiz-adv-x="618" d="M578 294T589 285T600 256Q600 200 544 192Q518 189 460 185L430 48Q426 27 407 13T359 -1Q336 -1 324 9T311 39Q311 43 313 53L341 181Q315 180 263 180Q182 180 139 185T61 198Q23 209 23 237Q23
254 39 278Q131 411 210 508T372 676Q387 689 411 689Q431 689 444 677T457 648Q457 635 450 622T422 590Q349 523 281 441T177 300Q173 292 173 290Q173 286 176 285T189 281Q222 276 312 276Q345 276 362 277L405 474Q409 496 425 509T470 523Q496 523 509 512T523
480Q523 472 522 468L482 284Q505 286 561 292Q578 294 589 285Z" />
<glyph unicode="5" glyph-name="five" horiz-adv-x="584" d="M156 0T95 46T34 176Q34 199 39 229Q43 254 62 268T110 282Q136 282 151 273T166 246Q166 242 164 234Q160 202 160 190Q160 144 184 122T261 100Q341 100 381 146T421 275Q421 327 394 354T312 382Q285
382 258 378T184 362Q176 359 160 359Q138 359 125 370T113 399L127 469Q164 649 171 686Q248 683 387 683Q422 683 480 685L546 686Q584 686 584 653Q584 624 568 606T523 588Q484 588 462 587L370 586L272 587L249 475Q249 466 258 466L270 468Q274 469 300 474T356
480Q415 480 458 453T524 380T547 278Q547 148 470 74T258 0Q156 0 95 46Z" />
<glyph unicode="6" glyph-name="six" horiz-adv-x="605" d="M308 581T252 523T165 355Q198 386 244 405T337 424Q403 424 452 399T527 329T554 233Q554 160 519 109T421 30T279 3Q165 3 102 59T38 220Q38 265 45 308Q75 477 160 577T378 678Q454 678 513 638T596
537Q602 522 602 515Q602 493 579 476T535 458Q520 458 512 464T498 480T489 494Q471 525 459 541T426 569T374 581Q308 581 252 523ZM259 327T216 291T172 189Q172 146 201 123T287 100Q356 100 394 136T432 230Q432 274 406 300T328 327Q259 327 216 291Z" />
<glyph unicode="7" glyph-name="seven" horiz-adv-x="557" d="M515 387T527 377T540 348Q540 322 523 305T478 288H421Q361 167 282 32Q274 18 255 9T215 0Q190 0 176 11T161 39Q161 53 170 66Q206 126 290 286H249Q203 286 203 322Q203 349 220 366T266 383H341Q398
497 398 547Q398 572 380 582T313 592Q235 592 133 567Q128 566 118 566Q99 566 88 576T77 604Q77 645 133 664Q231 692 322 692Q417 692 468 658T520 559Q520 497 468 386Q476 387 490 387Q515 387 527 377Z" />
<glyph unicode="8" glyph-name="eight" horiz-adv-x="615" d="M521 400T553 354T585 244Q585 168 546 114T437 32T281 4Q207 4 149 28T58 97T25 199Q25 281 86 341T238 423Q211 435 195 459T178 517Q178 563 205 602T277 664T377 687Q423 687 461 669T521 619T544
549Q544 502 520 470T457 422Q521 400 553 354ZM342 591T318 567T294 509Q294 484 309 470T350 456Q383 456 406 480T429 539Q429 563 414 577T375 591Q342 591 318 567ZM340 97T380 118T442 173T464 248Q464 297 427 327T330 358Q283 358 241 339T173 284T147
205Q147 154 183 126T288 97Q340 97 380 118Z" />
<glyph unicode="9" glyph-name="nine" horiz-adv-x="598" d="M478 686T542 624T607 455Q607 416 600 380Q567 200 482 102T254 3Q191 3 139 22T55 78T23 163Q23 179 26 197Q30 220 48 234T94 249Q116 249 129 237T142 205Q142 198 141 192T140 180Q140 140 174
119T269 97Q340 97 396 155T484 326Q454 290 410 268T312 246Q208 246 147 291T85 420Q85 497 123 557T225 652T367 686Q478 686 542 624ZM359 336T395 356T452 411T474 485Q474 532 442 561T358 590Q315 590 280 569T226 512T206 430Q206 383 233 360T317 336Q359
336 395 356Z" />
<glyph unicode=":" glyph-name="colon" horiz-adv-x="315" d="M132 293T111 313T89 364Q89 408 117 435T189 463Q222 463 243 443T265 393Q265 349 239 321T167 293Q132 293 111 313ZM186 346T196 356T207 383Q207 394 200 401T182 408Q169 408 158 397T147 370Q147
358 154 352T172 346Q186 346 196 356ZM92 12T69 34T46 90Q46 129 74 156T143 184Q177 184 199 162T221 109Q221 66 194 39T124 12Q92 12 69 34ZM144 66T153 75T163 98Q163 109 156 115T138 122Q124 122 115 112T105 91Q104 79 111 73T129 66Q144 66 153 75Z" />
<glyph unicode=";" glyph-name="semicolon" horiz-adv-x="353" d="M246 463T267 443T289 393Q289 349 262 321T190 293Q156 293 134 313T112 364Q112 408 140 435T212 463Q246 463 267 443ZM210 346T220 357T231 383Q231 394 223 401T205 408Q192 408 181 397T170
370Q170 358 177 352T195 346Q210 346 220 357ZM192 176T215 152T238 85Q238 41 220 -4T169 -78Q144 -101 113 -115T53 -129Q18 -129 18 -103Q18 -86 29 -75T55 -64Q73 -64 92 -56T127 -35Q153 -16 169 13Q147 2 122 2Q90 2 69 24T47 76Q47 117 78 146T151 176Q192
176 215 152ZM148 56T159 67T170 96Q170 107 163 114T143 121Q127 121 116 109T104 81Q104 69 111 63T131 56Q148 56 159 67Z" />
<glyph unicode="&lt;" glyph-name="less" horiz-adv-x="553" d="M402 109T232 180Q141 219 100 248T58 309Q58 347 115 384T282 460Q335 479 414 502T510 525Q528 525 538 515T548 488Q548 465 534 452T490 430L455 421Q355 393 306 377Q170 330 170 314Q170 310
188 302T221 288T242 280Q267 272 283 265Q351 238 451 200Q485 188 485 162Q485 138 474 124T440 109Q402 109 232 180Z" />
<glyph unicode="=" glyph-name="equal" horiz-adv-x="553" d="M96 346T81 356T66 385Q66 409 89 424T148 439L473 442Q499 442 516 430T533 400Q533 377 510 363T454 349L120 346Q96 346 81 356ZM70 176T55 186T39 216Q39 240 60 254T119 271L451 281Q476 282
493 271T510 241Q510 217 489 203T433 187L94 177Q70 176 55 186Z" />
<glyph unicode="&gt;" glyph-name="greater" horiz-adv-x="553" d="M68 105T56 113T44 138Q44 158 56 173T89 196Q160 223 280 264Q391 300 391 313Q391 326 295 368Q224 399 121 426Q79 437 79 467Q79 490 94 504T133 518Q152 518 225 496T342 456Q429 422 476
385T524 313Q524 287 501 267T434 227T306 176Q199 137 151 121T88 105Q68 105 56 113Z" />
<glyph unicode="?" glyph-name="question" horiz-adv-x="542" d="M247 188T238 198T229 226Q229 258 254 291T334 380Q390 436 418 474T447 549Q447 594 420 621T346 648Q278 648 239 616T199 527Q199 507 210 494T239 481Q279 481 279 446Q279 424 263 409T223
394Q174 394 143 427T111 512Q111 574 141 624T224 702T342 731Q397 731 441 710T510 650T535 562Q535 523 517 486T472 419T404 348Q360 305 339 278T317 224Q317 188 264 188Q247 188 238 198ZM209 5T193 21T177 61Q177 91 201 114T258 138Q281 138 297 122T313
83Q313 53 289 29T235 5Q209 5 193 21Z" />
<glyph unicode="@" glyph-name="at" horiz-adv-x="897" d="M602 608T674 573T787 477T828 339Q828 268 797 198T712 82T600 37Q565 37 542 53T513 96Q467 58 398 58Q329 58 296 97T262 203Q262 264 289 317T363 403T468 435Q535 435 566 390L570 402Q574 415 586
422T617 429Q638 429 647 421T656 399Q656 394 654 386Q626 308 609 253Q588 190 586 152Q583 119 612 119Q644 119 670 154T711 242T727 340Q727 394 701 436T626 503T508 527Q403 527 329 483T216 364T178 196Q178 92 240 33T430 -27Q461 -27 482 -24T554 -8Q557
-7 564 -7Q579 -7 588 -17T597 -42Q597 -57 587 -67T551 -85Q520 -96 480 -102T399 -108Q299 -108 226 -70T115 37T77 190Q77 303 132 399T287 551T513 608Q602 608 674 573ZM447 136T468 150T499 192L506 217Q522 273 527 293Q528 296 528 303Q528 326 508 343T461
361Q432 361 409 339T372 283T359 216Q359 179 375 158T423 136Q447 136 468 150Z" />
<glyph unicode="A" glyph-name="A" horiz-adv-x="695" d="M630 199T619 180T587 160H581Q591 81 594 57Q595 53 595 48Q595 22 575 6T526 -11Q504 -11 487 -2T468 25L454 161L226 164L212 135Q196 100 161 28Q142 -10 97 -10Q68 -10 47 4T30 41Q32 53 35 58Q219
418 306 591Q341 660 365 686T429 712Q469 712 492 687T524 600Q534 531 544 449T559 331L566 273H579Q630 273 630 229Q630 199 619 180ZM443 274L424 461Q420 504 417 520T408 537Q404 537 399 528T383 495L369 466L279 276L443 274Z" />
<glyph unicode="B" glyph-name="B" horiz-adv-x="656" d="M70 -30T62 4L54 5Q22 5 22 40Q22 69 37 91T76 113H87Q118 231 145 383Q154 430 168 520L176 566Q168 563 164 563Q154 563 147 571T140 593Q140 621 159 639T215 672Q261 690 311 699T407 708Q480 708
537 685T626 620T658 527Q658 455 605 408T464 347Q531 328 561 289T592 205Q592 136 552 89T445 20T298 -3Q261 -3 215 -1Q212 -1 176 1Q155 -30 111 -30Q70 -30 62 4ZM377 102T424 131T471 220Q471 301 340 303Q310 304 296 310T282 338Q282 402 355 402Q433
404 483 431T533 523Q533 564 496 585T387 606Q344 606 303 595L284 477L268 384Q256 312 243 254T205 105Q261 102 298 102Q377 102 424 131Z" />
<glyph unicode="C" glyph-name="C" horiz-adv-x="733" d="M716 709T729 698T743 666Q743 660 742 656L720 542Q709 481 650 481Q616 481 605 501Q586 535 572 554T532 588T468 603Q397 603 332 556T226 436T185 288Q185 231 210 190T277 128T373 107Q442 107 500
143T578 251Q584 276 599 292T648 309Q710 309 704 248Q696 191 655 133T542 35T373 -4Q285 -4 214 32T102 134T61 290Q61 397 117 495T267 653T468 714Q576 714 625 651L628 669Q632 687 648 698T690 709Q716 709 729 698Z" />
<glyph unicode="D" glyph-name="D" horiz-adv-x="707" d="M492 680T587 605T683 394Q683 277 617 189T436 54T180 6H101Q68 6 55 15T41 49Q41 76 56 95T100 114H117L189 593H184Q163 593 153 600T143 630Q143 667 161 684T207 702H219Q235 718 270 718Q308 718
317 697Q492 680 587 605ZM325 122T399 160T516 259T560 394Q560 559 310 587L239 115Q325 122 399 160Z" />
<glyph unicode="E" glyph-name="E" horiz-adv-x="618" d="M626 689T638 680T650 652Q650 623 633 603T591 584Q499 592 423 592Q354 592 306 589L292 500L280 422H310Q459 420 494 418Q508 416 517 409T526 382Q526 355 512 333T475 310Q437 310 421 311Q407 311
380 311T297 312H261Q250 256 240 215T213 122Q272 118 328 118Q386 118 420 120T492 127L503 128Q522 128 533 118T544 86Q544 58 530 41T488 19Q440 10 292 10Q234 10 184 12T64 24Q33 28 33 60Q33 88 45 108T79 129H92Q118 210 137 314H128Q112 314 103 323T93
352Q93 383 107 403T144 424H156L185 584H181Q168 584 163 595T157 621Q157 688 228 695Q280 700 403 700Q539 700 605 692Q626 689 638 680Z" />
<glyph unicode="F" glyph-name="F" horiz-adv-x="614" d="M649 686T649 653Q649 623 631 603T586 586Q491 597 395 597Q342 597 312 596Q302 491 290 411Q309 412 349 412Q468 412 507 403Q545 393 545 361Q545 333 529 314T481 297Q399 304 338 304Q292 304 272
303Q259 231 228 97L219 56Q213 33 195 19T148 5Q124 5 110 16T95 47Q95 53 96 57L112 129Q128 190 148 292L118 289Q101 287 91 298T81 329Q81 388 145 398L166 401Q176 468 188 592H173Q131 590 131 629Q131 692 187 699L199 700L200 709Q203 729 223 741T274
754Q330 754 324 708V705Q352 706 399 706Q457 706 521 702T609 693Q649 686 649 653Z" />
<glyph unicode="G" glyph-name="G" horiz-adv-x="760" d="M386 580T323 542T223 439T186 302Q186 245 209 202T275 134T371 110Q438 110 483 149T550 268L436 270Q387 271 387 314Q387 344 404 363T452 381L689 376Q745 376 745 333Q745 306 730 287T686 267H669Q637
137 561 69T363 0Q271 0 203 39T98 147T62 300Q62 406 114 496T256 638T451 691Q523 691 569 665T638 602L643 623Q648 645 659 655T696 665Q722 665 739 654T755 623Q753 596 744 564T723 515Q702 486 662 486Q647 486 633 493T602 518Q574 548 545 564T463 580Q386
580 323 542Z" />
<glyph unicode="H" glyph-name="H" horiz-adv-x="774" d="M728 374T728 330Q728 296 711 280T665 263H655L625 57Q620 30 602 14T555 -2Q527 -2 513 14T501 54L532 265L253 269L194 37Q183 -7 126 -7Q100 -7 86 2T71 30Q71 40 73 46L130 271H117Q99 271 90 280T81
312Q81 344 96 362T140 381H158L232 670Q239 695 258 709T306 723Q331 723 343 711T356 679Q356 667 354 661L282 379L548 376L591 665Q595 690 614 706T662 723Q688 723 702 712T716 679Q716 672 715 668L672 374H686Q728 374 728 330Z" />
<glyph unicode="I" glyph-name="I" horiz-adv-x="486" d="M522 701T522 663Q522 633 506 614T458 596Q428 598 388 598Q338 327 285 115L372 114Q419 113 419 74Q419 42 401 23T352 3L52 7Q10 8 10 48Q10 77 27 97T72 118L166 117Q224 368 266 598L188 593Q161
590 146 590Q128 590 118 601T107 631Q107 661 123 679T168 701Q187 704 238 707T348 710Q424 710 482 704Q522 701 522 663Z" />
<glyph unicode="J" glyph-name="J" horiz-adv-x="622" d="M653 698T653 661Q653 633 637 614T589 594H554Q536 506 507 336L495 267Q472 137 407 68T234 -1Q140 -1 86 51T32 198Q32 232 37 258Q48 321 112 321Q138 321 150 308T163 274Q163 266 162 261Q157 235
157 205Q157 110 234 110Q282 110 319 149T369 268Q397 427 432 594H381Q357 594 346 603T334 631Q334 640 335 645Q338 670 352 684T384 700Q450 703 519 703Q569 703 609 701Q653 698 653 661Z" />
<glyph unicode="K" glyph-name="K" horiz-adv-x="641" d="M650 699T665 685T681 652Q681 637 674 623T653 600Q583 555 450 478Q370 431 321 404Q307 396 293 388T264 371L396 240Q484 153 542 102Q559 85 559 65Q559 38 537 18T486 -3Q468 -3 451 9Q406 51 313
148L202 266L163 60Q159 32 139 16T91 -1Q67 -1 53 9T39 38L40 47Q55 142 86 293L99 362Q109 413 128 533Q133 568 146 646Q151 670 171 685T218 700Q243 700 256 687T270 654Q270 647 269 643L239 466L392 562Q474 613 587 687Q604 699 628 699Q650 699 665 685Z"
/>
<glyph unicode="L" glyph-name="L" horiz-adv-x="562" d="M159 -2T121 13T68 63T52 157Q52 299 175 659Q182 679 201 691T248 704Q269 704 284 694T299 669Q299 666 297 658L288 632Q229 468 199 359T168 157Q168 125 182 115T237 104Q283 104 320 108T420 124Q448
130 463 132Q484 135 495 122T506 89Q506 30 448 20Q334 -2 230 -2Q159 -2 121 13Z" />
<glyph unicode="M" glyph-name="M" horiz-adv-x="805" d="M731 713T750 677T769 570Q769 441 698 53Q693 25 676 9T630 -7Q604 -7 589 6T573 41L574 50L609 240Q632 363 643 429T654 529Q654 565 645 565Q634 565 610 527T557 436Q511 348 481 281Q461 236 405
236Q377 236 363 246T344 278Q341 299 334 351Q330 392 322 437Q313 482 301 523T280 565Q261 565 213 331Q196 251 177 135Q174 117 171 95T162 48Q158 25 140 12T91 -2Q40 -2 40 43Q40 50 42 64Q54 132 75 243Q89 317 92 333Q118 469 146 552T208 674T289 713Q344
713 373 664T413 553T429 403Q485 532 548 622T688 713Q731 713 750 677Z" />
<glyph unicode="N" glyph-name="N" horiz-adv-x="752" d="M752 714T752 668Q752 663 750 649Q729 524 692 328Q669 204 650 138T605 41T541 11Q506 11 479 37T423 117T341 288L262 463L243 507Q243 507 228 414L213 324Q189 181 166 61Q162 39 142 24T96 9Q70
9 55 25T43 61Q57 147 69 210Q89 321 92 336Q90 325 106 421Q130 557 130 560Q140 617 151 648T179 693T225 707Q260 707 286 683T341 603T423 423Q498 250 539 171L573 350L629 661Q633 685 651 699T701 714Q752 714 752 668Z" />
<glyph unicode="O" glyph-name="O" horiz-adv-x="805" d="M283 7T213 42T103 145T63 302Q63 411 113 504T254 653T455 708Q549 708 622 669T737 558T778 393Q778 283 725 195T580 57T374 7Q283 7 213 42ZM460 117T523 154T621 256T656 398Q656 489 604 543T462
598Q383 598 321 556T223 445T188 299Q188 207 241 162T379 117Q460 117 523 154Z" />
<glyph unicode="P" glyph-name="P" horiz-adv-x="659" d="M484 700T542 673T633 598T666 491Q666 418 624 363T511 277T360 247Q324 247 291 253T236 269L194 48Q189 23 170 8T121 -8Q96 -8 83 3T69 37Q69 46 70 51Q76 87 88 147Q104 225 118 302Q139 428 153
528L149 526Q139 521 131 521Q118 521 111 533T103 563Q103 587 115 600T156 630L169 636Q169 642 171 650Q180 709 245 709Q278 709 290 702T301 686V685Q359 700 413 700Q484 700 542 673ZM402 348T441 367T504 419T527 491Q527 537 489 564T391 592Q351 592
285 575L275 513Q269 483 260 413L254 371Q272 361 301 355T357 348Q402 348 441 367Z" />
<glyph unicode="Q" glyph-name="Q" horiz-adv-x="796" d="M693 117Q706 102 706 86Q706 58 683 35T631 11Q604 11 589 29L557 67Q458 12 349 12Q258 12 194 51T97 157T64 307Q64 417 119 510T267 657T467 712Q554 712 623 672T732 563T771 408Q771 335 743 269T664
150L693 117ZM425 122T484 154L441 204Q430 218 430 233Q430 248 443 265T476 294T513 306Q527 306 537 296L586 240Q615 277 631 320T647 410Q647 495 597 548T463 602Q388 602 325 560T226 449T189 304Q189 218 235 170T359 122Q425 122 484 154Z" />
<glyph unicode="R" glyph-name="R" horiz-adv-x="675" d="M669 423T624 373T503 299T339 274Q310 274 277 279L548 113Q572 99 572 79Q572 52 556 31T513 10Q493 10 467 25L215 194L189 49Q184 23 166 9T120 -6Q93 -6 80 7T67 42Q67 52 68 57Q84 147 98 231L119
352Q135 447 146 521L144 520Q137 517 130 517Q117 517 110 525T103 554Q103 580 111 598T144 628Q156 634 164 637L165 645Q169 672 189 687T239 703Q292 703 289 681V680Q365 699 408 699Q490 699 549 673T638 601T669 496Q669 423 624 373ZM340 590T274 568L269
532L247 377Q283 370 345 370Q424 370 476 404T529 498Q529 541 495 565T401 590Q340 590 274 568Z" />
<glyph unicode="S" glyph-name="S" horiz-adv-x="605" d="M218 0T165 24T84 93T55 197Q55 240 73 261T130 282Q164 282 174 268T184 228Q184 172 207 141T288 110Q342 110 379 135T417 203Q417 230 400 247T360 274T291 298Q216 322 160 365T103 490Q103 552 139
602T235 680T367 708Q431 708 481 685T561 620T590 526Q590 483 572 465T515 447Q483 447 475 458T466 497Q466 543 440 571T365 599Q328 599 296 584T246 543T227 488Q227 467 238 454T269 433T334 409L360 400Q436 375 488 333T541 204Q541 141 507 95T415 25T288
0Q218 0 165 24Z" />
<glyph unicode="T" glyph-name="T" horiz-adv-x="580" d="M595 688T607 679T619 647Q619 616 599 597T546 580Q503 583 414 585Q384 466 358 338Q333 216 303 48Q298 17 282 4T230 -10Q173 -10 173 35Q173 40 175 52Q208 213 235 338Q274 516 291 585Q227 584
146 576Q125 574 113 587T101 624Q101 677 160 686Q196 691 259 694T383 697Q429 697 488 696T573 691Q595 688 607 679Z" />
<glyph unicode="U" glyph-name="U" horiz-adv-x="692" d="M661 709T675 697T689 665Q689 658 688 654Q672 566 662 498Q660 486 651 433L588 60Q582 25 567 11T520 -3Q463 -3 463 41Q463 49 464 53L470 89Q439 49 393 25T290 1Q185 1 129 59T72 209Q72 254 88
345T150 652Q155 675 172 689T221 703Q272 703 272 667Q272 662 270 650Q227 445 211 350T195 216Q195 168 222 140T294 112Q339 112 385 140T466 216T510 319Q536 470 567 654Q576 709 634 709Q661 709 675 697Z" />
<glyph unicode="V" glyph-name="V" horiz-adv-x="665" d="M266 -1T241 14T207 55Q198 80 184 167T154 367L120 639Q119 645 119 654Q119 709 192 709Q234 709 239 676Q249 609 264 463L271 391Q287 250 296 201T318 151Q332 151 360 203T447 391Q516 551 574 678Q588
708 627 708Q655 708 673 696T691 662Q691 652 685 638Q620 491 563 369Q440 104 409 57Q392 30 362 15T299 -1Q266 -1 241 14Z" />
<glyph unicode="W" glyph-name="W" horiz-adv-x="861" d="M208 1T188 15T167 51Q163 93 160 161Q156 280 145 378Q136 464 120 630L119 642Q120 670 143 687T199 705Q220 705 232 696T245 665Q246 642 249 612T254 564Q255 553 260 505T267 405Q269 376 271 306Q272
256 274 215T281 174Q284 174 295 192T320 237Q331 257 363 314Q367 322 389 360T430 416T466 433Q490 433 503 406T534 309Q538 292 539 286Q549 243 558 209T573 175Q576 175 591 214T623 301L660 404L671 433Q713 542 763 665Q780 704 827 704Q854 704 870 691T886
655Q886 647 879 633Q842 550 804 453L774 379Q747 312 701 190Q691 165 679 132T650 57Q639 31 617 17T564 3Q531 3 511 25T472 100Q468 110 453 166Q447 189 442 207T433 225Q429 225 415 199T397 167Q366 112 356 96Q323 44 295 23T237 1Q208 1 188 15Z" />
<glyph unicode="X" glyph-name="X" horiz-adv-x="677" d="M659 700T679 679T700 633Q700 616 680 597L486 393L432 335L567 92Q581 69 580 56Q579 34 555 13T501 -8Q488 -8 481 -3T467 14Q416 101 341 238L256 148Q179 65 145 30Q127 11 116 5T89 -2Q63 -2 44
14T25 52Q25 66 30 74T47 94Q127 177 283 343L243 414Q182 523 131 611Q127 618 125 623T124 635Q125 661 149 680T203 700Q220 700 228 692T250 661L374 440L590 671Q604 686 613 693T635 700Q659 700 679 679Z" />
<glyph unicode="Y" glyph-name="Y" horiz-adv-x="655" d="M264 2T250 14T236 46Q236 55 237 59L283 331Q265 334 237 371T190 448Q143 549 126 634Q125 638 125 646Q125 672 150 686T207 701Q228 701 240 690T259 655Q282 563 307 502Q341 423 360 423Q372 423
395 446T443 503Q469 537 496 578T528 628L548 659Q552 664 560 676T577 693T600 699Q629 699 650 682T671 643Q671 631 663 618Q646 584 609 531T542 440Q507 397 465 365T405 331L361 62Q356 34 338 18T289 2Q264 2 250 14Z" />
<glyph unicode="Z" glyph-name="Z" horiz-adv-x="698" d="M492 19Q483 20 431 23T304 26Q235 26 133 22L71 20Q10 20 10 64Q10 94 66 150T253 316L350 399Q498 527 557 584Q454 575 413 575Q357 575 292 580T195 594Q169 600 158 611T146 640Q146 667 164 685T210
703Q212 703 248 699Q304 692 345 689T441 685Q472 685 508 687T593 694L648 698Q664 700 682 695T712 681Q721 674 726 664T731 643Q731 608 681 557T515 406L454 354Q291 214 198 128L226 130Q313 135 372 135Q425 135 461 133T556 122Q601 117 601 77Q601 48
582 31T536 16L492 19Z" />
<glyph unicode="[" glyph-name="bracketleft" horiz-adv-x="363" d="M63 -170T-5 -161Q16 -69 34 33T79 296Q103 440 114 525T140 746Q201 751 354 751Q372 751 381 740T391 711Q391 687 376 671T334 655H288Q238 655 229 654Q226 635 219 585Q217 569 206 489T174
299L142 113Q121 -8 107 -75L164 -76L219 -75Q251 -75 251 -107Q251 -133 237 -148T195 -167Q160 -170 93 -170Q63 -170 -5 -161Z" />
<glyph unicode="\" glyph-name="backslash" horiz-adv-x="485" d="M314 0T304 9T291 35L160 835Q158 845 158 851Q158 877 181 895T231 913Q269 913 273 883L403 79Q405 67 405 62Q405 34 384 17T328 0Q314 0 304 9Z" />
<glyph unicode="]" glyph-name="bracketright" horiz-adv-x="363" d="M74 -169T20 -167Q-15 -164 -15 -133Q-15 -108 -2 -92T34 -75H99H146Q153 -23 179 123L210 299Q230 409 247 495T269 602Q275 627 282 662Q265 661 252 661T229 662Q216 663 185 663Q136 663
136 698Q136 720 148 735T182 751Q320 751 402 746Q364 589 346 508T305 296L241 -75L227 -161Q155 -169 126 -169Q74 -169 20 -167Z" />
<glyph unicode="^" glyph-name="asciicircum" horiz-adv-x="610" d="M104 215T89 225T74 249Q74 252 76 258Q174 477 247 589T374 701Q434 701 477 592T544 269Q546 246 530 229T488 212Q473 212 461 219T448 239Q440 348 416 471T370 594Q346 594 280 474T162
238Q157 225 148 220T122 215Q104 215 89 225Z" />
<glyph unicode="_" glyph-name="underscore" horiz-adv-x="567" d="M-50 -160T-61 -149T-73 -120Q-73 -95 -56 -78T-13 -61Q60 -61 232 -63L475 -64Q493 -64 504 -75T515 -103Q515 -128 501 -146T458 -165L239 -163Q98 -160 -30 -160Q-50 -160 -61 -149Z" />
<glyph unicode="`" glyph-name="grave" horiz-adv-x="314" d="M271 490T259 504L114 678Q102 692 102 705Q102 725 120 743T159 762Q179 762 193 743L231 697Q286 627 339 569Q348 559 348 543Q348 523 330 507T291 490Q271 490 259 504Z" />
<glyph unicode="a" glyph-name="a" horiz-adv-x="617" d="M526 92T532 87T539 63Q539 37 525 19T477 1Q444 1 426 12T395 50Q372 20 334 5T248 -10Q185 -10 138 16T65 90T39 200Q39 281 74 348T172 454T310 494Q358 494 392 478T444 435L449 452Q461 489 502 489Q528
489 544 479T561 453Q561 442 546 403L533 365Q516 312 502 240T487 132Q487 113 492 106T510 96Q526 92 532 87ZM302 85T333 109T374 178Q384 226 391 268T399 325Q399 360 375 379T319 399Q275 399 240 369T184 290T164 193Q164 144 187 115T258 85Q302 85 333
109Z" />
<glyph unicode="b" glyph-name="b" horiz-adv-x="636" d="M436 511T487 484T567 409T597 298Q597 212 559 144T452 37T297 -2Q246 -1 197 21T134 66Q121 49 103 35T72 15Q57 8 45 8Q25 8 12 22T-1 55Q-1 75 19 92Q38 105 46 118Q54 132 61 168T87 325L95 380Q106
454 148 712L166 821Q170 844 190 857T237 871Q262 871 276 859T288 826Q282 779 259 633L232 463Q255 484 291 497T374 511Q436 511 487 484ZM346 94T386 122T450 197T473 297Q473 354 442 385T356 416Q311 416 273 395T214 347L201 271Q193 231 189 184Q187 161
201 140T240 107T297 94Q346 94 386 122Z" />
<glyph unicode="c" glyph-name="c" horiz-adv-x="595" d="M207 0T154 27T72 102T42 208Q42 292 80 362T187 473T339 514Q392 514 443 493T527 435T560 356Q560 331 542 319T495 306Q476 306 466 316T449 345Q446 361 433 378T396 407T345 419Q296 419 254 389T188
309T164 208Q164 156 194 126T284 95Q329 95 364 112T418 155T438 208Q438 222 455 233T496 245Q521 245 534 237T548 208Q548 148 511 101T410 27T274 0Q207 0 154 27Z" />
<glyph unicode="d" glyph-name="d" horiz-adv-x="633" d="M169 -9T106 43T42 195Q42 279 80 351T186 468T339 512Q388 512 428 499T488 464L558 810Q562 831 581 843T626 856Q651 856 667 844T679 812L561 198Q552 147 552 113Q552 98 555 90T566 72T574 56Q574
44 561 29T529 4T492 -7Q467 -7 448 13T424 67Q388 26 355 9T266 -9Q169 -9 106 43ZM322 89T354 106T408 151T435 210L462 360Q453 382 418 399T343 416Q293 416 253 386T189 309T166 211Q166 151 200 120T284 89Q322 89 354 106Z" />
<glyph unicode="e" glyph-name="e" horiz-adv-x="604" d="M211 -8T157 21T73 102T44 217Q44 297 83 365T189 474T340 514Q401 514 453 492T536 426T568 321Q568 222 490 222L150 218Q149 212 149 202Q149 153 186 122T285 90Q334 90 364 106T430 152Q449 167 465
167Q483 167 497 155T512 125Q512 107 496 87Q463 49 415 21T285 -8Q211 -8 157 21ZM446 302Q461 302 465 307T470 326Q470 372 435 397T345 422Q297 422 257 401T193 351T164 298L446 302Z" />
<glyph unicode="f" glyph-name="f" horiz-adv-x="415" d="M408 740T450 707T492 616Q492 598 490 589Q483 552 467 537T419 521Q365 521 365 561Q365 569 366 573Q371 598 371 612Q371 627 365 634T342 642Q316 642 303 618T278 526Q264 450 259 420H321Q357 420
357 384Q357 360 343 345T304 329L244 327L233 257Q212 124 199 51Q195 26 178 13T132 0Q107 0 93 10T79 40L80 49Q100 187 123 325L87 324Q63 324 53 333T42 361Q42 387 57 403T100 419Q122 419 138 420L156 530Q174 633 219 686T342 740Q408 740 450 707Z" />
<glyph unicode="g" glyph-name="g" horiz-adv-x="591" d="M526 529T545 519T564 490Q564 480 559 472Q543 441 530 412L524 258L521 172Q518 102 515 64T506 -7Q467 -250 222 -250Q166 -250 121 -231T51 -177T26 -101Q26 -66 41 -50T90 -33Q132 -33 132 -66Q132
-107 155 -129T222 -151Q268 -151 300 -140T354 -97T386 -6Q391 20 392 47Q366 25 329 12T248 -1Q186 -1 139 27T66 105T40 216Q40 293 77 359T180 465T324 505Q365 505 394 495T440 467L464 512Q470 522 478 525T504 529Q526 529 545 519ZM309 95T350 116T403
162L406 363Q399 380 377 394T323 408Q279 408 242 380T184 306T162 212Q162 161 189 128T270 95Q309 95 350 116Z" />
<glyph unicode="h" glyph-name="h" horiz-adv-x="575" d="M448 520T493 483T538 371Q538 355 535 335Q512 173 490 49Q486 28 467 16T422 3Q395 3 380 18T368 55Q407 280 416 339Q418 355 418 360Q418 391 403 407T361 423Q320 423 280 391T220 310Q212 290 206
256T192 179Q176 84 169 46Q165 27 145 15T100 3Q74 3 59 15T47 47Q76 218 119 432Q136 514 187 735Q193 758 211 772T258 786Q282 786 294 777T306 749Q306 742 305 738Q276 602 243 468Q299 520 380 520Q448 520 493 483Z" />
<glyph unicode="i" glyph-name="i" horiz-adv-x="327" d="M190 537T172 554T153 601Q153 642 181 669T251 697Q282 697 300 680T319 633Q319 593 291 565T221 537Q190 537 172 554ZM88 6T74 17T59 47Q59 53 60 56L138 444Q142 467 161 480T208 494Q233 494 247
483T262 453Q262 446 261 442L184 56Q180 33 160 20T113 6Q88 6 74 17Z" />
<glyph unicode="j" glyph-name="j" horiz-adv-x="362" d="M233 540T213 559T193 607Q193 642 222 669T291 696Q322 696 341 679T360 632Q360 593 331 567T264 540Q233 540 213 559ZM-60 -236T-100 -201T-140 -112Q-140 -70 -123 -50T-70 -30Q-41 -30 -32 -40T-22
-71Q-22 -110 -17 -125T9 -140Q43 -140 63 -101T102 25Q141 223 183 457Q187 476 205 487T251 499Q278 499 292 486T303 454Q258 207 221 25Q192 -115 141 -175T9 -236Q-60 -236 -100 -201Z" />
<glyph unicode="k" glyph-name="k" horiz-adv-x="536" d="M63 -7T48 5T36 37L152 698Q156 722 175 735T222 749Q246 749 260 738T275 708Q275 702 274 698L218 393L468 530Q487 540 503 540Q521 540 532 524T542 488Q542 471 534 462T504 441L220 285L449 88Q460
79 460 63Q460 38 439 20T393 1Q372 1 352 17Q323 41 240 118L180 175L156 38Q152 18 134 6T89 -7Q63 -7 48 5Z" />
<glyph unicode="l" glyph-name="l" horiz-adv-x="264" d="M66 9T52 22T39 54L154 739Q158 763 178 777T226 792Q250 792 265 779T278 746L161 61Q157 37 137 23T91 9Q66 9 52 22Z" />
<glyph unicode="m" glyph-name="m" horiz-adv-x="795" d="M673 506T711 464T749 348Q749 313 737 239T701 46Q697 24 680 12T637 0Q612 0 596 12T584 44Q607 155 619 229T631 348Q631 382 619 399T585 416Q549 416 523 375T483 260Q470 197 446 49Q438 2 381 2Q354
2 340 13T328 45Q334 91 365 258Q372 298 372 324Q372 364 360 387T321 411Q294 411 267 381T217 291Q206 260 201 236T188 172L183 144L174 90L166 42Q162 23 144 12T102 1Q79 1 64 12T51 41Q61 103 84 233Q111 387 111 393Q111 402 109 408T100 422Q98 424 95
427T91 435T90 444Q93 466 111 481T147 496Q159 496 167 489T185 468Q192 459 196 446T199 422V417Q247 503 335 503Q381 503 408 480T447 416Q499 506 601 506Q673 506 711 464Z" />
<glyph unicode="n" glyph-name="n" horiz-adv-x="567" d="M440 510T482 467T524 344Q524 317 514 252T489 106L478 45Q474 24 456 12T410 0Q382 0 367 12T355 45L377 174Q387 233 394 279T402 343Q402 380 389 397T347 414Q309 414 280 383T225 279Q209 231 200
178L196 153Q186 90 177 44Q173 23 155 11T110 -1Q81 -1 67 11T55 44L60 73Q94 273 108 379Q110 393 108 404T101 424T95 438Q90 446 90 456Q89 476 112 491T157 507Q178 507 194 482Q202 470 206 453T210 426L208 414Q260 510 371 510Q440 510 482 467Z" />
<glyph unicode="o" glyph-name="o" horiz-adv-x="602" d="M164 -2T97 51T29 214Q29 294 67 364T175 476T333 518Q444 518 510 457T577 283Q577 203 540 138T435 36T277 -2Q164 -2 97 51ZM360 93T407 147T454 283Q454 347 423 384T333 422Q280 422 239 392T175
314T152 214Q152 151 186 122T277 93Q360 93 407 147Z" />
<glyph unicode="p" glyph-name="p" horiz-adv-x="626" d="M433 513T483 486T562 408T591 293Q591 209 554 141T449 35T295 -4Q247 -4 205 8T147 31L106 -177Q102 -198 83 -211T36 -224Q12 -224 -2 -214T-17 -185Q-17 -180 -15 -172Q9 -71 38 83L51 148Q54 166
71 258T89 372Q89 397 77 416Q76 417 71 423T66 437Q66 458 93 479T144 500Q157 500 166 491Q184 473 195 439Q222 470 266 491T370 513Q433 513 483 486ZM349 92T388 119T447 192T468 293Q468 349 439 382T359 415Q319 415 285 398T229 358T204 316L184 208L170
135Q172 127 191 117T239 100T295 92Q349 92 388 119Z" />
<glyph unicode="q" glyph-name="q" horiz-adv-x="644" d="M609 492T624 479T639 448Q639 439 635 431T621 411L575 351Q546 217 514 43L471 -191Q467 -211 448 -224T401 -237Q374 -237 360 -225T349 -194Q370 -87 375 -52L392 36Q337 -5 264 -5Q201 -5 150 21T68
96T37 214Q37 293 75 361T181 471T330 512Q397 512 444 486T509 421Q515 431 538 460Q552 477 562 484T587 492Q609 492 624 479ZM450 320Q450 344 435 366T392 402T331 416Q282 416 243 387T183 311T161 214Q161 155 192 124T278 92Q323 92 362 110T416 148L449
311L450 320Z" />
<glyph unicode="r" glyph-name="r" horiz-adv-x="515" d="M423 517T460 483T497 384Q497 318 450 280T330 241Q302 241 292 248T282 273Q282 294 292 305T324 320Q357 325 376 339T396 384Q396 403 387 413T358 424Q327 424 296 392T241 317T208 238Q193 185 173
76Q164 26 149 9T100 -9Q71 -9 59 1T46 33Q46 42 54 94T73 197L76 217Q86 272 90 315T104 457L106 481Q107 503 125 516T172 530Q220 530 216 486Q211 437 206 404Q234 455 275 486T364 517Q423 517 460 483Z" />
<glyph unicode="s" glyph-name="s" horiz-adv-x="498" d="M174 -8T130 12T59 62T28 123Q27 134 28 141Q35 159 53 170T94 182Q106 182 112 177T129 155Q175 91 234 91Q266 91 287 106T308 148Q308 169 288 183T223 217Q179 235 151 252T102 297T81 367Q81 414
107 450T180 505T283 524Q337 524 378 506T441 455T463 384Q463 353 448 339T398 324Q353 324 355 361Q357 392 342 408T287 425Q246 425 226 409T205 367Q205 344 226 330T293 295Q336 277 364 261T413 216T433 147Q433 96 404 61T328 9T227 -8Q174 -8 130 12Z"
/>
<glyph unicode="t" glyph-name="t" horiz-adv-x="443" d="M390 187T390 152Q390 111 373 76T323 20T246 -1Q184 -1 144 40T104 158Q104 236 135 370L98 372Q57 374 57 408Q57 436 72 451T116 466Q129 466 159 464Q189 569 209 627Q216 647 233 658T276 670Q300
670 315 659T330 630Q330 624 327 616Q300 535 278 458Q296 457 333 457Q356 456 365 449T375 425Q375 395 360 381T312 367H254Q220 229 220 152Q220 95 249 95Q285 95 289 144Q295 187 344 187Q390 187 390 152Z" />
<glyph unicode="u" glyph-name="u" horiz-adv-x="564" d="M457 106Q456 91 460 79T466 65Q473 53 473 44Q473 30 454 14T417 -2Q394 -2 373 19T353 71V72Q299 -1 199 -1Q127 -1 90 41T53 159Q53 183 63 249T82 358T93 419L101 461Q105 480 124 492T168 505Q194
505 210 493T222 461L207 375Q176 210 176 173Q176 94 232 94Q281 94 312 139T360 281Q374 354 392 460Q396 484 415 497T461 510Q488 510 503 496T515 460L461 145L457 106Z" />
<glyph unicode="v" glyph-name="v" horiz-adv-x="538" d="M188 2T152 58T97 218Q88 266 83 320T78 413Q78 459 94 481T151 504Q184 504 193 491T203 445V407Q203 332 210 269Q217 215 227 173T245 131Q254 131 283 176T336 271Q371 346 386 383T412 461Q426 509
482 509Q506 509 519 498T533 465Q533 435 502 362T433 219Q373 108 327 55T235 2Q188 2 152 58Z" />
<glyph unicode="w" glyph-name="w" horiz-adv-x="772" d="M146 1T121 96T95 316Q95 411 103 457Q109 493 127 507T173 521Q229 521 226 475L222 428Q215 356 215 313Q215 253 221 197T237 140Q242 140 255 168T296 259L347 374Q361 405 378 420T419 435Q443 435
455 421T472 374L478 327Q488 238 497 190T517 141Q524 141 536 169T568 257Q594 334 606 375T631 473Q642 521 699 521Q750 521 750 478Q750 439 719 342T657 175Q581 1 500 1Q449 1 422 74T393 281Q350 144 306 73T210 1Q146 1 121 96Z" />
<glyph unicode="x" glyph-name="x" horiz-adv-x="520" d="M484 454T478 446L433 393Q428 388 327 270L443 72Q448 63 448 55Q448 31 425 12T377 -7Q356 -7 346 11L246 177L107 15Q98 4 85 -1T59 -7Q37 -7 23 7T8 41Q8 55 17 65L193 267L90 442Q88 446 88 450T88
458Q88 478 112 496T160 515Q181 515 189 501L274 359L397 500Q409 515 428 515Q450 515 467 499T484 464Q484 454 478 446Z" />
<glyph unicode="y" glyph-name="y" horiz-adv-x="535" d="M114 -262T99 -249T85 -215Q85 -200 93 -186Q118 -145 156 -73T207 21L228 61Q187 99 153 165T99 307T79 446Q79 456 80 463Q82 484 100 497T146 510Q170 510 178 501T187 472Q193 354 219 274T277 157Q314
235 390 409L419 476Q427 496 439 504T474 512Q503 512 518 500T532 466Q532 460 529 455Q442 252 357 80Q238 -160 198 -225Q187 -243 175 -252T140 -262Q114 -262 99 -249Z" />
<glyph unicode="z" glyph-name="z" horiz-adv-x="562" d="M379 -2Q313 4 260 4Q212 4 138 0Q98 -3 73 -3Q-1 -3 -1 37Q-1 52 7 63T28 87L134 181Q315 342 394 407Q383 407 372 406T349 404Q281 399 261 399Q230 399 197 402T145 409Q124 414 115 423T105 449Q105
473 120 492T161 509Q266 497 329 497Q371 497 437 503Q489 507 507 507Q543 507 556 499T569 474Q569 437 531 404L359 258Q261 175 174 98L210 99Q294 102 303 102Q333 102 371 100T436 93Q467 88 467 57Q467 31 450 12T403 -4L379 -2Z" />
<glyph unicode="{" glyph-name="braceleft" horiz-adv-x="424" d="M166 -187T125 -141T83 -20Q83 -2 86 23T95 73Q100 101 104 131T108 186Q108 229 91 238Q76 247 68 260T60 288Q60 310 75 328T113 355Q123 358 141 417T175 570Q185 629 216 676T294 749T392
776Q460 776 460 733Q460 696 436 682T384 667Q350 667 330 655T298 615T275 531Q256 419 235 369T174 298Q195 277 204 252T214 186Q214 153 201 71Q192 15 192 -6Q192 -44 208 -61T260 -79Q280 -79 292 -92T305 -123Q305 -146 284 -166T237 -187Q166 -187 125
-141Z" />
<glyph unicode="|" glyph-name="bar" horiz-adv-x="297" d="M65 -92T53 -83T43 -59Q55 4 111 305L130 407Q181 686 211 863Q214 875 229 883T264 892Q282 892 295 884T307 865L224 409Q173 128 137 -59Q134 -74 120 -83T85 -92Q65 -92 53 -83Z" />
<glyph unicode="}" glyph-name="braceright" horiz-adv-x="424" d="M14 -187T1 -176T-12 -147Q-12 -125 7 -106T52 -87Q143 -87 167 48Q181 127 196 174T230 248T280 298Q261 310 253 331T244 388Q244 420 257 511Q267 581 267 596Q267 638 250 656T193 675Q171
675 154 684T136 717Q136 754 158 765T221 776Q289 776 329 732T370 616Q370 584 359 516Q345 432 345 388Q345 358 352 355Q368 349 377 336T386 307Q386 288 372 269T333 238Q312 227 297 180T262 27Q252 -33 220 -82T139 -159T36 -187Q14 -187 1 -176Z" />
<glyph unicode="~" glyph-name="asciitilde" horiz-adv-x="553" d="M325 257T271 275Q240 285 226 288T193 292Q176 292 150 284Q146 283 129 277T98 271Q86 271 77 282T67 308Q67 323 81 339Q99 358 140 371T222 384Q261 384 319 361Q353 348 381 348Q401 348
426 359Q430 361 444 367T469 374Q486 374 498 361T511 330Q511 316 505 309T483 291Q462 276 431 267T373 257Q325 257 271 275Z" />
<glyph unicode="&#xa0;" glyph-name="uni00A0" horiz-adv-x="347" />
<glyph unicode="&#xa1;" glyph-name="exclamdown" horiz-adv-x="273" d="M128 355T109 373T90 419Q90 455 119 483T184 512Q212 512 231 492T251 444Q251 422 237 402T201 368T156 355Q128 355 109 373ZM43 -196T33 -187T23 -160Q23 -152 24 -148L102 266Q107
289 121 302T154 315Q171 315 180 303T190 273Q190 266 189 263L113 -146Q108 -169 94 -182T60 -196Q43 -196 33 -187Z" />
<glyph unicode="&#xa2;" glyph-name="cent" horiz-adv-x="595" d="M521 245T534 237T548 208Q548 150 513 104T418 30T288 0L276 -66Q275 -78 265 -85T242 -92Q210 -92 213 -67L226 4Q144 18 93 74T42 208Q42 289 77 357T176 466T319 513L331 582Q333 594 344
600T367 606Q379 606 387 600T394 582L381 511Q454 498 507 455T560 356Q560 331 542 319T495 306Q476 306 466 316T449 345Q446 361 433 378T396 407T345 419Q296 419 254 389T188 309T164 208Q164 156 194 126T284 95Q329 95 364 112T418 155T438 208Q438 222
455 233T496 245Q521 245 534 237Z" />
<glyph unicode="&#xa3;" glyph-name="sterling" horiz-adv-x="613" d="M469 700T521 656T573 541Q573 525 572 516Q569 465 517 465Q494 465 486 475T478 506V531Q478 570 451 591T387 613Q333 613 299 580T264 493Q264 462 269 435T286 367L292 343L404 342Q435
341 448 335T458 308Q454 288 439 281T392 274L304 275Q305 269 305 256Q305 219 293 187T259 119Q334 83 379 83Q402 83 419 93T459 127Q471 140 480 146T501 153Q515 153 528 142T541 116Q541 105 532 93Q504 53 460 27T362 0Q323 0 298 7T243 29Q224 38 213
42T187 46Q168 46 151 38T107 12Q86 -4 68 -4Q50 -4 38 10T25 38Q25 48 28 54T43 72Q58 88 93 105T167 131Q186 154 197 192T208 256Q208 269 207 275L144 276Q97 276 97 305Q97 329 112 337T157 345H196L181 393Q169 428 164 449T158 493Q158 554 189 601T272
674T385 700Q469 700 521 656Z" />
<glyph unicode="&#xa4;" glyph-name="currency" horiz-adv-x="844" d="M612 21T589 48L560 86Q477 42 394 42Q350 42 305 54T227 88L184 49Q152 21 133 21Q113 21 95 37T77 73Q77 81 81 88T93 105L153 161Q133 192 122 230T111 307Q111 370 139 432T217 545L185
585Q173 601 173 613Q173 636 195 655T245 675Q261 675 271 668T291 646L316 615Q358 638 398 649T483 660Q530 660 577 648T657 614L692 646Q709 661 720 668T746 676Q766 676 783 659T801 620Q801 610 796 601T775 579L731 539Q749 510 758 472T768 396Q768 266
658 159Q693 114 697 107Q706 97 706 85Q706 62 683 42T635 21Q612 21 589 48ZM467 140T522 177T610 273T643 396Q643 445 622 483T564 542T478 564Q416 564 361 529T272 437T238 315Q238 265 259 226T318 163T404 140Q467 140 522 177Z" />
<glyph unicode="&#xa5;" glyph-name="yen" horiz-adv-x="655" d="M514 406T482 379T425 339L530 340Q541 340 546 334T551 316Q551 299 542 287T519 274L395 272L387 218L511 220Q534 220 534 196Q534 178 525 167T501 155L376 153L361 62Q356 34 338 18T289 2Q264
2 250 14T236 46Q236 55 237 59L253 152L133 150Q111 150 111 175Q111 192 119 203T144 215L264 217L273 271L150 269Q139 269 134 275T128 293Q128 310 137 322T162 335L271 336Q253 349 229 381T190 448Q143 549 126 634Q125 638 125 646Q125 672 150 686T207
701Q228 701 240 690T259 655Q282 563 307 502Q341 423 360 423Q372 423 395 446T443 503Q469 537 496 578T528 628L548 659Q552 664 560 676T577 693T600 699Q629 699 650 682T671 643Q671 631 663 618Q646 584 609 531T542 440Q514 406 482 379Z" />
<glyph unicode="&#xa6;" glyph-name="brokenbar" horiz-adv-x="303" d="M165 428T154 437T145 462L209 858Q211 873 226 882T263 892Q284 892 294 883T303 858L239 462Q237 446 223 437T186 428Q165 428 154 437ZM60 -127T49 -118T41 -92L116 305Q120 323 134
332T170 342Q193 342 203 333T210 305L136 -92Q129 -127 82 -127Q60 -127 49 -118Z" />
<glyph unicode="&#xa7;" glyph-name="section" horiz-adv-x="671" d="M478 760T525 742T600 691T629 615Q629 601 626 584Q618 538 569 538Q548 538 535 546T524 570Q527 585 527 597Q527 641 499 660T426 679Q364 679 322 646T279 562Q279 526 309 502T407 458Q497
433 542 388T587 288Q587 241 559 201T485 135Q513 95 513 43Q513 -55 447 -109T274 -163Q213 -163 163 -140T84 -76T55 17Q55 29 59 57Q62 75 78 85T118 96Q138 96 149 88T161 63Q161 55 160 48T159 32Q159 -17 189 -49T274 -82Q335 -82 375 -47T416 45Q416 72
402 89T362 119T284 148Q104 210 104 323Q104 371 131 414T203 489Q183 524 183 564Q183 619 214 664T300 734T426 760Q478 760 525 742ZM296 400T255 432Q232 412 217 382T202 324Q202 289 230 267T327 225Q386 209 427 184Q454 201 472 230T491 286Q491 318 459
339T356 382Q296 400 255 432Z" />
<glyph unicode="&#xa8;" glyph-name="dieresis" horiz-adv-x="376" d="M94 565T77 582T59 624Q59 657 84 681T143 706Q168 706 186 689T204 648Q204 616 178 591T119 565Q94 565 77 582ZM358 565T341 582T323 624Q323 657 348 681T407 706Q433 706 450 690T467
648Q467 616 441 591T383 565Q358 565 341 582Z" />
<glyph unicode="&#xa9;" glyph-name="copyright" horiz-adv-x="905" d="M625 702T695 664T803 561T841 415Q841 303 788 208T642 56T436 0Q342 0 267 41T149 153T106 305Q106 417 163 508T319 650T535 702Q625 702 695 664ZM530 77T602 121T715 243T755 416Q755
514 700 571T532 628Q441 628 363 584T238 466T191 306Q191 240 221 188T306 107T436 77Q530 77 602 121ZM645 556T655 549T663 528Q653 469 641 449T604 428Q587 428 579 440Q561 468 547 479T509 491Q471 491 438 463T385 389T365 299Q365 213 462 213Q504 213
531 234T564 292Q566 305 579 313T611 322Q629 322 638 314T645 292Q633 227 583 187T455 147Q375 147 324 186T273 297Q273 362 305 422T391 519T504 557Q558 557 595 523V526Q602 556 627 556Q645 556 655 549Z" />
<glyph unicode="&#xaa;" glyph-name="ordfeminine" horiz-adv-x="358" d="M361 668T354 630Q338 552 338 532Q338 526 340 524T350 519Q352 518 355 516T359 512T361 504Q361 470 329 470Q299 470 286 489L282 497Q268 481 252 474T212 467Q162 467 135 494T108
568Q108 610 127 646T180 705T251 727Q293 727 312 703L314 710Q316 716 323 720T343 725Q371 725 371 705Q371 700 370 697Q361 668 354 630ZM240 524T256 536T277 568Q279 577 282 591T286 617Q287 622 287 632Q287 671 250 671Q214 671 196 638T178 569Q178
524 217 524Q240 524 256 536Z" />
<glyph unicode="&#xab;" glyph-name="guillemotleft" horiz-adv-x="597" d="M241 191T195 218T116 285T82 357Q82 392 131 437T244 514T347 547Q363 547 373 538T384 515Q384 496 371 484T332 461Q305 452 266 431T196 388T166 360Q166 354 188 336T238 300T288
276Q304 272 312 261T321 236Q321 216 307 204T273 191Q241 191 195 218ZM446 185T400 213T321 281T287 353Q287 386 336 431T451 509T552 542Q566 542 574 533T583 510Q583 468 540 456Q508 448 469 427T402 385T374 355Q374 348 395 331T445 296T496 271Q527
258 527 233Q527 213 512 199T478 185Q446 185 400 213Z" />
<glyph unicode="&#xac;" glyph-name="logicalnot" horiz-adv-x="778" d="M613 172T613 206Q613 218 614 224Q619 253 629 301Q640 358 644 383L424 384L148 383Q94 383 94 422Q94 451 111 468T162 485L448 486H696Q724 486 738 473T750 437L713 223Q708 199 693
186T651 172Q613 172 613 206Z" />
<glyph unicode="&#xad;" glyph-name="uni00AD" horiz-adv-x="381" d="M66 224T56 235T46 265Q46 293 62 309T99 326Q171 329 304 329Q326 329 337 319T349 289Q349 264 330 247T284 229Q259 229 185 227Q130 224 83 224Q66 224 56 235Z" />
<glyph unicode="&#xae;" glyph-name="registered" horiz-adv-x="905" d="M632 710T700 672T805 566T841 417Q841 304 785 209T634 57T425 0Q330 0 258 39T146 145T106 295Q106 406 166 501T326 653T539 710Q632 710 700 672ZM524 73T599 119T718 242T762 407Q762
472 735 524T656 606T529 637Q439 637 362 592T238 470T192 307Q192 241 221 188T306 104T434 73Q524 73 599 119ZM589 553T626 525T663 446Q663 397 637 365T569 318T483 302H464L595 205Q603 200 603 188Q603 173 587 158T555 142Q542 142 532 150L407 262Q405
254 403 240Q396 209 390 172Q388 159 376 150T345 140Q325 140 317 149T311 175Q314 197 318 211Q319 218 321 228T325 253Q339 327 343 350L357 448Q349 452 346 461T343 482Q343 492 348 498T366 511L367 521Q370 538 386 546T420 554Q442 554 450 541Q493 553
531 553Q589 553 626 525ZM534 365T559 383T585 436Q585 460 565 473T512 486Q482 486 444 475L438 441Q435 426 427 373Q434 369 454 367T492 365Q534 365 559 383Z" />
<glyph unicode="&#xaf;" glyph-name="overscore" horiz-adv-x="415" d="M200 596T189 595T167 594Q143 594 115 604Q90 615 90 640Q90 664 107 680T146 695Q153 694 174 691T220 688Q240 688 286 692Q336 696 365 696Q387 696 429 692Q444 690 455 679T466 652Q466
637 456 624T432 604T407 600Q386 604 355 604Q326 604 282 600Q240 596 215 596Q200 596 189 595Z" />
<glyph unicode="&#xb0;" glyph-name="degree" horiz-adv-x="399" d="M192 560T156 591T120 675Q120 724 146 765T215 831T309 855Q370 855 407 821T444 735Q444 689 418 649T347 584T254 560Q192 560 156 591ZM306 633T333 658T361 723Q361 748 345 764T293 781Q255
781 229 753T202 687Q202 661 219 647T266 633Q306 633 333 658Z" />
<glyph unicode="&#xb1;" glyph-name="plusminus" horiz-adv-x="553" d="M507 416T507 380Q507 354 490 339T442 324Q382 324 341 325L326 238Q322 215 307 202T267 188Q246 188 237 196T227 222Q227 230 228 234Q230 248 232 256L243 325Q198 326 131 326Q110
326 100 335T89 361Q89 388 104 404T150 420L259 419L274 507Q278 528 292 540T332 553Q355 553 364 541T372 508Q371 497 369 483T363 450L357 417Q397 416 457 416Q507 416 507 380ZM428 136T442 126T456 97Q456 71 437 57T382 42L99 39Q75 39 63 48T51 74Q51
103 68 118T119 133L402 136Q428 136 442 126Z" />
<glyph unicode="&#xb2;" glyph-name="uni00B2" horiz-adv-x="399" d="M376 452T387 442T399 416Q399 395 384 381T344 366L304 367Q269 370 220 370Q195 370 153 368L103 367Q83 367 71 376T59 401Q65 447 120 503T253 608Q295 633 316 663T337 725Q337 747 324
759T289 772Q267 772 247 753T221 705Q217 685 203 676T161 667Q118 667 118 702Q118 743 143 778T209 835T295 857Q337 857 372 840T427 794T448 729Q448 672 411 626T302 537Q228 491 197 454H234L354 452Q376 452 387 442Z" />
<glyph unicode="&#xb3;" glyph-name="uni00B3" horiz-adv-x="441" d="M460 579T460 522Q460 476 434 440T364 384T264 364Q179 364 131 397T82 491Q82 507 85 525Q94 574 144 574Q170 574 178 564T186 531V507Q186 480 203 465T265 449Q298 449 327 464T356 518Q356
561 291 562Q255 562 255 591Q255 645 304 645Q341 646 362 669T384 727Q384 749 370 760T334 772Q300 772 279 751T259 697Q259 683 244 672T199 660Q152 660 152 703Q152 744 179 779T249 836T338 857Q379 857 414 840T469 795T490 734Q490 692 468 657T408 603Q460
579 460 522Z" />
<glyph unicode="&#xb4;" glyph-name="acute" horiz-adv-x="376" d="M178 561T169 571T159 597Q159 621 179 641L285 747Q301 763 314 769T342 776Q360 776 370 765T381 737Q381 710 348 678L243 584Q228 571 218 566T194 561Q178 561 169 571Z" />
<glyph unicode="&#xb6;" glyph-name="paragraph" horiz-adv-x="631" d="M263 -30T263 -5L310 273Q219 276 162 327T105 461Q105 548 154 613T286 712T468 747Q538 747 555 745Q612 740 605 703L484 13Q480 -11 471 -20T438 -30Q399 -30 401 -6L514 654Q515 657
515 661Q515 667 511 668T492 670Q473 670 467 668T458 654L344 2Q342 -13 330 -21T297 -30Q263 -30 263 -5Z" />
<glyph unicode="&#xb7;" glyph-name="middot" horiz-adv-x="436" d="M188 258T167 278T145 333Q145 381 175 410T254 439Q288 439 309 419T330 364Q330 317 301 288T223 258Q188 258 167 278Z" />
<glyph unicode="&#xb8;" glyph-name="cedilla" horiz-adv-x="376" d="M51 -227T30 -223T-6 -212Q-31 -202 -31 -184Q-31 -167 -20 -155T10 -143Q15 -143 37 -149Q40 -150 55 -154T83 -158Q135 -158 135 -132Q135 -121 122 -115T80 -104Q47 -98 47 -72Q47 -66 53
-52L129 41Q138 53 145 59T162 65Q180 65 193 57T206 34Q206 27 204 22T194 8L140 -56Q168 -63 189 -80T211 -127Q211 -173 171 -200T71 -227Q51 -227 30 -223Z" />
<glyph unicode="&#xb9;" glyph-name="uni00B9" horiz-adv-x="314" d="M304 851T319 837T331 801L263 412Q260 393 243 382T200 370Q180 370 170 379T159 403Q159 409 160 412L216 726Q188 694 170 677Q154 661 133 661Q118 661 107 672T98 701Q100 715 126 743L215
834Q223 842 241 846T278 851Q304 851 319 837Z" />
<glyph unicode="&#xba;" glyph-name="ordmasculine" horiz-adv-x="363" d="M182 467T146 494T110 580Q110 640 150 680T256 721Q310 721 345 688T380 606Q380 540 341 504T232 467Q182 467 146 494ZM267 521T289 543T311 606Q311 633 297 650T256 667Q220 667
198 641T176 580Q176 554 192 538T232 521Q267 521 289 543Z" />
<glyph unicode="&#xbb;" glyph-name="guillemotright" horiz-adv-x="598" d="M76 190T67 199T58 222Q58 263 102 276Q134 284 174 305T243 348T272 378Q272 385 251 402T201 437T147 462Q132 466 124 476T115 498Q115 518 130 532T164 547Q195 547 241 519T322
451T356 380Q356 348 306 303T192 224T91 190Q76 190 67 199ZM280 185T270 194T260 218Q260 238 274 252T311 271Q337 276 376 298T445 344T476 375Q476 381 455 398T405 433T355 456Q339 461 331 471T322 496Q322 515 336 528T369 541Q402 541 448 514T527 447T561
375Q561 342 520 302T417 229T296 185Q280 185 270 194Z" />
<glyph unicode="&#xbc;" glyph-name="onequarter" horiz-adv-x="893" d="M168 606T156 594Q137 577 118 577Q105 577 94 587T83 612Q83 622 91 635T111 659Q124 674 136 684Q202 753 200 751Q208 759 226 763T264 767Q289 767 304 753T316 718L248 329Q245 310
228 298T185 286Q165 286 155 295T144 319Q144 326 145 329L201 643Q168 606 156 594ZM737 706T723 686L214 20Q205 9 192 3T164 -3Q144 -3 131 7T120 37Q123 52 138 71L647 739Q668 766 701 766Q719 766 730 757T742 732Q742 727 741 724Q737 706 723 686ZM833
208T842 200T851 175Q851 150 839 137T803 119L779 116L762 37Q759 20 741 8T699 -5Q679 -5 668 5T657 31Q657 38 658 41L673 111H602Q564 111 528 115T473 124Q438 133 438 158Q438 172 451 191Q531 306 581 372T680 481Q687 487 693 489T710 492Q727 492 740
481T754 456Q754 445 748 434T726 407Q684 367 639 307T575 212Q571 206 571 204Q571 200 584 197Q597 195 623 195H663Q682 195 692 196L719 318Q723 336 737 348T777 361Q799 361 811 351T823 325Q823 318 822 315L798 204L818 206Q833 208 842 200Z" />
<glyph unicode="&#xbd;" glyph-name="onehalf" horiz-adv-x="914" d="M736 704T723 686L213 20Q205 9 192 3T163 -3Q143 -3 130 7T120 37Q122 51 137 71L646 739Q656 752 671 759T701 766Q718 766 729 758T741 734Q741 727 740 724Q736 704 723 686ZM169 605T155
592Q138 575 118 575Q103 575 92 587T83 615Q86 632 111 657Q124 672 136 682Q202 751 200 749Q208 757 226 761T263 765Q289 765 304 751T316 716L248 327Q245 308 227 296T185 284Q165 284 155 293T144 318Q144 324 145 327L201 641Q169 605 155 592ZM827 85T838
75T849 49Q849 28 834 14T794 -1L755 0Q720 3 670 3Q645 3 603 1L553 0Q533 0 521 9T509 34Q515 80 570 136T703 241Q745 266 766 296T787 358Q787 380 774 392T739 405Q717 405 697 386T672 338Q668 318 653 309T611 300Q568 300 568 335Q568 376 593 411T659
468T745 490Q787 490 822 473T877 427T898 362Q898 305 861 259T752 170Q678 124 647 87H685L805 85Q827 85 838 75Z" />
<glyph unicode="&#xbe;" glyph-name="threequarters" horiz-adv-x="1007" d="M864 701T852 686L343 20Q334 9 321 3T293 -3Q273 -3 260 7T249 37Q253 54 267 71L776 739Q797 766 830 766Q849 766 861 755T870 724Q864 701 852 686ZM444 384T418 348T348 292T248
272Q163 272 115 305T66 399Q66 415 69 433Q78 482 128 482Q154 482 162 472T170 439V415Q170 388 187 373T249 357Q282 357 311 372T340 426Q340 469 275 470Q239 470 239 499Q239 553 288 553Q325 554 346 577T368 635Q368 657 354 668T318 680Q284 680 263 659T243
605Q243 591 228 580T183 568Q136 568 136 611Q136 652 163 687T233 744T322 765Q363 765 398 748T453 703T474 642Q474 600 452 565T392 511Q444 487 444 430Q444 384 418 348ZM946 203T955 195T964 170Q964 145 952 132T916 114L892 111L875 32Q872 15 854 3T812
-10Q792 -10 781 0T770 26Q770 33 771 36L786 106H715Q677 106 641 110T586 119Q551 128 551 153Q551 167 564 186Q644 301 694 367T793 476Q800 482 806 484T823 487Q840 487 853 476T867 451Q867 440 861 429T839 402Q797 362 752 302T688 207Q684 201 684 199Q684
195 697 192Q710 190 736 190H776Q795 190 805 191L832 313Q836 331 850 343T890 356Q912 356 924 346T936 320Q936 313 935 310L911 199L931 201Q946 203 955 195Z" />
<glyph unicode="&#xbf;" glyph-name="questiondown" horiz-adv-x="542" d="M282 451T266 467T250 506Q250 537 274 560T328 584Q353 584 369 569T386 529Q386 499 361 475T305 451Q282 451 266 467ZM164 -125T121 -103T54 -43T29 44Q29 92 48 131T95 199T166 266Q208
303 228 326T248 374Q248 395 263 407T299 419Q316 419 326 409T336 382Q336 340 309 304T224 213Q172 165 145 130T118 57Q118 13 144 -12T219 -38Q287 -38 326 -8T366 78Q366 98 355 111T326 125Q307 125 297 134T286 160Q286 184 302 198T341 212Q373 212 399
193T439 143T454 78Q454 16 424 -30T341 -100T219 -125Q164 -125 121 -103Z" />
<glyph unicode="&#xc0;" glyph-name="Agrave" horiz-adv-x="695" d="M630 199T619 180T587 160H581Q591 81 594 57Q595 53 595 48Q595 22 575 6T526 -11Q504 -11 487 -2T468 25L454 161L226 164L212 135Q196 100 161 28Q142 -10 97 -10Q68 -10 47 4T30 41Q32 53
35 58Q219 418 306 591Q341 660 365 686T429 712Q469 712 492 687T524 600Q534 531 544 449T559 331L566 273H579Q630 273 630 229Q630 199 619 180ZM443 274L424 461Q420 504 417 520T408 537Q404 537 399 528T383 495L369 466L279 276L443 274ZM465 752T456 757T438
774L374 860Q361 878 361 897Q361 918 377 933T414 949Q438 949 458 920L516 835Q527 817 527 802Q527 782 512 767T477 752Q465 752 456 757Z" />
<glyph unicode="&#xc1;" glyph-name="Aacute" horiz-adv-x="695" d="M630 199T619 180T587 160H581Q591 81 594 57Q595 53 595 48Q595 22 575 6T526 -11Q504 -11 487 -2T468 25L454 161L226 164L212 135Q196 100 161 28Q142 -10 97 -10Q68 -10 47 4T30 41Q32 53
35 58Q219 418 306 591Q341 660 365 686T429 712Q469 712 492 687T524 600Q534 531 544 449T559 331L566 273H579Q630 273 630 229Q630 199 619 180ZM443 274L424 461Q420 504 417 520T408 537Q404 537 399 528T383 495L369 466L279 276L443 274ZM382 758T371 770T360
799Q360 822 387 843L486 922Q508 939 519 946T543 953Q560 953 571 940T582 910Q582 882 551 859L444 779Q428 767 419 763T398 758Q382 758 371 770Z" />
<glyph unicode="&#xc2;" glyph-name="Acircumflex" horiz-adv-x="695" d="M630 199T619 180T587 160H581Q591 81 594 57Q595 53 595 48Q595 22 575 6T526 -11Q504 -11 487 -2T468 25L454 161L226 164L212 135Q196 100 161 28Q142 -10 97 -10Q68 -10 47 4T30 41Q32
53 35 58Q219 418 306 591Q341 660 365 686T429 712Q469 712 492 687T524 600Q534 531 544 449T559 331L566 273H579Q630 273 630 229Q630 199 619 180ZM443 274L424 461Q420 504 417 520T408 537Q404 537 399 528T383 495L369 466L279 276L443 274ZM533 754T523
773L495 818Q483 838 474 852T460 867Q456 867 445 858T422 837T401 818L365 784Q349 771 339 765T318 759Q302 759 291 770T279 797Q279 806 284 817T299 837Q317 853 330 866Q381 912 414 937T472 963Q500 963 517 946T562 888Q583 854 602 830Q610 818 610 807Q610
786 595 770T558 754Q533 754 523 773Z" />
<glyph unicode="&#xc3;" glyph-name="Atilde" horiz-adv-x="695" d="M630 199T619 180T587 160H581Q591 81 594 57Q595 53 595 48Q595 22 575 6T526 -11Q504 -11 487 -2T468 25L454 161L226 164L212 135Q196 100 161 28Q142 -10 97 -10Q68 -10 47 4T30 41Q32 53
35 58Q219 418 306 591Q341 660 365 686T429 712Q469 712 492 687T524 600Q534 531 544 449T559 331L566 273H579Q630 273 630 229Q630 199 619 180ZM443 274L424 461Q420 504 417 520T408 537Q404 537 399 528T383 495L369 466L279 276L443 274ZM290 769T280 780T270
806Q270 827 288 845Q320 877 345 890T399 904Q422 904 446 898T490 880Q506 870 516 865T533 860Q542 860 553 871Q565 882 574 887T593 892Q609 892 620 880T632 851Q632 830 612 812Q562 769 516 769Q497 769 481 775T453 788T436 797Q403 816 390 816Q384 816
376 810T361 798T351 789Q328 769 307 769Q290 769 280 780Z" />
<glyph unicode="&#xc4;" glyph-name="Adieresis" horiz-adv-x="695" d="M630 199T619 180T587 160H581Q591 81 594 57Q595 53 595 48Q595 22 575 6T526 -11Q504 -11 487 -2T468 25L454 161L226 164L212 135Q196 100 161 28Q142 -10 97 -10Q68 -10 47 4T30 41Q32
53 35 58Q219 418 306 591Q341 660 365 686T429 712Q469 712 492 687T524 600Q534 531 544 449T559 331L566 273H579Q630 273 630 229Q630 199 619 180ZM443 274L424 461Q420 504 417 520T408 537Q404 537 399 528T383 495L369 466L279 276L443 274ZM283 765T267
782T250 824Q250 856 275 880T332 904Q357 904 375 887T393 846Q393 815 367 790T308 765Q283 765 267 782ZM547 765T531 782T514 824Q514 856 539 880T596 904Q621 904 638 888T656 847Q656 816 630 791T572 765Q547 765 531 782Z" />
<glyph unicode="&#xc5;" glyph-name="Aring" horiz-adv-x="695" d="M630 199T619 180T587 160H581Q591 81 594 57Q595 53 595 48Q595 22 575 6T526 -11Q504 -11 487 -2T468 25L454 161L226 164L212 135Q196 100 161 28Q142 -10 97 -10Q68 -10 47 4T30 41Q32 53
35 58Q219 418 306 591Q341 660 365 686T429 712Q469 712 492 687T524 600Q534 531 544 449T559 331L566 273H579Q630 273 630 229Q630 199 619 180ZM443 274L424 461Q420 504 417 520T408 537Q404 537 399 528T383 495L369 466L279 276L443 274ZM395 737T364 768T332
845Q332 882 352 914T406 965T479 984Q524 984 554 953T584 878Q584 840 565 808T513 756T441 737Q395 737 364 768ZM473 812T490 827T509 866Q511 883 500 896T467 910Q443 910 426 893T408 854Q408 835 419 824T450 812Q473 812 490 827Z" />
<glyph unicode="&#xc6;" glyph-name="AE" horiz-adv-x="890" d="M912 685T918 679T924 658Q924 649 923 643Q916 608 903 598T870 588Q822 592 753 592Q682 592 642 589Q634 520 612 404Q658 402 678 402Q769 400 785 399Q801 396 801 375Q801 365 800 360Q796
338 784 328T745 317L699 318L651 320H597Q586 266 574 217T546 107Q596 101 669 101Q704 101 718 102T776 109Q789 111 802 102T815 70Q815 62 814 58Q809 32 794 18T763 0Q749 -4 726 -5T675 -6Q608 -6 571 -5L414 -4Q359 -4 359 35Q359 42 360 46Q370 99 416
99Q426 131 440 189L263 190Q183 71 154 26Q144 14 135 7T109 0Q83 0 57 15T31 47Q31 53 34 57Q183 292 319 482T523 689Q527 691 531 691Q565 691 597 692T652 694L727 696Q772 696 898 687Q912 685 918 679ZM459 275Q486 402 504 512Q506 522 506 525Q442 451
322 277L459 275Z" />
<glyph unicode="&#xc7;" glyph-name="Ccedilla" horiz-adv-x="733" d="M716 709T729 698T743 666Q743 660 742 656L720 542Q709 481 650 481Q616 481 605 501Q586 535 572 554T532 588T468 603Q397 603 332 556T226 436T185 288Q185 231 210 190T277 128T373 107Q442
107 500 143T578 251Q584 276 599 292T648 309Q710 309 704 248Q696 191 655 133T542 35T373 -4H371L326 -56Q355 -63 376 -80T398 -127Q398 -173 358 -200T257 -227Q237 -227 216 -223T180 -212Q155 -202 155 -184Q155 -167 167 -155T197 -143Q201 -143 223 -149Q255
-158 269 -158Q321 -158 321 -132Q321 -121 309 -115T266 -104Q234 -98 234 -72Q234 -64 239 -52L286 6Q184 30 123 104T61 290Q61 397 117 495T267 653T468 714Q576 714 625 651L628 669Q632 687 648 698T690 709Q716 709 729 698Z" />
<glyph unicode="&#xc8;" glyph-name="Egrave" horiz-adv-x="618" d="M626 689T638 680T650 652Q650 623 633 603T591 584Q499 592 423 592Q354 592 306 589L292 500L280 422H310Q459 420 494 418Q508 416 517 409T526 382Q526 355 512 333T475 310Q437 310 421
311Q407 311 380 311T297 312H261Q250 256 240 215T213 122Q272 118 328 118Q386 118 420 120T492 127L503 128Q522 128 533 118T544 86Q544 58 530 41T488 19Q440 10 292 10Q234 10 184 12T64 24Q33 28 33 60Q33 88 45 108T79 129H92Q118 210 137 314H128Q112
314 103 323T93 352Q93 383 107 403T144 424H156L185 584H181Q168 584 163 595T157 621Q157 688 228 695Q280 700 403 700Q539 700 605 692Q626 689 638 680ZM449 752T440 757T422 774L358 860Q345 878 345 897Q345 918 361 933T398 949Q422 949 442 920L500 835Q511
817 511 802Q511 782 496 767T461 752Q449 752 440 757Z" />
<glyph unicode="&#xc9;" glyph-name="Eacute" horiz-adv-x="618" d="M626 689T638 680T650 652Q650 623 633 603T591 584Q499 592 423 592Q354 592 306 589L292 500L280 422H310Q459 420 494 418Q508 416 517 409T526 382Q526 355 512 333T475 310Q437 310 421
311Q407 311 380 311T297 312H261Q250 256 240 215T213 122Q272 118 328 118Q386 118 420 120T492 127L503 128Q522 128 533 118T544 86Q544 58 530 41T488 19Q440 10 292 10Q234 10 184 12T64 24Q33 28 33 60Q33 88 45 108T79 129H92Q118 210 137 314H128Q112
314 103 323T93 352Q93 383 107 403T144 424H156L185 584H181Q168 584 163 595T157 621Q157 688 228 695Q280 700 403 700Q539 700 605 692Q626 689 638 680ZM366 758T355 770T344 799Q344 822 371 843L470 922Q492 939 503 946T527 953Q544 953 555 940T566 910Q566
882 535 859L428 779Q412 767 403 763T382 758Q366 758 355 770Z" />
<glyph unicode="&#xca;" glyph-name="Ecircumflex" horiz-adv-x="618" d="M626 689T638 680T650 652Q650 623 633 603T591 584Q499 592 423 592Q354 592 306 589L292 500L280 422H310Q459 420 494 418Q508 416 517 409T526 382Q526 355 512 333T475 310Q437 310
421 311Q407 311 380 311T297 312H261Q250 256 240 215T213 122Q272 118 328 118Q386 118 420 120T492 127L503 128Q522 128 533 118T544 86Q544 58 530 41T488 19Q440 10 292 10Q234 10 184 12T64 24Q33 28 33 60Q33 88 45 108T79 129H92Q118 210 137 314H128Q112
314 103 323T93 352Q93 383 107 403T144 424H156L185 584H181Q168 584 163 595T157 621Q157 688 228 695Q280 700 403 700Q539 700 605 692Q626 689 638 680ZM517 754T507 773L479 818Q467 838 458 852T444 867Q440 867 429 858T406 837T385 818L349 784Q333 771
323 765T302 759Q286 759 275 770T263 797Q263 806 268 817T283 837Q301 853 314 866Q365 912 398 937T456 963Q484 963 501 946T546 888Q567 854 586 830Q594 818 594 807Q594 786 579 770T542 754Q517 754 507 773Z" />
<glyph unicode="&#xcb;" glyph-name="Edieresis" horiz-adv-x="618" d="M626 689T638 680T650 652Q650 623 633 603T591 584Q499 592 423 592Q354 592 306 589L292 500L280 422H310Q459 420 494 418Q508 416 517 409T526 382Q526 355 512 333T475 310Q437 310
421 311Q407 311 380 311T297 312H261Q250 256 240 215T213 122Q272 118 328 118Q386 118 420 120T492 127L503 128Q522 128 533 118T544 86Q544 58 530 41T488 19Q440 10 292 10Q234 10 184 12T64 24Q33 28 33 60Q33 88 45 108T79 129H92Q118 210 137 314H128Q112
314 103 323T93 352Q93 383 107 403T144 424H156L185 584H181Q168 584 163 595T157 621Q157 688 228 695Q280 700 403 700Q539 700 605 692Q626 689 638 680ZM267 765T251 782T234 824Q234 856 259 880T316 904Q341 904 359 887T377 846Q377 815 351 790T292 765Q267
765 251 782ZM531 765T515 782T498 824Q498 856 523 880T580 904Q605 904 622 888T640 847Q640 816 614 791T556 765Q531 765 515 782Z" />
<glyph unicode="&#xcc;" glyph-name="Igrave" horiz-adv-x="486" d="M522 701T522 663Q522 633 506 614T458 596Q428 598 388 598Q338 327 285 115L372 114Q419 113 419 74Q419 42 401 23T352 3L52 7Q10 8 10 48Q10 77 27 97T72 118L166 117Q224 368 266 598L188
593Q161 590 146 590Q128 590 118 601T107 631Q107 661 123 679T168 701Q187 704 238 707T348 710Q424 710 482 704Q522 701 522 663ZM369 752T360 757T342 774L278 860Q265 878 265 897Q265 918 281 933T318 949Q342 949 362 920L420 835Q431 817 431 802Q431
782 416 767T381 752Q369 752 360 757Z" />
<glyph unicode="&#xcd;" glyph-name="Iacute" horiz-adv-x="486" d="M522 701T522 663Q522 633 506 614T458 596Q428 598 388 598Q338 327 285 115L372 114Q419 113 419 74Q419 42 401 23T352 3L52 7Q10 8 10 48Q10 77 27 97T72 118L166 117Q224 368 266 598L188
593Q161 590 146 590Q128 590 118 601T107 631Q107 661 123 679T168 701Q187 704 238 707T348 710Q424 710 482 704Q522 701 522 663ZM286 758T275 770T264 799Q264 822 291 843L390 922Q412 939 423 946T447 953Q464 953 475 940T486 910Q486 882 455 859L348
779Q332 767 323 763T302 758Q286 758 275 770Z" />
<glyph unicode="&#xce;" glyph-name="Icircumflex" horiz-adv-x="486" d="M522 701T522 663Q522 633 506 614T458 596Q428 598 388 598Q338 327 285 115L372 114Q419 113 419 74Q419 42 401 23T352 3L52 7Q10 8 10 48Q10 77 27 97T72 118L166 117Q224 368 266
598L188 593Q161 590 146 590Q128 590 118 601T107 631Q107 661 123 679T168 701Q187 704 238 707T348 710Q424 710 482 704Q522 701 522 663ZM437 754T427 773L399 818Q387 838 378 852T364 867Q360 867 349 858T326 837T305 818L269 784Q253 771 243 765T222
759Q206 759 195 770T183 797Q183 806 188 817T203 837Q221 853 234 866Q285 912 318 937T376 963Q404 963 421 946T466 888Q487 854 506 830Q514 818 514 807Q514 786 499 770T462 754Q437 754 427 773Z" />
<glyph unicode="&#xcf;" glyph-name="Idieresis" horiz-adv-x="486" d="M522 701T522 663Q522 633 506 614T458 596Q428 598 388 598Q338 327 285 115L372 114Q419 113 419 74Q419 42 401 23T352 3L52 7Q10 8 10 48Q10 77 27 97T72 118L166 117Q224 368 266 598L188
593Q161 590 146 590Q128 590 118 601T107 631Q107 661 123 679T168 701Q187 704 238 707T348 710Q424 710 482 704Q522 701 522 663ZM187 765T171 782T154 824Q154 856 179 880T236 904Q261 904 279 887T297 846Q297 815 271 790T212 765Q187 765 171 782ZM451
765T435 782T418 824Q418 856 443 880T500 904Q525 904 542 888T560 847Q560 816 534 791T476 765Q451 765 435 782Z" />
<glyph unicode="&#xd0;" glyph-name="Eth" horiz-adv-x="722" d="M496 689T594 612T692 397Q692 281 623 192T436 55T178 6H111Q79 6 65 15T50 49Q50 79 69 95T119 114L147 303L116 304Q83 305 65 318T47 355Q47 387 72 407T140 427L165 426L191 598Q172 603 163
614T154 643Q154 669 171 682T220 699Q237 716 274 716Q311 716 327 700Q496 689 594 612ZM344 127T411 165T517 263T555 399Q555 493 491 535T328 587L303 423L359 421Q391 420 407 406T424 368Q424 338 400 319T337 299L285 300L258 117Q344 127 411 165Z" />
<glyph unicode="&#xd1;" glyph-name="Ntilde" horiz-adv-x="752" d="M752 714T752 668Q752 663 750 649Q729 524 692 328Q669 204 650 138T605 41T541 11Q506 11 479 37T423 117T341 288L262 463L243 507Q243 507 228 414L213 324Q189 181 166 61Q162 39 142 24T96
9Q70 9 55 25T43 61Q57 147 69 210Q89 321 92 336Q90 325 106 421Q130 557 130 560Q140 617 151 648T179 693T225 707Q260 707 286 683T341 603T423 423Q498 250 539 171L573 350L629 661Q633 685 651 699T701 714Q752 714 752 668ZM326 769T316 780T306 806Q306
827 324 845Q356 877 381 890T435 904Q458 904 482 898T526 880Q542 870 552 865T569 860Q578 860 589 871Q601 882 610 887T629 892Q645 892 656 880T668 851Q668 830 648 812Q598 769 552 769Q533 769 517 775T489 788T472 797Q439 816 426 816Q420 816 412 810T397
798T387 789Q364 769 343 769Q326 769 316 780Z" />
<glyph unicode="&#xd2;" glyph-name="Ograve" horiz-adv-x="805" d="M283 7T213 42T103 145T63 302Q63 411 113 504T254 653T455 708Q549 708 622 669T737 558T778 393Q778 283 725 195T580 57T374 7Q283 7 213 42ZM460 117T523 154T621 256T656 398Q656 489 604
543T462 598Q383 598 321 556T223 445T188 299Q188 207 241 162T379 117Q460 117 523 154ZM516 752T507 757T489 774L425 860Q412 878 412 897Q412 918 428 933T465 949Q489 949 509 920L567 835Q578 817 578 802Q578 782 563 767T528 752Q516 752 507 757Z" />
<glyph unicode="&#xd3;" glyph-name="Oacute" horiz-adv-x="805" d="M283 7T213 42T103 145T63 302Q63 411 113 504T254 653T455 708Q549 708 622 669T737 558T778 393Q778 283 725 195T580 57T374 7Q283 7 213 42ZM460 117T523 154T621 256T656 398Q656 489 604
543T462 598Q383 598 321 556T223 445T188 299Q188 207 241 162T379 117Q460 117 523 154ZM433 758T422 770T411 799Q411 822 438 843L537 922Q559 939 570 946T594 953Q611 953 622 940T633 910Q633 882 602 859L495 779Q479 767 470 763T449 758Q433 758 422
770Z" />
<glyph unicode="&#xd4;" glyph-name="Ocircumflex" horiz-adv-x="805" d="M283 7T213 42T103 145T63 302Q63 411 113 504T254 653T455 708Q549 708 622 669T737 558T778 393Q778 283 725 195T580 57T374 7Q283 7 213 42ZM460 117T523 154T621 256T656 398Q656
489 604 543T462 598Q383 598 321 556T223 445T188 299Q188 207 241 162T379 117Q460 117 523 154ZM584 754T574 773L546 818Q534 838 525 852T511 867Q507 867 496 858T473 837T452 818L416 784Q400 771 390 765T369 759Q353 759 342 770T330 797Q330 806 335
817T350 837Q368 853 381 866Q432 912 465 937T523 963Q551 963 568 946T613 888Q634 854 653 830Q661 818 661 807Q661 786 646 770T609 754Q584 754 574 773Z" />
<glyph unicode="&#xd5;" glyph-name="Otilde" horiz-adv-x="805" d="M283 7T213 42T103 145T63 302Q63 411 113 504T254 653T455 708Q549 708 622 669T737 558T778 393Q778 283 725 195T580 57T374 7Q283 7 213 42ZM460 117T523 154T621 256T656 398Q656 489 604
543T462 598Q383 598 321 556T223 445T188 299Q188 207 241 162T379 117Q460 117 523 154ZM341 769T331 780T321 806Q321 827 339 845Q371 877 396 890T450 904Q473 904 497 898T541 880Q557 870 567 865T584 860Q593 860 604 871Q616 882 625 887T644 892Q660
892 671 880T683 851Q683 830 663 812Q613 769 567 769Q548 769 532 775T504 788T487 797Q454 816 441 816Q435 816 427 810T412 798T402 789Q379 769 358 769Q341 769 331 780Z" />
<glyph unicode="&#xd6;" glyph-name="Odieresis" horiz-adv-x="805" d="M283 7T213 42T103 145T63 302Q63 411 113 504T254 653T455 708Q549 708 622 669T737 558T778 393Q778 283 725 195T580 57T374 7Q283 7 213 42ZM460 117T523 154T621 256T656 398Q656 489
604 543T462 598Q383 598 321 556T223 445T188 299Q188 207 241 162T379 117Q460 117 523 154ZM334 765T318 782T301 824Q301 856 326 880T383 904Q408 904 426 887T444 846Q444 815 418 790T359 765Q334 765 318 782ZM598 765T582 782T565 824Q565 856 590 880T647
904Q672 904 689 888T707 847Q707 816 681 791T623 765Q598 765 582 782Z" />
<glyph unicode="&#xd7;" glyph-name="multiply" horiz-adv-x="553" d="M445 487T458 475T468 443Q466 433 463 428T449 412L342 312Q393 249 436 194Q443 186 445 180T445 166Q443 150 426 137T388 123Q372 123 363 129T343 148L265 241Q207 187 180 163L155 140Q143
130 133 125T109 120Q89 120 74 134T61 161Q63 178 78 192L207 311Q191 331 182 341Q140 392 125 411Q115 424 114 428T113 443Q116 459 134 474T177 490Q191 490 201 484T221 465Q243 436 284 384L367 462Q392 487 418 487Q445 487 458 475Z" />
<glyph unicode="&#xd8;" glyph-name="Oslash" horiz-adv-x="822" d="M830 758T841 745T850 712Q845 692 828 677L725 576Q778 498 778 393Q778 283 725 195T580 57T374 7Q269 7 193 54L123 -15Q101 -39 75 -39Q58 -39 46 -29T34 -2Q34 8 36 14T49 31L128 109Q63
187 63 302Q63 411 113 504T254 653T455 708Q517 708 571 690T667 639L763 733Q787 758 812 758Q830 758 841 745ZM188 237T215 194L586 559Q536 598 462 598Q383 598 321 556T223 445T188 299Q188 237 215 194ZM656 451T638 491L278 138Q320 117 379 117Q460 117
523 154T621 256T656 398Q656 451 638 491Z" />
<glyph unicode="&#xd9;" glyph-name="Ugrave" horiz-adv-x="692" d="M661 709T675 697T689 665Q689 658 688 654Q672 566 662 498Q660 486 651 433L588 60Q582 25 567 11T520 -3Q463 -3 463 41Q463 49 464 53L470 89Q439 49 393 25T290 1Q185 1 129 59T72 209Q72
254 88 345T150 652Q155 675 172 689T221 703Q272 703 272 667Q272 662 270 650Q227 445 211 350T195 216Q195 168 222 140T294 112Q339 112 385 140T466 216T510 319Q536 470 567 654Q576 709 634 709Q661 709 675 697ZM460 752T451 757T433 774L369 860Q356 878
356 897Q356 918 372 933T409 949Q433 949 453 920L511 835Q522 817 522 802Q522 782 507 767T472 752Q460 752 451 757Z" />
<glyph unicode="&#xda;" glyph-name="Uacute" horiz-adv-x="692" d="M661 709T675 697T689 665Q689 658 688 654Q672 566 662 498Q660 486 651 433L588 60Q582 25 567 11T520 -3Q463 -3 463 41Q463 49 464 53L470 89Q439 49 393 25T290 1Q185 1 129 59T72 209Q72
254 88 345T150 652Q155 675 172 689T221 703Q272 703 272 667Q272 662 270 650Q227 445 211 350T195 216Q195 168 222 140T294 112Q339 112 385 140T466 216T510 319Q536 470 567 654Q576 709 634 709Q661 709 675 697ZM377 758T366 770T355 799Q355 822 382 843L481
922Q503 939 514 946T538 953Q555 953 566 940T577 910Q577 882 546 859L439 779Q423 767 414 763T393 758Q377 758 366 770Z" />
<glyph unicode="&#xdb;" glyph-name="Ucircumflex" horiz-adv-x="692" d="M661 709T675 697T689 665Q689 658 688 654Q672 566 662 498Q660 486 651 433L588 60Q582 25 567 11T520 -3Q463 -3 463 41Q463 49 464 53L470 89Q439 49 393 25T290 1Q185 1 129 59T72
209Q72 254 88 345T150 652Q155 675 172 689T221 703Q272 703 272 667Q272 662 270 650Q227 445 211 350T195 216Q195 168 222 140T294 112Q339 112 385 140T466 216T510 319Q536 470 567 654Q576 709 634 709Q661 709 675 697ZM528 754T518 773L490 818Q478 838
469 852T455 867Q451 867 440 858T417 837T396 818L360 784Q344 771 334 765T313 759Q297 759 286 770T274 797Q274 806 279 817T294 837Q312 853 325 866Q376 912 409 937T467 963Q495 963 512 946T557 888Q578 854 597 830Q605 818 605 807Q605 786 590 770T553
754Q528 754 518 773Z" />
<glyph unicode="&#xdc;" glyph-name="Udieresis" horiz-adv-x="692" d="M661 709T675 697T689 665Q689 658 688 654Q672 566 662 498Q660 486 651 433L588 60Q582 25 567 11T520 -3Q463 -3 463 41Q463 49 464 53L470 89Q439 49 393 25T290 1Q185 1 129 59T72 209Q72
254 88 345T150 652Q155 675 172 689T221 703Q272 703 272 667Q272 662 270 650Q227 445 211 350T195 216Q195 168 222 140T294 112Q339 112 385 140T466 216T510 319Q536 470 567 654Q576 709 634 709Q661 709 675 697ZM278 765T262 782T245 824Q245 856 270 880T327
904Q352 904 370 887T388 846Q388 815 362 790T303 765Q278 765 262 782ZM542 765T526 782T509 824Q509 856 534 880T591 904Q616 904 633 888T651 847Q651 816 625 791T567 765Q542 765 526 782Z" />
<glyph unicode="&#xdd;" glyph-name="Yacute" horiz-adv-x="655" d="M264 2T250 14T236 46Q236 55 237 59L283 331Q265 334 237 371T190 448Q143 549 126 634Q125 638 125 646Q125 672 150 686T207 701Q228 701 240 690T259 655Q282 563 307 502Q341 423 360 423Q372
423 395 446T443 503Q469 537 496 578T528 628L548 659Q552 664 560 676T577 693T600 699Q629 699 650 682T671 643Q671 631 663 618Q646 584 609 531T542 440Q507 397 465 365T405 331L361 62Q356 34 338 18T289 2Q264 2 250 14ZM360 758T349 770T338 799Q338
822 365 843L464 922Q486 939 497 946T521 953Q538 953 549 940T560 910Q560 882 529 859L422 779Q406 767 397 763T376 758Q360 758 349 770Z" />
<glyph unicode="&#xde;" glyph-name="Thorn" horiz-adv-x="668" d="M486 647T543 620T632 544T664 433Q664 358 620 302T504 215T348 184Q294 184 246 201L214 48Q209 25 187 9T135 -8Q108 -8 91 6T74 41Q74 47 75 50Q101 183 123 285L129 315Q133 334 150 435L158
480L145 473Q132 467 120 467Q102 467 88 482T73 516Q73 545 107 568Q129 583 178 603L195 710Q198 733 218 749T267 766Q293 766 312 754T332 717Q332 710 325 671Q324 661 320 639Q371 647 411 647Q486 647 543 620ZM430 294T477 331T525 430Q525 479 488 507T380
536Q343 536 301 528L284 423Q284 426 276 373L266 310Q318 294 360 294Q430 294 477 331Z" />
<glyph unicode="&#xdf;" glyph-name="germandbls" horiz-adv-x="628" d="M255 -6T216 20Q197 33 197 52Q197 72 213 93T248 114Q257 114 264 109Q308 88 338 88Q387 88 416 108T445 164Q445 185 431 200T385 238Q348 264 329 285T310 339Q310 379 344 412T445
468Q463 504 463 530Q463 569 438 595T375 621Q314 621 274 571T213 407L145 58Q140 34 124 21T81 8Q57 8 45 19T32 49Q32 56 33 59L98 408Q117 513 149 580T236 681T375 716Q430 716 478 691T554 625T582 538Q582 505 569 469T534 405Q488 398 455 380T422 340Q422
329 434 318T471 289Q515 258 540 230T566 159Q566 110 536 73T452 15T334 -6Q255 -6 216 20Z" />
<glyph unicode="&#xe0;" glyph-name="agrave" horiz-adv-x="617" d="M526 92T532 87T539 63Q539 37 525 19T477 1Q444 1 426 12T395 50Q372 20 334 5T248 -10Q185 -10 138 16T65 90T39 200Q39 281 74 348T172 454T310 494Q358 494 392 478T444 435L449 452Q461
489 502 489Q528 489 544 479T561 453Q561 442 546 403L533 365Q516 312 502 240T487 132Q487 113 492 106T510 96Q526 92 532 87ZM302 85T333 109T374 178Q384 226 391 268T399 325Q399 360 375 379T319 399Q275 399 240 369T184 290T164 193Q164 144 187 115T258
85Q302 85 333 109ZM375 552T366 557T348 574L284 660Q271 678 271 697Q271 718 287 733T324 749Q348 749 368 720L426 635Q437 617 437 602Q437 582 422 567T387 552Q375 552 366 557Z" />
<glyph unicode="&#xe1;" glyph-name="aacute" horiz-adv-x="617" d="M526 92T532 87T539 63Q539 37 525 19T477 1Q444 1 426 12T395 50Q372 20 334 5T248 -10Q185 -10 138 16T65 90T39 200Q39 281 74 348T172 454T310 494Q358 494 392 478T444 435L449 452Q461
489 502 489Q528 489 544 479T561 453Q561 442 546 403L533 365Q516 312 502 240T487 132Q487 113 492 106T510 96Q526 92 532 87ZM302 85T333 109T374 178Q384 226 391 268T399 325Q399 360 375 379T319 399Q275 399 240 369T184 290T164 193Q164 144 187 115T258
85Q302 85 333 109ZM292 558T281 570T270 599Q270 622 297 643L396 722Q418 739 429 746T453 753Q470 753 481 740T492 710Q492 682 461 659L354 579Q338 567 329 563T308 558Q292 558 281 570Z" />
<glyph unicode="&#xe2;" glyph-name="acircumflex" horiz-adv-x="617" d="M526 92T532 87T539 63Q539 37 525 19T477 1Q444 1 426 12T395 50Q372 20 334 5T248 -10Q185 -10 138 16T65 90T39 200Q39 281 74 348T172 454T310 494Q358 494 392 478T444 435L449 452Q461
489 502 489Q528 489 544 479T561 453Q561 442 546 403L533 365Q516 312 502 240T487 132Q487 113 492 106T510 96Q526 92 532 87ZM302 85T333 109T374 178Q384 226 391 268T399 325Q399 360 375 379T319 399Q275 399 240 369T184 290T164 193Q164 144 187 115T258
85Q302 85 333 109ZM443 554T433 573L405 618Q393 638 384 652T370 667Q366 667 355 658T332 637T311 618L275 584Q259 571 249 565T228 559Q212 559 201 570T189 597Q189 606 194 617T209 637Q227 653 240 666Q291 712 324 737T382 763Q410 763 427 746T472 688Q493
654 512 630Q520 618 520 607Q520 586 505 570T468 554Q443 554 433 573Z" />
<glyph unicode="&#xe3;" glyph-name="atilde" horiz-adv-x="617" d="M526 92T532 87T539 63Q539 37 525 19T477 1Q444 1 426 12T395 50Q372 20 334 5T248 -10Q185 -10 138 16T65 90T39 200Q39 281 74 348T172 454T310 494Q358 494 392 478T444 435L449 452Q461
489 502 489Q528 489 544 479T561 453Q561 442 546 403L533 365Q516 312 502 240T487 132Q487 113 492 106T510 96Q526 92 532 87ZM302 85T333 109T374 178Q384 226 391 268T399 325Q399 360 375 379T319 399Q275 399 240 369T184 290T164 193Q164 144 187 115T258
85Q302 85 333 109ZM200 569T190 580T180 606Q180 627 198 645Q230 677 255 690T309 704Q332 704 356 698T400 680Q416 670 426 665T443 660Q452 660 463 671Q475 682 484 687T503 692Q519 692 530 680T542 651Q542 630 522 612Q472 569 426 569Q407 569 391 575T363
588T346 597Q313 616 300 616Q294 616 286 610T271 598T261 589Q238 569 217 569Q200 569 190 580Z" />
<glyph unicode="&#xe4;" glyph-name="adieresis" horiz-adv-x="617" d="M526 92T532 87T539 63Q539 37 525 19T477 1Q444 1 426 12T395 50Q372 20 334 5T248 -10Q185 -10 138 16T65 90T39 200Q39 281 74 348T172 454T310 494Q358 494 392 478T444 435L449 452Q461
489 502 489Q528 489 544 479T561 453Q561 442 546 403L533 365Q516 312 502 240T487 132Q487 113 492 106T510 96Q526 92 532 87ZM302 85T333 109T374 178Q384 226 391 268T399 325Q399 360 375 379T319 399Q275 399 240 369T184 290T164 193Q164 144 187 115T258
85Q302 85 333 109ZM193 565T177 582T160 624Q160 656 185 680T242 704Q267 704 285 687T303 646Q303 615 277 590T218 565Q193 565 177 582ZM457 565T441 582T424 624Q424 656 449 680T506 704Q531 704 548 688T566 647Q566 616 540 591T482 565Q457 565 441 582Z"
/>
<glyph unicode="&#xe5;" glyph-name="aring" horiz-adv-x="617" d="M526 92T532 87T539 63Q539 37 525 19T477 1Q444 1 426 12T395 50Q372 20 334 5T248 -10Q185 -10 138 16T65 90T39 200Q39 281 74 348T172 454T310 494Q358 494 392 478T444 435L449 452Q461
489 502 489Q528 489 544 479T561 453Q561 442 546 403L533 365Q516 312 502 240T487 132Q487 113 492 106T510 96Q526 92 532 87ZM302 85T333 109T374 178Q384 226 391 268T399 325Q399 360 375 379T319 399Q275 399 240 369T184 290T164 193Q164 144 187 115T258
85Q302 85 333 109ZM305 537T274 568T242 645Q242 682 262 714T316 765T389 784Q434 784 464 753T494 678Q494 640 475 608T423 556T351 537Q305 537 274 568ZM383 612T400 627T419 666Q421 683 410 696T377 710Q353 710 336 693T318 654Q318 635 329 624T360 612Q383
612 400 627Z" />
<glyph unicode="&#xe6;" glyph-name="ae" horiz-adv-x="951" d="M760 517T810 492T889 425T919 334Q919 319 916 302Q908 262 889 248T833 233L508 226L507 217Q504 205 504 184Q504 129 534 107T627 85Q685 85 721 104T789 160Q808 183 832 183Q847 183 862 169T878
138Q878 117 861 95Q779 -10 627 -10Q554 -10 502 14T434 85Q407 40 353 15T228 -10Q124 -10 75 23T26 127Q26 216 86 262T272 311L404 314L407 328Q408 333 408 342Q408 376 380 397T303 418Q256 418 220 406T150 367Q123 348 105 348Q90 348 80 361T69 389Q69
408 97 431Q144 473 195 493T310 513Q375 513 422 484T482 406Q515 455 573 486T700 517Q760 517 810 492ZM641 422T596 392T530 317L804 323L805 331Q806 335 806 342Q806 377 773 399T693 422Q641 422 596 392ZM366 83T383 188L389 223L272 219Q209 217 178 195T146
134Q146 107 168 95T237 83Q366 83 383 188Z" />
<glyph unicode="&#xe7;" glyph-name="ccedilla" horiz-adv-x="595" d="M521 245T534 237T548 208Q548 152 515 107T427 35T304 1L256 -56Q284 -63 305 -80T327 -127Q327 -173 287 -200T187 -227Q167 -227 146 -223T110 -212Q85 -202 85 -184Q85 -167 96 -155T126
-143Q131 -143 153 -149Q156 -150 171 -154T199 -158Q251 -158 251 -132Q251 -121 238 -115T196 -104Q163 -98 163 -72Q163 -66 169 -52L216 6Q138 23 90 78T42 208Q42 292 80 362T187 473T339 514Q392 514 443 493T527 435T560 356Q560 331 542 319T495 306Q476
306 466 316T449 345Q446 361 433 378T396 407T345 419Q296 419 254 389T188 309T164 208Q164 156 194 126T284 95Q329 95 364 112T418 155T438 208Q438 222 455 233T496 245Q521 245 534 237Z" />
<glyph unicode="&#xe8;" glyph-name="egrave" horiz-adv-x="604" d="M211 -8T157 21T73 102T44 217Q44 297 83 365T189 474T340 514Q401 514 453 492T536 426T568 321Q568 222 490 222L150 218Q149 212 149 202Q149 153 186 122T285 90Q334 90 364 106T430 152Q449
167 465 167Q483 167 497 155T512 125Q512 107 496 87Q463 49 415 21T285 -8Q211 -8 157 21ZM446 302Q461 302 465 307T470 326Q470 372 435 397T345 422Q297 422 257 401T193 351T164 298L446 302ZM393 552T384 557T366 574L302 660Q289 678 289 697Q289 718 305
733T342 749Q366 749 386 720L444 635Q455 617 455 602Q455 582 440 567T405 552Q393 552 384 557Z" />
<glyph unicode="&#xe9;" glyph-name="eacute" horiz-adv-x="604" d="M211 -8T157 21T73 102T44 217Q44 297 83 365T189 474T340 514Q401 514 453 492T536 426T568 321Q568 222 490 222L150 218Q149 212 149 202Q149 153 186 122T285 90Q334 90 364 106T430 152Q449
167 465 167Q483 167 497 155T512 125Q512 107 496 87Q463 49 415 21T285 -8Q211 -8 157 21ZM446 302Q461 302 465 307T470 326Q470 372 435 397T345 422Q297 422 257 401T193 351T164 298L446 302ZM303 561T294 571T284 597Q284 621 304 641L410 747Q426 763 439
769T467 776Q485 776 495 765T506 737Q506 710 473 678L368 584Q353 571 343 566T319 561Q303 561 294 571Z" />
<glyph unicode="&#xea;" glyph-name="ecircumflex" horiz-adv-x="604" d="M211 -8T157 21T73 102T44 217Q44 297 83 365T189 474T340 514Q401 514 453 492T536 426T568 321Q568 222 490 222L150 218Q149 212 149 202Q149 153 186 122T285 90Q334 90 364 106T430
152Q449 167 465 167Q483 167 497 155T512 125Q512 107 496 87Q463 49 415 21T285 -8Q211 -8 157 21ZM446 302Q461 302 465 307T470 326Q470 372 435 397T345 422Q297 422 257 401T193 351T164 298L446 302ZM461 554T451 573L423 618Q411 638 402 652T388 667Q384
667 373 658T350 637T329 618L293 584Q277 571 267 565T246 559Q230 559 219 570T207 597Q207 606 212 617T227 637Q245 653 258 666Q309 712 342 737T400 763Q428 763 445 746T490 688Q511 654 530 630Q538 618 538 607Q538 586 523 570T486 554Q461 554 451 573Z"
/>
<glyph unicode="&#xeb;" glyph-name="edieresis" horiz-adv-x="604" d="M211 -8T157 21T73 102T44 217Q44 297 83 365T189 474T340 514Q401 514 453 492T536 426T568 321Q568 222 490 222L150 218Q149 212 149 202Q149 153 186 122T285 90Q334 90 364 106T430
152Q449 167 465 167Q483 167 497 155T512 125Q512 107 496 87Q463 49 415 21T285 -8Q211 -8 157 21ZM446 302Q461 302 465 307T470 326Q470 372 435 397T345 422Q297 422 257 401T193 351T164 298L446 302ZM211 565T195 582T178 624Q178 656 203 680T260 704Q285
704 303 687T321 646Q321 615 295 590T236 565Q211 565 195 582ZM475 565T459 582T442 624Q442 656 467 680T524 704Q549 704 566 688T584 647Q584 616 558 591T500 565Q475 565 459 582Z" />
<glyph unicode="&#xec;" glyph-name="igrave" horiz-adv-x="338" d="M98 3T84 15T69 46Q69 52 70 56L149 455Q153 479 173 493T220 507Q245 507 259 495T274 462L273 453L190 54Q185 32 167 18T122 3Q98 3 84 15ZM250 552T241 557T223 574L159 660Q146 678 146
697Q146 718 162 733T199 749Q223 749 243 720L301 635Q312 617 312 602Q312 582 297 567T262 552Q250 552 241 557Z" />
<glyph unicode="&#xed;" glyph-name="iacute" horiz-adv-x="338" d="M98 3T84 15T69 46Q69 52 70 56L149 455Q153 479 173 493T220 507Q245 507 259 495T274 462L273 453L190 54Q185 32 167 18T122 3Q98 3 84 15ZM167 558T156 570T145 599Q145 622 172 643L271
722Q293 739 304 746T328 753Q345 753 356 740T367 710Q367 682 336 659L229 579Q213 567 204 563T183 558Q167 558 156 570Z" />
<glyph unicode="&#xee;" glyph-name="icircumflex" horiz-adv-x="338" d="M98 3T84 15T69 46Q69 52 70 56L149 455Q153 479 173 493T220 507Q245 507 259 495T274 462L273 453L190 54Q185 32 167 18T122 3Q98 3 84 15ZM318 554T308 573L280 618Q268 638 259 652T245
667Q241 667 230 658T207 637T186 618L150 584Q134 571 124 565T103 559Q87 559 76 570T64 597Q64 606 69 617T84 637Q102 653 115 666Q166 712 199 737T257 763Q285 763 302 746T347 688Q368 654 387 630Q395 618 395 607Q395 586 380 570T343 554Q318 554 308
573Z" />
<glyph unicode="&#xef;" glyph-name="idieresis" horiz-adv-x="338" d="M98 3T84 15T69 46Q69 52 70 56L149 455Q153 479 173 493T220 507Q245 507 259 495T274 462L273 453L190 54Q185 32 167 18T122 3Q98 3 84 15ZM68 565T52 582T35 624Q35 656 60 680T117 704Q142
704 160 687T178 646Q178 615 152 590T93 565Q68 565 52 582ZM332 565T316 582T299 624Q299 656 324 680T381 704Q406 704 423 688T441 647Q441 616 415 591T357 565Q332 565 316 582Z" />
<glyph unicode="&#xf0;" glyph-name="eth" horiz-adv-x="609" d="M540 518T555 456T571 335Q571 238 534 162T428 44T269 1Q203 1 152 28T72 103T43 207Q43 287 82 353T188 458T335 496Q378 496 414 484Q404 504 393 519Q376 543 359 562L295 529Q270 518 253
518Q236 518 224 531T213 562Q213 585 244 600L283 620L256 635Q242 642 236 649T229 668Q229 692 247 711T290 731Q307 731 340 716Q346 712 364 703T400 681L481 723Q491 728 500 728Q517 728 530 715T544 682Q544 666 536 658T508 638L471 619Q493 596 510 567Q540
518 555 456ZM353 98T398 162T447 324Q431 358 403 379T335 401Q288 401 249 374T188 304T166 213Q166 161 195 130T275 98Q353 98 398 162Z" />
<glyph unicode="&#xf1;" glyph-name="ntilde" horiz-adv-x="567" d="M440 510T482 467T524 344Q524 317 514 252T489 106L478 45Q474 24 456 12T410 0Q382 0 367 12T355 45L377 174Q387 233 394 279T402 343Q402 380 389 397T347 414Q309 414 280 383T225 279Q209
231 200 178L196 153Q186 90 177 44Q173 23 155 11T110 -1Q81 -1 67 11T55 44L60 73Q94 273 108 379Q110 393 108 404T101 424T95 438Q90 446 90 456Q89 476 112 491T157 507Q178 507 194 482Q202 470 206 453T210 426L208 414Q260 510 371 510Q440 510 482 467ZM202
569T192 580T182 606Q182 627 200 645Q232 677 257 690T311 704Q334 704 358 698T402 680Q418 670 428 665T445 660Q454 660 465 671Q477 682 486 687T505 692Q521 692 532 680T544 651Q544 630 524 612Q474 569 428 569Q409 569 393 575T365 588T348 597Q315 616
302 616Q296 616 288 610T273 598T263 589Q240 569 219 569Q202 569 192 580Z" />
<glyph unicode="&#xf2;" glyph-name="ograve" horiz-adv-x="602" d="M164 -2T97 51T29 214Q29 294 67 364T175 476T333 518Q444 518 510 457T577 283Q577 203 540 138T435 36T277 -2Q164 -2 97 51ZM360 93T407 147T454 283Q454 347 423 384T333 422Q280 422 239
392T175 314T152 214Q152 151 186 122T277 93Q360 93 407 147ZM384 552T375 557T357 574L293 660Q280 678 280 697Q280 718 296 733T333 749Q357 749 377 720L435 635Q446 617 446 602Q446 582 431 567T396 552Q384 552 375 557Z" />
<glyph unicode="&#xf3;" glyph-name="oacute" horiz-adv-x="602" d="M164 -2T97 51T29 214Q29 294 67 364T175 476T333 518Q444 518 510 457T577 283Q577 203 540 138T435 36T277 -2Q164 -2 97 51ZM360 93T407 147T454 283Q454 347 423 384T333 422Q280 422 239
392T175 314T152 214Q152 151 186 122T277 93Q360 93 407 147ZM301 558T290 570T279 599Q279 622 306 643L405 722Q427 739 438 746T462 753Q479 753 490 740T501 710Q501 682 470 659L363 579Q347 567 338 563T317 558Q301 558 290 570Z" />
<glyph unicode="&#xf4;" glyph-name="ocircumflex" horiz-adv-x="602" d="M164 -2T97 51T29 214Q29 294 67 364T175 476T333 518Q444 518 510 457T577 283Q577 203 540 138T435 36T277 -2Q164 -2 97 51ZM360 93T407 147T454 283Q454 347 423 384T333 422Q280 422
239 392T175 314T152 214Q152 151 186 122T277 93Q360 93 407 147ZM452 554T442 573L414 618Q402 638 393 652T379 667Q375 667 364 658T341 637T320 618L284 584Q268 571 258 565T237 559Q221 559 210 570T198 597Q198 606 203 617T218 637Q236 653 249 666Q300
712 333 737T391 763Q419 763 436 746T481 688Q502 654 521 630Q529 618 529 607Q529 586 514 570T477 554Q452 554 442 573Z" />
<glyph unicode="&#xf5;" glyph-name="otilde" horiz-adv-x="602" d="M164 -2T97 51T29 214Q29 294 67 364T175 476T333 518Q444 518 510 457T577 283Q577 203 540 138T435 36T277 -2Q164 -2 97 51ZM360 93T407 147T454 283Q454 347 423 384T333 422Q280 422 239
392T175 314T152 214Q152 151 186 122T277 93Q360 93 407 147ZM209 569T199 580T189 606Q189 627 207 645Q239 677 264 690T318 704Q341 704 365 698T409 680Q425 670 435 665T452 660Q461 660 472 671Q484 682 493 687T512 692Q528 692 539 680T551 651Q551 630
531 612Q481 569 435 569Q416 569 400 575T372 588T355 597Q322 616 309 616Q303 616 295 610T280 598T270 589Q247 569 226 569Q209 569 199 580Z" />
<glyph unicode="&#xf6;" glyph-name="odieresis" horiz-adv-x="602" d="M164 -2T97 51T29 214Q29 294 67 364T175 476T333 518Q444 518 510 457T577 283Q577 203 540 138T435 36T277 -2Q164 -2 97 51ZM360 93T407 147T454 283Q454 347 423 384T333 422Q280 422
239 392T175 314T152 214Q152 151 186 122T277 93Q360 93 407 147ZM202 565T186 582T169 624Q169 656 194 680T251 704Q276 704 294 687T312 646Q312 615 286 590T227 565Q202 565 186 582ZM466 565T450 582T433 624Q433 656 458 680T515 704Q540 704 557 688T575
647Q575 616 549 591T491 565Q466 565 450 582Z" />
<glyph unicode="&#xf7;" glyph-name="divide" horiz-adv-x="553" d="M278 403T263 417T248 453Q248 482 271 503T324 525Q347 525 363 511T379 474Q379 445 356 424T303 403Q278 403 263 417ZM84 260T74 269T63 293Q63 309 79 330Q99 353 134 367T209 381Q236
381 266 376T316 363Q330 358 354 355T396 351Q417 351 441 363Q444 364 454 368T475 372Q492 372 502 362T513 333Q513 306 475 284Q458 275 430 269T378 262Q352 262 321 268T268 284Q239 295 199 295Q173 295 143 276Q117 260 98 260Q84 260 74 269ZM230 113T215
127T199 165Q199 194 225 215T279 237Q302 237 317 222T333 185Q333 156 309 135T255 113Q230 113 215 127Z" />
<glyph unicode="&#xf8;" glyph-name="oslash" d="M578 550T588 540T598 516Q598 496 581 481L532 434Q578 374 578 283Q578 203 541 138T436 36T277 -2Q182 -2 120 35L64 -19Q53 -29 45 -33T25 -37Q9 -37 -2 -26T-11 2Q-8 18 6 32L64 88Q29 139 29 214Q29 294
68 364T176 476T334 518Q416 518 474 484L523 532Q531 541 542 545T563 550Q578 550 588 540ZM153 193T157 178L395 408Q369 422 334 422Q280 422 239 392T176 314T153 214Q153 193 157 178ZM454 321T444 348L200 112Q231 93 277 93Q361 93 407 147T454 283Q454
321 444 348Z" />
<glyph unicode="&#xf9;" glyph-name="ugrave" horiz-adv-x="564" d="M457 106Q456 91 460 79T466 65Q473 53 473 44Q473 30 454 14T417 -2Q394 -2 373 19T353 71V72Q299 -1 199 -1Q127 -1 90 41T53 159Q53 183 63 249T82 358T93 419L101 461Q105 480 124 492T168
505Q194 505 210 493T222 461L207 375Q176 210 176 173Q176 94 232 94Q281 94 312 139T360 281Q374 354 392 460Q396 484 415 497T461 510Q488 510 503 496T515 460L461 145L457 106ZM350 552T341 557T323 574L259 660Q246 678 246 697Q246 718 262 733T299 749Q323
749 343 720L401 635Q412 617 412 602Q412 582 397 567T362 552Q350 552 341 557Z" />
<glyph unicode="&#xfa;" glyph-name="uacute" horiz-adv-x="564" d="M457 106Q456 91 460 79T466 65Q473 53 473 44Q473 30 454 14T417 -2Q394 -2 373 19T353 71V72Q299 -1 199 -1Q127 -1 90 41T53 159Q53 183 63 249T82 358T93 419L101 461Q105 480 124 492T168
505Q194 505 210 493T222 461L207 375Q176 210 176 173Q176 94 232 94Q281 94 312 139T360 281Q374 354 392 460Q396 484 415 497T461 510Q488 510 503 496T515 460L461 145L457 106ZM267 558T256 570T245 599Q245 622 272 643L371 722Q393 739 404 746T428 753Q445
753 456 740T467 710Q467 682 436 659L329 579Q313 567 304 563T283 558Q267 558 256 570Z" />
<glyph unicode="&#xfb;" glyph-name="ucircumflex" horiz-adv-x="564" d="M457 106Q456 91 460 79T466 65Q473 53 473 44Q473 30 454 14T417 -2Q394 -2 373 19T353 71V72Q299 -1 199 -1Q127 -1 90 41T53 159Q53 183 63 249T82 358T93 419L101 461Q105 480 124
492T168 505Q194 505 210 493T222 461L207 375Q176 210 176 173Q176 94 232 94Q281 94 312 139T360 281Q374 354 392 460Q396 484 415 497T461 510Q488 510 503 496T515 460L461 145L457 106ZM418 554T408 573L380 618Q368 638 359 652T345 667Q341 667 330 658T307
637T286 618L250 584Q234 571 224 565T203 559Q187 559 176 570T164 597Q164 606 169 617T184 637Q202 653 215 666Q266 712 299 737T357 763Q385 763 402 746T447 688Q468 654 487 630Q495 618 495 607Q495 586 480 570T443 554Q418 554 408 573Z" />
<glyph unicode="&#xfc;" glyph-name="udieresis" horiz-adv-x="564" d="M457 106Q456 91 460 79T466 65Q473 53 473 44Q473 30 454 14T417 -2Q394 -2 373 19T353 71V72Q299 -1 199 -1Q127 -1 90 41T53 159Q53 183 63 249T82 358T93 419L101 461Q105 480 124 492T168
505Q194 505 210 493T222 461L207 375Q176 210 176 173Q176 94 232 94Q281 94 312 139T360 281Q374 354 392 460Q396 484 415 497T461 510Q488 510 503 496T515 460L461 145L457 106ZM168 565T152 582T135 624Q135 656 160 680T217 704Q242 704 260 687T278 646Q278
615 252 590T193 565Q168 565 152 582ZM432 565T416 582T399 624Q399 656 424 680T481 704Q506 704 523 688T541 647Q541 616 515 591T457 565Q432 565 416 582Z" />
<glyph unicode="&#xfd;" glyph-name="yacute" horiz-adv-x="535" d="M114 -262T99 -249T85 -215Q85 -200 93 -186Q118 -145 156 -73T207 21L228 61Q187 99 153 165T99 307T79 446Q79 456 80 463Q82 484 100 497T146 510Q170 510 178 501T187 472Q193 354 219 274T277
157Q314 235 390 409L419 476Q427 496 439 504T474 512Q503 512 518 500T532 466Q532 460 529 455Q442 252 357 80Q238 -160 198 -225Q187 -243 175 -252T140 -262Q114 -262 99 -249ZM267 558T256 570T245 599Q245 622 272 643L371 722Q393 739 404 746T428 753Q445
753 456 740T467 710Q467 682 436 659L329 579Q313 567 304 563T283 558Q267 558 256 570Z" />
<glyph unicode="&#xfe;" glyph-name="thorn" horiz-adv-x="599" d="M407 516T457 490T536 414T565 300Q565 208 529 141T423 37T260 0Q221 0 187 12T126 43Q105 -68 83 -153Q78 -174 58 -186T12 -199Q-10 -199 -24 -188T-38 -159Q-38 -140 2 39Q23 138 48 281Q71
412 84 489Q94 546 102 591T116 666Q120 691 138 705T183 719Q210 719 226 705T238 670L202 473Q232 493 268 504T344 516Q407 516 457 490ZM317 95T358 122T420 196T442 300Q442 358 410 389T328 421Q297 421 266 407T211 372T179 334Q179 332 170 281L163 242L156
208L143 137Q149 123 185 109T260 95Q317 95 358 122Z" />
<glyph unicode="&#xff;" glyph-name="ydieresis" horiz-adv-x="535" d="M114 -262T99 -249T85 -215Q85 -200 93 -186Q118 -145 156 -73T207 21L228 61Q187 99 153 165T99 307T79 446Q79 456 80 463Q82 484 100 497T146 510Q170 510 178 501T187 472Q193 354 219
274T277 157Q314 235 390 409L419 476Q427 496 439 504T474 512Q503 512 518 500T532 466Q532 460 529 455Q442 252 357 80Q238 -160 198 -225Q187 -243 175 -252T140 -262Q114 -262 99 -249ZM168 565T152 582T135 624Q135 656 160 680T217 704Q242 704 260 687T278
646Q278 615 252 590T193 565Q168 565 152 582ZM432 565T416 582T399 624Q399 656 424 680T481 704Q506 704 523 688T541 647Q541 616 515 591T457 565Q432 565 416 582Z" />
<glyph unicode="&#x2013;" glyph-name="endash" horiz-adv-x="819" d="M206 321T105 330Q86 332 75 343T64 372Q64 397 84 415T129 431Q236 422 326 422Q370 422 417 423T487 425Q587 429 650 429L706 428Q723 427 757 427Q779 427 792 417T805 388Q805 364 785
346T740 328Q709 328 693 329L641 330Q554 330 457 325Q343 321 276 321Q206 321 105 330Z" />
<glyph unicode="&#x2014;" glyph-name="emdash" horiz-adv-x="1547" d="M273 327T204 328T102 334Q84 337 75 347T65 375Q65 398 84 416T129 434Q199 428 450 428Q538 428 626 428T804 430Q894 431 984 431T1165 432Q1266 432 1390 428Q1476 426 1498 426Q1513
426 1522 415T1532 387Q1532 362 1517 345T1480 327L1392 329Q1233 332 1197 332Q1103 332 1007 332T813 330Q617 327 424 327Q273 327 204 328Z" />
<glyph unicode="&#x2018;" glyph-name="quoteleft" horiz-adv-x="287" d="M241 626T262 612T283 563Q283 525 256 500T188 474Q154 474 135 492T116 543Q116 587 146 636T213 713Q230 726 242 726Q253 726 262 719T271 701Q271 686 257 670Q227 640 215 626Q241
626 262 612ZM231 566T225 572T206 579Q190 579 179 568T168 543Q168 534 174 528T194 521Q209 520 220 531T231 556Q231 566 225 572Z" />
<glyph unicode="&#x2019;" glyph-name="quoteright" horiz-adv-x="290" d="M259 731T281 712T303 659Q303 614 276 571T203 492Q186 480 175 480Q163 480 154 489T144 506Q144 520 156 533Q163 539 176 552T201 579Q176 579 155 595T133 643Q133 683 159 707T224
731Q259 731 281 712ZM185 627T210 627Q227 627 237 637T247 662Q247 684 219 684Q205 684 195 674T185 650Q185 627 210 627Z" />
<glyph unicode="&#x201a;" glyph-name="quotesinglbase" horiz-adv-x="290" d="M155 147T175 128T196 76Q196 33 171 -6T99 -91Q82 -106 70 -106Q57 -106 48 -99T39 -81Q39 -64 55 -49Q83 -21 95 -7H91Q65 -7 46 9T27 53Q27 95 52 121T120 147Q155 147 175 128ZM121
42T132 53T143 78Q143 100 115 100Q102 100 92 92T80 70Q78 42 105 42Q121 42 132 53Z" />
<glyph unicode="&#x201c;" glyph-name="quotedblleft" horiz-adv-x="477" d="M431 632T452 616T473 566Q473 528 447 504T379 479Q344 479 324 498T304 552Q304 627 401 716Q410 724 415 727T430 731Q441 731 451 724T461 704Q461 690 445 674Q445 674 431 660Q416
647 404 632H406Q431 632 452 616ZM237 626T258 610T279 558Q279 521 253 498T187 474Q152 474 133 492T113 544Q113 585 137 624T209 713Q221 726 237 726Q249 726 258 719T267 700Q267 685 252 670Q249 667 236 655T208 626H210Q237 626 258 610ZM398 524T409
534T420 558Q420 569 414 576T395 583Q379 583 369 572T358 545Q358 525 384 525Q398 524 409 534ZM205 521T216 530T227 555Q227 566 221 572T202 579Q185 579 175 568T164 543Q164 521 190 521Q205 521 216 530Z" />
<glyph unicode="&#x201d;" glyph-name="quotedblright" horiz-adv-x="482" d="M452 731T473 713T495 661Q495 617 469 578T395 492Q378 480 367 480Q354 480 345 487T336 506Q336 522 351 535Q353 537 366 549T394 579H390Q365 579 345 593T325 640Q325 680 350
704T416 731Q452 731 473 713ZM259 727T279 708T300 656Q300 613 275 575T203 489Q186 474 174 474Q161 474 152 481T143 499Q143 513 159 531Q187 559 199 573H195Q169 573 150 589T131 633Q131 675 156 701T224 727Q259 727 279 708ZM377 627T402 627Q419 627
429 637T439 662Q439 684 411 684Q397 684 387 674T377 650Q377 627 402 627ZM225 622T236 633T247 658Q247 680 219 680Q206 680 196 672T184 650Q182 622 209 622Q225 622 236 633Z" />
<glyph unicode="&#x201e;" glyph-name="quotedblbase" horiz-adv-x="489" d="M351 151T372 133T394 81Q394 35 367 -9T295 -88Q278 -100 266 -100Q254 -100 245 -93T236 -74Q236 -58 250 -45Q271 -28 293 -1H289Q264 -1 244 13T224 60Q224 101 249 126T315 151Q351
151 372 133ZM158 147T178 128T199 76Q199 33 174 -6T102 -91Q85 -106 73 -106Q61 -106 52 -99T42 -81Q42 -64 58 -49Q86 -21 98 -7H95Q68 -7 49 9T30 53Q30 94 56 120T123 147Q158 147 178 128ZM276 47T301 47Q318 47 328 57T338 82Q338 104 310 104Q296 104 286
94T276 70Q276 47 301 47ZM125 42T135 53T146 78Q146 100 118 100Q105 100 95 92T84 70Q82 58 87 50T108 42Q125 42 135 53Z" />
<glyph unicode="&#x2022;" glyph-name="bullet" horiz-adv-x="579" d="M284 42T259 62T233 115Q221 93 196 80T140 66Q93 66 64 95T35 173Q35 220 65 251T145 288Q131 297 122 317T113 361Q113 419 152 454T255 490Q299 490 325 467T351 406Q351 398 350 393Q364
426 392 446T450 467Q497 467 526 438T555 360Q555 311 522 276T436 233Q452 226 462 210T472 175Q472 115 432 79T327 42Q284 42 259 62ZM353 133T369 148T386 187Q386 192 380 201T363 217Q356 224 356 235Q356 252 363 263T384 278Q415 286 435 301T457 334Q459
355 450 368T422 381Q405 381 389 369T361 335Q357 325 347 320T324 314Q309 314 301 322T293 343L294 358Q294 376 284 387T256 399Q235 399 220 387T204 354Q202 341 206 329T220 310Q228 302 228 289Q228 268 219 255T194 241Q168 241 152 227T136 191Q136 174
145 164T171 154Q185 154 199 163T222 187Q227 195 236 200T256 206Q270 206 278 199T286 180Q286 159 297 146T325 133Q353 133 369 148ZM263 211T251 223T238 255Q238 279 254 294T295 309Q318 309 331 297T345 266Q345 241 329 226T285 211Q263 211 251 223ZM299
243T304 248T310 264Q310 270 306 273T293 277Q283 277 278 271T272 255Q272 250 277 247T290 243Q299 243 304 248Z" />
<glyph unicode="&#x2039;" glyph-name="guilsinglleft" horiz-adv-x="370" d="M219 152T178 182T107 253T77 327Q77 362 123 408T230 490T325 525Q338 525 346 517T354 494Q354 473 345 461T316 441Q284 430 247 407T185 360T159 327Q159 317 175 299T217 262T266
235Q280 230 287 221T295 200Q295 179 281 166T249 152Q219 152 178 182Z" />
<glyph unicode="&#x203a;" glyph-name="guilsinglright" horiz-adv-x="370" d="M77 152T68 161T58 185Q58 202 70 215T103 235Q131 244 164 267T222 314T247 347Q247 362 208 393T126 441Q113 446 108 453T102 472Q102 493 115 509T146 525Q177 525 220 495T296
423T329 349Q329 315 285 268T183 187T90 152Q77 152 68 161Z" />
</font>
</defs>
</svg>
