<?xml version="1.0" standalone="no"?>
<!DOCTYPE svg PUBLIC "-//W3C//DTD SVG 1.1//EN" "http://www.w3.org/Graphics/SVG/1.1/DTD/svg11.dtd">
<svg xmlns="http://www.w3.org/2000/svg">
<defs >
<font id="Mali" horiz-adv-x="595" ><font-face
    font-family="Mali Medium"
    units-per-em="1000"
    panose-1="0 0 6 0 0 0 0 0 0 0"
    ascent="1050"
    descent="-250"
    alphabetic="0" />
<glyph unicode=" " glyph-name="space" horiz-adv-x="333" />
<glyph unicode="!" glyph-name="exclam" horiz-adv-x="269" d="M114 184T107 193T100 215L101 224L175 678Q178 696 190 707T220 718Q249 718 249 689Q249 681 248 676L174 226Q170 207 158 196T129 184Q114 184 107 193ZM67 0T51 17T34 59Q34 89 59 114T116 139Q141
139 159 122T177 81Q177 51 150 26T92 0Q67 0 51 17Z" />
<glyph unicode="&quot;" glyph-name="quotedbl" horiz-adv-x="382" d="M140 476T131 483T125 504Q143 598 160 690Q161 701 173 707T202 714Q218 714 228 708T236 690L224 627Q211 560 202 502Q200 490 188 483T157 476Q140 476 131 483ZM284 476T275 483T268
504Q286 598 303 690Q305 701 316 707T345 714Q361 714 371 708T379 690Q376 673 374 660T369 636Q364 607 358 575T345 502Q343 490 331 483T301 476Q284 476 275 483Z" />
<glyph unicode="#" glyph-name="numbersign" horiz-adv-x="618" d="M556 442T565 435T574 415Q574 409 573 406Q565 372 528 372H495L441 207H488Q502 207 511 199T520 179Q520 161 507 149T475 136H418L383 30Q373 -1 339 -1Q324 -1 316 9T312 30L347 136H197L163
30Q158 15 147 7T121 -2Q107 -2 100 5T93 25Q93 35 95 41L125 136H92Q75 136 66 145T59 170Q62 185 74 195T104 206H148L202 375H168Q151 375 142 384T135 409Q138 426 150 436T180 446H224L271 591Q284 627 312 627Q343 627 343 601Q343 593 340 584L295 445L448
443L499 600Q509 630 540 630Q553 630 561 623T569 603Q569 596 566 587L518 442H540Q556 442 565 435ZM424 373L273 374L219 206L370 207L424 373Z" />
<glyph unicode="$" glyph-name="dollar" horiz-adv-x="584" d="M490 461T481 467T471 482T469 511Q469 551 448 580T384 616L379 587L349 413L345 391Q417 366 468 324T519 200Q519 140 487 95T400 25T277 0H273L258 -83Q255 -105 229 -105Q218 -105 212 -100T206
-88L223 4Q144 18 100 68T55 195Q55 234 69 251T115 269Q144 269 151 256T159 213Q161 110 240 94L261 212L279 310Q205 335 155 375T104 493Q104 552 137 600T226 677T348 708L362 789Q364 796 372 802T392 809Q403 809 409 803T415 791L400 705Q477 694 524 647T571
532Q571 493 555 477T510 461Q490 461 481 467ZM205 458T227 440T296 407Q309 478 332 616Q278 609 242 573T205 491Q205 458 227 440ZM419 236T396 256T328 294Q300 143 290 91Q346 95 382 125T419 201Q419 236 396 256Z" />
<glyph unicode="%" glyph-name="percent" horiz-adv-x="893" d="M244 -3T232 6T220 30Q220 39 224 47T230 58L614 713Q621 726 635 733T666 740Q685 740 697 731T710 707Q710 701 706 694T696 677L318 28Q310 13 296 5T263 -3Q244 -3 232 6ZM225 424T190 456T155
539Q155 583 179 620T244 678T331 700Q388 700 421 668T454 585Q454 541 431 504T367 446T281 424Q225 424 190 456ZM327 496T349 518T371 575Q371 599 356 613T318 628Q289 628 265 606T240 548Q240 524 255 510T297 496Q327 496 349 518ZM557 50T522 83T487 166Q487
210 511 247T575 305T662 327Q720 327 753 295T786 212Q786 168 763 131T699 72T613 50Q557 50 522 83ZM660 122T681 145T702 202Q702 225 689 240T649 256Q616 256 595 232T573 174Q573 151 587 137T626 122Q660 122 681 145Z" />
<glyph unicode="&amp;" glyph-name="ampersand" horiz-adv-x="731" d="M640 86T640 67Q640 46 628 32T596 18Q582 18 564 28Q528 46 479 74Q436 44 385 28T282 12Q185 12 132 57T78 188Q78 244 113 301T204 399Q175 418 160 447T144 511Q144 564 171 605T243 670T343
693Q387 693 424 675T483 625T505 551Q505 482 464 444T348 383Q399 242 467 182L472 178Q518 231 518 288Q518 307 513 327Q512 330 511 333T510 341Q510 356 526 367T561 379Q589 379 600 356Q609 338 609 299Q609 208 544 132L621 95Q640 86 640 67ZM315 621T291
608T251 570T235 513Q235 485 252 467T305 445Q358 453 387 476T416 548Q416 583 394 602T341 621Q315 621 291 608ZM345 85T408 124Q400 130 396 134Q354 171 323 228T276 360Q228 335 198 286T168 190Q168 145 197 115T282 85Q345 85 408 124Z" />
<glyph unicode="&apos;" glyph-name="quotesingle" horiz-adv-x="236" d="M139 476T130 483T124 504Q142 598 159 690Q160 701 172 707T201 714Q217 714 227 708T235 690L223 627Q210 560 201 502Q199 490 187 483T156 476Q139 476 130 483Z" />
<glyph unicode="(" glyph-name="parenleft" horiz-adv-x="352" d="M182 -127T177 -125T165 -117Q109 -62 81 17T52 191Q52 294 87 404T183 605T323 738Q336 746 349 746Q364 746 375 737T386 714Q386 698 378 689T359 673T341 661Q278 618 232 541T161 373T136
197Q136 109 159 52T220 -50Q234 -67 234 -84Q234 -101 221 -114T194 -127Q182 -127 177 -125Z" />
<glyph unicode=")" glyph-name="parenright" horiz-adv-x="352" d="M14 -127T3 -118T-8 -95Q-8 -79 0 -70T20 -53T36 -42Q99 2 146 79T217 247T242 421Q242 510 217 565T151 668Q137 687 137 703Q137 719 152 732T183 746Q195 746 200 744T212 736Q267 679 296
599T326 425Q326 325 292 217T195 18T55 -119Q41 -127 28 -127Q14 -127 3 -118Z" />
<glyph unicode="*" glyph-name="asterisk" horiz-adv-x="500" d="M477 609T483 601T490 582Q490 564 466 552L340 496L449 439Q459 434 459 422Q459 407 449 395T425 383Q415 383 403 389L323 438L307 341Q305 329 294 322T267 315Q252 315 245 321T239 341L255
438L165 394Q161 393 154 390T142 387Q132 387 125 394T118 413Q118 433 135 441L256 496L140 558Q135 561 132 566T130 578Q131 589 141 600T162 611Q176 611 184 604L274 553Q276 565 278 579T283 609L292 659Q296 689 331 689Q349 689 355 682T360 659L342 552L437
599Q440 600 450 604T467 609Q477 609 483 601Z" />
<glyph unicode="+" glyph-name="plus" horiz-adv-x="547" d="M496 349T504 343T513 322Q513 274 461 274Q376 274 315 275L290 135Q283 94 245 94Q213 94 213 120Q213 127 239 276L89 277Q55 277 55 303Q55 326 68 339T103 352L252 351L267 442L274 480Q278 500
288 510T320 521Q352 521 352 495Q352 490 328 350Q386 349 476 349Q496 349 504 343Z" />
<glyph unicode="," glyph-name="comma" horiz-adv-x="302" d="M160 164T181 140T202 75Q202 33 184 -10T135 -80Q110 -103 81 -116T25 -129Q11 -129 3 -123T-5 -106Q-5 -92 4 -83T26 -73Q65 -73 101 -42Q114 -31 126 -15T145 19Q123 3 92 3Q62 3 43 22T24 70Q24
108 53 136T122 164Q160 164 181 140ZM143 102T135 109T113 117Q97 117 85 104T73 74Q73 49 101 49Q119 49 131 60T143 90Q143 102 135 109Z" />
<glyph unicode="-" glyph-name="hyphen" horiz-adv-x="422" d="M78 329T71 338T63 362Q63 384 76 398T108 413Q152 412 226 412Q319 412 367 416Q407 419 407 384Q407 362 392 347T353 330L318 329Q252 327 205 327Q172 327 154 328L90 329Q78 329 71 338Z" />
<glyph unicode="." glyph-name="period" horiz-adv-x="300" d="M82 3T67 17T51 56Q51 91 76 116T134 141Q157 141 173 124T189 81Q189 51 164 27T107 3Q82 3 67 17Z" />
<glyph unicode="/" glyph-name="slash" horiz-adv-x="545" d="M78 -9T66 1T53 27Q53 38 64 57L477 866Q484 880 492 885T516 891Q535 891 548 881T562 853Q562 842 554 826L141 22Q126 -9 101 -9Q78 -9 66 1Z" />
<glyph unicode="0" glyph-name="zero" horiz-adv-x="626" d="M204 13T150 45T68 132T39 254Q39 356 83 450T203 602T374 660Q450 660 504 625T586 529T614 395Q614 289 572 202T452 64T278 13Q204 13 150 45ZM350 94T403 134T484 241T513 386Q513 471 476 525T372
579Q309 579 256 531T171 407T140 260Q140 185 176 140T281 94Q350 94 403 134Z" />
<glyph unicode="1" glyph-name="one" horiz-adv-x="446" d="M368 672T382 657T394 622L292 44Q289 25 274 14T234 3Q214 3 205 12T195 35Q195 41 196 44L283 533Q236 483 190 440Q179 431 162 431Q142 431 131 443T122 470Q124 484 145 503Q180 537 261 623L285
648Q306 672 341 672Q368 672 382 657Z" />
<glyph unicode="2" glyph-name="two" horiz-adv-x="558" d="M448 88T459 79T471 54Q471 33 457 20T419 7Q408 7 362 9Q260 12 234 12Q127 12 54 8Q37 8 26 15T15 35Q15 95 102 176T296 324Q364 367 403 417T443 525Q443 569 415 596T339 623Q288 623 250 586T202
497Q198 478 184 469T145 460Q106 460 106 494Q106 548 138 596T224 674T340 703Q397 703 444 681T518 619T545 529Q545 447 491 381T341 256Q273 216 221 173T141 90Q177 91 248 91Q370 91 428 88Q448 88 459 79Z" />
<glyph unicode="3" glyph-name="three" horiz-adv-x="591" d="M512 339T531 306T551 227Q551 164 520 113T430 33T290 3Q178 3 106 50T33 192Q33 220 39 253Q43 277 58 290T97 303Q121 303 131 292T139 263Q138 254 136 238T134 212Q134 83 287 83Q359 83 407
119T455 222Q455 268 425 292T329 316Q295 316 295 345Q295 369 306 382T342 396Q411 396 450 427T489 517Q489 553 464 578T396 604Q345 604 303 572T253 492Q252 481 252 456Q252 441 237 429T197 417Q182 417 171 423T156 441Q155 447 154 454T153 470Q153 528
186 577T275 654T396 683Q448 683 493 664T564 608T591 525Q591 469 560 424T477 357Q512 339 531 306Z" />
<glyph unicode="4" glyph-name="four" horiz-adv-x="603" d="M571 288T580 280T589 255Q589 207 543 203Q500 197 447 194L413 40Q410 22 395 10T356 -2Q336 -2 326 6T316 30Q316 35 318 43L350 191Q315 190 240 190Q116 190 52 208Q22 216 22 240Q22 257 35 277Q128
411 206 507T375 678Q388 689 407 689Q423 689 433 679T444 656Q444 644 438 633T415 607Q332 533 260 447T148 293Q144 288 144 283Q144 279 158 276Q198 270 289 270Q342 270 368 271L414 483Q417 501 430 512T466 524Q488 524 499 514T510 487Q510 480 509 476L465
277Q507 280 555 286Q571 288 580 280Z" />
<glyph unicode="5" glyph-name="five" horiz-adv-x="583" d="M154 0T97 46T39 172Q39 194 44 227Q48 248 64 260T102 272Q124 272 136 264T148 241Q148 238 146 230Q141 202 141 184Q141 134 167 109T253 84Q343 84 390 134T438 274Q438 332 407 362T313 393Q286
393 259 389T181 372Q169 369 161 369Q141 369 130 379T120 407Q157 571 180 688Q275 684 387 684Q425 684 481 686Q529 688 547 688Q579 688 579 661Q579 637 565 622T527 607Q489 607 468 606L373 605Q316 605 262 607Q256 580 245 534T230 465Q230 457 239 457Q242
457 250 459Q280 467 301 471T349 475Q408 475 451 450T517 381T540 281Q540 195 506 132T407 34T254 0Q154 0 97 46Z" />
<glyph unicode="6" glyph-name="six" horiz-adv-x="604" d="M300 599T237 530T145 334Q178 371 229 393T334 416Q400 416 448 390T522 321T547 228Q547 156 513 106T418 29T279 3Q166 3 104 57T41 216Q41 258 49 306Q66 412 110 496T223 629T381 678Q457 678 512
639T590 538Q595 525 595 520Q595 501 577 487T541 472Q526 472 519 479T502 503Q485 536 473 554T438 585T379 599Q300 599 237 530ZM252 337T203 296T153 183Q153 135 185 109T282 82Q362 82 404 124T447 227Q447 274 418 305T329 337Q252 337 203 296Z" />
<glyph unicode="7" glyph-name="seven" horiz-adv-x="556" d="M535 379T535 347Q535 325 521 311T483 297Q440 297 417 296Q349 159 269 26Q262 14 246 7T215 0Q195 0 183 9T171 33Q171 44 178 55Q228 137 310 294H252Q213 294 213 325Q213 348 228 362T267 376Q325
376 351 377Q413 501 413 554Q413 585 392 598T316 612Q272 612 228 605T130 586Q122 584 118 584Q102 584 94 592T85 616Q85 650 130 665Q162 676 212 685T320 694Q413 694 463 659T514 560Q514 526 499 481T456 378Q468 379 492 379Q535 379 535 347Z" />
<glyph unicode="8" glyph-name="eight" horiz-adv-x="610" d="M509 402T543 355T577 244Q577 168 538 114T431 31T277 3Q203 3 146 27T58 95T26 195Q26 251 55 298T134 378T242 423Q215 436 199 459T183 516Q183 563 209 602T281 664T378 687Q421 687 456 670T512
622T533 554Q533 506 509 474T445 423Q509 402 543 355ZM334 609T306 581T278 513Q278 483 296 466T344 449Q383 449 411 479T440 548Q440 576 423 592T376 609Q334 609 306 581ZM341 81T386 104T455 166T479 246Q479 301 439 334T331 368Q278 368 231 347T154
287T124 201Q124 145 164 113T281 81Q341 81 386 104Z" />
<glyph unicode="9" glyph-name="nine" horiz-adv-x="594" d="M474 687T537 626T600 458Q600 420 593 382Q562 204 477 103T251 2Q189 2 138 22T56 80T26 166Q26 181 29 199Q33 219 48 231T84 244Q102 244 113 235T124 210Q124 201 123 194T122 180Q122 135 159
109T264 82Q348 82 409 151T501 348Q470 303 419 277T311 251Q210 251 150 297T90 427Q90 503 126 562T226 654T365 687Q474 687 537 626ZM360 326T400 348T465 408T490 492Q490 544 454 576T360 608Q311 608 272 585T211 522T188 431Q188 326 313 326Q360 326
400 348Z" />
<glyph unicode=":" glyph-name="colon" horiz-adv-x="312" d="M133 297T113 316T92 365Q92 405 118 431T186 457Q218 457 238 438T259 391Q259 350 234 324T165 297Q133 297 113 316ZM187 343T198 354T209 383Q209 394 201 401T180 409Q165 409 154 398T142 370Q142
357 150 350T170 343Q187 343 198 354ZM92 14T71 34T50 85Q50 123 75 149T139 176Q172 176 193 155T215 103Q215 63 190 39T123 14Q92 14 71 34ZM144 61T154 70T164 95Q164 108 157 115T136 123Q121 123 111 111T100 87Q100 74 107 68T127 61Q144 61 154 70Z" />
<glyph unicode=";" glyph-name="semicolon" horiz-adv-x="341" d="M238 457T258 438T279 391Q279 350 254 324T186 297Q153 297 133 316T113 365Q113 405 139 431T207 457Q238 457 258 438ZM207 343T218 354T229 383Q229 394 221 401T201 409Q186 409 175 398T163
370Q163 357 171 350T191 343Q207 343 218 354ZM183 164T204 140T226 75Q226 33 208 -10T159 -80Q133 -103 104 -116T48 -129Q34 -129 27 -123T19 -106Q19 -92 28 -83T50 -73Q87 -73 125 -42Q138 -31 150 -15T168 19Q146 3 115 3Q86 3 67 22T48 70Q48 108 76 136T145
164Q183 164 204 140ZM166 102T158 109T136 117Q120 117 108 104T96 74Q96 62 103 56T124 49Q142 49 154 60T166 90Q166 102 158 109Z" />
<glyph unicode="&lt;" glyph-name="less" horiz-adv-x="547" d="M407 108T230 181Q141 218 97 247T53 307Q53 343 112 379T280 453Q338 473 418 496T514 519Q529 519 537 511T546 489Q546 470 534 459T495 440L472 434Q460 431 409 417T299 383Q242 365 194 343T146
310Q146 303 171 292T251 260Q261 257 274 252Q306 240 327 231Q433 190 451 184Q480 175 480 151Q480 131 470 120T442 108Q407 108 230 181Z" />
<glyph unicode="=" glyph-name="equal" horiz-adv-x="547" d="M95 348T83 356T70 380Q70 401 89 413T140 425L469 428Q491 428 505 419T519 393Q519 373 501 362T453 351L115 348Q95 348 83 356ZM69 191T57 199T45 222Q45 244 63 256T113 269L449 279Q471 280
484 271T498 246Q498 226 481 215T434 202L89 191Q69 191 57 199Z" />
<glyph unicode="&gt;" glyph-name="greater" horiz-adv-x="547" d="M60 106T50 113T40 133Q40 149 50 162T78 182Q156 210 279 251Q412 297 412 312Q412 328 296 378Q245 399 192 415T115 438Q78 447 78 473Q78 492 90 503T122 514Q140 514 213 492T336 451Q422
417 471 381T520 312Q520 288 495 268T426 228T300 179Q193 140 141 123T76 106Q60 106 50 113Z" />
<glyph unicode="?" glyph-name="question" horiz-adv-x="534" d="M245 185T238 193T230 217Q230 252 257 288T339 378Q397 436 426 474T455 554Q455 601 425 630T344 659Q271 659 229 625T186 529Q186 506 199 491T233 476Q267 476 267 446Q267 427 254 415T219
403Q172 403 142 435T111 517Q111 578 141 626T224 703T343 731Q396 731 438 710T504 650T528 564Q528 524 509 487T464 420T395 349Q349 305 327 277T304 221Q304 199 292 192T259 185Q245 185 238 193ZM207 9T193 23T178 59Q178 87 200 108T250 129Q272 129 286
115T301 80Q301 54 279 32T229 9Q207 9 193 23Z" />
<glyph unicode="@" glyph-name="at" horiz-adv-x="892" d="M599 606T669 572T780 478T820 342Q820 273 790 202T709 86T601 40Q567 40 545 56T518 100Q495 80 464 69T397 58Q325 58 293 99T260 203Q260 266 287 319T362 405T468 437Q540 437 572 385L578 403Q582
416 593 423T621 430Q638 430 646 422T655 402Q655 398 653 390Q635 343 607 256Q581 179 580 143Q580 127 586 118T609 109Q644 109 673 146T719 238T736 342Q736 399 708 443T628 513T506 538Q400 538 322 492T203 367T162 195Q162 87 229 25T422 -37Q455 -37
479 -33T555 -17Q571 -13 580 -22T589 -46Q589 -59 580 -67T549 -84Q519 -94 480 -100T400 -106Q301 -106 228 -69T117 36T78 189Q78 301 133 396T288 549T512 606Q599 606 669 572ZM447 124T469 139T504 182Q516 211 539 296Q540 300 540 308Q540 334 516 354T460
374Q426 374 399 351T357 290T341 214Q341 173 360 149T418 124Q447 124 469 139Z" />
<glyph unicode="A" glyph-name="A" horiz-adv-x="694" d="M616 197T605 181T575 164H568L583 46L584 36Q584 15 567 3T526 -10Q508 -10 495 -3T481 18L465 165L209 166L137 22Q122 -9 84 -9Q60 -9 45 3T33 32Q33 39 38 47L163 293Q303 568 316 594Q349 660 371
685T429 711Q462 711 482 687T511 604Q533 458 556 259H576Q595 259 605 249T616 221Q616 197 605 181ZM455 260L429 497Q424 540 421 557T412 574Q407 574 400 562T383 529T369 500Q328 417 295 344L256 262L455 260Z" />
<glyph unicode="B" glyph-name="B" horiz-adv-x="639" d="M59 -26T55 5H44Q15 8 15 35Q15 58 28 76T63 93H76Q115 246 139 383Q152 453 172 582Q162 580 158 580Q149 580 143 586T136 605Q136 628 152 643T202 672Q294 707 394 707Q464 707 519 685T606 623T637
532Q637 458 582 411T440 350Q504 334 537 294T570 207Q570 137 528 89T417 18T266 -3L149 2Q133 -26 96 -26Q59 -26 55 5ZM367 85T419 116T471 215Q471 265 427 287T307 312Q283 312 270 318T257 342Q257 395 320 397Q415 401 475 429T536 529Q536 575 495 599T378
623Q357 623 329 620T276 610Q264 528 238 383Q225 305 210 241T171 87L211 86Q234 85 277 85Q367 85 419 116Z" />
<glyph unicode="C" glyph-name="C" horiz-adv-x="723" d="M711 709T721 700T732 674Q732 668 731 664L710 550Q700 497 651 497Q624 497 613 516Q594 551 578 572T535 608T466 623Q390 623 319 572T205 442T161 282Q161 219 189 175T263 109T365 87Q442 87 506
128T591 248Q596 269 608 282T648 296Q672 296 683 287T694 258Q694 249 693 243Q683 182 641 125T527 33T365 -3Q281 -3 212 30T101 128T60 282Q60 389 116 489T266 651T466 713Q526 713 567 693T632 637L638 671Q640 688 653 698T690 709Q711 709 721 700Z" />
<glyph unicode="D" glyph-name="D" horiz-adv-x="697" d="M477 682T575 609T673 397Q673 281 608 192T428 55T173 6H90Q64 6 53 14T41 42Q41 64 54 79T90 95H117L193 611H189Q169 611 158 617T147 643Q147 701 205 701H216Q231 716 260 716Q278 716 287 712T300
697Q477 682 575 609ZM313 102T395 142T525 249T573 397Q573 501 496 549T292 607L216 96Q313 102 395 142Z" />
<glyph unicode="E" glyph-name="E" d="M610 687T620 681T630 658Q630 633 616 617T581 603Q485 611 406 611Q336 611 279 606Q260 477 248 413Q263 412 297 412Q407 412 473 408Q501 408 501 379Q501 355 489 337T458 319L399 320Q351 322 284 323H232Q211 212
178 104Q238 99 312 99Q367 99 400 101T477 108Q481 109 488 109Q521 109 521 75Q521 28 474 19Q434 11 284 11Q223 11 171 13T52 24Q26 27 26 55Q26 78 36 94T64 110H80Q97 161 108 209T132 324H122Q89 324 89 356Q89 381 101 397T134 414H148Q171 538 181 603H175Q165
603 160 612T155 634Q155 665 171 677T214 693Q265 699 389 699Q533 699 592 690Q610 687 620 681Z" />
<glyph unicode="F" glyph-name="F" horiz-adv-x="586" d="M625 684T625 658Q625 634 611 618T574 603Q466 616 386 616Q354 616 284 614Q271 489 257 401Q301 403 329 403Q371 403 418 401T486 394Q518 388 518 360Q518 338 505 322T466 307Q400 313 327 313Q291
313 241 311Q217 170 185 46Q180 28 165 17T128 6Q108 6 97 15T85 38Q85 44 86 47L95 84Q124 209 141 303L103 298Q89 297 81 305T72 330Q72 355 85 369T124 388Q134 390 156 392Q173 493 183 609L161 608Q142 608 133 615T124 639Q124 665 137 679T172 696L191
697L192 709Q194 727 210 738T251 750Q296 750 293 708Q293 704 292 702Q364 704 391 704Q455 704 512 701T592 692Q625 684 625 658Z" />
<glyph unicode="G" glyph-name="G" horiz-adv-x="751" d="M374 600T307 558T200 445T161 297Q161 236 186 190T256 117T362 91Q520 91 564 278L436 280Q395 281 395 316Q395 341 410 356T450 371L688 366Q711 365 722 357T733 331Q733 307 720 292T683 277H660Q630
143 555 72T359 0Q268 0 200 39T96 146T60 297Q60 401 113 492T256 637T450 691Q522 691 569 665T641 602L647 627Q652 647 662 655T695 663Q716 663 729 654T741 628Q738 598 730 570T712 527Q695 502 660 502Q646 502 635 507T610 528Q578 563 546 581T456 600Q374
600 307 558Z" />
<glyph unicode="H" glyph-name="H" horiz-adv-x="744" d="M683 362T693 354T703 325Q703 299 688 285T648 271H633L600 47Q596 25 581 12T542 -1Q521 -1 510 8T498 36L499 44L532 273L228 277L165 30Q156 -6 109 -6Q87 -6 76 2T64 25Q64 29 66 37L128 279H110Q76
279 76 316Q76 341 90 355T128 369H151L231 679Q236 699 252 710T290 722Q310 722 320 713T331 687Q331 684 329 672L251 367L546 364L591 674Q594 695 609 708T649 722Q670 722 681 713T693 686L692 678L646 362H664Q683 362 693 354Z" />
<glyph unicode="I" glyph-name="I" horiz-adv-x="462" d="M503 700T503 670Q503 646 489 631T451 615L420 616L369 619Q312 308 258 95L358 94Q378 94 386 86T395 61Q395 35 381 19T341 3L39 7Q6 8 6 42Q6 67 20 82T57 98L160 97Q216 327 269 618Q231 617 186
613Q156 610 137 610Q123 610 115 619T107 645Q107 669 120 683T156 701Q228 710 326 710Q403 710 470 704Q503 700 503 670Z" />
<glyph unicode="J" glyph-name="J" horiz-adv-x="586" d="M633 697T633 669Q633 644 621 629T580 613H537Q516 506 493 375L473 263Q451 135 388 67T218 -1Q127 -1 76 50T24 192Q24 222 30 256Q35 285 49 297T91 309Q113 309 123 299T133 271Q133 263 132 259Q126
225 126 196Q126 90 215 90Q272 90 313 133T371 266Q401 431 437 611H377Q337 611 337 645Q337 670 349 683T378 698Q431 702 521 702Q579 702 598 701Q633 697 633 669Z" />
<glyph unicode="K" glyph-name="K" horiz-adv-x="624" d="M648 697T660 685T672 657Q672 645 666 634T649 615Q570 564 435 484L323 419L238 370L292 314Q357 246 374 230Q452 153 533 84Q546 72 546 55Q546 32 528 15T488 -2Q472 -2 460 7Q406 51 329 132L306
155Q235 226 186 285Q160 154 141 49Q137 26 121 13T81 -1Q60 -1 49 9T40 39L72 213Q82 262 102 371Q112 422 130 534Q144 625 150 656Q154 675 170 687T209 700Q229 700 240 690T251 663Q251 656 250 653Q236 569 234 554L215 447L322 513L387 553Q491 617 597
687Q611 697 630 697Q648 697 660 685Z" />
<glyph unicode="L" glyph-name="L" horiz-adv-x="544" d="M156 -2T118 13T64 59T48 145Q48 287 177 665Q183 683 199 693T237 704Q254 704 266 696T278 675Q278 673 276 665L265 634Q205 461 175 350T144 145Q144 120 151 108T175 91T228 86Q278 86 319 91T418
107L449 113Q452 114 457 114Q472 114 480 104T489 79Q489 31 435 20Q366 8 321 3T223 -2Q156 -2 118 13Z" />
<glyph unicode="M" glyph-name="M" horiz-adv-x="801" d="M728 712T745 678T762 576Q762 435 689 43Q684 20 670 7T632 -6Q611 -6 599 4T587 32Q587 37 588 40L612 174Q643 344 656 424T669 548Q669 573 666 583T657 593Q642 593 613 551T554 460Q511 383 468
282Q459 261 443 253T405 244Q382 244 371 252T356 279Q351 305 345 358Q337 421 330 458Q320 507 305 551T278 595Q261 595 238 518T193 329Q160 160 141 40Q138 21 123 10T83 -2Q41 -2 41 35Q41 39 43 51Q54 123 81 261Q92 314 95 331Q132 531 176 621T283 712Q356
712 385 620T424 387Q477 514 547 613T689 712Q728 712 745 678Z" />
<glyph unicode="N" glyph-name="N" horiz-adv-x="745" d="M743 714T743 673Q743 665 742 661L700 428Q695 397 689 368T679 312Q658 194 639 130T597 38T543 11Q511 11 484 40T426 127T343 303L292 415Q244 522 230 548Q216 477 195 335Q172 190 152 91L145 51Q142
34 126 22T88 9Q67 9 54 21T44 51Q48 76 56 119Q82 260 95 341L124 512L139 602Q150 660 166 683T215 707Q247 707 272 682T322 605T402 433L411 412Q490 233 542 139Q553 185 581 329Q600 428 642 670Q646 690 660 702T700 714Q743 714 743 673Z" />
<glyph unicode="O" glyph-name="O" horiz-adv-x="799" d="M280 7T212 41T104 139T64 292Q64 404 115 499T255 651T455 708Q546 708 618 669T730 559T771 399Q771 287 719 198T574 58T366 7Q280 7 212 41ZM458 98T526 138T632 247T670 401Q670 499 613 558T460
617Q376 617 309 572T203 451T165 292Q165 193 225 146T373 98Q458 98 526 138Z" />
<glyph unicode="P" glyph-name="P" horiz-adv-x="635" d="M467 702T523 676T613 602T646 496Q646 423 604 368T493 284T342 255Q301 255 267 262T209 281L164 40Q160 18 144 5T105 -8Q84 -8 73 2T61 30Q61 36 62 40L84 157Q106 270 113 310Q134 430 151 545L147
543Q137 538 128 538Q116 538 109 548T102 575Q102 597 113 608T149 632L164 640L167 656Q172 682 187 694T229 707Q254 707 264 701T274 685V684Q336 702 398 702Q467 702 523 676ZM391 338T435 358T506 415T533 496Q533 549 490 581T381 613Q331 613 259 589L255
564L246 510Q239 474 234 430L224 366Q247 352 277 345T338 338Q391 338 435 358Z" />
<glyph unicode="Q" glyph-name="Q" horiz-adv-x="788" d="M685 102Q696 89 696 75Q696 53 677 34T634 15Q613 15 601 29L562 75Q458 12 340 12Q251 12 189 50T96 153T64 300Q64 411 120 506T269 656T471 712Q553 712 619 673T724 565T763 410Q763 335 733 267T649
144L685 102ZM428 103T502 147L451 208Q442 219 442 231Q442 250 465 270T510 290Q523 290 530 282L586 217Q622 258 642 308T662 411Q662 472 637 519T568 594T466 621Q386 621 317 575T208 455T167 298Q167 208 215 156T346 103Q428 103 502 147Z" />
<glyph unicode="R" glyph-name="R" horiz-adv-x="658" d="M649 432T604 381T485 304T324 278Q281 278 239 287L536 99Q555 87 555 71Q555 48 541 30T503 12Q493 12 482 16T465 25L190 214L179 153Q175 132 170 104T159 39Q155 18 140 6T103 -6Q81 -6 71 5T60 35Q60
43 61 47Q86 175 117 363L126 417Q130 443 135 473T145 541H144Q134 539 132 539Q119 539 114 548T109 575Q109 595 117 608T146 632Q149 634 152 635T159 637L161 652Q165 677 180 690T221 703Q267 703 262 677V676Q333 700 395 700Q473 700 530 675T618 606T649
504Q649 432 604 381ZM327 610T249 582Q233 454 218 371Q263 360 329 360Q419 360 478 398T537 504Q537 553 498 581T391 610Q327 610 249 582Z" />
<glyph unicode="S" glyph-name="S" horiz-adv-x="584" d="M175 0T115 53T55 195Q55 234 69 251T115 269Q144 269 151 256T159 213Q161 90 275 90Q337 90 378 121T419 201Q419 231 402 250T359 280T285 308Q209 332 157 372T104 493Q104 553 139 602T232 680T359
708Q420 708 468 686T544 623T571 532Q571 493 555 477T510 461Q490 461 481 467T471 482T469 511Q469 557 441 587T358 618Q317 618 282 601T226 554T205 491Q205 465 219 449T255 423T322 399Q328 396 334 395T345 391Q417 366 468 324T519 200Q519 140 487 95T400
25T277 0Q175 0 115 53Z" />
<glyph unicode="T" glyph-name="T" horiz-adv-x="568" d="M588 688T598 680T608 653Q608 628 592 613T548 598Q478 604 401 606Q374 496 341 337Q300 134 283 40Q278 13 266 2T223 -10Q199 -10 188 -1T177 27Q177 37 180 49Q214 221 241 336L291 557L302 605Q248
604 144 595Q126 593 115 603T104 634Q104 656 117 669T153 685Q252 697 373 697Q422 697 483 695T570 690Q588 688 598 680Z" />
<glyph unicode="U" glyph-name="U" horiz-adv-x="679" d="M653 709T665 699T677 671Q677 665 676 662Q658 567 642 468Q638 437 635 424Q626 362 590 151L572 46Q567 20 555 9T517 -3Q472 -3 472 33Q472 42 473 46Q477 68 479 81T482 101Q449 57 397 29T282 1Q213
1 165 29T94 103T70 204Q70 242 86 331T143 615L152 660Q160 703 210 703Q252 703 252 671Q252 663 251 659Q207 454 190 354T172 208Q172 155 201 124T284 92Q335 92 385 121T470 199T516 301Q537 414 578 664Q581 685 594 697T631 709Q653 709 665 699Z" />
<glyph unicode="V" glyph-name="V" horiz-adv-x="667" d="M273 -1T251 13T219 52Q200 108 164 370Q163 378 144 529Q140 566 129 653Q128 660 128 669Q128 689 144 698T186 708Q204 708 214 700T226 679Q234 616 246 504L259 388Q273 272 280 219T296 142T314
118Q330 118 360 173T461 388Q536 561 591 683Q598 696 608 701T634 707Q657 707 672 697T687 670Q687 659 683 650Q636 545 556 372Q436 110 398 52Q382 28 357 14T302 -1Q273 -1 251 13Z" />
<glyph unicode="W" glyph-name="W" horiz-adv-x="869" d="M213 1T196 13T177 45Q171 110 168 190Q163 292 155 381Q154 399 143 492Q141 513 136 559T129 643Q129 652 130 657Q131 678 149 691T193 705Q211 705 220 697T231 671L239 590Q252 465 255 404Q257 378
259 314Q263 231 266 189T274 146Q280 146 318 215Q329 233 339 251T359 285Q406 365 426 393T467 421Q488 421 500 392T539 276L549 239Q564 187 570 167T582 147Q585 147 599 183T630 265Q671 374 682 402Q697 441 702 452Q743 559 789 671Q795 687 809 695T842
704Q863 704 875 693T887 661Q887 655 883 645Q860 597 812 478Q779 394 774 382Q750 322 712 222Q675 120 646 51Q627 3 573 3Q544 3 525 29T482 127Q473 153 461 201Q449 256 443 256Q440 256 429 238T404 195Q369 135 359 119Q316 50 290 26T237 1Q213 1 196
13Z" />
<glyph unicode="X" glyph-name="X" horiz-adv-x="671" d="M691 629T674 611L416 336L524 145L563 75Q573 55 573 46Q571 27 551 11T508 -6Q497 -6 491 -2T479 13Q427 103 396 160L342 256L122 21Q109 7 100 3T77 -2Q55 -2 38 13T23 45Q24 56 28 62T42 78L293 344L135
626Q127 637 129 648Q130 669 150 684T194 700Q207 700 214 693T233 667Q264 609 313 521Q343 469 367 424L544 614Q582 654 599 673Q611 686 619 692T638 698Q660 698 675 681T691 644Q691 629 674 611Z" />
<glyph unicode="Y" glyph-name="Y" horiz-adv-x="655" d="M268 2T257 12T246 40Q246 47 247 50L293 329Q273 335 247 369T198 453Q177 499 163 543T135 645Q134 648 134 655Q134 677 154 689T199 701Q217 701 227 691T242 660Q258 601 268 568T292 499Q305 464
323 435T356 406Q369 406 396 432T455 500Q484 538 513 582T550 639Q555 647 559 653T566 664Q579 685 586 692T609 699Q631 699 648 686T666 656Q666 647 659 633Q633 587 599 537T536 449Q496 399 455 367T393 329L347 52Q337 2 289 2Q268 2 257 12Z" />
<glyph unicode="Z" glyph-name="Z" horiz-adv-x="685" d="M495 19Q389 28 300 28Q231 28 127 24L62 22Q33 22 21 30T9 56Q9 84 59 133T235 291Q331 373 354 394Q451 478 504 526T585 603Q487 594 418 594Q361 594 293 599T191 612Q170 618 161 627T151 650Q151
672 165 687T204 702L235 699Q337 684 435 684Q479 684 528 687T652 697Q666 698 681 694T706 682Q722 670 722 650Q722 618 669 565T493 405L437 356Q416 338 396 321T358 287Q284 223 235 179T159 109Q271 116 357 116Q412 116 452 114T552 104Q589 98 589 67Q589
44 572 29T533 16L495 19Z" />
<glyph unicode="[" glyph-name="bracketleft" horiz-adv-x="349" d="M52 -166T-8 -157Q34 28 77 296Q100 431 112 522T140 744Q205 748 347 748Q363 748 371 738T379 713Q379 693 366 681T330 669H277Q232 669 214 667L210 635Q184 453 158 299L151 257Q144 220
123 104T86 -86L146 -88Q165 -88 176 -87L209 -86Q236 -86 236 -113Q236 -136 224 -148T189 -163Q154 -166 86 -166Q52 -166 -8 -157Z" />
<glyph unicode="\" glyph-name="backslash" horiz-adv-x="484" d="M320 0T312 7T300 29L169 848Q168 852 168 860Q168 881 186 897T227 913Q259 913 263 886L394 67V52Q394 28 377 14T331 0Q320 0 312 7Z" />
<glyph unicode="]" glyph-name="bracketright" horiz-adv-x="349" d="M43 -165T15 -163Q-15 -162 -15 -134Q-15 -113 -4 -100T26 -86L99 -87Q131 -87 149 -86Q163 13 214 299Q237 437 278 625L288 673H253H178Q159 673 148 680T136 703Q136 721 146 734T176 748Q340
748 388 744Q356 614 337 523T294 296Q234 -48 218 -157Q173 -165 120 -165Q43 -165 15 -163Z" />
<glyph unicode="^" glyph-name="asciicircum" horiz-adv-x="610" d="M101 215T89 223T77 243Q77 248 78 251Q172 465 248 583T376 701Q431 701 472 587T538 263Q540 242 527 228T492 213Q479 213 469 219T458 236Q453 311 439 400T408 552T374 614Q350 614 277
486T151 235Q146 224 139 220T116 215Q101 215 89 223Z" />
<glyph unicode="_" glyph-name="underscore" horiz-adv-x="561" d="M-51 -142T-61 -133T-71 -107Q-71 -86 -56 -73T-20 -59L204 -60Q388 -62 477 -62Q493 -62 502 -70T511 -94Q511 -116 499 -131T463 -147Q347 -147 211 -144Q33 -142 -35 -142Q-51 -142 -61 -133Z" />
<glyph unicode="`" glyph-name="grave" horiz-adv-x="314" d="M275 490T264 502L120 675Q108 687 108 699Q108 715 124 730T157 746Q172 746 185 730L220 688Q291 601 331 556Q339 548 339 533Q339 517 324 504T291 490Q275 490 264 502Z" />
<glyph unicode="a" glyph-name="a" horiz-adv-x="620" d="M521 77T527 73T534 53Q534 31 522 16T485 1Q449 1 431 13T403 55Q351 -10 248 -10Q183 -10 138 17T69 91T46 195Q46 277 81 345T178 454T318 494Q367 494 402 476T455 427L462 451Q474 488 509 488Q530
488 543 480T557 459Q557 450 551 433T544 410Q535 386 531 371Q514 314 498 233T482 116Q482 98 487 90T507 80Q521 77 527 73ZM306 70T344 97T392 175Q416 297 416 325Q416 370 387 392T322 415Q273 415 233 382T171 298T148 191Q148 138 173 104T254 70Q306
70 344 97Z" />
<glyph unicode="b" glyph-name="b" horiz-adv-x="637" d="M428 509T479 483T559 408T589 298Q589 211 551 143T446 37T294 -2Q256 -2 219 10T156 39T121 74Q111 54 92 38T57 15Q45 9 36 9Q19 9 9 21T-2 49Q-2 65 15 77Q24 83 33 91T47 110Q55 126 61 156T81 280L97
382L131 598Q150 710 168 830Q171 849 187 860T226 871Q246 871 258 861T267 834Q255 740 232 603L208 450Q265 509 365 509Q428 509 479 483ZM350 77T394 107T464 188T489 297Q489 361 453 395T355 430Q305 430 263 405T194 347L185 298L179 264Q170 206 167 175Q166
149 183 127T229 91T295 77Q350 77 394 107Z" />
<glyph unicode="c" glyph-name="c" horiz-adv-x="591" d="M206 0T154 27T74 102T46 206Q46 290 85 360T192 472T344 514Q396 514 445 493T526 436T557 359Q557 339 543 329T504 318Q488 318 478 326T465 351Q463 370 448 389T407 422T347 435Q292 435 246 402T173
316T146 206Q146 149 180 114T280 79Q329 79 369 98T431 146T454 205Q454 217 467 226T500 235Q520 235 531 228T542 204Q542 146 504 100T405 27T275 0Q206 0 154 27Z" />
<glyph unicode="d" glyph-name="d" horiz-adv-x="634" d="M171 -7T109 44T47 194Q47 278 86 351T193 467T345 510Q400 510 442 493T505 446L580 826Q584 843 599 854T636 865Q657 865 670 854T679 826L554 175Q550 153 548 131T547 100Q548 81 558 68T568 51Q568
43 558 30T532 6T503 -4Q479 -4 462 18T443 74Q408 33 368 13T268 -7Q171 -7 109 44ZM324 77T361 95T422 142T453 205L481 357Q470 387 432 407T347 428Q291 428 246 397T174 316T148 210Q148 144 185 111T282 77Q324 77 361 95Z" />
<glyph unicode="e" glyph-name="e" horiz-adv-x="611" d="M213 -6T160 23T78 103T50 214Q50 294 89 363T196 473T349 514Q410 514 459 492T538 428T568 330Q568 278 550 255T497 231L139 225Q138 218 138 206Q138 149 179 113T286 76Q341 76 374 95T446 150Q459
161 473 161Q488 161 501 151T514 126Q514 111 499 95Q463 53 416 24T286 -6Q213 -6 160 23ZM466 302Q479 302 483 308T487 332Q487 380 449 408T351 436Q300 436 256 412T184 354T152 295L466 302Z" />
<glyph unicode="f" glyph-name="f" horiz-adv-x="402" d="M403 740T441 708T480 620Q480 607 477 592Q472 560 458 547T418 533Q397 533 386 542T375 566Q375 573 376 576Q381 604 381 619Q381 639 372 648T341 658Q307 658 289 628T258 528Q247 466 245 450L239
413H309Q340 413 340 382Q340 362 329 350T296 336L226 335Q204 196 178 42Q174 21 160 11T123 0Q100 0 90 11T81 41L127 333Q91 333 79 332Q42 332 42 362Q42 408 91 411Q103 412 140 412L160 535Q193 740 341 740Q403 740 441 708Z" />
<glyph unicode="g" glyph-name="g" horiz-adv-x="585" d="M525 530T540 521T556 497Q556 491 553 483Q538 454 521 415L516 268Q514 235 512 171Q509 64 499 -14Q481 -134 408 -192T218 -250Q164 -250 121 -231T54 -177T29 -101Q29 -72 41 -58T82 -44Q115 -44
115 -73Q115 -117 143 -142T219 -168Q296 -168 341 -135T401 -15Q405 7 409 63Q381 35 340 18T249 1Q186 1 139 30T67 108T42 215Q42 293 79 359T181 465T324 505Q367 505 398 493T447 464Q465 500 473 513Q483 530 507 530Q525 530 540 521ZM309 85T355 110T415
165L421 369Q415 388 387 405T321 422Q272 422 231 392T165 314T141 213Q141 157 172 121T265 85Q309 85 355 110Z" />
<glyph unicode="h" glyph-name="h" horiz-adv-x="570" d="M447 517T489 477T531 358Q531 314 520 237T488 39Q485 22 470 12T433 1Q411 1 399 13T390 44L396 80Q428 271 433 336Q439 434 366 434Q317 434 272 395T206 307Q197 286 191 257T178 193T170 145L152
38Q149 22 133 12T95 2Q74 2 62 12T52 39Q87 236 126 426Q155 567 197 742Q201 763 216 774T254 785Q294 785 294 757Q294 750 293 746Q286 714 248 550Q238 510 224 448Q287 517 379 517Q447 517 489 477Z" />
<glyph unicode="i" glyph-name="i" horiz-adv-x="317" d="M196 551T180 567T163 609Q163 644 188 668T250 693Q278 693 294 678T311 637Q311 601 285 576T224 551Q196 551 180 567ZM93 6T81 15T69 39Q69 45 70 48L151 454Q155 474 170 485T209 497Q229 497 241
488T253 462Q253 456 252 453L171 47Q167 27 151 17T113 6Q93 6 81 15Z" />
<glyph unicode="j" glyph-name="j" horiz-adv-x="349" d="M235 553T218 570T200 613Q200 644 225 668T286 692Q314 692 331 677T348 635Q348 600 322 577T263 553Q235 553 218 570ZM-65 -236T-103 -203T-141 -112Q-141 -77 -127 -60T-82 -43Q-56 -43 -50 -54T-44
-93Q-44 -126 -37 -141T-4 -157Q41 -157 65 -111T109 25Q140 171 193 462Q195 478 210 488T248 498Q271 498 282 487T290 460Q239 184 206 24Q178 -114 126 -175T-4 -236Q-65 -236 -103 -203Z" />
<glyph unicode="k" glyph-name="k" horiz-adv-x="534" d="M68 -6T56 4T46 30L167 714Q171 734 186 745T223 756Q243 756 255 747T267 722Q267 717 266 714L206 385Q262 415 284 426Q312 441 371 472T481 531Q500 541 513 540Q528 539 537 523T544 491Q543 481
536 473T512 456L199 286L451 77Q459 69 459 57Q459 36 441 20T403 3Q384 3 369 16Q350 31 319 58T268 101Q199 161 171 184L143 31Q140 15 125 5T89 -6Q68 -6 56 4Z" />
<glyph unicode="l" glyph-name="l" horiz-adv-x="257" d="M64 9T53 20T44 49L160 748Q164 768 181 780T220 792Q240 792 252 782T261 755L143 53Q139 32 123 21T85 9Q64 9 53 20Z" />
<glyph unicode="m" glyph-name="m" horiz-adv-x="796" d="M670 508T707 468T744 358Q744 306 692 39Q689 21 675 11T639 0Q618 0 606 11T598 39Q625 178 636 248T648 358Q648 433 592 433Q546 433 516 385T471 261Q460 207 433 42Q427 2 379 2Q355 2 345 13T336
41Q357 162 375 258Q381 291 381 322Q381 371 366 400T317 429Q286 429 256 395T201 292Q188 256 182 229T169 164L164 138Q160 116 152 67L147 37Q144 20 130 11T95 2Q75 2 64 11T54 36Q72 145 85 218Q115 392 115 404Q115 424 104 435Q103 436 99 440T95 452Q95
470 110 483T142 497Q167 497 182 462Q187 452 189 440T191 417L190 412Q241 505 328 505Q376 505 405 478T444 404Q493 508 601 508Q670 508 707 468Z" />
<glyph unicode="n" glyph-name="n" horiz-adv-x="561" d="M433 510T473 468T513 349Q513 321 505 267T478 114Q479 117 464 38Q461 20 446 10T409 0Q386 0 374 11T365 38L386 162Q398 229 406 279T414 349Q414 389 399 408T351 428Q303 428 267 391T207 284Q189
234 180 176Q173 138 156 36Q153 18 139 9T101 -1Q77 -1 66 9T57 36L69 111Q100 297 111 384Q112 389 112 398Q112 409 108 421T97 447Q96 450 95 453T94 462Q94 477 113 490T149 504Q167 504 180 482Q187 471 193 451T197 421L193 403Q250 510 363 510Q433 510
473 468Z" />
<glyph unicode="o" glyph-name="o" horiz-adv-x="598" d="M166 -1T98 51T30 214Q30 295 68 364T175 475T331 517Q439 517 505 456T571 283Q571 202 535 137T430 36T273 -1Q166 -1 98 51ZM335 77T379 104T447 178T470 283Q470 355 433 396T331 438Q272 438 227
407T157 325T132 214Q132 142 171 110T273 77Q335 77 379 104Z" />
<glyph unicode="p" glyph-name="p" horiz-adv-x="621" d="M425 513T475 486T555 410T585 296Q585 210 549 142T446 36T294 -2Q239 -2 193 12T129 40L123 12Q91 -151 83 -185Q80 -203 65 -213T26 -224Q7 -224 -4 -215T-15 -191Q-15 -184 -14 -181Q-10 -163 -7 -149T-1
-122Q26 0 45 100Q91 338 91 378Q91 408 77 428Q76 430 73 435T69 447Q69 464 90 481T131 498Q143 498 152 489Q170 470 180 432Q207 465 254 489T365 513Q425 513 475 486ZM352 77T395 106T461 186T484 296Q484 359 449 395T359 431Q313 431 274 411T211 365T183
320L150 135Q152 125 173 111T227 87T293 77Q352 77 395 106Z" />
<glyph unicode="q" glyph-name="q" horiz-adv-x="642" d="M608 488T620 477T632 452Q632 441 618 422L567 356Q530 173 503 28Q480 -95 461 -199Q458 -215 442 -226T403 -237Q381 -237 370 -227T361 -201L409 48Q349 -3 262 -3Q200 -3 149 22T68 97T38 213Q38
294 76 362T181 471T330 512Q397 512 447 484T514 414Q531 440 550 462Q562 477 570 482T589 488Q608 488 620 477ZM465 342T449 369T402 414T328 432Q274 432 231 401T163 319T138 213Q138 146 173 112T269 78Q319 78 366 100T429 147Q446 217 460 296L464 318Q465
342 449 369Z" />
<glyph unicode="r" glyph-name="r" horiz-adv-x="508" d="M412 516T447 482T483 389Q483 322 439 286T328 249Q305 249 297 255T288 275Q288 312 324 316Q360 320 379 338T399 389Q399 411 388 424T350 437Q315 437 282 404T224 324T188 235Q180 204 156 87L152
67Q144 22 132 7T92 -8Q65 -8 56 3T49 37Q51 63 81 223Q92 287 97 339T110 487Q111 506 126 517T165 528Q204 528 200 492Q197 458 188 393Q215 449 258 482T354 516Q412 516 447 482Z" />
<glyph unicode="s" glyph-name="s" horiz-adv-x="492" d="M171 -6T130 12T63 58T30 118Q26 131 28 137Q32 153 49 164T84 175Q95 175 100 170T115 149Q160 75 225 75Q264 75 291 95T318 146Q318 171 296 185T226 220Q180 239 152 254T104 297T83 366Q83 412 108
447T177 503T280 523Q356 523 403 485T450 385Q450 355 439 343T399 330Q378 330 369 339T362 363Q366 441 282 441Q230 441 207 420T183 366Q183 341 205 326T278 289Q323 271 351 255T400 212T420 146Q420 72 363 33T221 -6Q171 -6 130 12Z" />
<glyph unicode="t" glyph-name="t" horiz-adv-x="441" d="M380 175T380 145Q380 106 363 73T315 19T245 -1Q184 -1 148 39T112 155Q112 236 148 380L97 383Q65 385 65 412Q65 462 112 462Q128 462 168 460Q199 567 220 634Q233 670 275 670Q295 670 307 661T319
637Q319 634 317 626Q282 518 265 454Q305 452 328 452Q366 452 366 428Q366 400 353 389T313 377H244Q208 233 208 151Q208 116 216 98T246 80Q267 80 281 94T297 137Q299 154 310 164T344 175Q380 175 380 145Z" />
<glyph unicode="u" glyph-name="u" horiz-adv-x="556" d="M446 106T446 96Q446 80 452 64T459 42Q459 29 443 16T412 3Q391 3 373 23T356 69V74Q297 -1 196 -1Q125 -1 90 39T54 154Q54 198 89 385Q92 405 96 425T104 467Q107 484 122 494T159 504Q180 504 193
494T203 467Q196 426 188 388Q185 369 175 312T159 219T154 164Q154 78 221 78Q282 78 318 133T375 294L406 467Q409 487 424 498T461 510Q484 510 496 498T505 467L449 127Q446 106 446 96Z" />
<glyph unicode="v" glyph-name="v" horiz-adv-x="533" d="M188 4T154 62T102 221Q93 272 88 326T82 420Q82 462 95 482T144 503Q169 503 177 492T185 456L184 417Q184 351 195 264Q204 203 217 158T239 112Q249 112 280 158T343 265Q380 338 398 383T428 468Q440
508 485 508Q504 508 515 498T526 471Q526 444 495 370T424 221Q365 113 319 59T231 4Q188 4 154 62Z" />
<glyph unicode="w" glyph-name="w" horiz-adv-x="774" d="M154 0T128 101T101 325Q101 412 109 465Q114 494 128 506T167 519Q213 519 209 481L205 433Q199 355 199 325Q199 252 207 183T232 113Q240 113 260 155T324 296Q334 319 343 340T361 380Q372 406 386
418T421 431Q441 431 450 419T464 379Q467 357 474 302Q485 205 494 161T518 116Q528 116 543 146T582 241Q613 324 625 366T654 478Q664 518 709 518Q731 518 741 510T751 483Q751 445 718 344T655 176Q578 1 508 1Q458 1 430 83T399 299Q305 2 213 1Q154 0 128
101Z" />
<glyph unicode="x" glyph-name="x" horiz-adv-x="515" d="M478 460T472 454Q476 459 438 414L314 271L437 62Q442 55 442 48Q442 28 424 13T384 -3Q366 -3 357 12L248 194L90 13Q76 -4 52 -4Q33 -4 22 7T10 34Q10 48 17 56L204 268L95 452Q93 456 93 467Q94 482
114 497T152 512Q169 512 177 500Q232 410 270 344L407 500Q420 513 433 513Q451 513 464 500T478 469Q478 460 472 454Z" />
<glyph unicode="y" glyph-name="y" horiz-adv-x="529" d="M111 -261T100 -250T88 -223Q88 -207 95 -198Q176 -54 233 59Q195 91 160 158T104 306T82 455V470Q84 485 98 497T137 509Q156 509 162 501T170 476Q177 350 208 260T275 135L288 164Q376 352 429 481Q436
498 446 505T475 512Q499 512 512 502T524 474L521 463Q424 232 346 82Q235 -135 181 -229Q172 -245 161 -253T132 -261Q111 -261 100 -250Z" />
<glyph unicode="z" glyph-name="z" horiz-adv-x="559" d="M375 0T337 3T259 6Q207 6 129 2Q89 -1 65 -1Q1 -1 1 31Q1 44 8 54T28 76Q272 296 422 423L379 420Q319 414 274 414Q235 414 198 417T142 426Q110 433 110 458Q110 477 123 494T157 508Q251 495 326 495Q371
495 437 501Q482 506 508 506Q542 506 553 499T564 477Q564 446 531 418Q447 343 321 236Q178 112 144 81L185 83Q249 87 291 87Q360 87 432 78Q458 73 458 47Q458 26 444 11T407 -3Q375 0 337 3Z" />
<glyph unicode="{" glyph-name="braceleft" horiz-adv-x="412" d="M162 -183T123 -138T84 -21Q84 9 95 69Q100 97 104 128T108 184Q108 233 89 245Q60 263 60 289Q60 308 73 324T107 348Q121 352 139 410T176 572Q186 629 216 675T291 746T386 772Q416 772 432
765T449 737Q449 706 429 694T382 682Q344 682 321 669T283 623T258 534Q238 425 216 371T155 297Q176 277 185 252T195 186Q195 146 183 70Q174 12 174 -11Q174 -53 192 -73T251 -94Q270 -94 280 -104T291 -131Q291 -149 273 -166T233 -183Q162 -183 123 -138Z"
/>
<glyph unicode="|" glyph-name="bar" horiz-adv-x="281" d="M60 -92T50 -84T42 -64L54 -1Q92 192 131 408Q145 485 199 791Q203 816 206 834T212 867Q213 877 226 884T256 892Q270 892 281 885T291 869Q275 779 260 698Q239 572 209 410L186 287Q155 117 120 -64Q118
-77 106 -84T76 -92Q60 -92 50 -84Z" />
<glyph unicode="}" glyph-name="braceright" horiz-adv-x="412" d="M10 -183T-1 -174T-13 -150Q-13 -131 3 -116T43 -100Q143 -100 170 45Q184 125 199 172T233 248T283 297Q265 309 257 331T248 390Q248 430 262 514Q272 584 272 600Q272 647 252 667T188 688Q136
688 136 723Q136 755 156 763T214 772Q279 772 318 730T357 618Q357 588 346 520Q332 436 332 391Q332 351 343 348Q357 343 365 331T374 305Q374 288 361 272T325 245Q299 232 284 181T249 25Q239 -32 208 -79T131 -155T30 -183Q10 -183 -1 -174Z" />
<glyph unicode="~" glyph-name="asciitilde" horiz-adv-x="547" d="M343 265T321 270T273 283Q243 294 227 298T191 302Q167 302 144 292Q139 290 125 285T100 279Q90 279 82 288T73 310Q73 322 84 335Q100 353 138 365T214 378Q235 378 256 372T312 354Q350 340
380 340Q398 340 428 353Q454 364 463 364Q477 364 487 354T498 329Q498 318 494 312T476 297Q456 283 428 274T373 265Q343 265 321 270Z" />
<glyph unicode="&#xa0;" glyph-name="uni00A0" horiz-adv-x="333" />
<glyph unicode="&#xa1;" glyph-name="exclamdown" horiz-adv-x="269" d="M133 373T116 390T99 431Q99 462 124 487T182 512Q207 512 224 494T242 451Q242 422 215 398T158 373Q133 373 116 390ZM27 -196T27 -165Q27 -159 28 -155L112 287Q115 306 126 317T154
328Q168 328 176 319T184 294Q184 287 183 284L101 -154Q98 -174 87 -185T58 -196Q27 -196 27 -165Z" />
<glyph unicode="&#xa2;" glyph-name="cent" horiz-adv-x="591" d="M292 435T246 402T173 316T146 206Q146 149 180 114T280 79Q329 79 369 98T431 146T454 205Q454 217 467 226T500 235Q520 235 531 228T542 204Q542 147 506 102T411 29T285 0L273 -68Q271 -80
263 -86T242 -92Q214 -92 218 -69L231 3Q146 16 96 73T46 206Q46 287 82 355T181 466T324 513L336 584Q337 596 346 601T367 606Q378 606 385 601T391 584L378 512Q425 505 466 483T532 429T557 359Q557 339 543 329T504 318Q488 318 478 326T465 351Q463 370 448
389T407 422T347 435Q292 435 246 402Z" />
<glyph unicode="&#xa3;" glyph-name="sterling" horiz-adv-x="604" d="M465 700T514 658T564 547Q564 538 562 520Q560 497 550 486T518 475Q499 475 492 484T485 511V536Q485 582 457 605T386 629Q347 629 315 611T263 561T244 494Q244 463 250 435T268 367L277
336L401 335Q423 335 434 330T446 312Q446 291 433 284T390 277L289 278Q291 260 291 250Q291 175 244 108L264 100Q300 85 324 77T375 69Q403 69 421 80T461 119Q472 130 480 135T497 141Q509 141 520 132T531 110Q531 101 524 90Q496 49 455 25T361 0Q324 0 299
7T242 29Q222 39 208 43T178 48Q154 48 136 39T92 9Q73 -4 59 -4Q44 -4 34 8T23 31Q23 38 25 42T32 50T39 58Q54 77 90 95T165 120Q188 146 200 182T212 250Q212 261 210 279L134 280Q114 280 104 285T93 304Q93 325 106 331T144 338L199 337L183 387Q171 421 165
445T158 494Q158 552 189 599T273 673T385 700Q465 700 514 658Z" />
<glyph unicode="&#xa4;" glyph-name="currency" horiz-adv-x="843" d="M622 23T605 46L568 90Q487 42 396 42Q349 42 302 56T220 95L166 46Q141 23 126 23Q109 23 94 36T79 68Q79 74 83 80T93 92Q98 98 144 140L160 154Q138 185 127 225T115 307Q115 373 144 435T226
550L188 595Q178 607 178 619Q178 639 196 655T237 672Q250 672 258 667T276 648L307 610Q350 636 392 648T484 660Q533 660 582 646T664 608L708 648Q735 673 754 673Q770 673 784 660T799 629Q799 620 794 612T776 592L724 546Q744 516 754 478T764 398Q764 261
649 154Q669 127 679 113T694 94Q701 84 701 76Q701 57 681 40T642 23Q622 23 605 46ZM469 123T529 162T626 264T662 398Q662 452 639 493T574 558T482 581Q414 581 353 544T255 444T218 312Q218 259 241 216T306 148T401 123Q469 123 529 162Z" />
<glyph unicode="&#xa5;" glyph-name="yen" horiz-adv-x="655" d="M504 410T472 381T414 338L524 340Q534 340 539 334T544 318Q544 304 536 294T513 283L385 281L376 228L505 230Q515 230 521 225T527 209Q527 194 518 184T495 173L367 171L347 52Q337 2 289 2Q268
2 257 12T246 40Q246 47 247 50L267 170L140 168Q118 168 118 191Q118 205 126 215T149 225L276 227L285 280L157 278Q146 278 141 284T135 299Q135 314 144 324T167 335L278 337Q260 350 238 381T198 453Q177 499 163 543T135 645Q134 648 134 655Q134 677 154
689T199 701Q217 701 227 691T242 660Q258 601 268 568T292 499Q305 464 323 435T356 406Q369 406 396 432T455 500Q484 538 513 582T550 639Q555 647 559 653T566 664Q579 685 586 692T609 699Q631 699 648 686T666 656Q666 647 659 633Q633 587 599 537T536 449Q504
410 472 381Z" />
<glyph unicode="&#xa6;" glyph-name="brokenbar" horiz-adv-x="287" d="M161 435T152 443T145 465L209 861Q211 875 224 883T255 891Q292 891 287 861L223 465Q220 451 208 443T179 435Q161 435 152 443ZM60 -110T51 -102T43 -79L118 318Q124 351 162 351Q201
351 196 318L122 -79Q120 -94 108 -102T78 -110Q60 -110 51 -102Z" />
<glyph unicode="&#xa7;" glyph-name="section" horiz-adv-x="657" d="M473 760T517 743T589 693T616 618Q616 603 613 586Q605 547 565 547Q547 547 538 554T531 574Q533 584 533 602Q533 648 503 669T422 691Q355 691 309 656T263 565Q263 528 294 501T397 454Q486
428 529 384T573 287Q573 240 543 200T466 135Q498 96 498 39Q498 -23 468 -68T385 -138T264 -163Q204 -163 156 -140T81 -77T54 14Q54 26 58 54Q60 70 73 78T106 87Q124 87 133 79T141 55Q138 40 138 26Q138 -26 171 -60T264 -94Q330 -94 374 -56T418 41Q418 84
387 106T280 152Q104 208 104 321Q104 370 131 414T205 491Q184 526 184 567Q184 620 214 664T299 734T422 760Q473 760 517 743ZM287 411T248 443Q221 423 203 389T185 322Q185 285 214 262T315 218Q376 201 414 178Q447 195 470 225T493 286Q493 321 460 344T352
391Q287 411 248 443Z" />
<glyph unicode="&#xa8;" glyph-name="dieresis" horiz-adv-x="376" d="M98 571T83 586T68 624Q68 654 90 676T143 698Q167 698 183 683T199 645Q199 616 175 594T121 571Q98 571 83 586ZM350 571T335 586T320 624Q320 654 342 676T395 698Q419 698 434 683T450
645Q450 616 427 594T373 571Q350 571 335 586Z" />
<glyph unicode="&#xa9;" glyph-name="copyright" horiz-adv-x="899" d="M626 704T694 665T799 559T835 414Q835 303 782 208T636 56T432 0Q336 0 262 42T147 154T106 306Q106 418 163 509T318 652T533 704Q626 704 694 665ZM526 65T602 111T720 237T763 414Q763
516 706 578T532 640Q438 640 357 594T227 471T178 306Q178 237 209 183T297 97T431 65Q526 65 602 111ZM649 559T657 553T665 537Q655 480 645 459T613 438Q604 438 599 439T589 447Q569 478 553 490T510 503Q467 503 430 473T370 394T348 298Q348 201 458 201Q508
201 537 226T573 289Q576 300 587 307T613 314Q629 314 637 307T643 289Q631 225 580 184T449 143Q371 143 321 182T270 295Q270 361 303 422T391 522T507 561Q568 561 604 520L607 535Q610 559 634 559Q649 559 657 553Z" />
<glyph unicode="&#xaa;" glyph-name="ordfeminine" horiz-adv-x="357" d="M355 666T350 641Q331 541 331 528Q331 520 334 517T345 512Q352 510 354 507T355 496Q352 471 329 471Q297 471 286 492L283 499Q269 482 252 475T210 467Q159 467 133 495T107 567Q107
607 126 644T177 705T250 728Q273 728 289 721T314 701L316 708Q318 715 325 720T344 725Q356 725 363 719T367 702Q355 666 350 641ZM239 516T257 529T281 567L292 622Q293 627 293 635Q293 656 282 668T247 680Q206 680 186 644T166 568Q166 516 214 516Q239
516 257 529Z" />
<glyph unicode="&#xab;" glyph-name="guillemotleft" horiz-adv-x="582" d="M241 193T195 220T116 287T82 358Q82 392 131 436T245 512T346 544Q377 544 377 519Q377 501 366 491T332 472Q299 463 257 439T184 392T153 360Q153 351 175 331T227 292T283 265Q297
261 304 252T312 231Q312 215 300 204T273 193Q241 193 195 220ZM439 188T393 216T313 283T279 353Q279 386 329 430T443 506T542 539Q555 539 562 532T570 511Q570 477 532 467Q494 456 453 433T383 387T354 355Q354 346 374 327T425 288T483 260Q497 255 504
247T512 228Q512 212 499 200T470 188Q439 188 393 216Z" />
<glyph unicode="&#xac;" glyph-name="logicalnot" horiz-adv-x="773" d="M642 180T634 188T626 209Q626 214 628 224L659 396L424 397L141 396Q94 396 94 428Q94 453 109 466T152 480L445 481H702Q725 481 737 471T746 441L709 223Q703 180 659 180Q642 180 634 188Z" />
<glyph unicode="&#xad;" glyph-name="uni00AD" horiz-adv-x="381" d="M63 232T55 242T46 267Q46 290 59 304T90 318Q162 321 310 321Q329 321 339 312T349 287Q349 266 333 252T294 237Q228 237 158 234Q98 232 77 232Q63 232 55 242Z" />
<glyph unicode="&#xae;" glyph-name="registered" horiz-adv-x="899" d="M629 710T697 670T800 562T835 414Q835 301 781 206T632 56T425 0Q330 0 258 39T146 146T106 295Q106 405 164 501T321 653T534 710Q629 710 697 670ZM523 62T600 110T723 238T769 409Q769
475 742 529T661 615T529 647Q436 647 355 600T226 475T178 307Q178 239 209 183T297 95T430 62Q523 62 600 110ZM583 554T619 526T655 449Q655 377 600 341T464 304Q452 304 446 305L588 196Q595 190 595 182Q595 169 581 155T554 141Q543 141 536 148L394 272L376
169Q373 156 363 148T336 139Q304 139 309 170Q311 183 313 191T316 204L324 249Q325 260 335 312L342 350Q351 404 357 457Q348 460 344 469T342 489Q343 498 348 503T365 514L367 526Q370 541 382 548T410 555Q422 555 429 551T438 540Q485 554 526 554Q583 554
619 526ZM527 360T558 380T589 440Q589 467 567 482T507 497Q472 497 429 481Q421 434 412 370Q431 360 480 360Q527 360 558 380Z" />
<glyph unicode="&#xaf;" glyph-name="overscore" horiz-adv-x="399" d="M163 602Q134 602 112 611Q90 619 90 641Q90 662 105 675T140 686Q177 679 210 679Q232 679 278 683Q328 687 356 687Q377 687 419 683Q432 681 440 672T449 650Q449 630 433 617T400 607Q380
611 348 611Q319 611 275 607Q233 603 208 603L163 602Z" />
<glyph unicode="&#xb0;" glyph-name="degree" horiz-adv-x="392" d="M189 561T155 592T120 675Q120 724 146 765T214 830T306 854Q366 854 401 820T437 735Q437 689 411 649T341 585T250 561Q189 561 155 592ZM305 624T336 652T367 724Q367 752 349 771T291 790Q262
790 239 775T202 735T189 686Q189 657 209 641T261 624Q305 624 336 652Z" />
<glyph unicode="&#xb1;" glyph-name="plusminus" horiz-adv-x="547" d="M507 405T507 375Q507 352 493 340T450 328Q379 328 330 329L312 228Q309 210 297 199T263 188Q231 188 231 215Q231 222 232 226L250 330L117 331Q81 331 81 359Q81 382 95 395T135 409L263
407Q273 472 280 507Q286 545 328 545Q345 545 353 535T360 509Q353 462 343 406L463 405Q507 405 507 375ZM423 127T435 119T448 95Q448 72 432 61T384 49L87 46Q47 46 47 74Q47 123 105 124L401 127Q423 127 435 119Z" />
<glyph unicode="&#xb2;" glyph-name="uni00B2" horiz-adv-x="388" d="M368 439T377 431T387 409Q387 390 374 378T340 366L302 367Q266 370 214 370Q189 370 147 368L93 367Q75 367 66 375T58 397Q70 445 121 497T253 599Q346 659 346 727Q346 754 330 769T285
785Q257 785 234 763T205 708Q201 691 189 684T154 676Q118 676 118 706Q118 744 142 779T205 835T288 857Q330 857 364 840T418 794T438 730Q438 670 400 626T291 538Q243 508 216 486T172 441Q192 442 227 442L350 440Q368 439 377 431Z" />
<glyph unicode="&#xb3;" glyph-name="uni00B3" horiz-adv-x="433" d="M451 579T451 521Q451 478 427 442T359 385T256 364Q176 364 129 396T81 492Q81 508 84 527Q92 571 134 571Q156 571 163 561T170 533Q168 517 168 506Q168 436 258 436Q301 436 333 456T365
519Q365 569 288 571Q271 572 264 579T258 600Q260 622 270 632T299 642Q343 643 367 668T392 731Q392 756 376 770T333 785Q295 785 270 760T245 698Q246 685 233 675T196 665Q156 665 156 703Q156 744 181 779T248 836T336 857Q375 857 408 840T461 795T481 734Q481
692 459 659T399 607Q451 579 451 521Z" />
<glyph unicode="&#xb4;" glyph-name="acute" horiz-adv-x="376" d="M182 562T174 570T165 590Q165 609 183 627L289 733Q303 747 314 753T338 759Q353 759 362 751T372 728Q372 703 341 676L236 582Q224 570 215 566T195 562Q182 562 174 570Z" />
<glyph unicode="&#xb6;" glyph-name="paragraph" horiz-adv-x="616" d="M264 -30T264 -8L312 275Q221 277 163 327T104 462Q104 548 152 612T281 711T461 746Q531 746 548 744Q593 741 593 711Q593 705 592 702L470 8Q466 -14 458 -22T430 -30Q399 -30 400 -9L516
667L517 672Q517 679 511 680T489 682Q466 682 458 680T449 666L333 -1Q327 -30 292 -30Q264 -30 264 -8Z" />
<glyph unicode="&#xb7;" glyph-name="middot" horiz-adv-x="436" d="M190 264T170 283T150 334Q150 378 178 405T253 433Q285 433 304 414T324 363Q324 318 296 291T223 264Q190 264 170 283Z" />
<glyph unicode="&#xb8;" glyph-name="cedilla" horiz-adv-x="376" d="M50 -225T27 -221T-12 -211Q-32 -202 -32 -184Q-32 -168 -21 -158T6 -147Q9 -147 34 -153T76 -160Q106 -160 121 -155T137 -132Q137 -118 125 -113T76 -101Q62 -100 55 -93T47 -75Q47 -66 51
-58L126 33Q134 43 141 48T156 54Q172 54 184 47T196 27Q196 19 187 6L136 -55Q167 -63 188 -81T209 -132Q209 -177 170 -201T69 -225Q50 -225 27 -221Z" />
<glyph unicode="&#xb9;" glyph-name="uni00B9" horiz-adv-x="300" d="M295 850T307 838T317 807L247 405Q244 388 230 378T194 368Q177 368 169 375T160 395Q160 402 161 405L221 746Q217 741 201 722T163 684Q147 670 131 670Q119 670 110 679T101 702Q102 710
109 720T126 739L159 774Q182 797 218 836Q233 850 273 850Q295 850 307 838Z" />
<glyph unicode="&#xba;" glyph-name="ordmasculine" horiz-adv-x="358" d="M179 467T144 494T109 578Q109 638 149 679T256 721Q306 721 340 689T375 607Q375 540 337 504T227 467Q179 467 144 494ZM267 513T292 537T317 607Q317 638 301 656T256 675Q215 675
190 647T165 578Q165 550 183 532T227 513Q267 513 292 537Z" />
<glyph unicode="&#xbb;" glyph-name="guillemotright" horiz-adv-x="584" d="M58 193T58 220Q58 256 95 265Q134 276 176 299T246 345T275 378Q275 387 255 406T204 444T144 473Q131 476 124 484T116 504Q116 520 128 532T157 545Q187 545 233 517T313 449T348
379Q348 348 298 304T184 227T84 193Q58 193 58 220ZM269 187T260 195T251 216Q251 232 263 244T296 260Q328 266 370 290T443 340T475 374Q475 382 454 401T402 440T345 467Q331 471 323 480T315 501Q315 517 327 528T354 539Q386 539 432 512T513 445T547 374Q547
342 502 300T393 226T283 187Q269 187 260 195Z" />
<glyph unicode="&#xbc;" glyph-name="onequarter" horiz-adv-x="873" d="M135 587T117 587Q106 587 97 595T87 616Q87 631 112 656L204 752Q212 760 227 763T258 767Q281 767 293 755T303 723L233 321Q230 305 216 295T180 285Q163 285 155 292T146 312Q146 318
147 321L206 662Q173 623 148 600Q135 587 117 587ZM719 710T710 699L189 20Q174 -1 145 -1Q128 -1 117 7T109 32Q110 44 124 62L643 740Q661 765 691 765Q707 765 717 756T724 729Q719 710 710 699ZM818 203T824 196T830 177Q830 156 821 145T790 129Q777 127
751 125L731 32Q728 17 714 7T679 -4Q662 -4 653 4T644 26Q644 33 645 36L663 121Q637 120 576 120Q507 120 454 134Q426 141 426 161Q426 174 438 192Q510 297 563 366T671 483Q683 493 697 493Q711 493 721 484T732 462Q732 452 727 443T708 421Q662 378 616
317T539 208Q537 202 537 201Q537 196 548 195Q562 192 583 192T632 191Q663 191 679 192L708 327Q717 363 757 363Q776 363 786 355T796 332Q796 327 795 324L768 199Q775 200 787 201T807 203Q818 203 824 196Z" />
<glyph unicode="&#xbd;" glyph-name="onehalf" horiz-adv-x="889" d="M134 586T116 586Q104 586 95 595T86 618Q87 631 111 655L203 751Q211 759 226 762T258 766Q280 766 292 754T302 722L232 320Q229 303 215 294T179 284Q162 284 154 291T145 310Q145 317 146
320L205 661Q201 656 186 638T148 599Q134 586 116 586ZM720 712T709 699L189 20Q172 -1 145 -1Q128 -1 117 7T108 32Q111 44 124 62L643 740Q661 765 690 765Q706 765 717 756T724 729Q720 712 709 699ZM803 72T813 64T823 42Q823 23 810 11T776 -1L737 0Q703
3 650 3Q625 3 583 1L529 0Q511 0 501 8T494 30Q506 78 557 130T689 232Q782 292 782 360Q782 387 766 402T721 418Q693 418 670 396T640 341Q637 324 625 317T590 309Q554 309 554 339Q554 377 578 412T641 468T724 490Q766 490 800 473T854 427T874 363Q874 303
836 259T727 171Q679 141 652 119T608 74Q627 75 662 75L724 74Q747 73 785 73Q803 72 813 64Z" />
<glyph unicode="&#xbe;" glyph-name="threequarters" horiz-adv-x="991" d="M435 387T411 351T343 294T240 273Q160 273 113 305T65 401Q65 417 68 436Q76 480 118 480Q140 480 147 470T154 442Q152 426 152 415Q152 345 242 345Q285 345 317 365T349 428Q349
478 272 480Q255 481 248 488T242 509Q244 531 254 541T283 551Q327 552 351 577T376 640Q376 665 360 679T317 694Q279 694 254 669T229 607Q230 594 217 584T180 574Q140 574 140 612Q140 653 165 688T232 745T320 766Q359 766 392 749T445 704T465 643Q465 601
443 568T383 516Q435 488 435 430Q435 387 411 351ZM855 711T844 699L324 20Q309 -1 280 -1Q263 -1 252 7T244 32Q245 43 259 62L778 740Q796 765 825 765Q842 765 852 756T859 729Q855 711 844 699ZM935 197T941 190T947 171Q947 150 938 139T907 123Q894 121
868 119L848 26Q845 11 831 1T796 -10Q779 -10 770 -2T761 20Q761 27 762 30L780 115Q754 114 693 114Q624 114 571 128Q543 135 543 155Q543 168 555 186Q627 291 680 360T788 477Q800 487 814 487Q828 487 838 478T849 456Q849 446 844 437T825 415Q779 372 733
311T656 202Q654 196 654 195Q654 190 665 189Q679 186 700 186T749 185Q780 185 796 186L825 321Q834 357 874 357Q893 357 903 349T913 326Q913 321 912 318L885 193Q892 194 904 195T924 197Q935 197 941 190Z" />
<glyph unicode="&#xbf;" glyph-name="questiondown" horiz-adv-x="534" d="M282 463T268 477T253 513Q253 540 275 561T324 583Q347 583 361 569T376 533Q376 506 354 485T304 463Q282 463 268 477ZM158 -125T117 -103T52 -43T29 42Q29 89 48 127T93 193T163 259Q209
298 230 324T252 380Q252 399 265 409T297 420Q310 420 318 412T326 389Q326 344 297 305T211 213Q157 163 130 128T103 52Q103 4 132 -24T212 -52Q285 -52 328 -18T371 77Q371 100 359 115T324 130Q290 130 290 159Q290 179 304 191T338 203Q384 203 414 165T445
77Q445 16 415 -30T332 -100T212 -125Q158 -125 117 -103Z" />
<glyph unicode="&#xc0;" glyph-name="Agrave" horiz-adv-x="694" d="M616 197T605 181T575 164H568L583 46L584 36Q584 15 567 3T526 -10Q508 -10 495 -3T481 18L465 165L209 166L137 22Q122 -9 84 -9Q60 -9 45 3T33 32Q33 39 38 47L163 293Q303 568 316 594Q349
660 371 685T429 711Q462 711 482 687T511 604Q533 458 556 259H576Q595 259 605 249T616 221Q616 197 605 181ZM455 260L429 497Q424 540 421 557T412 574Q407 574 400 562T383 529T369 500Q328 417 295 344L256 262L455 260ZM475 755T468 759T452 773L388 859Q375
878 375 891Q375 910 388 923T419 936Q430 936 439 930T457 909L515 824Q526 810 526 796Q526 780 514 768T484 755Q475 755 468 759Z" />
<glyph unicode="&#xc1;" glyph-name="Aacute" horiz-adv-x="694" d="M616 197T605 181T575 164H568L583 46L584 36Q584 15 567 3T526 -10Q508 -10 495 -3T481 18L465 165L209 166L137 22Q122 -9 84 -9Q60 -9 45 3T33 32Q33 39 38 47L163 293Q303 568 316 594Q349
660 371 685T429 711Q462 711 482 687T511 604Q533 458 556 259H576Q595 259 605 249T616 221Q616 197 605 181ZM455 260L429 497Q424 540 421 557T412 574Q407 574 400 562T383 529T369 500Q328 417 295 344L256 262L455 260ZM386 754T377 764T368 786Q368 795
374 806T392 827L488 907Q507 922 517 928T538 934Q552 934 561 924T570 900Q570 875 542 854L440 774Q426 763 417 759T399 754Q386 754 377 764Z" />
<glyph unicode="&#xc2;" glyph-name="Acircumflex" horiz-adv-x="694" d="M616 197T605 181T575 164H568L583 46L584 36Q584 15 567 3T526 -10Q508 -10 495 -3T481 18L465 165L209 166L137 22Q122 -9 84 -9Q60 -9 45 3T33 32Q33 39 38 47L163 293Q303 568 316
594Q349 660 371 685T429 711Q462 711 482 687T511 604Q533 458 556 259H576Q595 259 605 249T616 221Q616 197 605 181ZM455 260L429 497Q424 540 421 557T412 574Q407 574 400 562T383 529T369 500Q328 417 295 344L256 262L455 260ZM540 759T530 774Q474 872
462 872Q455 872 433 852T380 804L360 786Q338 764 319 764Q305 764 296 773T287 796Q287 814 304 828Q306 830 336 857Q383 901 416 926T472 952Q499 952 518 932T565 866Q576 847 595 820Q602 811 602 801Q602 785 589 772T560 759Q540 759 530 774Z" />
<glyph unicode="&#xc3;" glyph-name="Atilde" horiz-adv-x="694" d="M616 197T605 181T575 164H568L583 46L584 36Q584 15 567 3T526 -10Q508 -10 495 -3T481 18L465 165L209 166L137 22Q122 -9 84 -9Q60 -9 45 3T33 32Q33 39 38 47L163 293Q303 568 316 594Q349
660 371 685T429 711Q462 711 482 687T511 604Q533 458 556 259H576Q595 259 605 249T616 221Q616 197 605 181ZM455 260L429 497Q424 540 421 557T412 574Q407 574 400 562T383 529T369 500Q328 417 295 344L256 262L455 260ZM295 767T287 776T278 799Q278 815
293 830Q324 861 346 873T397 886Q446 886 484 863Q491 859 502 853T519 845T531 842Q542 842 558 856Q568 866 575 870T592 874Q604 874 613 864T623 841Q623 822 608 809Q582 787 561 777T517 767Q501 767 487 772T460 785T439 796Q434 798 418 806T390 814Q381
814 372 808T347 786Q325 767 308 767Q295 767 287 776Z" />
<glyph unicode="&#xc4;" glyph-name="Adieresis" horiz-adv-x="694" d="M616 197T605 181T575 164H568L583 46L584 36Q584 15 567 3T526 -10Q508 -10 495 -3T481 18L465 165L209 166L137 22Q122 -9 84 -9Q60 -9 45 3T33 32Q33 39 38 47L163 293Q303 568 316 594Q349
660 371 685T429 711Q462 711 482 687T511 604Q533 458 556 259H576Q595 259 605 249T616 221Q616 197 605 181ZM455 260L429 497Q424 540 421 557T412 574Q407 574 400 562T383 529T369 500Q328 417 295 344L256 262L455 260ZM294 771T279 785T264 822Q264 851
286 872T338 894Q360 894 375 879T391 843Q391 815 368 793T317 771Q294 771 279 785ZM546 771T531 785T516 822Q516 851 538 872T590 894Q612 894 627 880T642 843Q642 815 620 793T569 771Q546 771 531 785Z" />
<glyph unicode="&#xc5;" glyph-name="Aring" horiz-adv-x="694" d="M616 197T605 181T575 164H568L583 46L584 36Q584 15 567 3T526 -10Q508 -10 495 -3T481 18L465 165L209 166L137 22Q122 -9 84 -9Q60 -9 45 3T33 32Q33 39 38 47L163 293Q303 568 316 594Q349
660 371 685T429 711Q462 711 482 687T511 604Q533 458 556 259H576Q595 259 605 249T616 221Q616 197 605 181ZM455 260L429 497Q424 540 421 557T412 574Q407 574 400 562T383 529T369 500Q328 417 295 344L256 262L455 260ZM398 737T369 766T339 838Q339 872
357 902T408 950T477 968Q519 968 547 938T576 869Q576 833 558 803T508 755T441 737Q398 737 369 766ZM475 800T494 818T513 862Q513 880 501 893T468 906Q441 906 422 887T403 844Q403 825 416 813T449 800Q475 800 494 818Z" />
<glyph unicode="&#xc6;" glyph-name="AE" horiz-adv-x="902" d="M926 686T931 681T937 662Q937 655 936 650Q931 622 919 613T892 606L855 607Q765 610 751 610Q674 610 633 607Q622 514 606 429L601 399Q663 397 687 397Q778 395 795 394Q810 393 810 371Q810
348 799 337T761 325L699 327L643 328H587Q575 269 549 170L529 89Q608 81 678 81Q715 81 732 82T790 89Q802 91 813 84T825 58Q825 32 812 19T781 1Q757 -6 688 -6L583 -5Q493 -3 423 -3Q395 -3 383 4T371 28Q371 35 372 38Q376 62 388 72T423 83Q440 142 451
189L245 191L134 24Q128 13 120 7T96 1Q75 1 55 13T35 40Q35 45 37 48Q140 209 224 334T399 571T536 690Q539 691 544 691L636 693Q702 696 740 696Q775 696 830 693T915 687Q926 686 931 681ZM467 260Q490 359 517 512L527 568Q462 507 294 262L467 260Z" />
<glyph unicode="&#xc7;" glyph-name="Ccedilla" horiz-adv-x="723" d="M711 709T721 700T732 674Q732 668 731 664L710 550Q700 497 651 497Q624 497 613 516Q594 551 578 572T535 608T466 623Q390 623 319 572T205 442T161 282Q161 219 189 175T263 109T365 87Q442
87 506 128T591 248Q596 269 608 282T648 296Q672 296 683 287T694 258Q694 249 693 243Q683 182 641 125T527 33T365 -3H360L317 -55Q347 -63 368 -82T389 -132Q389 -177 350 -201T250 -225Q231 -225 208 -221T169 -211Q149 -202 149 -184Q149 -168 159 -158T186
-147Q187 -147 207 -151Q239 -160 257 -160Q287 -160 302 -155T318 -132Q318 -118 306 -113T257 -101Q243 -100 235 -93T227 -75Q227 -68 232 -58L284 5Q184 27 122 99T60 282Q60 389 116 489T266 651T466 713Q526 713 567 693T632 637L638 671Q640 688 653 698T690
709Q711 709 721 700Z" />
<glyph unicode="&#xc8;" glyph-name="Egrave" d="M610 687T620 681T630 658Q630 633 616 617T581 603Q485 611 406 611Q336 611 279 606Q260 477 248 413Q263 412 297 412Q407 412 473 408Q501 408 501 379Q501 355 489 337T458 319L399 320Q351 322 284 323H232Q211
212 178 104Q238 99 312 99Q367 99 400 101T477 108Q481 109 488 109Q521 109 521 75Q521 28 474 19Q434 11 284 11Q223 11 171 13T52 24Q26 27 26 55Q26 78 36 94T64 110H80Q97 161 108 209T132 324H122Q89 324 89 356Q89 381 101 397T134 414H148Q171 538 181
603H175Q165 603 160 612T155 634Q155 665 171 677T214 693Q265 699 389 699Q533 699 592 690Q610 687 620 681ZM443 755T436 759T420 773L356 859Q343 878 343 891Q343 910 356 923T387 936Q398 936 407 930T425 909L483 824Q494 810 494 796Q494 780 482 768T452
755Q443 755 436 759Z" />
<glyph unicode="&#xc9;" glyph-name="Eacute" d="M610 687T620 681T630 658Q630 633 616 617T581 603Q485 611 406 611Q336 611 279 606Q260 477 248 413Q263 412 297 412Q407 412 473 408Q501 408 501 379Q501 355 489 337T458 319L399 320Q351 322 284 323H232Q211
212 178 104Q238 99 312 99Q367 99 400 101T477 108Q481 109 488 109Q521 109 521 75Q521 28 474 19Q434 11 284 11Q223 11 171 13T52 24Q26 27 26 55Q26 78 36 94T64 110H80Q97 161 108 209T132 324H122Q89 324 89 356Q89 381 101 397T134 414H148Q171 538 181
603H175Q165 603 160 612T155 634Q155 665 171 677T214 693Q265 699 389 699Q533 699 592 690Q610 687 620 681ZM354 754T345 764T336 786Q336 795 342 806T360 827L456 907Q475 922 485 928T506 934Q520 934 529 924T538 900Q538 875 510 854L408 774Q394 763
385 759T367 754Q354 754 345 764Z" />
<glyph unicode="&#xca;" glyph-name="Ecircumflex" d="M610 687T620 681T630 658Q630 633 616 617T581 603Q485 611 406 611Q336 611 279 606Q260 477 248 413Q263 412 297 412Q407 412 473 408Q501 408 501 379Q501 355 489 337T458 319L399 320Q351 322 284
323H232Q211 212 178 104Q238 99 312 99Q367 99 400 101T477 108Q481 109 488 109Q521 109 521 75Q521 28 474 19Q434 11 284 11Q223 11 171 13T52 24Q26 27 26 55Q26 78 36 94T64 110H80Q97 161 108 209T132 324H122Q89 324 89 356Q89 381 101 397T134 414H148Q171
538 181 603H175Q165 603 160 612T155 634Q155 665 171 677T214 693Q265 699 389 699Q533 699 592 690Q610 687 620 681ZM508 759T498 774Q442 872 430 872Q423 872 401 852T348 804L328 786Q306 764 287 764Q273 764 264 773T255 796Q255 814 272 828Q274 830
304 857Q351 901 384 926T440 952Q467 952 486 932T533 866Q544 847 563 820Q570 811 570 801Q570 785 557 772T528 759Q508 759 498 774Z" />
<glyph unicode="&#xcb;" glyph-name="Edieresis" d="M610 687T620 681T630 658Q630 633 616 617T581 603Q485 611 406 611Q336 611 279 606Q260 477 248 413Q263 412 297 412Q407 412 473 408Q501 408 501 379Q501 355 489 337T458 319L399 320Q351 322 284 323H232Q211
212 178 104Q238 99 312 99Q367 99 400 101T477 108Q481 109 488 109Q521 109 521 75Q521 28 474 19Q434 11 284 11Q223 11 171 13T52 24Q26 27 26 55Q26 78 36 94T64 110H80Q97 161 108 209T132 324H122Q89 324 89 356Q89 381 101 397T134 414H148Q171 538 181
603H175Q165 603 160 612T155 634Q155 665 171 677T214 693Q265 699 389 699Q533 699 592 690Q610 687 620 681ZM262 771T247 785T232 822Q232 851 254 872T306 894Q328 894 343 879T359 843Q359 815 336 793T285 771Q262 771 247 785ZM514 771T499 785T484 822Q484
851 506 872T558 894Q580 894 595 880T610 843Q610 815 588 793T537 771Q514 771 499 785Z" />
<glyph unicode="&#xcc;" glyph-name="Igrave" horiz-adv-x="462" d="M503 700T503 670Q503 646 489 631T451 615L420 616L369 619Q312 308 258 95L358 94Q378 94 386 86T395 61Q395 35 381 19T341 3L39 7Q6 8 6 42Q6 67 20 82T57 98L160 97Q216 327 269 618Q231
617 186 613Q156 610 137 610Q123 610 115 619T107 645Q107 669 120 683T156 701Q228 710 326 710Q403 710 470 704Q503 700 503 670ZM364 755T357 759T341 773L277 859Q264 878 264 891Q264 910 277 923T308 936Q319 936 328 930T346 909L404 824Q415 810 415
796Q415 780 403 768T373 755Q364 755 357 759Z" />
<glyph unicode="&#xcd;" glyph-name="Iacute" horiz-adv-x="462" d="M503 700T503 670Q503 646 489 631T451 615L420 616L369 619Q312 308 258 95L358 94Q378 94 386 86T395 61Q395 35 381 19T341 3L39 7Q6 8 6 42Q6 67 20 82T57 98L160 97Q216 327 269 618Q231
617 186 613Q156 610 137 610Q123 610 115 619T107 645Q107 669 120 683T156 701Q228 710 326 710Q403 710 470 704Q503 700 503 670ZM275 754T266 764T257 786Q257 795 263 806T281 827L377 907Q396 922 406 928T427 934Q441 934 450 924T459 900Q459 875 431
854L329 774Q315 763 306 759T288 754Q275 754 266 764Z" />
<glyph unicode="&#xce;" glyph-name="Icircumflex" horiz-adv-x="462" d="M503 700T503 670Q503 646 489 631T451 615L420 616L369 619Q312 308 258 95L358 94Q378 94 386 86T395 61Q395 35 381 19T341 3L39 7Q6 8 6 42Q6 67 20 82T57 98L160 97Q216 327 269 618Q231
617 186 613Q156 610 137 610Q123 610 115 619T107 645Q107 669 120 683T156 701Q228 710 326 710Q403 710 470 704Q503 700 503 670ZM429 759T419 774Q363 872 351 872Q344 872 322 852T269 804L249 786Q227 764 208 764Q194 764 185 773T176 796Q176 814 193
828Q195 830 225 857Q272 901 305 926T361 952Q388 952 407 932T454 866Q465 847 484 820Q491 811 491 801Q491 785 478 772T449 759Q429 759 419 774Z" />
<glyph unicode="&#xcf;" glyph-name="Idieresis" horiz-adv-x="462" d="M503 700T503 670Q503 646 489 631T451 615L420 616L369 619Q312 308 258 95L358 94Q378 94 386 86T395 61Q395 35 381 19T341 3L39 7Q6 8 6 42Q6 67 20 82T57 98L160 97Q216 327 269 618Q231
617 186 613Q156 610 137 610Q123 610 115 619T107 645Q107 669 120 683T156 701Q228 710 326 710Q403 710 470 704Q503 700 503 670ZM183 771T168 785T153 822Q153 851 175 872T227 894Q249 894 264 879T280 843Q280 815 257 793T206 771Q183 771 168 785ZM435
771T420 785T405 822Q405 851 427 872T479 894Q501 894 516 880T531 843Q531 815 509 793T458 771Q435 771 420 785Z" />
<glyph unicode="&#xd0;" glyph-name="Eth" horiz-adv-x="724" d="M494 688T594 613T694 398Q694 281 625 192T439 55T180 6H111Q86 6 75 14T63 41Q63 94 123 94H132L165 315L112 316Q84 316 69 326T53 357Q53 383 74 399T131 415L179 414L209 614Q169 622 169
652Q169 676 185 687T233 700Q247 715 278 715Q311 715 321 699Q494 688 594 613ZM340 104T417 144T539 251T584 405Q584 506 510 551T319 607L290 411L373 409Q399 408 412 397T426 366Q426 341 407 326T356 311L275 313L243 96Q340 104 417 144Z" />
<glyph unicode="&#xd1;" glyph-name="Ntilde" horiz-adv-x="745" d="M743 714T743 673Q743 665 742 661L700 428Q695 397 689 368T679 312Q658 194 639 130T597 38T543 11Q511 11 484 40T426 127T343 303L292 415Q244 522 230 548Q216 477 195 335Q172 190 152
91L145 51Q142 34 126 22T88 9Q67 9 54 21T44 51Q48 76 56 119Q82 260 95 341L124 512L139 602Q150 660 166 683T215 707Q247 707 272 682T322 605T402 433L411 412Q490 233 542 139Q553 185 581 329Q600 428 642 670Q646 690 660 702T700 714Q743 714 743 673ZM325
767T317 776T308 799Q308 815 323 830Q354 861 376 873T427 886Q476 886 514 863Q521 859 532 853T549 845T561 842Q572 842 588 856Q598 866 605 870T622 874Q634 874 643 864T653 841Q653 822 638 809Q612 787 591 777T547 767Q531 767 517 772T490 785T469 796Q464
798 448 806T420 814Q411 814 402 808T377 786Q355 767 338 767Q325 767 317 776Z" />
<glyph unicode="&#xd2;" glyph-name="Ograve" horiz-adv-x="799" d="M280 7T212 41T104 139T64 292Q64 404 115 499T255 651T455 708Q546 708 618 669T730 559T771 399Q771 287 719 198T574 58T366 7Q280 7 212 41ZM458 98T526 138T632 247T670 401Q670 499 613
558T460 617Q376 617 309 572T203 451T165 292Q165 193 225 146T373 98Q458 98 526 138ZM522 755T515 759T499 773L435 859Q422 878 422 891Q422 910 435 923T466 936Q477 936 486 930T504 909L562 824Q573 810 573 796Q573 780 561 768T531 755Q522 755 515 759Z"
/>
<glyph unicode="&#xd3;" glyph-name="Oacute" horiz-adv-x="799" d="M280 7T212 41T104 139T64 292Q64 404 115 499T255 651T455 708Q546 708 618 669T730 559T771 399Q771 287 719 198T574 58T366 7Q280 7 212 41ZM458 98T526 138T632 247T670 401Q670 499 613
558T460 617Q376 617 309 572T203 451T165 292Q165 193 225 146T373 98Q458 98 526 138ZM433 754T424 764T415 786Q415 795 421 806T439 827L535 907Q554 922 564 928T585 934Q599 934 608 924T617 900Q617 875 589 854L487 774Q473 763 464 759T446 754Q433 754
424 764Z" />
<glyph unicode="&#xd4;" glyph-name="Ocircumflex" horiz-adv-x="799" d="M280 7T212 41T104 139T64 292Q64 404 115 499T255 651T455 708Q546 708 618 669T730 559T771 399Q771 287 719 198T574 58T366 7Q280 7 212 41ZM458 98T526 138T632 247T670 401Q670 499
613 558T460 617Q376 617 309 572T203 451T165 292Q165 193 225 146T373 98Q458 98 526 138ZM587 759T577 774Q521 872 509 872Q502 872 480 852T427 804L407 786Q385 764 366 764Q352 764 343 773T334 796Q334 814 351 828Q353 830 383 857Q430 901 463 926T519
952Q546 952 565 932T612 866Q623 847 642 820Q649 811 649 801Q649 785 636 772T607 759Q587 759 577 774Z" />
<glyph unicode="&#xd5;" glyph-name="Otilde" horiz-adv-x="799" d="M280 7T212 41T104 139T64 292Q64 404 115 499T255 651T455 708Q546 708 618 669T730 559T771 399Q771 287 719 198T574 58T366 7Q280 7 212 41ZM458 98T526 138T632 247T670 401Q670 499 613
558T460 617Q376 617 309 572T203 451T165 292Q165 193 225 146T373 98Q458 98 526 138ZM342 767T334 776T325 799Q325 815 340 830Q371 861 393 873T444 886Q493 886 531 863Q538 859 549 853T566 845T578 842Q589 842 605 856Q615 866 622 870T639 874Q651 874
660 864T670 841Q670 822 655 809Q629 787 608 777T564 767Q548 767 534 772T507 785T486 796Q481 798 465 806T437 814Q428 814 419 808T394 786Q372 767 355 767Q342 767 334 776Z" />
<glyph unicode="&#xd6;" glyph-name="Odieresis" horiz-adv-x="799" d="M280 7T212 41T104 139T64 292Q64 404 115 499T255 651T455 708Q546 708 618 669T730 559T771 399Q771 287 719 198T574 58T366 7Q280 7 212 41ZM458 98T526 138T632 247T670 401Q670 499
613 558T460 617Q376 617 309 572T203 451T165 292Q165 193 225 146T373 98Q458 98 526 138ZM341 771T326 785T311 822Q311 851 333 872T385 894Q407 894 422 879T438 843Q438 815 415 793T364 771Q341 771 326 785ZM593 771T578 785T563 822Q563 851 585 872T637
894Q659 894 674 880T689 843Q689 815 667 793T616 771Q593 771 578 785Z" />
<glyph unicode="&#xd7;" glyph-name="multiply" horiz-adv-x="547" d="M438 482T449 472T457 445Q455 437 453 432T442 419L327 313L365 267L426 193Q431 186 432 181T432 169Q430 156 416 145T385 133Q372 133 365 138T347 154Q300 212 263 255L145 149Q135 140
127 136T106 131Q90 131 78 143T68 166Q70 180 81 190L215 313Q171 367 126 420Q118 429 117 434T117 447Q120 461 134 473T169 485Q181 485 189 480T205 464Q230 431 278 372Q349 437 375 462Q386 472 395 477T416 482Q438 482 449 472Z" />
<glyph unicode="&#xd8;" glyph-name="Oslash" horiz-adv-x="807" d="M810 750T819 739T826 712Q823 697 807 683L711 589Q771 508 771 399Q771 287 719 198T574 58T366 7Q254 7 175 63L102 -9Q82 -31 61 -31Q46 -31 35 -21T27 5Q28 11 31 16T40 29L124 111Q64
184 64 292Q64 404 115 499T255 651T455 708Q516 708 569 690T663 639L753 727Q774 750 794 750Q810 750 819 739ZM165 226T195 180L596 573Q541 617 460 617Q376 617 309 572T203 451T165 292Q165 226 195 180ZM670 470T641 520L245 131Q297 98 373 98Q458 98
526 138T632 247T670 401Q670 470 641 520Z" />
<glyph unicode="&#xd9;" glyph-name="Ugrave" horiz-adv-x="679" d="M653 709T665 699T677 671Q677 665 676 662Q658 567 642 468Q638 437 635 424Q626 362 590 151L572 46Q567 20 555 9T517 -3Q472 -3 472 33Q472 42 473 46Q477 68 479 81T482 101Q449 57 397
29T282 1Q213 1 165 29T94 103T70 204Q70 242 86 331T143 615L152 660Q160 703 210 703Q252 703 252 671Q252 663 251 659Q207 454 190 354T172 208Q172 155 201 124T284 92Q335 92 385 121T470 199T516 301Q537 414 578 664Q581 685 594 697T631 709Q653 709 665
699ZM464 755T457 759T441 773L377 859Q364 878 364 891Q364 910 377 923T408 936Q419 936 428 930T446 909L504 824Q515 810 515 796Q515 780 503 768T473 755Q464 755 457 759Z" />
<glyph unicode="&#xda;" glyph-name="Uacute" horiz-adv-x="679" d="M653 709T665 699T677 671Q677 665 676 662Q658 567 642 468Q638 437 635 424Q626 362 590 151L572 46Q567 20 555 9T517 -3Q472 -3 472 33Q472 42 473 46Q477 68 479 81T482 101Q449 57 397
29T282 1Q213 1 165 29T94 103T70 204Q70 242 86 331T143 615L152 660Q160 703 210 703Q252 703 252 671Q252 663 251 659Q207 454 190 354T172 208Q172 155 201 124T284 92Q335 92 385 121T470 199T516 301Q537 414 578 664Q581 685 594 697T631 709Q653 709 665
699ZM375 754T366 764T357 786Q357 795 363 806T381 827L477 907Q496 922 506 928T527 934Q541 934 550 924T559 900Q559 875 531 854L429 774Q415 763 406 759T388 754Q375 754 366 764Z" />
<glyph unicode="&#xdb;" glyph-name="Ucircumflex" horiz-adv-x="679" d="M653 709T665 699T677 671Q677 665 676 662Q658 567 642 468Q638 437 635 424Q626 362 590 151L572 46Q567 20 555 9T517 -3Q472 -3 472 33Q472 42 473 46Q477 68 479 81T482 101Q449 57
397 29T282 1Q213 1 165 29T94 103T70 204Q70 242 86 331T143 615L152 660Q160 703 210 703Q252 703 252 671Q252 663 251 659Q207 454 190 354T172 208Q172 155 201 124T284 92Q335 92 385 121T470 199T516 301Q537 414 578 664Q581 685 594 697T631 709Q653 709
665 699ZM529 759T519 774Q463 872 451 872Q444 872 422 852T369 804L349 786Q327 764 308 764Q294 764 285 773T276 796Q276 814 293 828Q295 830 325 857Q372 901 405 926T461 952Q488 952 507 932T554 866Q565 847 584 820Q591 811 591 801Q591 785 578 772T549
759Q529 759 519 774Z" />
<glyph unicode="&#xdc;" glyph-name="Udieresis" horiz-adv-x="679" d="M653 709T665 699T677 671Q677 665 676 662Q658 567 642 468Q638 437 635 424Q626 362 590 151L572 46Q567 20 555 9T517 -3Q472 -3 472 33Q472 42 473 46Q477 68 479 81T482 101Q449 57
397 29T282 1Q213 1 165 29T94 103T70 204Q70 242 86 331T143 615L152 660Q160 703 210 703Q252 703 252 671Q252 663 251 659Q207 454 190 354T172 208Q172 155 201 124T284 92Q335 92 385 121T470 199T516 301Q537 414 578 664Q581 685 594 697T631 709Q653 709
665 699ZM283 771T268 785T253 822Q253 851 275 872T327 894Q349 894 364 879T380 843Q380 815 357 793T306 771Q283 771 268 785ZM535 771T520 785T505 822Q505 851 527 872T579 894Q601 894 616 880T631 843Q631 815 609 793T558 771Q535 771 520 785Z" />
<glyph unicode="&#xdd;" glyph-name="Yacute" horiz-adv-x="655" d="M268 2T257 12T246 40Q246 47 247 50L293 329Q273 335 247 369T198 453Q177 499 163 543T135 645Q134 648 134 655Q134 677 154 689T199 701Q217 701 227 691T242 660Q258 601 268 568T292 499Q305
464 323 435T356 406Q369 406 396 432T455 500Q484 538 513 582T550 639Q555 647 559 653T566 664Q579 685 586 692T609 699Q631 699 648 686T666 656Q666 647 659 633Q633 587 599 537T536 449Q496 399 455 367T393 329L347 52Q337 2 289 2Q268 2 257 12ZM365
754T356 764T347 786Q347 795 353 806T371 827L467 907Q486 922 496 928T517 934Q531 934 540 924T549 900Q549 875 521 854L419 774Q405 763 396 759T378 754Q365 754 356 764Z" />
<glyph unicode="&#xde;" glyph-name="Thorn" horiz-adv-x="649" d="M476 647T531 621T618 547T650 438Q650 366 609 310T497 224T343 193Q281 193 222 212L186 39Q182 19 165 6T124 -7Q99 -7 85 5T74 37L108 210L133 337L162 497L147 489Q136 482 123 482Q108
482 97 495T86 523Q86 545 114 564Q147 585 180 598Q184 619 185 631Q199 711 200 724Q203 744 219 757T261 770Q284 770 299 758T310 724L295 634Q360 647 407 647Q476 647 531 621ZM431 283T484 324T537 435Q537 490 495 523T384 556Q337 556 280 541L261 426L253
382L238 302Q298 283 352 283Q431 283 484 324Z" />
<glyph unicode="&#xdf;" glyph-name="germandbls" horiz-adv-x="631" d="M303 -5T269 1T211 21Q195 31 195 49Q195 65 208 82T237 100Q239 100 251 96Q293 74 335 74Q394 74 428 97T463 164Q463 186 448 201T400 241Q363 267 344 289T324 344Q324 385 360 417T460
472Q481 508 481 542Q481 586 452 615T379 645Q311 645 266 590T198 414L129 53Q125 32 112 21T77 10Q58 10 48 19T37 44L38 53L105 415Q124 518 155 585T240 688T379 724Q435 724 480 699T552 632T578 546Q578 513 565 480T530 417Q481 408 449 387T417 344Q417
331 430 318T471 283Q513 252 537 225T561 161Q561 110 531 73T449 15T333 -5Q303 -5 269 1Z" />
<glyph unicode="&#xe0;" glyph-name="agrave" horiz-adv-x="620" d="M521 77T527 73T534 53Q534 31 522 16T485 1Q449 1 431 13T403 55Q351 -10 248 -10Q183 -10 138 17T69 91T46 195Q46 277 81 345T178 454T318 494Q367 494 402 476T455 427L462 451Q474 488
509 488Q530 488 543 480T557 459Q557 450 551 433T544 410Q535 386 531 371Q514 314 498 233T482 116Q482 98 487 90T507 80Q521 77 527 73ZM306 70T344 97T392 175Q416 297 416 325Q416 370 387 392T322 415Q273 415 233 382T171 298T148 191Q148 138 173 104T254
70Q306 70 344 97ZM391 555T384 559T368 573L304 659Q291 678 291 691Q291 710 304 723T335 736Q346 736 355 730T373 709L431 624Q442 610 442 596Q442 580 430 568T400 555Q391 555 384 559Z" />
<glyph unicode="&#xe1;" glyph-name="aacute" horiz-adv-x="620" d="M521 77T527 73T534 53Q534 31 522 16T485 1Q449 1 431 13T403 55Q351 -10 248 -10Q183 -10 138 17T69 91T46 195Q46 277 81 345T178 454T318 494Q367 494 402 476T455 427L462 451Q474 488
509 488Q530 488 543 480T557 459Q557 450 551 433T544 410Q535 386 531 371Q514 314 498 233T482 116Q482 98 487 90T507 80Q521 77 527 73ZM306 70T344 97T392 175Q416 297 416 325Q416 370 387 392T322 415Q273 415 233 382T171 298T148 191Q148 138 173 104T254
70Q306 70 344 97ZM302 554T293 564T284 586Q284 595 290 606T308 627L404 707Q423 722 433 728T454 734Q468 734 477 724T486 700Q486 675 458 654L356 574Q342 563 333 559T315 554Q302 554 293 564Z" />
<glyph unicode="&#xe2;" glyph-name="acircumflex" horiz-adv-x="620" d="M521 77T527 73T534 53Q534 31 522 16T485 1Q449 1 431 13T403 55Q351 -10 248 -10Q183 -10 138 17T69 91T46 195Q46 277 81 345T178 454T318 494Q367 494 402 476T455 427L462 451Q474
488 509 488Q530 488 543 480T557 459Q557 450 551 433T544 410Q535 386 531 371Q514 314 498 233T482 116Q482 98 487 90T507 80Q521 77 527 73ZM306 70T344 97T392 175Q416 297 416 325Q416 370 387 392T322 415Q273 415 233 382T171 298T148 191Q148 138 173
104T254 70Q306 70 344 97ZM456 559T446 574Q390 672 378 672Q371 672 349 652T296 604L276 586Q254 564 235 564Q221 564 212 573T203 596Q203 614 220 628Q222 630 252 657Q299 701 332 726T388 752Q415 752 434 732T481 666Q492 647 511 620Q518 611 518 601Q518
585 505 572T476 559Q456 559 446 574Z" />
<glyph unicode="&#xe3;" glyph-name="atilde" horiz-adv-x="620" d="M521 77T527 73T534 53Q534 31 522 16T485 1Q449 1 431 13T403 55Q351 -10 248 -10Q183 -10 138 17T69 91T46 195Q46 277 81 345T178 454T318 494Q367 494 402 476T455 427L462 451Q474 488
509 488Q530 488 543 480T557 459Q557 450 551 433T544 410Q535 386 531 371Q514 314 498 233T482 116Q482 98 487 90T507 80Q521 77 527 73ZM306 70T344 97T392 175Q416 297 416 325Q416 370 387 392T322 415Q273 415 233 382T171 298T148 191Q148 138 173 104T254
70Q306 70 344 97ZM211 567T203 576T194 599Q194 615 209 630Q240 661 262 673T313 686Q362 686 400 663Q407 659 418 653T435 645T447 642Q458 642 474 656Q484 666 491 670T508 674Q520 674 529 664T539 641Q539 622 524 609Q498 587 477 577T433 567Q417 567
403 572T376 585T355 596Q350 598 334 606T306 614Q297 614 288 608T263 586Q241 567 224 567Q211 567 203 576Z" />
<glyph unicode="&#xe4;" glyph-name="adieresis" horiz-adv-x="620" d="M521 77T527 73T534 53Q534 31 522 16T485 1Q449 1 431 13T403 55Q351 -10 248 -10Q183 -10 138 17T69 91T46 195Q46 277 81 345T178 454T318 494Q367 494 402 476T455 427L462 451Q474 488
509 488Q530 488 543 480T557 459Q557 450 551 433T544 410Q535 386 531 371Q514 314 498 233T482 116Q482 98 487 90T507 80Q521 77 527 73ZM306 70T344 97T392 175Q416 297 416 325Q416 370 387 392T322 415Q273 415 233 382T171 298T148 191Q148 138 173 104T254
70Q306 70 344 97ZM210 571T195 585T180 622Q180 651 202 672T254 694Q276 694 291 679T307 643Q307 615 284 593T233 571Q210 571 195 585ZM462 571T447 585T432 622Q432 651 454 672T506 694Q528 694 543 680T558 643Q558 615 536 593T485 571Q462 571 447 585Z"
/>
<glyph unicode="&#xe5;" glyph-name="aring" horiz-adv-x="620" d="M521 77T527 73T534 53Q534 31 522 16T485 1Q449 1 431 13T403 55Q351 -10 248 -10Q183 -10 138 17T69 91T46 195Q46 277 81 345T178 454T318 494Q367 494 402 476T455 427L462 451Q474 488 509
488Q530 488 543 480T557 459Q557 450 551 433T544 410Q535 386 531 371Q514 314 498 233T482 116Q482 98 487 90T507 80Q521 77 527 73ZM306 70T344 97T392 175Q416 297 416 325Q416 370 387 392T322 415Q273 415 233 382T171 298T148 191Q148 138 173 104T254
70Q306 70 344 97ZM314 537T285 566T255 638Q255 672 273 702T324 750T393 768Q435 768 463 738T492 669Q492 633 474 603T424 555T357 537Q314 537 285 566ZM391 600T410 618T429 662Q429 680 417 693T384 706Q357 706 338 687T319 644Q319 625 332 613T365 600Q391
600 410 618Z" />
<glyph unicode="&#xe6;" glyph-name="ae" horiz-adv-x="972" d="M773 515T822 490T901 422T930 332Q930 317 927 302Q921 267 905 255T855 242L506 233L504 221Q501 200 501 183Q501 122 534 95T639 68Q702 68 742 90T813 152Q828 170 848 170Q862 170 874 158T886
133Q886 115 870 95Q788 -10 639 -10Q562 -10 510 15T442 88Q416 42 362 16T233 -10Q130 -10 81 22T32 127Q32 212 89 255T266 302L423 306L425 320Q427 332 427 339Q427 380 396 406T309 432Q257 432 220 417T145 371Q128 357 111 357Q96 357 87 368T77 391Q77
400 83 408T100 428Q148 470 199 490T312 511Q379 511 428 480T489 397Q522 449 581 482T713 515Q773 515 822 490ZM649 438T596 400T523 308L835 316L837 325Q838 329 838 338Q838 363 822 386T777 423T710 438Q649 438 596 400ZM304 67T347 94T400 176L409 230L266
226Q129 223 129 130Q129 97 155 82T238 67Q304 67 347 94Z" />
<glyph unicode="&#xe7;" glyph-name="ccedilla" horiz-adv-x="591" d="M292 435T246 402T173 316T146 206Q146 149 180 114T280 79Q329 79 369 98T431 146T454 205Q454 217 467 226T500 235Q520 235 531 228T542 204Q542 150 509 106T422 35T304 1L257 -55Q288
-63 309 -81T330 -132Q330 -177 291 -201T190 -225Q171 -225 148 -221T109 -211Q89 -202 89 -184Q89 -168 100 -158T127 -147Q130 -147 155 -153T197 -160Q227 -160 242 -155T258 -132Q258 -118 246 -113T197 -101Q183 -100 176 -93T168 -75Q168 -66 172 -58L223
4Q142 19 94 75T46 206Q46 290 85 360T192 472T344 514Q396 514 445 493T526 436T557 359Q557 339 543 329T504 318Q488 318 478 326T465 351Q463 370 448 389T407 422T347 435Q292 435 246 402Z" />
<glyph unicode="&#xe8;" glyph-name="egrave" horiz-adv-x="611" d="M213 -6T160 23T78 103T50 214Q50 294 89 363T196 473T349 514Q410 514 459 492T538 428T568 330Q568 278 550 255T497 231L139 225Q138 218 138 206Q138 149 179 113T286 76Q341 76 374 95T446
150Q459 161 473 161Q488 161 501 151T514 126Q514 111 499 95Q463 53 416 24T286 -6Q213 -6 160 23ZM466 302Q479 302 483 308T487 332Q487 380 449 408T351 436Q300 436 256 412T184 354T152 295L466 302ZM403 555T396 559T380 573L316 659Q303 678 303 691Q303
710 316 723T347 736Q358 736 367 730T385 709L443 624Q454 610 454 596Q454 580 442 568T412 555Q403 555 396 559Z" />
<glyph unicode="&#xe9;" glyph-name="eacute" horiz-adv-x="611" d="M213 -6T160 23T78 103T50 214Q50 294 89 363T196 473T349 514Q410 514 459 492T538 428T568 330Q568 278 550 255T497 231L139 225Q138 218 138 206Q138 149 179 113T286 76Q341 76 374 95T446
150Q459 161 473 161Q488 161 501 151T514 126Q514 111 499 95Q463 53 416 24T286 -6Q213 -6 160 23ZM466 302Q479 302 483 308T487 332Q487 380 449 408T351 436Q300 436 256 412T184 354T152 295L466 302ZM309 562T301 570T292 590Q292 609 310 627L416 733Q430
747 441 753T465 759Q480 759 489 751T499 728Q499 703 468 676L363 582Q351 570 342 566T322 562Q309 562 301 570Z" />
<glyph unicode="&#xea;" glyph-name="ecircumflex" horiz-adv-x="611" d="M213 -6T160 23T78 103T50 214Q50 294 89 363T196 473T349 514Q410 514 459 492T538 428T568 330Q568 278 550 255T497 231L139 225Q138 218 138 206Q138 149 179 113T286 76Q341 76 374
95T446 150Q459 161 473 161Q488 161 501 151T514 126Q514 111 499 95Q463 53 416 24T286 -6Q213 -6 160 23ZM466 302Q479 302 483 308T487 332Q487 380 449 408T351 436Q300 436 256 412T184 354T152 295L466 302ZM468 559T458 574Q402 672 390 672Q383 672 361
652T308 604L288 586Q266 564 247 564Q233 564 224 573T215 596Q215 614 232 628Q234 630 264 657Q311 701 344 726T400 752Q427 752 446 732T493 666Q504 647 523 620Q530 611 530 601Q530 585 517 572T488 559Q468 559 458 574Z" />
<glyph unicode="&#xeb;" glyph-name="edieresis" horiz-adv-x="611" d="M213 -6T160 23T78 103T50 214Q50 294 89 363T196 473T349 514Q410 514 459 492T538 428T568 330Q568 278 550 255T497 231L139 225Q138 218 138 206Q138 149 179 113T286 76Q341 76 374
95T446 150Q459 161 473 161Q488 161 501 151T514 126Q514 111 499 95Q463 53 416 24T286 -6Q213 -6 160 23ZM466 302Q479 302 483 308T487 332Q487 380 449 408T351 436Q300 436 256 412T184 354T152 295L466 302ZM222 571T207 585T192 622Q192 651 214 672T266
694Q288 694 303 679T319 643Q319 615 296 593T245 571Q222 571 207 585ZM474 571T459 585T444 622Q444 651 466 672T518 694Q540 694 555 680T570 643Q570 615 548 593T497 571Q474 571 459 585Z" />
<glyph unicode="&#xec;" glyph-name="igrave" horiz-adv-x="326" d="M95 3T83 15T74 49L156 461Q160 482 176 494T214 507Q234 507 246 497T258 470Q258 464 257 461L171 48Q168 28 153 16T116 3Q95 3 83 15ZM254 555T247 559T231 573L167 659Q154 678 154 691Q154
710 167 723T198 736Q209 736 218 730T236 709L294 624Q305 610 305 596Q305 580 293 568T263 555Q254 555 247 559Z" />
<glyph unicode="&#xed;" glyph-name="iacute" horiz-adv-x="326" d="M95 3T83 15T74 49L156 461Q160 482 176 494T214 507Q234 507 246 497T258 470Q258 464 257 461L171 48Q168 28 153 16T116 3Q95 3 83 15ZM165 554T156 564T147 586Q147 595 153 606T171 627L267
707Q286 722 296 728T317 734Q331 734 340 724T349 700Q349 675 321 654L219 574Q205 563 196 559T178 554Q165 554 156 564Z" />
<glyph unicode="&#xee;" glyph-name="icircumflex" horiz-adv-x="326" d="M95 3T83 15T74 49L156 461Q160 482 176 494T214 507Q234 507 246 497T258 470Q258 464 257 461L171 48Q168 28 153 16T116 3Q95 3 83 15ZM319 559T309 574Q253 672 241 672Q234 672 212
652T159 604L139 586Q117 564 98 564Q84 564 75 573T66 596Q66 614 83 628Q85 630 115 657Q162 701 195 726T251 752Q278 752 297 732T344 666Q355 647 374 620Q381 611 381 601Q381 585 368 572T339 559Q319 559 309 574Z" />
<glyph unicode="&#xef;" glyph-name="idieresis" horiz-adv-x="326" d="M95 3T83 15T74 49L156 461Q160 482 176 494T214 507Q234 507 246 497T258 470Q258 464 257 461L171 48Q168 28 153 16T116 3Q95 3 83 15ZM73 571T58 585T43 622Q43 651 65 672T117 694Q139
694 154 679T170 643Q170 615 147 593T96 571Q73 571 58 585ZM325 571T310 585T295 622Q295 651 317 672T369 694Q391 694 406 680T421 643Q421 615 399 593T348 571Q325 571 310 585Z" />
<glyph unicode="&#xf0;" glyph-name="eth" horiz-adv-x="612" d="M536 523T551 459T567 335Q567 237 531 162T427 44T268 2Q204 2 154 29T77 104T49 207Q49 288 87 355T192 461T340 500Q390 500 436 482Q427 507 412 529Q395 558 369 584L291 545Q275 536 258
536Q243 536 234 545T224 569Q224 591 250 605L305 634Q282 648 262 657Q251 662 247 667T242 683Q242 702 257 719T293 736Q310 736 334 722Q339 719 359 709T401 683L487 728Q495 732 505 732Q520 732 531 722T543 696Q543 682 536 674T510 656L461 631Q484 608
506 572Q536 523 551 459ZM331 83T375 117T441 209T464 336V338Q445 378 414 399T339 421Q287 421 243 390T174 311T148 210Q148 153 181 118T271 83Q331 83 375 117Z" />
<glyph unicode="&#xf1;" glyph-name="ntilde" horiz-adv-x="561" d="M433 510T473 468T513 349Q513 321 505 267T478 114Q479 117 464 38Q461 20 446 10T409 0Q386 0 374 11T365 38L386 162Q398 229 406 279T414 349Q414 389 399 408T351 428Q303 428 267 391T207
284Q189 234 180 176Q173 138 156 36Q153 18 139 9T101 -1Q77 -1 66 9T57 36L69 111Q100 297 111 384Q112 389 112 398Q112 409 108 421T97 447Q96 450 95 453T94 462Q94 477 113 490T149 504Q167 504 180 482Q187 471 193 451T197 421L193 403Q250 510 363 510Q433
510 473 468ZM199 567T191 576T182 599Q182 615 197 630Q228 661 250 673T301 686Q350 686 388 663Q395 659 406 653T423 645T435 642Q446 642 462 656Q472 666 479 670T496 674Q508 674 517 664T527 641Q527 622 512 609Q486 587 465 577T421 567Q405 567 391
572T364 585T343 596Q338 598 322 606T294 614Q285 614 276 608T251 586Q229 567 212 567Q199 567 191 576Z" />
<glyph unicode="&#xf2;" glyph-name="ograve" horiz-adv-x="598" d="M166 -1T98 51T30 214Q30 295 68 364T175 475T331 517Q439 517 505 456T571 283Q571 202 535 137T430 36T273 -1Q166 -1 98 51ZM335 77T379 104T447 178T470 283Q470 355 433 396T331 438Q272
438 227 407T157 325T132 214Q132 142 171 110T273 77Q335 77 379 104ZM390 555T383 559T367 573L303 659Q290 678 290 691Q290 710 303 723T334 736Q345 736 354 730T372 709L430 624Q441 610 441 596Q441 580 429 568T399 555Q390 555 383 559Z" />
<glyph unicode="&#xf3;" glyph-name="oacute" horiz-adv-x="598" d="M166 -1T98 51T30 214Q30 295 68 364T175 475T331 517Q439 517 505 456T571 283Q571 202 535 137T430 36T273 -1Q166 -1 98 51ZM335 77T379 104T447 178T470 283Q470 355 433 396T331 438Q272
438 227 407T157 325T132 214Q132 142 171 110T273 77Q335 77 379 104ZM301 554T292 564T283 586Q283 595 289 606T307 627L403 707Q422 722 432 728T453 734Q467 734 476 724T485 700Q485 675 457 654L355 574Q341 563 332 559T314 554Q301 554 292 564Z" />
<glyph unicode="&#xf4;" glyph-name="ocircumflex" horiz-adv-x="598" d="M166 -1T98 51T30 214Q30 295 68 364T175 475T331 517Q439 517 505 456T571 283Q571 202 535 137T430 36T273 -1Q166 -1 98 51ZM335 77T379 104T447 178T470 283Q470 355 433 396T331 438Q272
438 227 407T157 325T132 214Q132 142 171 110T273 77Q335 77 379 104ZM455 559T445 574Q389 672 377 672Q370 672 348 652T295 604L275 586Q253 564 234 564Q220 564 211 573T202 596Q202 614 219 628Q221 630 251 657Q298 701 331 726T387 752Q414 752 433 732T480
666Q491 647 510 620Q517 611 517 601Q517 585 504 572T475 559Q455 559 445 574Z" />
<glyph unicode="&#xf5;" glyph-name="otilde" horiz-adv-x="598" d="M166 -1T98 51T30 214Q30 295 68 364T175 475T331 517Q439 517 505 456T571 283Q571 202 535 137T430 36T273 -1Q166 -1 98 51ZM335 77T379 104T447 178T470 283Q470 355 433 396T331 438Q272
438 227 407T157 325T132 214Q132 142 171 110T273 77Q335 77 379 104ZM210 567T202 576T193 599Q193 615 208 630Q239 661 261 673T312 686Q361 686 399 663Q406 659 417 653T434 645T446 642Q457 642 473 656Q483 666 490 670T507 674Q519 674 528 664T538 641Q538
622 523 609Q497 587 476 577T432 567Q416 567 402 572T375 585T354 596Q349 598 333 606T305 614Q296 614 287 608T262 586Q240 567 223 567Q210 567 202 576Z" />
<glyph unicode="&#xf6;" glyph-name="odieresis" horiz-adv-x="598" d="M166 -1T98 51T30 214Q30 295 68 364T175 475T331 517Q439 517 505 456T571 283Q571 202 535 137T430 36T273 -1Q166 -1 98 51ZM335 77T379 104T447 178T470 283Q470 355 433 396T331 438Q272
438 227 407T157 325T132 214Q132 142 171 110T273 77Q335 77 379 104ZM209 571T194 585T179 622Q179 651 201 672T253 694Q275 694 290 679T306 643Q306 615 283 593T232 571Q209 571 194 585ZM461 571T446 585T431 622Q431 651 453 672T505 694Q527 694 542 680T557
643Q557 615 535 593T484 571Q461 571 446 585Z" />
<glyph unicode="&#xf7;" glyph-name="divide" horiz-adv-x="547" d="M282 396T268 409T254 441Q254 468 275 488T323 508Q344 508 358 495T373 462Q373 435 352 416T303 396Q282 396 268 409ZM94 263T86 270T77 289Q77 304 95 324Q138 373 212 373Q239 373 267
367T313 353Q329 347 350 343T389 339Q402 339 412 342T435 353Q453 364 469 364Q483 364 491 355T500 332Q500 310 463 289Q449 280 422 272T372 263Q331 263 272 288Q240 301 206 301Q169 301 146 279Q122 263 105 263Q94 263 86 270ZM235 124T221 137T207 172Q207
198 230 218T279 238Q299 238 313 224T328 190Q328 162 307 143T258 124Q235 124 221 137Z" />
<glyph unicode="&#xf8;" glyph-name="oslash" horiz-adv-x="599" d="M582 553T589 543T594 520Q591 505 579 496L521 440Q572 378 572 283Q572 202 536 137T432 36T275 -1Q175 -1 110 43L52 -13Q37 -28 20 -28Q7 -28 -2 -18T-10 4Q-9 18 4 30L65 89Q32 139 32
214Q32 295 70 364T176 475T332 517Q413 517 472 482L530 538Q551 559 570 554Q582 553 589 543ZM133 188T140 162L407 419Q374 438 332 438Q274 438 229 407T158 325T133 214Q133 188 140 162ZM472 336T451 373L176 107Q213 77 275 77Q336 77 380 104T448 178T472
283Q472 336 451 373Z" />
<glyph unicode="&#xf9;" glyph-name="ugrave" horiz-adv-x="556" d="M446 106T446 96Q446 80 452 64T459 42Q459 29 443 16T412 3Q391 3 373 23T356 69V74Q297 -1 196 -1Q125 -1 90 39T54 154Q54 198 89 385Q92 405 96 425T104 467Q107 484 122 494T159 504Q180
504 193 494T203 467Q196 426 188 388Q185 369 175 312T159 219T154 164Q154 78 221 78Q282 78 318 133T375 294L406 467Q409 487 424 498T461 510Q484 510 496 498T505 467L449 127Q446 106 446 96ZM355 555T348 559T332 573L268 659Q255 678 255 691Q255 710
268 723T299 736Q310 736 319 730T337 709L395 624Q406 610 406 596Q406 580 394 568T364 555Q355 555 348 559Z" />
<glyph unicode="&#xfa;" glyph-name="uacute" horiz-adv-x="556" d="M446 106T446 96Q446 80 452 64T459 42Q459 29 443 16T412 3Q391 3 373 23T356 69V74Q297 -1 196 -1Q125 -1 90 39T54 154Q54 198 89 385Q92 405 96 425T104 467Q107 484 122 494T159 504Q180
504 193 494T203 467Q196 426 188 388Q185 369 175 312T159 219T154 164Q154 78 221 78Q282 78 318 133T375 294L406 467Q409 487 424 498T461 510Q484 510 496 498T505 467L449 127Q446 106 446 96ZM266 554T257 564T248 586Q248 595 254 606T272 627L368 707Q387
722 397 728T418 734Q432 734 441 724T450 700Q450 675 422 654L320 574Q306 563 297 559T279 554Q266 554 257 564Z" />
<glyph unicode="&#xfb;" glyph-name="ucircumflex" horiz-adv-x="556" d="M446 106T446 96Q446 80 452 64T459 42Q459 29 443 16T412 3Q391 3 373 23T356 69V74Q297 -1 196 -1Q125 -1 90 39T54 154Q54 198 89 385Q92 405 96 425T104 467Q107 484 122 494T159 504Q180
504 193 494T203 467Q196 426 188 388Q185 369 175 312T159 219T154 164Q154 78 221 78Q282 78 318 133T375 294L406 467Q409 487 424 498T461 510Q484 510 496 498T505 467L449 127Q446 106 446 96ZM420 559T410 574Q354 672 342 672Q335 672 313 652T260 604L240
586Q218 564 199 564Q185 564 176 573T167 596Q167 614 184 628Q186 630 216 657Q263 701 296 726T352 752Q379 752 398 732T445 666Q456 647 475 620Q482 611 482 601Q482 585 469 572T440 559Q420 559 410 574Z" />
<glyph unicode="&#xfc;" glyph-name="udieresis" horiz-adv-x="556" d="M446 106T446 96Q446 80 452 64T459 42Q459 29 443 16T412 3Q391 3 373 23T356 69V74Q297 -1 196 -1Q125 -1 90 39T54 154Q54 198 89 385Q92 405 96 425T104 467Q107 484 122 494T159 504Q180
504 193 494T203 467Q196 426 188 388Q185 369 175 312T159 219T154 164Q154 78 221 78Q282 78 318 133T375 294L406 467Q409 487 424 498T461 510Q484 510 496 498T505 467L449 127Q446 106 446 96ZM174 571T159 585T144 622Q144 651 166 672T218 694Q240 694
255 679T271 643Q271 615 248 593T197 571Q174 571 159 585ZM426 571T411 585T396 622Q396 651 418 672T470 694Q492 694 507 680T522 643Q522 615 500 593T449 571Q426 571 411 585Z" />
<glyph unicode="&#xfd;" glyph-name="yacute" horiz-adv-x="529" d="M111 -261T100 -250T88 -223Q88 -207 95 -198Q176 -54 233 59Q195 91 160 158T104 306T82 455V470Q84 485 98 497T137 509Q156 509 162 501T170 476Q177 350 208 260T275 135L288 164Q376 352
429 481Q436 498 446 505T475 512Q499 512 512 502T524 474L521 463Q424 232 346 82Q235 -135 181 -229Q172 -245 161 -253T132 -261Q111 -261 100 -250ZM267 554T258 564T249 586Q249 595 255 606T273 627L369 707Q388 722 398 728T419 734Q433 734 442 724T451
700Q451 675 423 654L321 574Q307 563 298 559T280 554Q267 554 258 564Z" />
<glyph unicode="&#xfe;" glyph-name="thorn" horiz-adv-x="594" d="M392 516T443 491T526 418T558 302Q558 210 522 142T417 37T254 0Q216 0 175 14T106 50Q87 -60 58 -167Q54 -185 38 -195T0 -206Q-19 -206 -30 -196T-40 -167Q-37 -143 1 31Q11 73 39 223L48
272L119 681Q123 702 137 714T173 726Q195 726 208 715T219 685Q214 653 179 464Q211 487 253 501T335 516Q392 516 443 491ZM316 79T362 108T432 189T456 302Q456 368 419 402T327 437Q291 437 256 421T194 383T158 344L151 301L141 243L132 195L121 130Q124 120
145 108T196 87T254 79Q316 79 362 108Z" />
<glyph unicode="&#xff;" glyph-name="ydieresis" horiz-adv-x="529" d="M111 -261T100 -250T88 -223Q88 -207 95 -198Q176 -54 233 59Q195 91 160 158T104 306T82 455V470Q84 485 98 497T137 509Q156 509 162 501T170 476Q177 350 208 260T275 135L288 164Q376
352 429 481Q436 498 446 505T475 512Q499 512 512 502T524 474L521 463Q424 232 346 82Q235 -135 181 -229Q172 -245 161 -253T132 -261Q111 -261 100 -250ZM175 571T160 585T145 622Q145 651 167 672T219 694Q241 694 256 679T272 643Q272 615 249 593T198 571Q175
571 160 585ZM427 571T412 585T397 622Q397 651 419 672T471 694Q493 694 508 680T523 643Q523 615 501 593T450 571Q427 571 412 585Z" />
<glyph unicode="&#x2013;" glyph-name="endash" horiz-adv-x="819" d="M200 329T99 338Q83 339 74 349T64 374Q64 395 81 410T119 423Q243 414 316 414Q380 414 486 418Q511 418 562 419T656 421L712 420Q729 419 764 419Q783 419 793 410T804 387Q804 367 787
352T749 336Q718 336 702 337L651 338Q563 338 458 333Q336 329 270 329Q200 329 99 338Z" />
<glyph unicode="&#x2014;" glyph-name="emdash" horiz-adv-x="1547" d="M152 335T97 342Q82 344 74 353T65 376Q65 396 81 411T119 426Q190 420 439 420Q528 420 618 420T801 422Q894 423 987 423T1171 424Q1271 424 1397 420Q1483 418 1504 418Q1517 418 1524
409T1532 385Q1532 364 1519 350T1489 335L1401 337Q1242 340 1206 340Q1111 340 1013 340T814 338Q611 335 417 335Q152 335 97 342Z" />
<glyph unicode="&#x2018;" glyph-name="quoteleft" horiz-adv-x="281" d="M237 622T257 608T277 561Q277 526 252 502T186 477Q153 477 134 494T115 543Q115 587 146 634T213 711Q227 722 239 722Q248 722 255 717T263 701Q263 687 250 676Q217 643 200 621Q204
622 211 622Q237 622 257 608ZM232 567T225 574T203 581Q185 581 174 570T162 542Q162 520 191 517Q207 517 219 528T232 556Q232 567 225 574Z" />
<glyph unicode="&#x2019;" glyph-name="quoteright" horiz-adv-x="282" d="M255 727T275 709T295 660Q295 616 267 572T196 494Q182 482 171 482Q160 482 153 489T145 504Q145 516 157 528Q158 529 175 545T210 584Q202 582 198 582Q174 582 153 597T132 644Q132
681 157 704T221 727Q255 727 275 709ZM177 638T184 631T206 623Q224 623 235 634T247 662Q247 673 240 680T216 687Q202 687 190 676T177 649Q177 638 184 631Z" />
<glyph unicode="&#x201a;" glyph-name="quotesinglbase" horiz-adv-x="282" d="M148 143T168 125T189 75Q189 32 164 -5T91 -90Q80 -103 66 -103Q56 -103 48 -98T40 -82Q40 -69 54 -55Q80 -32 103 -2Q95 -4 91 -4Q64 -4 46 12T27 55Q27 93 51 118T115 143Q148
143 168 125ZM119 39T130 50T142 78Q142 103 111 103Q98 103 86 93T74 68Q72 39 101 39Q119 39 130 50Z" />
<glyph unicode="&#x201c;" glyph-name="quotedblleft" horiz-adv-x="465" d="M420 628T440 612T460 564Q460 529 435 505T370 481Q337 481 318 499T298 552Q298 623 395 714Q408 727 420 727Q430 727 438 722T446 706Q446 695 433 680Q427 673 411 658T383 627Q387
628 396 628Q420 628 440 612ZM233 622T253 607T273 558Q273 522 248 500T184 477Q151 477 132 494T113 544Q113 585 138 624T209 711Q220 722 235 722Q244 722 252 717T260 701Q260 689 247 676Q244 673 227 657T194 621Q198 622 207 622Q233 622 253 607ZM391
522T402 533T414 559Q414 571 407 578T386 585Q368 585 357 574T345 546Q345 536 352 529T375 522Q391 522 402 533ZM202 517T215 528T228 555Q228 567 221 574T199 581Q182 581 170 570T158 543Q158 520 187 517Q202 517 215 528Z" />
<glyph unicode="&#x201d;" glyph-name="quotedblright" horiz-adv-x="468" d="M440 727T460 709T481 660Q481 617 454 578T382 494Q369 482 357 482Q346 482 339 489T331 505Q331 519 343 529Q351 536 367 552T396 585Q388 582 380 582Q356 582 337 596T318 640Q318
678 342 701T406 727Q440 727 460 709ZM252 723T272 705T293 655Q293 612 268 575T195 490Q184 477 170 477Q160 477 152 482T144 498Q144 509 158 525Q184 549 206 578Q198 576 195 576Q168 576 150 592T131 635Q131 673 155 698T219 723Q252 723 272 705ZM363
638T370 631T391 623Q409 623 421 634T433 662Q433 672 426 679T402 687Q387 687 375 676T363 649Q363 638 370 631ZM223 619T234 630T246 658Q246 683 215 683Q202 683 190 673T178 648Q176 619 205 619Q223 619 234 630Z" />
<glyph unicode="&#x201e;" glyph-name="quotedblbase" horiz-adv-x="472" d="M338 147T358 129T378 80Q378 36 350 -7T279 -86Q266 -98 255 -98Q243 -98 236 -91T228 -75Q228 -64 241 -51Q243 -49 260 -33T294 4Q282 2 278 2Q254 2 235 16T216 60Q216 99 240 123T304
147Q338 147 358 129ZM150 143T170 125T191 75Q191 32 166 -5T93 -90Q82 -103 68 -103Q57 -103 50 -98T42 -82Q42 -69 56 -55Q82 -32 105 -2Q95 -4 92 -4Q66 -4 48 12T29 55Q29 94 53 118T117 143Q150 143 170 125ZM260 58T267 51T288 43Q306 43 318 54T330 82Q330
92 323 99T299 107Q284 107 272 96T260 69Q260 58 267 51ZM120 39T132 50T144 78Q144 103 113 103Q100 103 88 93T75 68Q75 39 103 39Q120 39 132 50Z" />
<glyph unicode="&#x2022;" glyph-name="bullet" horiz-adv-x="574" d="M283 50T259 70T234 125Q220 102 196 88T147 73Q99 73 70 102T41 178Q41 221 70 251T149 287Q135 298 127 317T119 358Q119 414 155 448T252 482Q296 482 322 457T345 389Q359 421 386 440T444
460Q489 460 516 432T544 356Q544 312 513 279T430 235Q445 227 453 212T462 178Q462 121 424 86T323 50Q283 50 259 70ZM354 124T372 141T391 187Q391 200 367 221Q362 224 362 235Q362 249 368 259T385 273Q420 283 442 302T464 343Q464 363 453 375T424 388Q404
388 385 374T355 337Q350 329 342 324T324 318Q311 318 304 323T296 338L297 359Q297 381 285 394T254 407Q227 407 210 392T193 351Q193 338 198 326T211 306Q214 304 216 299T219 289Q219 270 211 258T189 246Q160 246 143 231T125 190Q125 171 136 159T165 147Q181
147 197 157T223 183Q228 191 236 196T253 201Q264 201 271 196T278 182Q278 156 290 140T323 124Q354 124 372 141ZM257 209T244 221T230 254Q230 280 246 296T290 312Q314 312 328 299T343 264Q343 239 326 224T279 209Q257 209 244 221ZM296 238T303 245T310
263Q310 271 304 276T289 281Q277 281 270 274T262 255Q262 247 268 243T284 238Q296 238 303 245Z" />
<glyph unicode="&#x2039;" glyph-name="guilsinglleft" horiz-adv-x="366" d="M220 152T179 182T108 254T77 327Q77 361 124 408T233 490T327 525Q338 525 344 518T351 498Q351 465 316 453Q279 440 240 415T174 364T147 327Q147 316 164 296T207 255T263 224Q289
215 289 192Q289 175 277 164T250 152Q220 152 179 182Z" />
<glyph unicode="&#x203a;" glyph-name="guilsinglright" horiz-adv-x="366" d="M74 152T66 160T58 180Q58 194 68 206T98 224Q131 235 167 259T229 308T255 343Q255 355 236 376T187 418T125 453Q113 458 108 463T103 479Q103 498 113 511T140 525Q170 525 214
494T292 422T325 349Q325 316 281 269T178 187T85 152Q74 152 66 160Z" />
</font>
</defs>
</svg>
