<?xml version="1.0" standalone="no"?>
<!DOCTYPE svg PUBLIC "-//W3C//DTD SVG 1.1//EN" "http://www.w3.org/Graphics/SVG/1.1/DTD/svg11.dtd">
<svg xmlns="http://www.w3.org/2000/svg">
<defs >
<font id="Mali" horiz-adv-x="612" ><font-face
    font-family="Mali"
    units-per-em="1000"
    panose-1="0 0 8 0 0 0 0 0 0 0"
    ascent="1050"
    descent="-250"
    alphabetic="0" />
<glyph unicode=" " glyph-name="space" horiz-adv-x="360" />
<glyph unicode="!" glyph-name="exclam" horiz-adv-x="277" d="M117 210T107 222T96 254Q96 261 97 264L161 666Q165 691 182 705T224 719Q245 719 255 707T266 674Q266 665 265 661L201 261Q197 236 180 223T138 210Q117 210 107 222ZM64 0T44 21T23 73Q23 98
38 122T77 160T127 175Q158 175 180 154T202 102Q202 77 187 53T146 15T96 0Q64 0 44 21Z" />
<glyph unicode="&quot;" glyph-name="quotedbl" horiz-adv-x="439" d="M148 471T136 480T126 509L137 567Q151 633 159 681Q162 698 178 706T217 715Q239 715 254 706T266 681Q253 606 234 507Q230 489 214 480T172 471Q148 471 136 480ZM318 471T306 480T296
509L307 567Q321 633 329 681Q332 698 348 706T387 715Q409 715 424 706T436 681Q423 606 404 507Q400 489 384 480T342 471Q318 471 306 480Z" />
<glyph unicode="#" glyph-name="numbersign" horiz-adv-x="625" d="M569 447T580 437T592 410Q592 384 575 368T530 352H516L472 222H497Q516 222 528 211T540 182Q540 159 522 142T480 125H439L410 38Q396 -4 352 -4Q334 -4 323 6T311 30Q311 33 313 41L341 125H202L173
38Q166 18 151 7T117 -5Q98 -5 87 5T76 32Q76 39 80 53L104 125H89Q69 125 57 135T45 163Q45 187 63 204T105 221H135L179 355H162Q141 355 129 365T117 393Q117 417 135 434T179 452H211L252 576Q259 598 274 611T307 624Q328 624 339 614T351 586Q351 581 347
565L309 451L451 449L497 585Q505 610 518 618T553 626Q571 626 581 616T592 588Q592 579 589 568L548 448Q569 447 580 437ZM418 353L277 354L234 221L374 222L418 353Z" />
<glyph unicode="$" glyph-name="dollar" horiz-adv-x="626" d="M400 564T399 553T395 531L374 413V410H375Q423 394 462 373T531 312T562 209Q562 143 526 96T430 24T300 -1H298L284 -79Q279 -105 247 -105Q233 -105 225 -99T217 -83Q225 -48 229 -20L234 5Q152
21 104 73T56 199Q56 296 145 296Q184 296 196 281T208 244Q208 200 217 173T258 135L287 292Q102 355 102 488Q102 548 137 597T231 676T359 709L372 784Q374 793 384 801T409 809Q424 809 432 802T440 786Q438 772 436 764L426 705Q508 692 559 642T610 521Q610
475 588 454T521 432Q486 432 475 444T463 483Q463 520 448 544T403 576Q400 564 399 553ZM249 466T261 456T311 431Q312 435 326 515L336 576Q298 566 274 541T249 485Q249 466 261 456ZM415 229T398 244T349 272L323 130Q363 135 389 155T415 205Q415 229 398
244Z" />
<glyph unicode="%" glyph-name="percent" horiz-adv-x="970" d="M287 -3T269 10T251 44Q251 53 254 59T260 71T265 79L623 690Q633 707 653 717T697 727Q724 727 742 714T761 680Q761 672 757 664T745 643L393 37Q382 18 361 8T315 -3Q287 -3 269 10ZM232 405T193
439T154 528Q154 575 180 614T251 677T346 700Q409 700 447 666T485 578Q485 530 459 491T389 428T294 405Q232 405 193 439ZM333 505T349 521T366 560Q366 578 355 589T329 600Q309 600 291 584T273 542Q273 526 284 516T314 505Q333 505 349 521ZM611 51T572
86T532 175Q532 222 559 261T630 323T725 346Q788 346 826 312T865 224Q865 176 839 137T768 74T674 51Q611 51 572 86ZM719 151T732 168T745 210Q745 247 708 247Q682 247 668 229T654 185Q654 151 691 151Q719 151 732 168Z" />
<glyph unicode="&amp;" glyph-name="ampersand" horiz-adv-x="749" d="M656 108T656 81Q656 47 638 26T591 5Q573 5 549 18Q505 42 474 62Q433 38 387 25T293 12Q189 12 131 56T73 193Q73 245 105 300T187 395Q163 416 150 444T137 504Q137 560 166 603T244 669T352
693Q400 693 440 674T504 621T528 543Q528 471 491 435T381 377Q428 259 471 211Q499 251 499 285Q499 294 496 318Q495 323 494 329T493 342Q493 362 515 377T562 392Q580 392 595 385T618 362Q628 340 628 300Q628 219 573 148L595 138Q628 123 629 122Q656 108
656 81ZM312 594T290 566T268 505Q268 463 320 456Q359 461 378 481T398 541Q398 568 383 581T347 594Q312 594 290 566ZM205 158T229 135T294 112Q334 112 380 135Q342 172 316 224T281 343Q245 319 225 277T205 199Q205 158 229 135Z" />
<glyph unicode="&apos;" glyph-name="quotesingle" horiz-adv-x="267" d="M147 471T135 480T125 509L136 567Q150 633 158 681Q161 698 177 706T216 715Q238 715 253 706T265 681Q252 606 233 507Q229 489 213 480T171 471Q147 471 135 480Z" />
<glyph unicode="(" glyph-name="parenleft" horiz-adv-x="377" d="M187 -125T179 -123T164 -112Q110 -58 81 21T52 194Q52 295 86 404T183 602T322 734Q339 744 355 744Q378 744 394 729T407 693Q404 673 393 662T371 645T357 636Q299 598 256 526T191 369T168
205Q168 121 188 68T241 -25Q258 -45 258 -66Q258 -89 240 -107T202 -125Q187 -125 179 -123Z" />
<glyph unicode=")" glyph-name="parenright" horiz-adv-x="377" d="M24 -125T8 -110T-5 -74Q0 -44 21 -31T45 -17Q103 24 146 96T212 253T235 415Q235 496 212 546T150 643Q133 665 133 685Q133 708 156 726T200 744Q215 744 223 742T238 731Q292 676 321 597T350
425Q350 324 316 216T220 20T81 -115Q63 -125 47 -125Q24 -125 8 -110Z" />
<glyph unicode="*" glyph-name="asterisk" horiz-adv-x="507" d="M478 614T487 604T497 581Q497 568 489 559T468 543L349 497L452 452Q466 445 466 431Q466 411 452 396T422 380Q407 380 390 388L335 420L323 348Q321 333 306 324T270 314Q249 314 239 323T231
348L244 422L179 393Q157 382 146 382Q133 382 124 392T115 416Q115 441 138 450L256 497L141 549Q133 552 131 560T130 578Q132 592 145 604T169 616Q185 616 199 607L268 570L282 653Q288 690 335 690Q375 690 375 661Q375 656 374 653L360 570L428 602Q431 603
443 608T465 614Q478 614 487 604Z" />
<glyph unicode="+" glyph-name="plus" horiz-adv-x="560" d="M504 359T515 350T527 321Q527 254 456 254H332L312 142Q302 84 248 84Q224 84 214 93T203 121Q203 126 225 254Q178 254 102 256Q78 257 66 266T54 293Q54 324 72 343T120 362Q198 362 243 361L261
464Q266 491 281 505T326 520Q371 520 371 482Q371 475 351 360Q400 359 477 359Q504 359 515 350Z" />
<glyph unicode="," glyph-name="comma" horiz-adv-x="307" d="M169 188T195 164T221 95Q221 50 202 3T150 -76Q125 -100 91 -114T28 -129Q-12 -129 -12 -99Q-12 -79 0 -68T31 -56Q47 -56 66 -48T100 -29Q125 -10 140 10Q119 2 98 2Q64 2 41 26T17 83Q17 127 49
157T126 188Q169 188 195 164ZM138 64T144 95Q146 109 139 117T119 126Q103 126 92 115T81 87Q81 64 108 64Q138 64 144 95Z" />
<glyph unicode="-" glyph-name="hyphen" horiz-adv-x="422" d="M84 313T74 326T63 359Q63 388 82 408T127 429H237Q314 429 353 432Q379 434 393 422T407 386Q407 357 387 336T335 314Q286 311 210 311Q177 311 160 312L102 313Q84 313 74 326Z" />
<glyph unicode="." glyph-name="period" horiz-adv-x="308" d="M79 0T60 18T41 66Q41 108 72 139T143 170Q172 170 192 149T212 97Q212 72 197 50T159 14T110 0Q79 0 60 18Z" />
<glyph unicode="/" glyph-name="slash" horiz-adv-x="584" d="M97 0T78 14T58 52Q58 66 71 92L480 881Q488 898 501 905T535 913Q562 913 582 898T603 858Q603 848 600 841T591 823L184 40Q174 21 160 11T130 0Q97 0 78 14Z" />
<glyph unicode="0" glyph-name="zero" horiz-adv-x="643" d="M214 14T158 44T70 128T38 253Q38 356 82 450T205 601T381 659Q455 659 512 627T601 536T633 400Q633 293 589 205T465 65T287 14Q214 14 158 44ZM352 127T395 163T461 257T484 383Q484 456 455 501T375
546Q324 546 281 502T212 392T186 265Q186 202 215 165T295 127Q352 127 395 163Z" />
<glyph unicode="1" glyph-name="one" horiz-adv-x="443" d="M380 671T400 655T421 614Q421 608 420 605L325 61Q321 35 298 20T241 4Q214 4 200 16T186 49Q186 57 187 61L258 465Q240 446 212 421Q196 407 172 407Q145 407 129 419T113 452Q113 479 142 506Q196
559 272 641Q283 654 304 662T348 671Q380 671 400 655Z" />
<glyph unicode="2" glyph-name="two" horiz-adv-x="559" d="M453 123T471 110T490 75Q490 46 471 28T420 9Q409 9 361 11Q259 14 236 14Q135 14 67 10Q41 10 25 21T8 52Q8 113 92 193T285 341Q347 379 378 423T410 513Q410 548 390 568T335 588Q300 588 270 559T231
487Q225 459 206 447T150 435Q93 435 93 482Q93 539 127 589T218 670T339 701Q398 701 448 680T528 618T558 526Q558 373 352 247Q242 182 194 125Q217 126 256 126Q360 126 425 123Q453 123 471 110Z" />
<glyph unicode="3" glyph-name="three" horiz-adv-x="600" d="M568 319T568 240Q568 173 534 119T440 35T307 4Q179 4 104 55T28 200Q28 232 33 258Q39 289 61 306T118 324Q149 324 163 311T178 276Q178 264 176 248T173 225Q173 174 203 146T296 118Q352 118
390 145T428 225Q428 299 330 299Q280 299 280 341Q280 373 297 392T347 411Q455 411 455 506Q455 534 438 551T392 569Q353 569 322 545T286 483Q283 450 283 449Q283 428 262 411T204 394Q182 394 165 403T144 428Q140 454 140 461Q140 520 174 571T266 652T392
682Q449 682 498 661T576 602T605 519Q605 467 578 424T504 356Q568 319 568 240Z" />
<glyph unicode="4" glyph-name="four" horiz-adv-x="634" d="M586 301T598 290T611 257Q611 190 545 182Q524 179 473 175L447 57Q442 33 419 17T363 0Q336 0 321 12T306 46Q306 50 308 62L332 170H286Q194 170 150 175T70 189Q25 201 25 234Q25 254 42 280Q136
415 214 511T370 673Q387 688 415 688Q440 688 454 675T469 641Q469 625 461 610T430 574Q364 512 300 433T207 307Q202 299 202 296Q202 292 206 291T220 287Q246 283 336 283H356L396 466Q401 491 420 507T473 523Q503 523 519 509T536 472Q536 463 535 459L498
292Q545 296 566 299Q586 301 598 290Z" />
<glyph unicode="5" glyph-name="five" horiz-adv-x="584" d="M158 0T94 47T29 180Q29 202 34 232Q39 260 62 276T118 293Q149 293 166 282T184 250Q184 247 182 237Q178 207 178 197Q178 154 199 136T268 117Q404 117 404 276Q404 370 310 370Q284 370 258 367T188
352Q175 348 160 348Q135 348 120 359T105 392Q105 402 142 580L162 684Q245 681 386 681Q420 681 478 683L545 684Q590 684 590 646Q590 613 571 592T518 570Q481 570 459 569L366 568H283L267 484Q267 474 277 474L289 476Q332 485 364 485Q423 485 465 456T530
380T553 276Q553 146 476 73T262 0Q158 0 94 47Z" />
<glyph unicode="6" glyph-name="six" horiz-adv-x="605" d="M316 564T266 516T186 373Q218 399 259 415T341 431Q406 431 456 406T534 336T562 238Q562 164 525 111T424 31T279 4Q162 4 98 60T34 223Q34 259 42 309Q73 482 157 579T374 677Q450 677 513 637T601
535Q608 520 608 511Q608 494 595 479T564 455T530 445Q512 445 503 452T486 470T476 486Q473 490 456 515T416 552T368 564Q316 564 266 516ZM265 318T229 286T192 194Q192 117 291 117Q350 117 383 148T417 234Q417 274 393 296T327 318Q265 318 229 286Z" />
<glyph unicode="7" glyph-name="seven" horiz-adv-x="557" d="M516 394T531 382T546 349Q546 319 526 299T473 279H427Q372 168 294 37Q285 21 262 11T216 0Q187 0 170 13T152 46Q152 62 162 78Q198 137 271 277H246Q192 277 192 320Q192 350 212 370T266 391H331Q382
494 382 539Q382 560 367 566T311 573Q241 573 135 549Q123 547 118 547Q96 547 83 559T70 592Q70 640 135 662Q168 672 218 681T324 690Q422 690 474 656T527 557Q527 499 481 394H487Q516 394 531 382Z" />
<glyph unicode="8" glyph-name="eight" horiz-adv-x="620" d="M533 399T563 353T593 243Q593 168 554 115T445 33T287 5Q212 5 153 30T59 100T25 202Q25 284 83 342T233 423Q206 435 190 459T173 518Q173 563 200 602T274 663T376 686Q424 686 465 667T530 616T554
544Q554 498 531 467T471 421Q533 399 563 353ZM349 574T330 553T311 505Q311 484 323 473T355 462Q381 462 399 481T418 529Q418 550 406 562T375 574Q349 574 330 553ZM338 114T373 132T429 181T450 250Q450 294 417 320T330 347Q287 347 250 330T191 281T169
209Q169 163 201 139T294 114Q338 114 373 132Z" />
<glyph unicode="9" glyph-name="nine" horiz-adv-x="601" d="M482 684T547 622T613 452Q613 414 606 378Q574 197 487 100T256 3Q193 3 139 21T52 75T19 161Q19 176 22 194Q27 222 49 238T103 254Q128 254 144 242T160 206Q160 198 159 192T158 180Q158 145 188
129T273 113Q333 113 383 159T465 304Q438 275 399 258T314 240Q207 240 144 285T80 414Q80 491 119 553T225 649T370 684Q482 684 547 622ZM358 345T389 363T439 413T457 479Q457 521 430 546T357 572Q300 572 262 530T223 428Q223 345 320 345Q358 345 389 363Z"
/>
<glyph unicode=":" glyph-name="colon" horiz-adv-x="317" d="M131 290T108 310T85 363Q85 410 115 439T192 469Q227 469 249 448T272 396Q272 350 244 320T168 290Q131 290 108 310ZM186 350T196 359T206 383Q206 394 199 400T184 406Q173 406 162 396T151 371Q151
360 157 355T174 350Q186 350 196 359ZM91 11T67 34T43 94Q43 134 73 163T146 193Q180 193 204 170T228 114Q228 69 200 40T126 11Q91 11 67 34ZM145 72T153 81T161 102Q161 110 155 116T140 122Q126 122 118 113T109 93Q109 84 115 78T131 72Q145 72 153 81Z"
/>
<glyph unicode=";" glyph-name="semicolon" horiz-adv-x="365" d="M253 469T275 448T298 396Q298 350 270 320T194 290Q157 290 134 310T111 363Q111 410 141 439T218 469Q253 469 275 448ZM212 350T222 359T232 383Q232 394 225 400T210 406Q199 406 188 396T177
371Q177 360 183 355T200 350Q212 350 222 359ZM199 188T225 164T251 95Q251 50 232 3T180 -76Q155 -100 121 -114T58 -129Q18 -129 18 -99Q18 -79 30 -68T61 -56Q77 -56 96 -48T130 -29Q155 -10 170 10Q149 2 128 2Q94 2 71 26T47 83Q47 127 79 157T156 188Q199
188 225 164ZM168 64T174 95Q176 109 169 117T149 126Q133 126 122 115T111 87Q111 64 138 64Q168 64 174 95Z" />
<glyph unicode="&lt;" glyph-name="less" horiz-adv-x="560" d="M417 110T356 131T234 179Q142 219 103 248T63 311Q63 352 118 390T284 468Q342 488 414 509T506 531Q526 531 538 519T550 487Q550 461 534 445T484 420L456 412Q380 393 312 370Q254 350 225 339T195
319Q195 313 254 293L293 279Q361 251 429 226L452 217Q490 202 490 172Q490 144 478 127T439 110Q417 110 356 131Z" />
<glyph unicode="=" glyph-name="equal" horiz-adv-x="560" d="M97 344T79 357T61 390Q61 418 88 435T156 453L476 456Q506 456 526 442T546 407Q546 380 519 364T454 347L126 344Q97 344 79 357ZM70 162T52 175T33 209Q33 238 58 254T125 273L452 283Q482 284
501 271T521 236Q521 208 497 192T432 173L98 163Q70 162 52 175Z" />
<glyph unicode="&gt;" glyph-name="greater" horiz-adv-x="560" d="M76 104T63 114T49 143Q49 166 62 184T99 211Q148 230 282 276Q370 306 370 315Q370 321 355 329T293 358Q221 389 128 414Q81 426 81 461Q81 488 98 504T144 521Q165 521 236 500T349 462Q438
426 483 389T529 315Q529 288 508 267T443 227T311 173Q131 104 100 104Q76 104 63 114Z" />
<glyph unicode="?" glyph-name="question" horiz-adv-x="549" d="M249 190T238 202T227 234Q227 263 252 295T330 382Q386 440 413 475T440 545Q440 585 415 610T347 636Q284 636 249 607T213 525Q213 508 222 498T245 487Q267 487 279 476T291 445Q291 420 272
403T227 386Q176 386 143 421T110 508Q110 572 140 623T224 703T342 732Q399 732 444 710T516 649T542 560Q542 504 509 457T414 348Q369 303 349 278T329 227Q329 190 268 190Q249 190 238 202ZM212 1T195 18T177 62Q177 95 204 121T265 147Q291 147 308 130T326
87Q326 53 300 27T240 1Q212 1 195 18Z" />
<glyph unicode="@" glyph-name="at" horiz-adv-x="903" d="M596 206T592 162Q588 130 615 130Q643 130 666 163T703 246T717 339Q717 418 663 467T509 517Q406 517 335 475T228 361T193 197Q193 97 251 41T437 -16Q467 -16 488 -13T554 2Q558 3 565 3Q582 3 593
-9T605 -38Q605 -55 593 -66T552 -87Q485 -110 398 -110Q296 -110 223 -71T113 37T75 191Q75 305 131 401T287 553T515 610Q606 610 679 575T793 476T835 336Q835 264 803 194T716 80T600 35Q564 35 540 51T507 93Q461 59 398 59Q332 59 298 97T263 202Q263 262
289 315T363 400T469 432Q530 432 560 394L562 400Q566 413 580 421T614 429Q638 429 647 419T657 393Q657 384 656 381Q649 361 635 322T611 249Q596 206 592 162ZM449 149T467 163T493 203L515 290Q520 310 504 328T462 347Q437 347 418 327T388 277T377 217Q377
185 391 167T428 149Q449 149 467 163Z" />
<glyph unicode="A" glyph-name="A" horiz-adv-x="697" d="M643 201T631 179T598 157H592L604 69Q605 65 605 59Q605 28 583 9T526 -11Q499 -11 479 0T456 31L444 158L243 160L184 34Q163 -10 109 -10Q75 -10 49 6T27 50Q29 63 33 70Q166 327 296 587Q321 636 338
662T377 700T430 712Q475 712 501 686T536 596Q553 477 573 316L576 287H583Q643 287 643 236Q643 201 631 179ZM431 289Q431 285 424 372L420 424Q416 470 413 485T405 501Q401 501 396 491T383 465L368 431L303 290L431 289Z" />
<glyph unicode="B" glyph-name="B" horiz-adv-x="674" d="M79 -33T70 4H64Q30 4 30 46Q30 80 46 107T89 133H99Q128 250 152 384L166 465L180 549L170 547Q159 547 152 557T144 582Q144 614 166 635T229 673Q319 708 421 708Q496 708 554 684T645 618T678 523Q678
452 626 405T489 345Q556 324 584 285T613 202Q613 99 529 48T315 -4Q271 -4 204 1Q179 -33 125 -33Q79 -33 70 4ZM389 120T429 146T470 225Q470 264 441 279T374 295Q339 295 324 302T308 334Q308 408 391 408Q452 408 491 435T530 516Q530 551 496 570T396 589Q368
589 330 580Q321 522 310 462L297 384Q286 318 275 271T238 123Q277 120 320 120Q389 120 429 146Z" />
<glyph unicode="C" glyph-name="C" horiz-adv-x="742" d="M721 710T737 696T753 661Q753 653 752 649L730 533Q717 464 649 464Q631 464 617 470T596 487Q579 520 566 538T529 570T469 584Q404 584 344 540T246 429T208 294Q208 218 256 172T381 126Q442 126 495
157T566 254Q573 283 591 302T648 322Q714 322 714 262Q714 212 676 149T562 41T381 -4Q288 -4 215 34T102 141T61 298Q61 404 117 500T267 655T469 714Q569 714 618 662L619 666Q623 686 642 698T691 710Q721 710 737 696Z" />
<glyph unicode="D" glyph-name="D" horiz-adv-x="717" d="M510 676T602 599T694 390Q694 273 627 186T444 52T187 5H112Q72 5 56 16T40 56Q40 88 58 110T109 133H118L184 574H178Q157 574 148 583T139 616Q139 659 159 681T209 703H221Q240 719 279 719Q302 719
315 714T335 696Q510 676 602 599ZM339 144T404 179T508 270T547 390Q547 533 327 565L263 135Q339 144 404 179Z" />
<glyph unicode="E" glyph-name="E" horiz-adv-x="640" d="M670 688T670 646Q670 613 650 589T602 566Q512 574 441 574Q407 574 357 572L333 571L317 472L311 431H323Q477 431 514 427Q530 425 540 417T550 386Q550 354 534 327T492 300Q448 300 431 301L311 302H289Q274
219 248 140Q286 136 343 136Q401 136 436 138T508 145Q513 146 521 146Q567 146 567 97Q567 32 501 18Q451 9 300 9Q245 9 196 12T76 24Q41 28 41 66Q41 99 54 123T93 147H104Q129 223 143 303H135Q117 303 107 314T97 347Q97 385 113 409T155 433H165Q174 476
189 565H186Q172 565 165 578T158 608Q158 688 241 696Q282 701 373 701H418Q553 701 617 693Q670 688 670 646Z" />
<glyph unicode="F" glyph-name="F" horiz-adv-x="641" d="M672 685T672 647Q672 612 651 588T599 568Q497 579 404 579Q364 579 340 578Q331 476 323 422H368Q482 422 527 411Q571 399 571 363Q571 330 552 307T496 286Q418 294 350 294Q317 294 302 293Q284 198
252 65Q246 38 225 22T169 5Q141 5 124 17T106 53Q106 62 107 66Q106 63 124 145Q144 230 154 282Q147 282 140 281T127 280Q110 280 100 293T90 327Q90 365 109 383T166 409L176 411Q184 466 193 575H185Q162 575 150 585T138 619Q138 658 155 678T201 701Q205
701 207 702Q207 707 208 710Q212 731 236 745T296 759Q356 759 356 719Q356 712 355 709V707H406Q463 707 532 704T625 695Q672 685 672 647Z" />
<glyph unicode="G" glyph-name="G" horiz-adv-x="770" d="M756 386T756 336Q756 305 739 281T689 258H677Q645 134 567 67T368 -1Q275 -1 206 38T100 147T63 304Q63 411 115 500T257 640T451 692Q523 692 568 666T635 603L638 618Q643 643 655 655T696 668Q727
668 747 655T768 618Q768 596 758 559T734 503Q721 486 705 479T665 471Q647 471 630 478T594 507Q572 532 546 546T469 561Q398 561 339 526T245 433T210 307Q210 253 232 213T293 151T379 129Q435 129 475 161T537 259L436 261Q378 262 378 312Q378 347 398 370T455
392L689 387Q756 386 756 336Z" />
<glyph unicode="H" glyph-name="H" horiz-adv-x="805" d="M727 385T740 373T753 334Q753 293 734 274T683 254H678L651 67Q646 35 624 17T567 -2Q537 -2 520 13T503 53L504 63L532 256L278 260L223 45Q210 -7 142 -7Q111 -7 94 4T76 37Q76 45 79 55L132 262H125Q103
262 94 272T85 309Q85 348 103 370T152 392H165L234 662Q241 689 264 706T321 723Q350 723 365 709T381 672Q381 662 378 651L311 390L551 387L590 655Q595 685 617 704T675 723Q707 723 723 710T739 672Q739 664 738 659L698 385H707Q727 385 740 373Z" />
<glyph unicode="I" glyph-name="I" horiz-adv-x="510" d="M542 701T542 656Q542 621 523 599T466 577L407 579Q361 333 312 134L387 133Q442 132 442 87Q442 49 421 26T363 2L64 6Q14 7 14 54Q14 88 34 112T87 137L170 136Q217 339 262 579Q208 576 183 573Q159
571 156 571Q132 571 120 583T108 618Q108 653 126 675T179 702Q201 705 257 708T370 711Q425 711 495 705Q542 701 542 656Z" />
<glyph unicode="J" glyph-name="J" horiz-adv-x="659" d="M671 698T671 655Q671 622 652 599T598 576H571Q554 498 535 378Q531 357 527 331T517 272Q493 140 426 69T250 -2Q154 -2 97 52T39 203Q39 226 44 259Q50 295 72 314T133 334Q163 334 177 319T192 279Q192
269 191 264Q187 241 187 217Q187 129 252 129Q292 129 324 165T368 271L375 311Q411 506 425 576H385Q356 576 343 586T330 619Q330 656 347 678T389 701Q461 704 516 704Q579 704 619 702Q671 698 671 655Z" />
<glyph unicode="K" glyph-name="K" horiz-adv-x="658" d="M654 702T671 685T689 646Q689 628 681 612T657 586Q618 561 493 488L466 472L290 371Q340 326 417 251L475 194Q490 179 509 161T552 119Q572 99 572 76Q572 45 546 21T485 -4Q462 -4 443 10L319 141L219
246Q210 203 205 175T196 126L186 72Q180 39 157 19T100 -2Q71 -2 55 10T38 45Q38 51 39 55Q60 173 95 353Q106 410 115 466T128 545L142 637Q147 665 171 683T228 701Q257 701 273 686T289 647Q289 639 288 634L263 485L398 572L578 688Q599 702 627 702Q654 702
671 685Z" />
<glyph unicode="L" glyph-name="L" horiz-adv-x="580" d="M163 -3T125 13T71 66T55 168Q55 313 172 652Q180 676 203 690T258 705Q284 705 301 693T319 663Q319 660 317 652L307 625Q250 466 221 363T191 168Q191 141 203 132T247 122Q295 122 337 127T438 144L477
151Q480 152 485 152Q504 152 514 137T524 100Q524 65 509 45T461 19Q345 -3 236 -3Q163 -3 125 13Z" />
<glyph unicode="M" glyph-name="M" horiz-adv-x="809" d="M734 713T755 676T776 564Q776 501 757 362T708 64Q702 30 682 12T627 -7Q596 -7 578 9T560 49Q560 56 561 59Q580 173 604 293Q622 385 630 434T638 509Q638 521 638 528T634 536Q622 536 559 411Q545
381 522 335Q503 298 495 281Q482 254 460 241T405 228Q372 228 355 240T333 277Q326 313 321 358Q317 396 314 415Q309 449 299 492T283 536Q277 536 265 481T233 333Q221 274 202 163L184 57Q179 30 157 14T100 -3Q39 -3 39 50Q39 62 42 77Q57 162 77 268L90
336Q116 473 144 555T209 675T294 713Q353 713 383 666T421 562T435 419Q467 496 500 557T581 665T686 713Q734 713 755 676Z" />
<glyph unicode="N" glyph-name="N" horiz-adv-x="759" d="M733 715T747 702T761 661Q761 655 759 637Q745 558 717 405Q715 390 706 344Q682 214 662 145T613 43T538 10Q501 10 474 33T419 108T340 272Q291 380 256 462Q254 446 252 438Q245 388 232 314Q225 273
219 238T207 174Q203 153 198 127T188 70Q183 44 160 26T104 8Q73 8 56 27T42 70L70 232L88 331L120 519Q134 595 147 634T180 690T236 708Q273 708 299 687T356 610T436 435Q501 279 536 206Q552 292 565 370Q570 402 597 547L616 653Q621 680 642 697T701 715Q733
715 747 702Z" />
<glyph unicode="O" glyph-name="O" horiz-adv-x="812" d="M286 6T214 43T102 150T62 312Q62 419 113 510T254 655T456 709Q552 709 627 669T744 556T786 388Q786 280 733 193T587 56T382 6Q286 6 214 43ZM461 136T519 171T609 265T641 395Q641 480 594 529T464
579Q391 579 333 541T243 439T210 306Q210 221 257 179T386 136Q461 136 519 171Z" />
<glyph unicode="P" glyph-name="P" horiz-adv-x="683" d="M502 697T560 669T652 593T686 485Q686 412 644 356T531 270T379 240Q345 240 313 245T262 257L224 57Q219 28 196 10T138 -9Q109 -9 92 4T75 43Q75 49 77 61L87 113Q113 241 122 294Q139 389 156 511L152
509Q142 504 133 504Q119 504 111 517T103 550Q103 578 117 594T164 627Q166 628 168 629T173 632L175 645Q180 677 201 693T262 710Q302 710 316 703T329 687V686Q379 697 429 697Q502 697 560 669ZM414 358T447 375T500 422T520 485Q520 525 488 547T402 570Q364
570 311 558L303 515Q297 484 293 455T288 415L283 377Q296 370 323 364T375 358Q414 358 447 375Z" />
<glyph unicode="Q" glyph-name="Q" horiz-adv-x="803" d="M701 133Q716 116 716 96Q716 63 688 36T627 8Q596 8 578 29L553 59Q460 11 358 11Q266 11 199 51T98 161T63 315Q63 423 118 514T265 659T464 713Q556 713 628 672T740 561T780 405Q780 335 754 272T680
156L701 133ZM420 141T466 161L432 201Q419 217 419 235Q419 252 435 272T474 307T517 321Q535 321 545 309L587 262Q633 330 633 408Q633 486 587 534T461 583Q390 583 333 544T244 442T212 310Q212 229 256 185T372 141Q420 141 466 161Z" />
<glyph unicode="R" glyph-name="R" horiz-adv-x="692" d="M688 415T642 366T520 293T353 269Q338 269 314 271L561 126Q589 110 589 88Q589 56 572 33T523 9Q496 9 470 26L239 174L218 58Q213 28 192 11T136 -7Q104 -7 89 8T73 50Q73 56 75 68L86 133L122 340Q135
406 148 500L144 499Q135 496 128 496Q113 496 105 503T97 534Q97 566 106 588T143 625Q152 630 169 636V638Q173 668 198 686T258 704Q319 704 316 684V682Q381 699 422 699Q507 699 567 672T657 596T688 489Q688 415 642 366ZM356 571T299 555L276 383Q303 379
360 379Q430 379 476 410T522 491Q522 529 493 550T411 571Q356 571 299 555Z" />
<glyph unicode="S" glyph-name="S" horiz-adv-x="626" d="M228 -1T173 24T87 95T56 199Q56 296 145 296Q184 296 196 281T208 244Q208 208 213 184T239 145T300 129Q348 129 381 150T415 205Q415 229 398 244T362 266T296 289Q102 352 102 488Q102 551 139 601T239
680T375 709Q442 709 495 685T579 618T610 521Q610 475 588 454T521 432Q486 432 475 444T463 483Q463 529 440 554T372 580Q339 580 311 567T266 532T249 485Q249 468 259 458T291 439T375 410Q423 394 462 373T531 312T562 209Q562 143 526 96T430 24T300 -1Q228
-1 173 24Z" />
<glyph unicode="T" glyph-name="T" horiz-adv-x="591" d="M603 689T617 678T631 640Q631 604 607 581T543 561Q478 565 427 566Q409 500 398 451T375 340Q352 219 322 56Q316 19 299 5T238 -10Q205 -10 187 2T169 39Q169 43 171 55L189 144Q212 264 230 340L281
566Q247 565 171 559L149 557Q125 555 111 571T97 615Q97 675 168 687Q196 692 265 695T392 698Q436 698 493 697T577 692Q603 689 617 678Z" />
<glyph unicode="U" glyph-name="U" horiz-adv-x="704" d="M667 710T684 695T702 657Q702 649 701 645L682 537L666 441L604 75Q596 31 579 14T524 -4Q455 -4 455 48Q455 57 456 61L458 75Q429 41 388 21T299 0Q191 0 132 57T73 214Q73 263 88 350T147 643Q153
671 174 687T233 704Q264 704 278 694T292 661Q292 648 290 641Q247 434 233 346T218 225Q218 182 243 157T305 131Q344 131 386 158T461 233T504 338L518 421Q523 448 531 497T557 645Q568 710 636 710Q667 710 684 695Z" />
<glyph unicode="V" glyph-name="V" horiz-adv-x="664" d="M260 -2T233 14T195 59Q187 83 171 177T144 364L122 542L111 625Q110 630 110 640Q110 709 198 709Q247 709 253 674Q261 617 275 476Q276 456 283 393Q294 280 302 233T323 185Q335 185 361 235T433 393Q469
479 496 540T556 674Q572 709 620 709Q654 709 674 695T695 655Q695 640 688 625Q628 488 570 365Q448 104 420 61Q401 33 367 16T296 -2Q260 -2 233 14Z" />
<glyph unicode="W" glyph-name="W" horiz-adv-x="852" d="M204 0T181 16T156 58L153 130Q151 195 148 247T135 374Q130 414 125 474Q120 550 110 618L109 628Q109 663 138 684T206 706Q256 706 259 660Q262 613 268 556Q278 467 280 407L282 321Q283 277 284 239T289
201Q294 201 330 273Q338 288 347 305T367 343Q396 396 416 420T464 445Q492 445 506 420T529 341Q538 287 548 245T564 203Q570 203 606 312Q612 328 622 357T639 405Q678 509 738 659Q756 705 813 705Q845 705 864 690T884 650Q884 641 876 622Q835 526 805 452Q795
430 788 411T773 375Q747 313 683 143L653 64Q642 34 616 18T554 2Q518 2 497 19T462 73Q457 86 444 132Q438 155 432 174T423 193Q420 193 394 145Q365 92 353 74Q305 0 238 0Q204 0 181 16Z" />
<glyph unicode="X" glyph-name="X" horiz-adv-x="684" d="M708 603T687 582Q549 440 448 333L572 109Q581 93 584 84T588 67Q588 51 575 33T539 3T494 -10Q478 -10 471 -4T455 16Q415 83 340 220Q250 124 168 39Q145 15 133 7T101 -1Q69 -1 48 18T27 62Q27 77
33 87T51 109L273 342Q201 470 127 596Q122 604 120 609T118 622Q118 653 148 677T213 701Q233 701 243 692T268 656L380 455L580 669Q597 687 606 694T631 701Q659 701 683 677T708 623Q708 603 687 582Z" />
<glyph unicode="Y" glyph-name="Y" horiz-adv-x="655" d="M261 1T244 14T226 52Q226 56 228 68L272 332Q258 332 228 371T182 442Q158 496 142 536T116 624Q115 628 115 636Q115 666 146 684T215 702Q239 702 253 690T275 650Q302 556 323 505Q336 476 346 458T365
439Q374 439 393 459T430 505Q468 558 493 597L531 654Q535 660 543 673T563 693T592 700Q626 700 651 679T677 631Q677 620 668 602Q657 579 616 522T549 432Q519 396 476 364T417 332L374 71Q368 38 346 20T289 1Q261 1 244 14Z" />
<glyph unicode="Z" glyph-name="Z" horiz-adv-x="710" d="M494 18Q389 25 308 25Q237 25 141 21L81 19Q10 19 10 71Q10 106 77 171T283 351L347 405Q426 472 502 540L530 564L505 562Q457 557 407 557Q353 557 292 562T199 575Q168 582 155 595T142 630Q142 661
163 682T216 704Q221 704 261 700Q368 687 447 687Q483 687 528 690T644 699Q663 701 683 696T717 680Q728 672 733 660T739 635Q739 598 693 550T538 410Q513 390 471 353Q351 249 286 190L236 146L263 148Q329 153 388 153Q438 153 469 151T560 141Q587 138 600
125T614 86Q614 52 593 33T540 15L494 18Z" />
<glyph unicode="[" glyph-name="bracketleft" horiz-adv-x="376" d="M73 -173T-2 -164Q17 -79 31 2T71 240L80 296Q105 450 115 528T140 748Q201 753 362 753Q381 753 392 740T404 709Q404 680 386 661T338 642H299Q263 642 243 640L236 593Q222 471 191 299L150
62Q133 -36 127 -63L182 -64L228 -63Q265 -63 265 -101Q265 -131 249 -149T201 -170Q166 -173 99 -173Q73 -173 -2 -164Z" />
<glyph unicode="\" glyph-name="backslash" horiz-adv-x="485" d="M308 0T297 10T282 40L151 823Q149 835 149 841Q149 872 176 892T234 913Q278 913 282 881L413 92Q415 76 415 71Q415 38 390 19T324 0Q308 0 297 10Z" />
<glyph unicode="]" glyph-name="bracketright" horiz-adv-x="376" d="M50 -172T25 -170Q-14 -167 -14 -131Q-14 -101 1 -82T42 -63H100H143Q147 -28 164 60L207 299Q231 434 248 514T268 609L277 650Q263 649 234 651L191 652Q165 652 150 662T135 692Q135 718
149 736T187 754Q232 754 303 753T416 748L399 681Q368 557 353 488T316 296Q297 189 279 81L236 -164Q160 -172 132 -172Q50 -172 25 -170Z" />
<glyph unicode="^" glyph-name="asciicircum" horiz-adv-x="610" d="M106 216T89 228T72 256Q72 259 74 265Q176 490 245 595T372 701Q501 701 549 276Q551 250 532 231T484 212Q466 212 452 220T437 241Q434 294 423 374T396 514T366 575Q343 575 281 460T173
240Q167 226 157 221T128 216Q106 216 89 228Z" />
<glyph unicode="_" glyph-name="underscore" horiz-adv-x="574" d="M-48 -179T-62 -166T-76 -132Q-76 -103 -56 -84T-6 -64Q84 -64 260 -66L472 -67Q493 -67 506 -79T519 -111Q519 -140 503 -162T453 -184L271 -182Q219 -181 142 -180T-26 -179Q-48 -179 -62 -166Z" />
<glyph unicode="`" glyph-name="grave" horiz-adv-x="314" d="M268 490T254 506L109 680Q95 696 95 712Q95 735 116 756T162 778Q185 778 201 757Q245 704 242 707Q306 627 347 583Q358 570 358 552Q358 528 337 509T291 490Q268 490 254 506Z" />
<glyph unicode="a" glyph-name="a" horiz-adv-x="614" d="M515 110T525 108T539 97T544 72Q544 42 527 21T468 0Q439 0 420 11T388 46Q366 17 329 3T247 -11Q185 -11 137 14T61 89T33 206Q33 285 69 351T166 456T302 495Q347 495 380 481T432 443L435 453Q448
490 493 490Q524 490 544 478T564 448Q564 430 543 380L535 359Q517 311 505 248T492 148Q492 127 496 121T512 111Q515 110 525 108ZM298 100T324 121T357 180Q381 302 381 325Q381 350 363 367T315 384Q277 384 246 356T198 283T181 195Q181 150 201 125T261
100Q298 100 324 121Z" />
<glyph unicode="b" glyph-name="b" horiz-adv-x="636" d="M445 514T495 486T575 409T604 297Q604 212 565 144T456 38T299 -1Q256 0 209 19T146 59Q132 44 115 33T86 16Q67 7 55 7Q32 7 16 23T0 60Q0 86 24 107Q41 121 45 127Q53 138 62 189T92 377Q114 527 164
812Q169 839 193 855T249 871Q278 871 295 857T309 819Q306 793 284 659L255 475Q276 492 309 503T384 514Q445 514 495 486ZM343 111T379 137T436 207T458 297Q458 348 431 375T356 403Q316 403 284 386T234 348L222 279Q216 242 210 193Q205 161 231 136T300
111Q343 111 379 137Z" />
<glyph unicode="c" glyph-name="c" horiz-adv-x="598" d="M208 -1T154 26T69 102T37 209Q37 294 75 364T181 474T333 515Q388 515 442 494T530 435T564 353Q564 324 541 310T485 295Q464 295 453 306T433 340Q425 362 401 383T342 404Q298 404 262 376T204 303T183
209Q183 162 209 136T289 110Q330 110 360 125T407 164T423 212Q423 228 443 241T492 255Q522 255 537 246T553 212Q553 150 516 102T416 26T274 -1Q208 -1 154 26Z" />
<glyph unicode="d" glyph-name="d" horiz-adv-x="633" d="M203 -12T151 10T68 80T37 195Q37 278 74 351T178 470T332 515Q375 515 414 506T472 482L535 794Q539 817 562 832T616 847Q645 847 664 833T679 798L568 221Q557 162 557 125Q557 108 560 100T571 83Q574
79 576 74T579 62Q579 45 564 28T527 1T482 -10Q455 -10 435 8T406 59Q380 31 363 17T322 -4T265 -12Q203 -12 151 10ZM337 102T373 136T417 214L443 363Q435 377 404 390T340 404Q294 404 259 376T204 303T184 213Q184 158 214 130T287 102Q337 102 373 136Z"
/>
<glyph unicode="e" glyph-name="e" horiz-adv-x="596" d="M210 -10T154 19T68 101T38 219Q38 299 76 367T182 475T332 515Q393 515 447 493T535 425T569 313Q569 212 483 212L160 210L159 199Q159 158 193 132T285 105Q328 105 357 118T415 155Q438 172 457 172Q478
172 494 158T511 123Q511 103 492 80Q464 46 414 18T285 -10Q210 -10 154 19ZM426 302Q443 302 448 305T453 321Q453 365 420 386T339 407Q294 407 258 390T201 347T176 300L426 302Z" />
<glyph unicode="f" glyph-name="f" horiz-adv-x="428" d="M413 740T458 706T504 612Q504 595 502 586Q495 544 475 526T419 508Q387 508 371 520T354 554Q354 559 356 569Q361 592 361 604Q361 615 357 620T342 625Q331 625 325 618T312 590T297 524L279 428H333Q374
428 374 386Q374 358 358 340T313 321L262 320Q258 297 243 199L221 59Q216 31 196 16T142 0Q110 0 92 14T78 57Q96 183 118 317H94Q66 317 54 327T42 361Q42 392 60 410T109 428H136L153 526Q171 632 217 686T342 740Q413 740 458 706Z" />
<glyph unicode="g" glyph-name="g" horiz-adv-x="596" d="M526 529T548 517T571 482Q571 471 566 462Q545 421 539 409Q533 244 529 172L526 128Q525 114 523 73T514 1Q490 -132 418 -191T225 -250Q167 -250 121 -231T50 -178T24 -101Q24 -60 42 -41T97 -21Q123
-21 135 -30T148 -59Q148 -134 226 -134Q268 -134 295 -125T342 -86T372 4Q374 16 376 35Q351 17 318 7T247 -4Q186 -4 138 24T64 103T37 218Q37 294 75 360T179 465T325 504Q400 504 434 470Q445 493 456 510Q463 521 472 525T500 529Q526 529 548 517ZM182 165T205
135T274 105Q308 105 343 121T390 158Q390 216 391 246L392 357Q384 373 367 383T326 393Q286 393 253 367T201 298T182 212Q182 165 205 135Z" />
<glyph unicode="h" glyph-name="h" horiz-adv-x="581" d="M449 522T496 488T544 383Q544 358 539 337Q533 311 526 265T514 194L491 58Q487 34 464 19T411 4Q379 4 361 22T346 65Q380 264 398 343Q401 357 401 367Q401 390 388 400T355 411Q321 411 287 386T235
313Q229 298 225 275T217 235T213 208Q200 128 186 55Q182 33 158 19T104 4Q74 4 56 19T41 56Q66 209 113 438Q135 544 178 727Q184 753 206 769T262 786Q289 786 303 775T318 743Q318 735 317 731Q279 554 261 484Q311 522 382 522Q449 522 496 488Z" />
<glyph unicode="i" glyph-name="i" horiz-adv-x="338" d="M184 522T163 542T142 594Q142 640 173 670T251 700Q286 700 307 681T328 630Q328 585 296 554T219 522Q184 522 163 542ZM85 6T68 19T50 54Q50 61 51 65L125 434Q130 461 153 476T208 492Q237 492 254
479T272 444Q272 436 271 432L198 64Q193 37 170 22T114 6Q85 6 68 19Z" />
<glyph unicode="j" glyph-name="j" horiz-adv-x="375" d="M231 526T209 548T186 601Q186 626 201 648T241 685T295 699Q330 699 351 680T372 629Q372 600 357 577T318 540T266 526Q231 526 209 548ZM-29 -236T-65 -219T-121 -173T-140 -111Q-140 -18 -59 -18Q-20
-18 -9 -32T0 -68Q-2 -99 2 -111T22 -124Q46 -124 62 -90T94 26Q102 72 110 107Q148 306 174 451Q178 472 200 485T254 499Q285 499 302 484T315 448Q277 230 236 25Q208 -118 158 -177T22 -236Q-29 -236 -65 -219Z" />
<glyph unicode="k" glyph-name="k" horiz-adv-x="539" d="M59 -8T41 7T26 44L138 682Q143 709 166 725T220 741Q249 741 266 728T283 693Q283 686 282 682L231 402L271 425Q383 490 455 529Q480 542 502 539Q518 537 529 521T541 484Q541 462 531 451T497 426L240
283L448 99Q460 89 460 70Q460 40 436 20T383 0Q357 0 336 18Q295 53 238 115L189 165L168 45Q164 22 142 7T89 -8Q59 -8 41 7Z" />
<glyph unicode="l" glyph-name="l" horiz-adv-x="270" d="M68 9T51 23T35 59L147 731Q151 758 175 775T232 792Q261 792 279 776T294 736L180 70Q175 41 151 25T96 9Q68 9 51 23Z" />
<glyph unicode="m" glyph-name="m" horiz-adv-x="794" d="M676 503T715 460T755 338Q755 303 746 244T717 91Q711 69 709 53Q704 27 684 14T634 0Q608 0 589 11T570 41Q570 46 571 49Q615 256 615 338Q615 369 605 383T578 398Q552 398 530 363T494 258Q491 246
480 176L459 57Q450 2 382 2Q352 2 335 14T320 50Q324 79 334 136T356 258Q363 298 363 325Q363 393 324 393Q301 393 277 367T233 289Q222 261 217 238T205 176Q203 158 201 150L194 107Q190 76 184 48Q179 26 158 14T110 1Q83 1 64 13T48 45Q56 98 81 235Q106
377 106 382Q106 397 96 408Q94 411 90 415T85 424T85 435Q89 461 110 477T152 494Q164 494 171 490T188 475Q197 465 202 451T208 428V424Q255 500 341 500Q425 500 449 424Q503 503 601 503Q676 503 715 460Z" />
<glyph unicode="n" glyph-name="n" horiz-adv-x="574" d="M448 511T492 465T536 338Q536 315 527 260T506 138Q503 115 499 94T491 51Q487 26 465 13T411 -1Q378 -1 360 14T346 51L372 208Q374 222 382 270T391 338Q391 371 379 385T342 400Q314 400 292 375T244
273Q229 227 221 180L199 51Q195 26 174 12T119 -2Q85 -2 68 13T54 51Q57 68 60 89T68 134Q72 156 84 233T105 375Q107 388 104 398T98 416T92 428Q86 442 86 452Q86 474 113 491T164 509Q190 509 208 481Q216 469 220 455T222 432L220 420Q271 511 378 511Q448
511 492 465Z" />
<glyph unicode="o" glyph-name="o" horiz-adv-x="607" d="M163 -3T95 51T27 214Q27 294 66 364T176 476T335 518Q449 518 516 457T583 283Q583 203 546 138T439 35T280 -3Q163 -3 95 51ZM355 108T396 158T437 283Q437 340 412 373T335 407Q287 407 250 379T193
306T173 214Q173 160 201 134T280 108Q355 108 396 158Z" />
<glyph unicode="p" glyph-name="p" horiz-adv-x="630" d="M442 513T492 485T570 407T598 290Q598 207 559 140T451 34T296 -5Q254 -5 218 4T165 21L145 -83Q140 -106 136 -128T128 -170Q124 -194 101 -209T45 -224Q17 -224 0 -213T-17 -179Q-17 -174 -15 -164Q3
-89 31 65Q32 69 41 116Q46 140 66 243T86 366Q86 390 76 403Q64 418 64 428Q64 444 79 461T115 490T156 502Q171 502 181 492Q199 474 210 446Q236 475 278 494T376 513Q442 513 492 485ZM371 106T411 158T452 290Q452 339 428 369T359 399Q323 399 294 385T246
351T224 312Q212 252 201 189L191 135Q194 127 229 117T298 106Q371 106 411 158Z" />
<glyph unicode="q" glyph-name="q" horiz-adv-x="645" d="M609 495T627 480T645 443Q645 432 640 423T625 400Q600 370 582 347Q560 240 525 57L503 -67Q491 -140 482 -183Q477 -206 455 -221T399 -237Q367 -237 351 -223T338 -186Q357 -73 376 25Q352 10 326
2T267 -6Q204 -6 152 19T68 95T37 214Q37 291 75 359T181 470T331 512Q395 512 441 488T505 428Q524 453 527 457Q542 476 554 485T585 495Q609 495 627 480ZM436 310T436 319Q436 354 406 377T333 400Q289 400 255 373T202 302T183 214Q183 162 210 134T288 106Q327
106 357 119T402 148L435 305Q436 310 436 319Z" />
<glyph unicode="r" glyph-name="r" horiz-adv-x="521" d="M435 519T473 484T511 379Q511 313 461 273T331 233Q298 233 287 242T276 271Q276 294 287 306T323 324Q356 330 374 341T392 379Q392 410 365 410Q338 410 310 380T259 309T228 240Q218 207 207 148T194
84Q184 29 165 10T109 -9Q43 -9 43 35Q43 52 52 101T63 163Q69 188 72 210Q81 263 86 304T98 432L102 474Q104 500 125 515T180 531Q231 531 231 489Q231 466 226 436L223 413Q251 460 290 489T375 519Q435 519 473 484Z" />
<glyph unicode="s" glyph-name="s" horiz-adv-x="504" d="M178 -9T130 12T54 66T26 127Q26 140 28 145Q36 165 56 177T103 189Q115 189 122 184T134 172T143 161Q189 106 242 106Q267 106 282 117T298 150Q298 170 279 183T220 213Q176 233 148 249T100 295T79
367Q79 417 107 453T182 507T287 526Q344 526 387 507T452 455T475 384Q475 350 457 334T398 317Q345 317 349 359Q351 383 340 396T293 410Q261 410 244 398T226 367Q226 346 245 333T307 301Q351 282 378 266T426 221T447 149Q447 96 416 61T336 8T234 -9Q178
-9 130 12Z" />
<glyph unicode="t" glyph-name="t" horiz-adv-x="444" d="M372 199T385 190T399 160Q399 91 359 45T248 -2Q183 -2 139 40T95 162Q95 238 121 359L98 360Q50 361 50 401Q50 437 69 454T127 470L149 469Q174 555 198 621Q207 645 227 657T277 670Q306 670 323 657T340
624Q340 616 337 607Q311 528 292 462L339 461Q385 460 385 423Q385 389 368 373T312 356H264Q233 223 233 153Q233 111 252 111Q266 111 271 120T281 152Q290 199 344 199Q372 199 385 190Z" />
<glyph unicode="u" glyph-name="u" horiz-adv-x="573" d="M469 114Q468 102 470 93T478 72Q486 54 486 46Q486 30 464 12T421 -6Q407 -6 390 3T362 29T350 69Q301 -2 203 -2Q129 -2 91 43T52 163Q52 211 98 454Q102 477 125 491T178 506Q208 506 227 492T242 454Q198
220 198 181Q198 149 208 129T242 109Q280 109 304 144T346 267Q365 372 379 452Q383 479 405 495T460 511Q492 511 510 494T524 452L474 162L469 114Z" />
<glyph unicode="v" glyph-name="v" horiz-adv-x="542" d="M188 0T149 54T92 215Q84 264 79 317T73 406Q73 456 93 480T159 505Q198 505 209 491T221 439V397Q221 331 226 275Q231 224 238 187T251 150Q258 150 285 195T329 278Q363 359 373 388T395 455Q403 482
422 496T479 510Q507 510 523 497T539 459Q539 426 509 356T443 218Q382 104 336 52T240 0Q188 0 149 54Z" />
<glyph unicode="w" glyph-name="w" horiz-adv-x="770" d="M90 0T90 307Q90 403 97 450Q104 493 126 508T179 523Q246 523 242 470Q237 407 237 409Q232 347 232 301Q232 254 235 210T242 166Q245 166 254 187T276 237Q314 327 334 369Q351 405 370 422T418 440Q446
440 461 423T480 368Q504 166 515 166Q522 166 554 272Q589 387 608 468Q621 523 688 523Q749 523 749 472Q749 432 719 338T659 175Q584 0 493 0Q439 0 415 64T388 263Q345 126 304 63T207 0Q90 0 90 307Z" />
<glyph unicode="x" glyph-name="x" horiz-adv-x="526" d="M490 446T483 438L340 270Q418 136 448 82Q454 72 454 63Q454 35 427 13T370 -10Q346 -10 334 11Q299 68 245 160L124 17Q113 4 98 -2T67 -9Q40 -9 24 8T7 47Q7 64 17 75L183 265L85 433Q82 439 82 450Q82
473 110 495T167 518Q192 518 202 501L278 374L388 501Q402 518 424 518Q450 518 470 499T490 458Q490 446 483 438Z" />
<glyph unicode="y" glyph-name="y" horiz-adv-x="542" d="M118 -264T100 -249T82 -211Q82 -191 92 -175Q118 -133 155 -63T201 23Q208 39 213 48T222 64Q179 108 146 173T95 309T77 436Q77 447 78 455Q82 482 103 496T156 511Q184 511 194 500T205 467Q215 266
279 180Q310 243 357 354Q394 441 408 472Q418 494 432 503T472 513Q506 513 525 498T541 459L538 448Q473 296 368 79L332 6Q250 -164 215 -222Q202 -242 188 -253T148 -264Q118 -264 100 -249Z" />
<glyph unicode="z" glyph-name="z" horiz-adv-x="565" d="M364 -2Q294 3 261 3Q217 3 147 -1Q108 -4 82 -4Q-4 -4 -4 42Q-4 59 4 71T29 98L120 179Q189 241 254 297T367 392Q360 391 319 388T247 384Q224 384 195 386T147 393Q122 398 111 410T99 441Q99 469 117
492T164 511Q266 499 331 499Q370 499 434 505Q488 509 507 509Q546 509 560 500T575 471Q575 452 564 431T530 391L382 266Q249 154 204 114L236 115Q308 118 315 118Q344 118 382 116T439 109Q476 101 476 66Q476 36 456 14T400 -5L364 -2Z" />
<glyph unicode="{" glyph-name="braceleft" horiz-adv-x="437" d="M169 -190T126 -143T83 -18Q83 6 88 37T94 77Q107 146 107 187Q107 224 94 232Q78 242 69 256T60 287Q60 312 77 333T120 362Q125 364 142 424T174 567Q185 628 217 676T297 751T398 779Q472 779
472 728Q472 685 444 668T387 651Q357 651 340 641T313 606T293 529Q279 449 267 405T237 337T192 298Q213 277 222 252T232 186Q232 158 227 120T220 71Q211 17 211 -2Q211 -35 224 -49T268 -63Q291 -63 305 -78T319 -115Q319 -142 295 -166T242 -190Q169 -190
126 -143Z" />
<glyph unicode="|" glyph-name="bar" horiz-adv-x="313" d="M71 -92T56 -82T44 -55L129 407Q183 701 211 859Q214 873 232 882T273 892Q294 892 309 883T323 861L239 409L154 -55Q151 -72 134 -82T93 -92Q71 -92 56 -82Z" />
<glyph unicode="}" glyph-name="braceright" horiz-adv-x="437" d="M18 -190T3 -177T-12 -144Q-12 -118 10 -96T62 -73Q142 -73 164 50Q178 129 193 175T227 249T277 298Q257 311 248 331T239 386Q239 424 253 508Q263 578 263 591Q263 629 248 645T198 661Q175
661 155 672T135 711Q135 753 159 766T229 779Q299 779 341 734T383 614Q383 587 371 511Q366 479 362 445T358 385Q358 364 361 362Q378 355 388 341T399 308Q399 287 383 266T341 232Q324 224 310 180T276 30Q265 -32 232 -82T149 -161T43 -190Q18 -190 3 -177Z"
/>
<glyph unicode="~" glyph-name="asciitilde" horiz-adv-x="560" d="M339 249T318 254T270 267Q241 277 227 280T195 283Q181 283 155 275Q152 274 132 268T96 262Q83 262 72 275T61 305Q61 325 78 342Q98 362 142 376T229 391Q268 391 326 368Q355 356 381 356Q401
356 424 366Q429 368 446 375T475 383Q495 383 509 368T524 331Q524 316 517 308T490 285Q469 269 436 259T372 249Q339 249 318 254Z" />
<glyph unicode="&#xa0;" glyph-name="uni00A0" horiz-adv-x="360" />
<glyph unicode="&#xa1;" glyph-name="exclamdown" horiz-adv-x="277" d="M124 337T103 357T82 408Q82 434 97 458T136 497T186 512Q217 512 239 490T261 436Q261 412 245 389T205 352T155 337Q124 337 103 357ZM41 -196T30 -186T18 -156Q18 -151 20 -141L93 245Q98
271 114 286T154 302Q174 302 185 289T196 255Q196 247 195 243L124 -138Q119 -165 103 -180T62 -196Q41 -196 30 -186Z" />
<glyph unicode="&#xa2;" glyph-name="cent" horiz-adv-x="598" d="M522 255T537 246T553 212Q553 152 519 105T425 30T291 -1L280 -63Q278 -77 267 -84T241 -91Q205 -91 209 -64L221 4Q140 19 89 75T37 209Q37 291 72 359T171 468T315 515L326 579Q328 592 340
598T367 605Q380 605 389 599T397 579L385 510Q459 496 511 453T564 353Q564 324 541 310T485 295Q464 295 453 306T433 340Q425 362 401 383T342 404Q298 404 262 376T204 303T183 209Q183 162 209 136T289 110Q330 110 360 125T407 164T423 212Q423 228 443 241T492
255Q522 255 537 246Z" />
<glyph unicode="&#xa3;" glyph-name="sterling" horiz-adv-x="622" d="M442 700T487 679T557 621T582 535Q582 521 581 513Q578 454 517 454Q490 454 480 465T470 500V526Q470 558 444 578T387 598Q340 598 312 570T284 492Q284 461 288 433T298 381T306 350L408
349Q441 348 456 343T471 319Q471 313 470 310Q466 287 448 279T394 271L318 272V262Q318 226 307 197T275 129Q290 119 324 108T382 97Q402 97 418 106T456 136Q470 150 481 157T505 165Q521 165 536 152T551 122Q551 109 541 95Q512 55 465 28T363 0Q321 0 295
7T243 29Q227 37 218 40T196 44Q180 44 164 37T123 14Q99 -3 77 -3Q56 -3 41 14T26 46Q26 57 30 64T48 85Q62 100 96 116T168 143Q184 163 194 202T204 262V273H154Q101 273 101 306Q101 334 118 343T169 352H193L178 405Q168 434 164 453T159 492Q159 556 189
603T271 675T384 700Q442 700 487 679Z" />
<glyph unicode="&#xa4;" glyph-name="currency" horiz-adv-x="846" d="M611 18T597 29T574 51L551 82Q468 42 392 42Q351 42 308 52T233 82L201 52Q165 18 141 18Q119 18 97 37T74 79Q74 89 78 97T94 118Q100 126 146 167Q128 197 118 233T108 307Q108 369 134
430T208 541L182 574Q168 592 168 606Q168 633 194 655T252 678Q271 678 283 669T307 643L325 619Q367 640 404 650T482 660Q526 660 573 650T651 621L675 643Q696 662 709 670T738 679Q762 679 783 658T804 610Q804 600 798 591T773 565L738 533Q755 504 763 467T771
393Q771 327 745 272T667 165L701 121Q707 113 709 108T712 95Q712 78 699 60T667 30T629 18Q611 18 597 29ZM464 156T514 190T593 280T623 393Q623 461 582 504T475 548Q419 548 369 515T289 429T258 317Q258 248 299 202T407 156Q464 156 514 190Z" />
<glyph unicode="&#xa5;" glyph-name="yen" horiz-adv-x="655" d="M526 404T493 378T436 339L537 340Q548 340 553 333T559 313Q559 294 549 280T524 266L406 264L397 208L518 210Q542 210 542 183Q542 164 532 151T506 137L385 135L374 71Q368 38 346 20T289 1Q261
1 244 14T226 52Q226 56 228 68L239 133L127 132Q116 132 110 139T103 159Q103 179 112 192T139 205L251 206L260 263L144 261Q120 261 120 287Q120 306 130 320T157 335L261 336Q244 348 219 382T182 442Q158 496 142 536T116 624Q115 628 115 636Q115 666 146
684T215 702Q239 702 253 690T275 650Q302 556 323 505Q336 476 346 458T365 439Q374 439 393 459T430 505Q468 558 493 597L531 654Q535 660 543 673T563 693T592 700Q626 700 651 679T677 631Q677 620 668 602Q657 579 616 522T549 432Q526 404 493 378Z" />
<glyph unicode="&#xa6;" glyph-name="brokenbar" horiz-adv-x="319" d="M170 420T157 430T146 458L208 854Q210 871 228 881T271 892Q295 892 307 882T318 854L256 458Q253 440 236 430T194 420Q170 420 157 430ZM62 -145T48 -135T38 -106L115 291Q119 311 135
321T177 332Q204 332 216 321T225 291L149 -106Q145 -125 129 -135T87 -145Q62 -145 48 -135Z" />
<glyph unicode="&#xa7;" glyph-name="section" horiz-adv-x="684" d="M484 760T533 742T612 690T643 612Q643 598 640 581Q635 556 618 543T572 529Q547 529 531 539T518 565Q521 580 521 593Q521 666 430 666Q373 666 334 635T295 560Q295 525 324 503T417 463Q506
438 553 392T601 288Q601 242 574 203T503 135Q528 97 528 47Q528 -56 461 -109T283 -163Q220 -163 168 -140T86 -75T56 20Q56 32 60 60Q63 81 82 92T129 104Q154 104 168 94T182 66Q182 59 181 52T180 37Q180 -8 207 -38T283 -69Q339 -69 377 -36T415 49Q415 74
402 89T367 113T289 143Q199 176 152 221T105 325Q105 373 131 414T202 488Q183 522 183 560Q183 617 214 663T302 734T430 760Q484 760 533 742ZM301 392T263 420Q244 401 232 374T219 325Q219 292 246 272T338 233Q403 214 440 192Q460 210 474 237T488 285Q488
315 458 334T359 374Q301 392 263 420Z" />
<glyph unicode="&#xa8;" glyph-name="dieresis" horiz-adv-x="376" d="M88 560T70 579T51 625Q51 660 79 687T143 715Q171 715 190 696T210 650Q210 616 181 588T116 560Q88 560 70 579ZM364 560T346 579T327 625Q327 660 355 687T419 715Q447 715 466 696T485
650Q485 616 456 588T392 560Q364 560 346 579Z" />
<glyph unicode="&#xa9;" glyph-name="copyright" horiz-adv-x="910" d="M625 700T695 664T806 563T846 416Q846 303 793 208T647 56T441 0Q348 0 271 41T150 152T106 305Q106 417 164 507T320 649T536 700Q625 700 695 664ZM533 88T603 131T710 248T747 417Q747
513 694 564T532 615Q444 615 369 573T249 460T205 306Q205 242 234 193T316 116T440 88Q533 88 603 131ZM641 552T653 543T662 520Q654 476 646 455T627 426T596 419Q578 419 570 432Q555 457 542 468T509 479Q475 479 446 452T399 384T382 301Q382 262 403 244T466
226Q501 226 524 243T554 295Q557 310 572 319T608 329Q629 329 639 320T647 295Q635 229 587 190T462 151Q379 151 327 190T275 298Q275 362 307 421T392 516T500 553Q550 553 586 525Q593 552 620 552Q641 552 653 543Z" />
<glyph unicode="&#xaa;" glyph-name="ordfeminine" horiz-adv-x="360" d="M365 657T357 618Q344 554 344 537Q344 530 354 525Q355 524 359 522T364 516T366 505Q366 470 329 470Q301 470 285 487L280 494Q266 479 251 473T213 466Q165 466 137 492T109 569Q109
612 129 648T182 706T253 727Q289 727 310 706L311 711Q314 725 343 725Q359 725 367 720T375 703Q375 700 373 692Q365 657 357 618ZM241 531T255 543T273 570Q281 608 281 611Q282 617 282 628Q282 663 252 663Q221 663 206 633T190 570Q190 549 197 540T221
531Q241 531 255 543Z" />
<glyph unicode="&#xab;" glyph-name="guillemotleft" horiz-adv-x="611" d="M241 188T195 216T116 283T82 356Q82 392 130 437T243 516T347 549Q366 549 378 539T390 512Q390 490 376 477T333 451Q296 436 238 403T179 361Q179 353 223 323T292 286Q309 282 319
270T329 242Q329 219 313 204T274 188Q241 188 195 216ZM453 183T407 211T328 279T294 352Q294 387 343 432T457 511T561 544Q578 544 587 535T597 508Q597 484 584 468T548 446Q522 439 486 420T422 382T394 356Q394 347 438 318T508 281Q524 275 533 264T543
238Q543 215 526 199T486 183Q453 183 407 211Z" />
<glyph unicode="&#xac;" glyph-name="logicalnot" horiz-adv-x="782" d="M619 165T609 175T599 204Q599 211 601 225Q609 272 618 309Q621 324 624 339T630 369L423 370L155 369Q123 369 108 381T93 416Q93 448 113 468T172 489L450 490H689Q719 490 736 477T754
442Q754 435 753 432L716 224Q711 196 693 181T643 165Q619 165 609 175Z" />
<glyph unicode="&#xad;" glyph-name="uni00AD" horiz-adv-x="381" d="M70 216T58 229T46 264Q46 296 65 314T108 334Q180 337 297 337Q322 337 335 325T349 290Q349 261 327 241T275 221L189 219Q135 216 90 216Q70 216 58 229Z" />
<glyph unicode="&#xae;" glyph-name="registered" horiz-adv-x="910" d="M635 710T703 673T809 571T846 421Q846 307 789 211T635 57T424 0Q331 0 259 38T146 144T106 295Q106 406 167 501T329 653T544 710Q635 710 703 673ZM526 83T599 127T714 246T756 406Q756
470 729 520T650 598T529 626Q442 626 368 582T250 465T206 308Q206 244 234 193T315 113T439 83Q526 83 599 127ZM597 552T634 523T671 444Q671 395 644 362T578 314T501 299H485L601 215Q610 209 610 195Q610 178 591 160T555 142Q540 142 528 152L419 252Q418
245 417 241T415 232Q412 220 405 176Q403 161 389 151T353 141Q312 141 312 172L313 180Q316 202 320 215Q321 221 323 230T327 256L334 297L344 350L353 409L357 439Q343 450 343 474Q343 486 348 493T366 508L367 515Q370 535 389 544T429 553Q452 553 461 542Q501
552 537 552Q597 552 634 523ZM539 369T559 386T580 433Q580 453 562 464T516 476Q489 476 459 467L454 443L442 376Q449 373 469 371T504 369Q539 369 559 386Z" />
<glyph unicode="&#xaf;" glyph-name="overscore" horiz-adv-x="431" d="M205 589T194 588T172 587Q147 587 119 598Q90 609 90 639Q90 666 108 685T153 704L173 702Q208 697 229 697Q250 697 294 701Q344 705 374 705Q412 705 440 701Q457 699 469 686T482 654Q482
637 471 622T443 598T413 593Q397 597 361 597Q334 597 290 593Q246 589 221 589Q205 589 194 588Z" />
<glyph unicode="&#xb0;" glyph-name="degree" horiz-adv-x="406" d="M194 559T157 591T120 675Q120 724 146 765T217 831T313 856Q375 856 413 822T451 735Q451 688 424 648T353 583T257 559Q194 559 157 591ZM307 643T331 664T355 722Q355 744 340 757T295 771Q263
771 239 748T215 689Q215 667 230 655T271 643Q307 643 331 664Z" />
<glyph unicode="&#xb1;" glyph-name="plusminus" horiz-adv-x="560" d="M507 428T507 385Q507 355 488 338T434 320H352Q351 315 339 247Q334 220 317 205T270 189Q245 189 235 197T224 226Q224 236 225 241L238 321Q200 322 144 322Q97 322 97 363Q97 394 114
413T166 432L256 431L269 506Q274 531 290 545T337 560Q384 560 384 517Q384 510 383 506L371 429Q404 428 452 428Q507 428 507 385ZM432 146T448 134T465 100Q465 70 443 54T381 36L111 33Q84 33 70 44T56 75Q56 107 76 124T133 143L403 146Q432 146 448 134Z"
/>
<glyph unicode="&#xb2;" glyph-name="uni00B2" horiz-adv-x="409" d="M386 464T398 453T411 424Q411 400 394 384T347 367L308 368Q273 371 225 371Q200 371 160 369L113 368Q90 368 75 378T60 405Q60 449 119 509T253 616Q291 639 309 666T328 722Q328 740 319
750T292 760Q276 760 260 744T238 703Q233 679 216 669T167 659Q117 659 117 699Q117 741 143 777T211 836T301 858Q343 858 379 842T436 796T458 729Q458 674 423 628T312 536Q252 499 223 467H242L359 465Q386 464 398 453Z" />
<glyph unicode="&#xb3;" glyph-name="uni00B3" horiz-adv-x="450" d="M469 579T469 524Q469 474 441 438T368 383T272 364Q182 364 133 397T83 491Q83 506 86 524Q91 550 108 564T154 578Q184 578 193 567T203 528V508Q203 486 218 474T271 462Q297 462 322 472T348
518Q348 553 293 553Q251 553 251 587Q251 649 308 649Q338 649 356 671T375 724Q375 742 363 751T334 760Q306 760 289 743T272 697Q272 680 254 667T203 654Q176 654 162 666T147 703Q147 744 175 779T249 836T341 858Q383 858 419 841T477 796T499 734Q499 692
477 656T418 600Q469 579 469 524Z" />
<glyph unicode="&#xb4;" glyph-name="acute" horiz-adv-x="376" d="M175 561T164 573T152 604Q152 631 175 654L281 760Q298 777 313 784T345 792Q366 792 378 780T391 747Q391 714 354 681L249 587Q233 572 221 567T194 561Q175 561 164 573Z" />
<glyph unicode="&#xb6;" glyph-name="paragraph" horiz-adv-x="647" d="M261 -30T261 -1L307 271Q248 273 202 297T131 364T105 461Q105 548 155 613T289 712T474 747Q544 747 561 745Q591 743 606 732T619 703L499 19Q495 -8 484 -19T446 -30Q423 -30 412 -23T402
-2L513 642Q514 645 514 649Q514 654 510 655T495 657Q480 657 475 655T467 643L356 6Q354 -11 340 -20T301 -30Q261 -30 261 -1Z" />
<glyph unicode="&#xb7;" glyph-name="middot" horiz-adv-x="436" d="M185 253T162 275T139 333Q139 383 170 413T255 444Q292 444 314 422T336 365Q336 315 305 284T222 253Q185 253 162 275Z" />
<glyph unicode="&#xb8;" glyph-name="cedilla" horiz-adv-x="376" d="M31 -229T-1 -214Q-16 -207 -23 -201T-30 -184Q-30 -166 -18 -153T15 -140Q26 -140 47 -147Q75 -155 90 -155Q111 -155 121 -148T132 -132Q132 -114 84 -106Q67 -103 58 -94T48 -70Q48 -61
55 -45L131 48Q143 64 150 70T168 76Q189 76 202 67T215 41Q215 32 212 26T202 11L143 -57Q214 -76 214 -123Q214 -169 173 -199T73 -229Q31 -229 -1 -214Z" />
<glyph unicode="&#xb9;" glyph-name="uni00B9" horiz-adv-x="329" d="M314 851T331 835T345 796L279 420Q275 398 254 385T205 371Q182 371 170 382T158 410Q158 417 159 420L210 707Q190 683 178 671Q168 661 157 656T134 651Q118 651 104 665T94 699Q97 715
126 746L211 833Q219 842 240 846T284 851Q314 851 331 835Z" />
<glyph unicode="&#xba;" glyph-name="ordmasculine" horiz-adv-x="368" d="M184 467T148 495T111 581Q111 640 151 680T257 721Q314 721 349 687T384 605Q384 539 345 503T236 467Q184 467 148 495ZM267 528T286 548T305 605Q305 629 293 644T257 660Q226 660
207 637T188 581Q188 558 201 543T236 528Q267 528 286 548Z" />
<glyph unicode="&#xbb;" glyph-name="guillemotright" horiz-adv-x="613" d="M80 188T70 198T59 225Q59 249 72 264T108 286Q135 293 172 312T239 352T268 378Q268 383 247 399T197 431T149 452Q133 456 124 467T114 493Q114 516 131 532T171 549Q203 549 249
521T329 453T363 381Q363 347 314 302T200 222T97 188Q80 188 70 198ZM291 182T280 193T268 221Q268 243 284 259T325 281Q345 284 381 304T447 347T478 376Q478 384 435 411T365 446Q348 451 338 463T328 490Q328 512 344 528T383 544Q417 544 463 517T542 449T576
376Q576 343 539 304T441 232T310 182Q291 182 280 193Z" />
<glyph unicode="&#xbc;" glyph-name="onequarter" horiz-adv-x="914" d="M175 599T163 587Q153 577 142 572T119 567Q103 567 89 581T79 615Q82 631 111 662L196 749Q204 758 225 762T269 767Q299 767 316 751T330 712L264 336Q260 314 239 301T190 287Q167 287
155 298T143 326Q143 333 144 336L195 623Q175 599 163 587ZM753 697T736 674L238 20Q229 8 214 2T182 -4Q160 -4 145 6T130 34Q130 45 134 54T151 80L650 737Q661 751 677 758T711 766Q731 766 744 756T758 728Q758 722 757 718Q753 697 736 674ZM851 212T861
202T871 174Q871 117 815 109L807 108L793 43Q789 23 768 9T719 -6Q696 -6 683 6T670 35Q670 39 672 47L684 101H628Q591 101 549 106T491 115Q451 125 451 154Q451 169 465 191Q483 217 485 220Q554 319 601 381T690 478Q698 485 704 488T722 491Q743 491 759
479T775 451Q775 437 769 425T744 394Q707 358 665 300T610 216Q606 208 606 207Q606 203 620 200Q640 198 646 198Q652 198 663 198T693 199H705L729 310Q734 331 751 345T797 359Q822 359 836 347T851 315Q851 309 850 305L829 209Q831 210 834 210Q851 212 861
202Z" />
<glyph unicode="&#xbd;" glyph-name="onehalf" horiz-adv-x="939" d="M753 697T736 674L238 20Q229 8 214 2T182 -4Q160 -4 145 6T130 34Q130 45 134 54T151 80L650 737Q661 751 677 758T711 766Q731 766 744 756T758 728Q758 722 757 718Q753 697 736 674ZM175
597T163 585Q153 575 142 570T119 565Q103 565 89 579T79 613Q82 629 111 660L196 747Q204 756 225 760T269 765Q299 765 316 749T330 710L264 334Q260 312 239 299T190 285Q167 285 155 296T143 324Q143 331 144 334L195 621Q175 597 163 585ZM851 97T863 86T876
57Q876 33 859 17T812 0L773 1Q739 4 690 4Q665 4 625 2L578 1Q555 1 540 11T525 38Q525 82 584 142T718 249Q756 272 774 299T793 355Q793 373 784 383T757 393Q741 393 725 377T703 336Q698 312 681 302T632 292Q582 292 582 332Q582 374 608 410T676 469T766
491Q808 491 844 475T901 429T923 362Q923 307 888 261T777 169Q717 132 688 100H707L824 98Q851 97 863 86Z" />
<glyph unicode="&#xbe;" glyph-name="threequarters" horiz-adv-x="1024" d="M874 693T859 674L361 20Q352 8 337 2T305 -4Q283 -4 268 6T253 34Q253 55 274 80L773 737Q784 751 800 758T834 766Q854 766 867 756T881 726L880 718Q874 693 859 674ZM453 381T425
345T352 290T256 271Q166 271 117 304T67 398Q67 413 70 431Q75 457 92 471T138 485Q168 485 177 474T187 435V415Q187 393 202 381T255 369Q281 369 306 379T332 425Q332 460 277 460Q235 460 235 494Q235 556 292 556Q322 556 340 578T359 631Q359 649 347 658T318
667Q290 667 273 650T256 604Q256 587 238 574T187 561Q160 561 146 573T131 610Q131 651 159 686T233 743T325 765Q367 765 403 748T461 703T483 641Q483 599 461 563T402 507Q453 486 453 431Q453 381 425 345ZM960 208T970 198T980 170Q980 113 924 105L916
104L902 39Q898 19 877 5T828 -10Q805 -10 792 2T779 31Q779 35 781 43L793 97H737Q700 97 658 102T600 111Q560 121 560 150Q560 165 574 187Q592 213 594 216Q663 315 710 377T799 474Q807 481 813 484T831 487Q852 487 868 475T884 447Q884 433 878 421T853
390Q816 354 774 296T719 212Q715 204 715 203Q715 199 729 196Q749 194 755 194Q761 194 772 194T802 195H814L838 306Q843 327 860 341T906 355Q931 355 945 343T960 311Q960 305 959 301L938 205Q940 206 943 206Q960 208 970 198Z" />
<glyph unicode="&#xbf;" glyph-name="questiondown" horiz-adv-x="549" d="M281 440T264 457T246 500Q246 534 272 560T332 586Q360 586 377 569T395 526Q395 492 369 466T307 440Q281 440 264 457ZM171 -125T127 -103T56 -42T30 47Q30 96 50 136T99 206T170 274Q208
307 225 327T243 367Q243 391 260 404T302 417Q322 417 333 406T345 374Q345 336 318 301T236 213Q185 165 159 132T133 63Q133 22 157 -1T225 -24Q287 -24 323 3T360 80Q360 98 351 109T327 120Q305 120 294 130T282 160Q282 188 300 204T345 221Q378 221 405
201T447 148T462 80Q462 17 432 -29T348 -100T225 -125Q171 -125 127 -103Z" />
<glyph unicode="&#xc0;" glyph-name="Agrave" horiz-adv-x="697" d="M643 201T631 179T598 157H592L604 69Q605 65 605 59Q605 28 583 9T526 -11Q499 -11 479 0T456 31L444 158L243 160L184 34Q163 -10 109 -10Q75 -10 49 6T27 50Q29 63 33 70Q166 327 296 587Q321
636 338 662T377 700T430 712Q475 712 501 686T536 596Q553 477 573 316L576 287H583Q643 287 643 236Q643 201 631 179ZM431 289Q431 285 424 372L420 424Q416 470 413 485T405 501Q401 501 396 491T383 465L368 431L303 290L431 289ZM456 750T446 755T426 774L362
860Q347 880 347 902Q347 927 366 945T410 963Q425 963 436 956T459 931L517 846Q529 827 529 809Q529 785 511 768T470 750Q456 750 446 755Z" />
<glyph unicode="&#xc1;" glyph-name="Aacute" horiz-adv-x="697" d="M643 201T631 179T598 157H592L604 69Q605 65 605 59Q605 28 583 9T526 -11Q499 -11 479 0T456 31L444 158L243 160L184 34Q163 -10 109 -10Q75 -10 49 6T27 50Q29 63 33 70Q166 327 296 587Q321
636 338 662T377 700T430 712Q475 712 501 686T536 596Q553 477 573 316L576 287H583Q643 287 643 236Q643 201 631 179ZM431 289Q431 285 424 372L420 424Q416 470 413 485T405 501Q401 501 396 491T383 465L368 431L303 290L431 289ZM379 760T366 775T353 810Q353
837 382 859L485 937Q511 956 523 963T549 970Q569 970 581 955T594 919Q594 886 560 863L450 784Q429 769 420 765T398 760Q379 760 366 775Z" />
<glyph unicode="&#xc2;" glyph-name="Acircumflex" horiz-adv-x="697" d="M643 201T631 179T598 157H592L604 69Q605 65 605 59Q605 28 583 9T526 -11Q499 -11 479 0T456 31L444 158L243 160L184 34Q163 -10 109 -10Q75 -10 49 6T27 50Q29 63 33 70Q166 327 296
587Q321 636 338 662T377 700T430 712Q475 712 501 686T536 596Q553 477 573 316L576 287H583Q643 287 643 236Q643 201 631 179ZM431 289Q431 285 424 372L420 424Q416 470 413 485T405 501Q401 501 396 491T383 465L368 431L303 290L431 289ZM529 750T516 771Q504
790 482 828Q479 832 471 846T459 861Q454 861 418 827L370 782Q353 767 342 761T317 755Q297 755 284 767T271 799Q271 809 277 822T294 845L326 874Q376 921 412 948T474 975Q504 975 521 959T563 904Q568 897 581 877T609 839Q618 826 618 812Q618 787 600 769T558
750Q529 750 516 771Z" />
<glyph unicode="&#xc3;" glyph-name="Atilde" horiz-adv-x="697" d="M643 201T631 179T598 157H592L604 69Q605 65 605 59Q605 28 583 9T526 -11Q499 -11 479 0T456 31L444 158L243 160L184 34Q163 -10 109 -10Q75 -10 49 6T27 50Q29 63 33 70Q166 327 296 587Q321
636 338 662T377 700T430 712Q475 712 501 686T536 596Q553 477 573 316L576 287H583Q643 287 643 236Q643 201 631 179ZM431 289Q431 285 424 372L420 424Q416 470 413 485T405 501Q401 501 396 491T383 465L368 431L303 290L431 289ZM288 770T276 783T263 814Q263
838 284 859Q318 893 344 907T402 921Q426 921 451 915T496 896Q513 886 522 882T535 877Q542 877 550 885Q563 898 573 903T596 909Q614 909 628 895T642 862Q642 837 618 816Q565 770 516 770Q493 770 474 778T433 799Q431 800 417 808T392 817Q386 817 378 811T357
793Q331 770 307 770Q288 770 276 783Z" />
<glyph unicode="&#xc4;" glyph-name="Adieresis" horiz-adv-x="697" d="M643 201T631 179T598 157H592L604 69Q605 65 605 59Q605 28 583 9T526 -11Q499 -11 479 0T456 31L444 158L243 160L184 34Q163 -10 109 -10Q75 -10 49 6T27 50Q29 63 33 70Q166 327 296
587Q321 636 338 662T377 700T430 712Q475 712 501 686T536 596Q553 477 573 316L576 287H583Q643 287 643 236Q643 201 631 179ZM431 289Q431 285 424 372L420 424Q416 470 413 485T405 501Q401 501 396 491T383 465L368 431L303 290L431 289ZM273 760T255 779T236
825Q236 860 264 887T328 915Q356 915 375 896T395 850Q395 816 366 788T301 760Q273 760 255 779ZM549 760T531 779T512 825Q512 860 540 887T604 915Q632 915 651 896T670 850Q670 816 641 788T577 760Q549 760 531 779Z" />
<glyph unicode="&#xc5;" glyph-name="Aring" horiz-adv-x="697" d="M643 201T631 179T598 157H592L604 69Q605 65 605 59Q605 28 583 9T526 -11Q499 -11 479 0T456 31L444 158L243 160L184 34Q163 -10 109 -10Q75 -10 49 6T27 50Q29 63 33 70Q166 327 296 587Q321
636 338 662T377 700T430 712Q475 712 501 686T536 596Q553 477 573 316L576 287H583Q643 287 643 236Q643 201 631 179ZM431 289Q431 285 424 372L420 424Q416 470 413 485T405 501Q401 501 396 491T383 465L368 431L303 290L431 289ZM392 737T359 770T325 853Q325
891 346 925T404 979T481 1000Q529 1000 561 967T594 888Q594 847 574 813T518 758T441 737Q392 737 359 770ZM472 824T487 837T506 871Q509 888 499 901T468 914Q446 914 430 899T413 863Q413 846 424 835T452 824Q472 824 487 837Z" />
<glyph unicode="&#xc6;" glyph-name="AE" horiz-adv-x="879" d="M896 685T903 677T911 653Q911 649 909 635Q902 594 886 582T847 571Q805 574 755 574Q690 574 650 571Q643 512 625 408L670 407Q759 405 774 404Q793 403 793 377Q793 371 791 359Q787 334 773
322T729 309L658 311H607Q598 258 591 229T568 147L562 125Q588 121 631 121H682Q699 121 716 122T762 128Q775 130 789 119T804 83Q804 74 803 68Q797 36 780 21T746 0Q732 -4 711 -5T663 -6H404Q348 -6 348 39Q348 48 349 53Q355 84 370 99T408 115Q420 155 428
189L281 190Q246 138 173 29Q164 17 153 9T121 0Q90 0 59 18T28 56Q28 63 31 67Q174 294 307 479T509 688Q515 691 519 691Q553 691 585 692T640 694L715 696Q778 696 880 687Q896 685 903 677ZM451 289Q460 331 477 428L486 476Q432 409 350 290L451 289Z" />
<glyph unicode="&#xc7;" glyph-name="Ccedilla" horiz-adv-x="742" d="M721 710T737 696T753 661Q753 653 752 649L730 533Q717 464 649 464Q631 464 617 470T596 487Q579 520 566 538T529 570T469 584Q404 584 344 540T246 429T208 294Q208 218 256 172T381 126Q442
126 495 157T566 254Q573 283 591 302T648 322Q714 322 714 262Q714 212 676 149T562 41T381 -4L335 -57Q406 -76 406 -123Q406 -169 365 -199T265 -229Q223 -229 191 -214Q176 -207 169 -201T162 -184Q162 -166 174 -153T207 -140Q218 -140 239 -147Q267 -155
282 -155Q303 -155 313 -148T324 -132Q324 -114 276 -106Q259 -103 250 -94T240 -70Q240 -61 247 -45L289 7Q185 32 123 110T61 298Q61 404 117 500T267 655T469 714Q569 714 618 662L619 666Q623 686 642 698T691 710Q721 710 737 696Z" />
<glyph unicode="&#xc8;" glyph-name="Egrave" horiz-adv-x="640" d="M670 688T670 646Q670 613 650 589T602 566Q512 574 441 574Q407 574 357 572L333 571L317 472L311 431H323Q477 431 514 427Q530 425 540 417T550 386Q550 354 534 327T492 300Q448 300 431
301L311 302H289Q274 219 248 140Q286 136 343 136Q401 136 436 138T508 145Q513 146 521 146Q567 146 567 97Q567 32 501 18Q451 9 300 9Q245 9 196 12T76 24Q41 28 41 66Q41 99 54 123T93 147H104Q129 223 143 303H135Q117 303 107 314T97 347Q97 385 113 409T155
433H165Q174 476 189 565H186Q172 565 165 578T158 608Q158 688 241 696Q282 701 373 701H418Q553 701 617 693Q670 688 670 646ZM456 750T446 755T426 774L362 860Q347 880 347 902Q347 927 366 945T410 963Q425 963 436 956T459 931L517 846Q529 827 529 809Q529
785 511 768T470 750Q456 750 446 755Z" />
<glyph unicode="&#xc9;" glyph-name="Eacute" horiz-adv-x="640" d="M670 688T670 646Q670 613 650 589T602 566Q512 574 441 574Q407 574 357 572L333 571L317 472L311 431H323Q477 431 514 427Q530 425 540 417T550 386Q550 354 534 327T492 300Q448 300 431
301L311 302H289Q274 219 248 140Q286 136 343 136Q401 136 436 138T508 145Q513 146 521 146Q567 146 567 97Q567 32 501 18Q451 9 300 9Q245 9 196 12T76 24Q41 28 41 66Q41 99 54 123T93 147H104Q129 223 143 303H135Q117 303 107 314T97 347Q97 385 113 409T155
433H165Q174 476 189 565H186Q172 565 165 578T158 608Q158 688 241 696Q282 701 373 701H418Q553 701 617 693Q670 688 670 646ZM379 760T366 775T353 810Q353 837 382 859L485 937Q511 956 523 963T549 970Q569 970 581 955T594 919Q594 886 560 863L450 784Q429
769 420 765T398 760Q379 760 366 775Z" />
<glyph unicode="&#xca;" glyph-name="Ecircumflex" horiz-adv-x="640" d="M670 688T670 646Q670 613 650 589T602 566Q512 574 441 574Q407 574 357 572L333 571L317 472L311 431H323Q477 431 514 427Q530 425 540 417T550 386Q550 354 534 327T492 300Q448 300
431 301L311 302H289Q274 219 248 140Q286 136 343 136Q401 136 436 138T508 145Q513 146 521 146Q567 146 567 97Q567 32 501 18Q451 9 300 9Q245 9 196 12T76 24Q41 28 41 66Q41 99 54 123T93 147H104Q129 223 143 303H135Q117 303 107 314T97 347Q97 385 113
409T155 433H165Q174 476 189 565H186Q172 565 165 578T158 608Q158 688 241 696Q282 701 373 701H418Q553 701 617 693Q670 688 670 646ZM529 750T516 771Q504 790 482 828Q479 832 471 846T459 861Q454 861 418 827L370 782Q353 767 342 761T317 755Q297 755
284 767T271 799Q271 809 277 822T294 845L326 874Q376 921 412 948T474 975Q504 975 521 959T563 904Q568 897 581 877T609 839Q618 826 618 812Q618 787 600 769T558 750Q529 750 516 771Z" />
<glyph unicode="&#xcb;" glyph-name="Edieresis" horiz-adv-x="640" d="M670 688T670 646Q670 613 650 589T602 566Q512 574 441 574Q407 574 357 572L333 571L317 472L311 431H323Q477 431 514 427Q530 425 540 417T550 386Q550 354 534 327T492 300Q448 300
431 301L311 302H289Q274 219 248 140Q286 136 343 136Q401 136 436 138T508 145Q513 146 521 146Q567 146 567 97Q567 32 501 18Q451 9 300 9Q245 9 196 12T76 24Q41 28 41 66Q41 99 54 123T93 147H104Q129 223 143 303H135Q117 303 107 314T97 347Q97 385 113
409T155 433H165Q174 476 189 565H186Q172 565 165 578T158 608Q158 688 241 696Q282 701 373 701H418Q553 701 617 693Q670 688 670 646ZM273 760T255 779T236 825Q236 860 264 887T328 915Q356 915 375 896T395 850Q395 816 366 788T301 760Q273 760 255 779ZM549
760T531 779T512 825Q512 860 540 887T604 915Q632 915 651 896T670 850Q670 816 641 788T577 760Q549 760 531 779Z" />
<glyph unicode="&#xcc;" glyph-name="Igrave" horiz-adv-x="510" d="M542 701T542 656Q542 621 523 599T466 577L407 579Q361 333 312 134L387 133Q442 132 442 87Q442 49 421 26T363 2L64 6Q14 7 14 54Q14 88 34 112T87 137L170 136Q217 339 262 579Q208 576
183 573Q159 571 156 571Q132 571 120 583T108 618Q108 653 126 675T179 702Q201 705 257 708T370 711Q425 711 495 705Q542 701 542 656ZM373 750T363 755T343 774L279 860Q264 880 264 902Q264 927 283 945T327 963Q342 963 353 956T376 931L434 846Q446 827
446 809Q446 785 428 768T387 750Q373 750 363 755Z" />
<glyph unicode="&#xcd;" glyph-name="Iacute" horiz-adv-x="510" d="M542 701T542 656Q542 621 523 599T466 577L407 579Q361 333 312 134L387 133Q442 132 442 87Q442 49 421 26T363 2L64 6Q14 7 14 54Q14 88 34 112T87 137L170 136Q217 339 262 579Q208 576
183 573Q159 571 156 571Q132 571 120 583T108 618Q108 653 126 675T179 702Q201 705 257 708T370 711Q425 711 495 705Q542 701 542 656ZM296 760T283 775T270 810Q270 837 299 859L402 937Q428 956 440 963T466 970Q486 970 498 955T511 919Q511 886 477 863L367
784Q346 769 337 765T315 760Q296 760 283 775Z" />
<glyph unicode="&#xce;" glyph-name="Icircumflex" horiz-adv-x="510" d="M542 701T542 656Q542 621 523 599T466 577L407 579Q361 333 312 134L387 133Q442 132 442 87Q442 49 421 26T363 2L64 6Q14 7 14 54Q14 88 34 112T87 137L170 136Q217 339 262 579Q208
576 183 573Q159 571 156 571Q132 571 120 583T108 618Q108 653 126 675T179 702Q201 705 257 708T370 711Q425 711 495 705Q542 701 542 656ZM446 750T433 771Q421 790 399 828Q396 832 388 846T376 861Q371 861 335 827L287 782Q270 767 259 761T234 755Q214
755 201 767T188 799Q188 809 194 822T211 845L243 874Q293 921 329 948T391 975Q421 975 438 959T480 904Q485 897 498 877T526 839Q535 826 535 812Q535 787 517 769T475 750Q446 750 433 771Z" />
<glyph unicode="&#xcf;" glyph-name="Idieresis" horiz-adv-x="510" d="M542 701T542 656Q542 621 523 599T466 577L407 579Q361 333 312 134L387 133Q442 132 442 87Q442 49 421 26T363 2L64 6Q14 7 14 54Q14 88 34 112T87 137L170 136Q217 339 262 579Q208 576
183 573Q159 571 156 571Q132 571 120 583T108 618Q108 653 126 675T179 702Q201 705 257 708T370 711Q425 711 495 705Q542 701 542 656ZM190 760T172 779T153 825Q153 860 181 887T245 915Q273 915 292 896T312 850Q312 816 283 788T218 760Q190 760 172 779ZM466
760T448 779T429 825Q429 860 457 887T521 915Q549 915 568 896T587 850Q587 816 558 788T494 760Q466 760 448 779Z" />
<glyph unicode="&#xd0;" glyph-name="Eth" horiz-adv-x="720" d="M497 690T594 612T691 397Q691 281 621 192T433 54T175 5H110Q72 5 55 16T38 57Q38 89 56 107T106 131L130 292H121Q82 293 61 308T40 354Q40 390 70 415T150 439H151L173 583Q138 597 138 633Q138
686 207 698Q229 717 271 717Q310 717 331 701Q497 690 594 612ZM346 150T404 185T494 275T527 394Q527 481 474 519T336 568L316 434L344 433Q382 432 401 415T421 369Q421 333 393 310T318 287L294 288L272 138Q346 150 404 185Z" />
<glyph unicode="&#xd1;" glyph-name="Ntilde" horiz-adv-x="759" d="M733 715T747 702T761 661Q761 655 759 637Q745 558 717 405Q715 390 706 344Q682 214 662 145T613 43T538 10Q501 10 474 33T419 108T340 272Q291 380 256 462Q254 446 252 438Q245 388 232
314Q225 273 219 238T207 174Q203 153 198 127T188 70Q183 44 160 26T104 8Q73 8 56 27T42 70L70 232L88 331L120 519Q134 595 147 634T180 690T236 708Q273 708 299 687T356 610T436 435Q501 279 536 206Q552 292 565 370Q570 402 597 547L616 653Q621 680 642
697T701 715Q733 715 747 702ZM328 770T316 783T303 814Q303 838 324 859Q358 893 384 907T442 921Q466 921 491 915T536 896Q553 886 562 882T575 877Q582 877 590 885Q603 898 613 903T636 909Q654 909 668 895T682 862Q682 837 658 816Q605 770 556 770Q533
770 514 778T473 799Q471 800 457 808T432 817Q426 817 418 811T397 793Q371 770 347 770Q328 770 316 783Z" />
<glyph unicode="&#xd2;" glyph-name="Ograve" horiz-adv-x="812" d="M286 6T214 43T102 150T62 312Q62 419 113 510T254 655T456 709Q552 709 627 669T744 556T786 388Q786 280 733 193T587 56T382 6Q286 6 214 43ZM461 136T519 171T609 265T641 395Q641 480 594
529T464 579Q391 579 333 541T243 439T210 306Q210 221 257 179T386 136Q461 136 519 171ZM509 750T499 755T479 774L415 860Q400 880 400 902Q400 927 419 945T463 963Q478 963 489 956T512 931L570 846Q582 827 582 809Q582 785 564 768T523 750Q509 750 499
755Z" />
<glyph unicode="&#xd3;" glyph-name="Oacute" horiz-adv-x="812" d="M286 6T214 43T102 150T62 312Q62 419 113 510T254 655T456 709Q552 709 627 669T744 556T786 388Q786 280 733 193T587 56T382 6Q286 6 214 43ZM461 136T519 171T609 265T641 395Q641 480 594
529T464 579Q391 579 333 541T243 439T210 306Q210 221 257 179T386 136Q461 136 519 171ZM432 760T419 775T406 810Q406 837 435 859L538 937Q564 956 576 963T602 970Q622 970 634 955T647 919Q647 886 613 863L503 784Q482 769 473 765T451 760Q432 760 419
775Z" />
<glyph unicode="&#xd4;" glyph-name="Ocircumflex" horiz-adv-x="812" d="M286 6T214 43T102 150T62 312Q62 419 113 510T254 655T456 709Q552 709 627 669T744 556T786 388Q786 280 733 193T587 56T382 6Q286 6 214 43ZM461 136T519 171T609 265T641 395Q641
480 594 529T464 579Q391 579 333 541T243 439T210 306Q210 221 257 179T386 136Q461 136 519 171ZM582 750T569 771Q557 790 535 828Q532 832 524 846T512 861Q507 861 471 827L423 782Q406 767 395 761T370 755Q350 755 337 767T324 799Q324 809 330 822T347
845L379 874Q429 921 465 948T527 975Q557 975 574 959T616 904Q621 897 634 877T662 839Q671 826 671 812Q671 787 653 769T611 750Q582 750 569 771Z" />
<glyph unicode="&#xd5;" glyph-name="Otilde" horiz-adv-x="812" d="M286 6T214 43T102 150T62 312Q62 419 113 510T254 655T456 709Q552 709 627 669T744 556T786 388Q786 280 733 193T587 56T382 6Q286 6 214 43ZM461 136T519 171T609 265T641 395Q641 480 594
529T464 579Q391 579 333 541T243 439T210 306Q210 221 257 179T386 136Q461 136 519 171ZM341 770T329 783T316 814Q316 838 337 859Q371 893 397 907T455 921Q479 921 504 915T549 896Q566 886 575 882T588 877Q595 877 603 885Q616 898 626 903T649 909Q667
909 681 895T695 862Q695 837 671 816Q618 770 569 770Q546 770 527 778T486 799Q484 800 470 808T445 817Q439 817 431 811T410 793Q384 770 360 770Q341 770 329 783Z" />
<glyph unicode="&#xd6;" glyph-name="Odieresis" horiz-adv-x="812" d="M286 6T214 43T102 150T62 312Q62 419 113 510T254 655T456 709Q552 709 627 669T744 556T786 388Q786 280 733 193T587 56T382 6Q286 6 214 43ZM461 136T519 171T609 265T641 395Q641 480
594 529T464 579Q391 579 333 541T243 439T210 306Q210 221 257 179T386 136Q461 136 519 171ZM326 760T308 779T289 825Q289 860 317 887T381 915Q409 915 428 896T448 850Q448 816 419 788T354 760Q326 760 308 779ZM602 760T584 779T565 825Q565 860 593 887T657
915Q685 915 704 896T723 850Q723 816 694 788T630 760Q602 760 584 779Z" />
<glyph unicode="&#xd7;" glyph-name="multiply" horiz-adv-x="560" d="M449 491T464 480T480 449Q480 443 479 440Q476 429 473 423T457 405L358 312L447 196Q459 181 459 170Q459 151 438 132T391 113Q372 113 361 120T338 141Q322 162 286 203Q280 211 266 227L164
132Q152 121 140 115T111 108Q95 108 81 116T60 136T54 157Q56 176 74 193L197 310Q169 344 123 403Q121 406 116 412T110 422T108 430L109 439Q112 458 133 476T185 494Q200 494 212 488T236 466L291 397L360 463Q388 491 420 491Q449 491 464 480Z" />
<glyph unicode="&#xd8;" glyph-name="Oslash" horiz-adv-x="837" d="M848 766T861 753T875 721L874 712Q869 691 849 672L739 564Q786 487 786 388Q786 280 733 193T587 56T382 6Q285 6 210 45L144 -20Q134 -32 120 -39T90 -47Q70 -47 56 -35T42 -3L43 5Q44 12
46 18T57 34L132 107Q62 188 62 312Q62 419 113 510T254 655T456 709Q584 709 673 639L774 738Q786 752 801 759T829 766Q848 766 861 753ZM210 248T234 208L577 545Q532 579 464 579Q391 579 333 541T243 439T210 306Q210 248 234 208ZM641 428T633 460L314 146Q344
136 386 136Q461 136 519 171T609 265T641 395Q641 428 633 460Z" />
<glyph unicode="&#xd9;" glyph-name="Ugrave" horiz-adv-x="704" d="M667 710T684 695T702 657Q702 649 701 645L682 537L666 441L604 75Q596 31 579 14T524 -4Q455 -4 455 48Q455 57 456 61L458 75Q429 41 388 21T299 0Q191 0 132 57T73 214Q73 263 88 350T147
643Q153 671 174 687T233 704Q264 704 278 694T292 661Q292 648 290 641Q247 434 233 346T218 225Q218 182 243 157T305 131Q344 131 386 158T461 233T504 338L518 421Q523 448 531 497T557 645Q568 710 636 710Q667 710 684 695ZM457 750T447 755T427 774L363
860Q348 880 348 902Q348 927 367 945T411 963Q426 963 437 956T460 931L518 846Q530 827 530 809Q530 785 512 768T471 750Q457 750 447 755Z" />
<glyph unicode="&#xda;" glyph-name="Uacute" horiz-adv-x="704" d="M667 710T684 695T702 657Q702 649 701 645L682 537L666 441L604 75Q596 31 579 14T524 -4Q455 -4 455 48Q455 57 456 61L458 75Q429 41 388 21T299 0Q191 0 132 57T73 214Q73 263 88 350T147
643Q153 671 174 687T233 704Q264 704 278 694T292 661Q292 648 290 641Q247 434 233 346T218 225Q218 182 243 157T305 131Q344 131 386 158T461 233T504 338L518 421Q523 448 531 497T557 645Q568 710 636 710Q667 710 684 695ZM380 760T367 775T354 810Q354
837 383 859L486 937Q512 956 524 963T550 970Q570 970 582 955T595 919Q595 886 561 863L451 784Q430 769 421 765T399 760Q380 760 367 775Z" />
<glyph unicode="&#xdb;" glyph-name="Ucircumflex" horiz-adv-x="704" d="M667 710T684 695T702 657Q702 649 701 645L682 537L666 441L604 75Q596 31 579 14T524 -4Q455 -4 455 48Q455 57 456 61L458 75Q429 41 388 21T299 0Q191 0 132 57T73 214Q73 263 88 350T147
643Q153 671 174 687T233 704Q264 704 278 694T292 661Q292 648 290 641Q247 434 233 346T218 225Q218 182 243 157T305 131Q344 131 386 158T461 233T504 338L518 421Q523 448 531 497T557 645Q568 710 636 710Q667 710 684 695ZM530 750T517 771Q505 790 483
828Q480 832 472 846T460 861Q455 861 419 827L371 782Q354 767 343 761T318 755Q298 755 285 767T272 799Q272 809 278 822T295 845L327 874Q377 921 413 948T475 975Q505 975 522 959T564 904Q569 897 582 877T610 839Q619 826 619 812Q619 787 601 769T559 750Q530
750 517 771Z" />
<glyph unicode="&#xdc;" glyph-name="Udieresis" horiz-adv-x="704" d="M667 710T684 695T702 657Q702 649 701 645L682 537L666 441L604 75Q596 31 579 14T524 -4Q455 -4 455 48Q455 57 456 61L458 75Q429 41 388 21T299 0Q191 0 132 57T73 214Q73 263 88 350T147
643Q153 671 174 687T233 704Q264 704 278 694T292 661Q292 648 290 641Q247 434 233 346T218 225Q218 182 243 157T305 131Q344 131 386 158T461 233T504 338L518 421Q523 448 531 497T557 645Q568 710 636 710Q667 710 684 695ZM274 760T256 779T237 825Q237
860 265 887T329 915Q357 915 376 896T396 850Q396 816 367 788T302 760Q274 760 256 779ZM550 760T532 779T513 825Q513 860 541 887T605 915Q633 915 652 896T671 850Q671 816 642 788T578 760Q550 760 532 779Z" />
<glyph unicode="&#xdd;" glyph-name="Yacute" horiz-adv-x="655" d="M261 1T244 14T226 52Q226 56 228 68L272 332Q258 332 228 371T182 442Q158 496 142 536T116 624Q115 628 115 636Q115 666 146 684T215 702Q239 702 253 690T275 650Q302 556 323 505Q336 476
346 458T365 439Q374 439 393 459T430 505Q468 558 493 597L531 654Q535 660 543 673T563 693T592 700Q626 700 651 679T677 631Q677 620 668 602Q657 579 616 522T549 432Q519 396 476 364T417 332L374 71Q368 38 346 20T289 1Q261 1 244 14ZM355 760T342 775T329
810Q329 837 358 859L461 937Q487 956 499 963T525 970Q545 970 557 955T570 919Q570 886 536 863L426 784Q405 769 396 765T374 760Q355 760 342 775Z" />
<glyph unicode="&#xde;" glyph-name="Thorn" horiz-adv-x="686" d="M496 648T556 620T647 541T679 428Q679 351 632 294T510 206T353 176Q309 176 270 188L241 58Q235 30 209 11T147 -8Q115 -8 95 9T75 51Q75 58 76 62Q92 146 115 250L124 293Q133 335 154 462L142
457Q128 451 116 451Q94 451 77 469T60 509Q60 544 101 572Q130 592 177 607L190 695Q194 722 216 741T274 761Q307 761 332 744T354 695L345 644Q395 648 414 648Q496 648 556 620ZM429 306T471 337T513 424Q513 517 377 517Q346 517 323 513Q319 489 308 419L294
317Q334 306 368 306Q429 306 471 337Z" />
<glyph unicode="&#xdf;" glyph-name="germandbls" horiz-adv-x="625" d="M306 -8T274 -3T221 18Q199 34 199 56Q199 79 218 104T258 129Q268 129 278 123Q298 113 311 108T340 103Q380 103 403 119T427 165Q427 185 413 199T370 233Q333 259 314 280T295 335Q295
372 328 405T429 463Q445 495 445 518Q445 552 423 575T370 598Q319 598 283 552T227 401L162 64Q157 37 137 22T86 6Q58 6 43 19T28 54Q28 61 29 65L92 402Q112 509 144 575T232 675T370 709Q425 709 475 684T555 618T586 530Q586 497 573 460T537 393Q493 388
461 373T428 336Q428 327 438 318T471 294Q501 273 520 257T555 215T570 157Q570 111 539 73T454 14T334 -8Q306 -8 274 -3Z" />
<glyph unicode="&#xe0;" glyph-name="agrave" horiz-adv-x="614" d="M515 110T525 108T539 97T544 72Q544 42 527 21T468 0Q439 0 420 11T388 46Q366 17 329 3T247 -11Q185 -11 137 14T61 89T33 206Q33 285 69 351T166 456T302 495Q347 495 380 481T432 443L435
453Q448 490 493 490Q524 490 544 478T564 448Q564 430 543 380L535 359Q517 311 505 248T492 148Q492 127 496 121T512 111Q515 110 525 108ZM298 100T324 121T357 180Q381 302 381 325Q381 350 363 367T315 384Q277 384 246 356T198 283T181 195Q181 150 201
125T261 100Q298 100 324 121ZM360 550T350 555T330 574L266 660Q251 680 251 702Q251 727 270 745T314 763Q329 763 340 756T363 731L421 646Q433 627 433 609Q433 585 415 568T374 550Q360 550 350 555Z" />
<glyph unicode="&#xe1;" glyph-name="aacute" horiz-adv-x="614" d="M515 110T525 108T539 97T544 72Q544 42 527 21T468 0Q439 0 420 11T388 46Q366 17 329 3T247 -11Q185 -11 137 14T61 89T33 206Q33 285 69 351T166 456T302 495Q347 495 380 481T432 443L435
453Q448 490 493 490Q524 490 544 478T564 448Q564 430 543 380L535 359Q517 311 505 248T492 148Q492 127 496 121T512 111Q515 110 525 108ZM298 100T324 121T357 180Q381 302 381 325Q381 350 363 367T315 384Q277 384 246 356T198 283T181 195Q181 150 201
125T261 100Q298 100 324 121ZM283 560T270 575T257 610Q257 637 286 659L389 737Q415 756 427 763T453 770Q473 770 485 755T498 719Q498 686 464 663L354 584Q333 569 324 565T302 560Q283 560 270 575Z" />
<glyph unicode="&#xe2;" glyph-name="acircumflex" horiz-adv-x="614" d="M515 110T525 108T539 97T544 72Q544 42 527 21T468 0Q439 0 420 11T388 46Q366 17 329 3T247 -11Q185 -11 137 14T61 89T33 206Q33 285 69 351T166 456T302 495Q347 495 380 481T432 443L435
453Q448 490 493 490Q524 490 544 478T564 448Q564 430 543 380L535 359Q517 311 505 248T492 148Q492 127 496 121T512 111Q515 110 525 108ZM298 100T324 121T357 180Q381 302 381 325Q381 350 363 367T315 384Q277 384 246 356T198 283T181 195Q181 150 201
125T261 100Q298 100 324 121ZM433 550T420 571Q408 590 386 628Q383 632 375 646T363 661Q358 661 322 627L274 582Q257 567 246 561T221 555Q201 555 188 567T175 599Q175 609 181 622T198 645L230 674Q280 721 316 748T378 775Q408 775 425 759T467 704Q472
697 485 677T513 639Q522 626 522 612Q522 587 504 569T462 550Q433 550 420 571Z" />
<glyph unicode="&#xe3;" glyph-name="atilde" horiz-adv-x="614" d="M515 110T525 108T539 97T544 72Q544 42 527 21T468 0Q439 0 420 11T388 46Q366 17 329 3T247 -11Q185 -11 137 14T61 89T33 206Q33 285 69 351T166 456T302 495Q347 495 380 481T432 443L435
453Q448 490 493 490Q524 490 544 478T564 448Q564 430 543 380L535 359Q517 311 505 248T492 148Q492 127 496 121T512 111Q515 110 525 108ZM298 100T324 121T357 180Q381 302 381 325Q381 350 363 367T315 384Q277 384 246 356T198 283T181 195Q181 150 201
125T261 100Q298 100 324 121ZM192 570T180 583T167 614Q167 638 188 659Q222 693 248 707T306 721Q330 721 355 715T400 696Q417 686 426 682T439 677Q446 677 454 685Q467 698 477 703T500 709Q518 709 532 695T546 662Q546 637 522 616Q469 570 420 570Q397
570 378 578T337 599Q335 600 321 608T296 617Q290 617 282 611T261 593Q235 570 211 570Q192 570 180 583Z" />
<glyph unicode="&#xe4;" glyph-name="adieresis" horiz-adv-x="614" d="M515 110T525 108T539 97T544 72Q544 42 527 21T468 0Q439 0 420 11T388 46Q366 17 329 3T247 -11Q185 -11 137 14T61 89T33 206Q33 285 69 351T166 456T302 495Q347 495 380 481T432 443L435
453Q448 490 493 490Q524 490 544 478T564 448Q564 430 543 380L535 359Q517 311 505 248T492 148Q492 127 496 121T512 111Q515 110 525 108ZM298 100T324 121T357 180Q381 302 381 325Q381 350 363 367T315 384Q277 384 246 356T198 283T181 195Q181 150 201
125T261 100Q298 100 324 121ZM177 560T159 579T140 625Q140 660 168 687T232 715Q260 715 279 696T299 650Q299 616 270 588T205 560Q177 560 159 579ZM453 560T435 579T416 625Q416 660 444 687T508 715Q536 715 555 696T574 650Q574 616 545 588T481 560Q453
560 435 579Z" />
<glyph unicode="&#xe5;" glyph-name="aring" horiz-adv-x="614" d="M515 110T525 108T539 97T544 72Q544 42 527 21T468 0Q439 0 420 11T388 46Q366 17 329 3T247 -11Q185 -11 137 14T61 89T33 206Q33 285 69 351T166 456T302 495Q347 495 380 481T432 443L435
453Q448 490 493 490Q524 490 544 478T564 448Q564 430 543 380L535 359Q517 311 505 248T492 148Q492 127 496 121T512 111Q515 110 525 108ZM298 100T324 121T357 180Q381 302 381 325Q381 350 363 367T315 384Q277 384 246 356T198 283T181 195Q181 150 201
125T261 100Q298 100 324 121ZM296 537T263 570T229 653Q229 691 250 725T308 779T385 800Q433 800 465 767T498 688Q498 647 478 613T422 558T345 537Q296 537 263 570ZM376 624T391 637T410 671Q413 688 403 701T372 714Q350 714 334 699T317 663Q317 646 328
635T356 624Q376 624 391 637Z" />
<glyph unicode="&#xe6;" glyph-name="ae" horiz-adv-x="930" d="M746 518T796 494T877 427T907 335Q907 320 904 303Q896 257 873 242T810 225L510 218L509 212Q507 202 507 186Q507 137 533 119T614 101Q668 101 700 116T764 167Q788 195 816 195Q833 195 852
178T871 143Q871 119 851 94Q810 42 752 16T614 -10Q545 -10 493 13T424 82Q397 38 344 14T222 -10Q118 -10 69 23T19 128Q19 313 277 319L386 322L389 336Q390 339 390 345Q390 371 364 387T297 403Q212 403 156 363Q122 339 100 339Q85 339 73 354T60 386Q60
398 68 409T93 435Q140 476 192 495T307 514Q371 514 417 487T474 413Q506 459 563 488T686 518Q746 518 796 494ZM634 407T596 384T537 325L773 330L774 337Q775 340 775 347Q775 376 745 391T676 407Q634 407 596 384ZM295 99T325 122T365 200L367 214L277 211Q220
210 192 190T163 138Q163 118 180 109T236 99Q295 99 325 122Z" />
<glyph unicode="&#xe7;" glyph-name="ccedilla" horiz-adv-x="598" d="M522 255T537 246T553 212Q553 154 521 108T431 33T303 0L254 -57Q325 -76 325 -123Q325 -169 284 -199T184 -229Q142 -229 110 -214Q95 -207 88 -201T81 -184Q81 -166 93 -153T126 -140Q137
-140 158 -147Q186 -155 201 -155Q222 -155 232 -148T243 -132Q243 -114 195 -106Q178 -103 169 -94T159 -70Q159 -61 166 -45L208 7Q132 25 85 80T37 209Q37 294 75 364T181 474T333 515Q388 515 442 494T530 435T564 353Q564 324 541 310T485 295Q464 295 453
306T433 340Q425 362 401 383T342 404Q298 404 262 376T204 303T183 209Q183 162 209 136T289 110Q330 110 360 125T407 164T423 212Q423 228 443 241T492 255Q522 255 537 246Z" />
<glyph unicode="&#xe8;" glyph-name="egrave" horiz-adv-x="596" d="M210 -10T154 19T68 101T38 219Q38 299 76 367T182 475T332 515Q393 515 447 493T535 425T569 313Q569 212 483 212L160 210L159 199Q159 158 193 132T285 105Q328 105 357 118T415 155Q438
172 457 172Q478 172 494 158T511 123Q511 103 492 80Q464 46 414 18T285 -10Q210 -10 154 19ZM426 302Q443 302 448 305T453 321Q453 365 420 386T339 407Q294 407 258 390T201 347T176 300L426 302ZM382 550T372 555T352 574L288 660Q273 680 273 702Q273 727
292 745T336 763Q351 763 362 756T385 731L443 646Q455 627 455 609Q455 585 437 568T396 550Q382 550 372 555Z" />
<glyph unicode="&#xe9;" glyph-name="eacute" horiz-adv-x="596" d="M210 -10T154 19T68 101T38 219Q38 299 76 367T182 475T332 515Q393 515 447 493T535 425T569 313Q569 212 483 212L160 210L159 199Q159 158 193 132T285 105Q328 105 357 118T415 155Q438
172 457 172Q478 172 494 158T511 123Q511 103 492 80Q464 46 414 18T285 -10Q210 -10 154 19ZM426 302Q443 302 448 305T453 321Q453 365 420 386T339 407Q294 407 258 390T201 347T176 300L426 302ZM299 561T288 573T276 604Q276 631 299 654L405 760Q422 777
437 784T469 792Q490 792 502 780T515 747Q515 714 478 681L373 587Q357 572 345 567T318 561Q299 561 288 573Z" />
<glyph unicode="&#xea;" glyph-name="ecircumflex" horiz-adv-x="596" d="M210 -10T154 19T68 101T38 219Q38 299 76 367T182 475T332 515Q393 515 447 493T535 425T569 313Q569 212 483 212L160 210L159 199Q159 158 193 132T285 105Q328 105 357 118T415 155Q438
172 457 172Q478 172 494 158T511 123Q511 103 492 80Q464 46 414 18T285 -10Q210 -10 154 19ZM426 302Q443 302 448 305T453 321Q453 365 420 386T339 407Q294 407 258 390T201 347T176 300L426 302ZM455 550T442 571Q430 590 408 628Q405 632 397 646T385 661Q380
661 344 627L296 582Q279 567 268 561T243 555Q223 555 210 567T197 599Q197 609 203 622T220 645L252 674Q302 721 338 748T400 775Q430 775 447 759T489 704Q494 697 507 677T535 639Q544 626 544 612Q544 587 526 569T484 550Q455 550 442 571Z" />
<glyph unicode="&#xeb;" glyph-name="edieresis" horiz-adv-x="596" d="M210 -10T154 19T68 101T38 219Q38 299 76 367T182 475T332 515Q393 515 447 493T535 425T569 313Q569 212 483 212L160 210L159 199Q159 158 193 132T285 105Q328 105 357 118T415 155Q438
172 457 172Q478 172 494 158T511 123Q511 103 492 80Q464 46 414 18T285 -10Q210 -10 154 19ZM426 302Q443 302 448 305T453 321Q453 365 420 386T339 407Q294 407 258 390T201 347T176 300L426 302ZM199 560T181 579T162 625Q162 660 190 687T254 715Q282 715
301 696T321 650Q321 616 292 588T227 560Q199 560 181 579ZM475 560T457 579T438 625Q438 660 466 687T530 715Q558 715 577 696T596 650Q596 616 567 588T503 560Q475 560 457 579Z" />
<glyph unicode="&#xec;" glyph-name="igrave" horiz-adv-x="350" d="M98 2T81 16T64 53Q64 59 65 63L141 448Q145 475 169 491T225 508Q254 508 271 494T289 457Q289 450 288 446L208 61Q203 36 181 19T127 2Q98 2 81 16ZM246 550T236 555T216 574L152 660Q137
680 137 702Q137 727 156 745T200 763Q215 763 226 756T249 731L307 646Q319 627 319 609Q319 585 301 568T260 550Q246 550 236 555Z" />
<glyph unicode="&#xed;" glyph-name="iacute" horiz-adv-x="350" d="M98 2T81 16T64 53Q64 59 65 63L141 448Q145 475 169 491T225 508Q254 508 271 494T289 457Q289 450 288 446L208 61Q203 36 181 19T127 2Q98 2 81 16ZM169 560T156 575T143 610Q143 637 172
659L275 737Q301 756 313 763T339 770Q359 770 371 755T384 719Q384 686 350 663L240 584Q219 569 210 565T188 560Q169 560 156 575Z" />
<glyph unicode="&#xee;" glyph-name="icircumflex" horiz-adv-x="350" d="M98 2T81 16T64 53Q64 59 65 63L141 448Q145 475 169 491T225 508Q254 508 271 494T289 457Q289 450 288 446L208 61Q203 36 181 19T127 2Q98 2 81 16ZM319 550T306 571Q294 590 272 628Q269
632 261 646T249 661Q244 661 208 627L160 582Q143 567 132 561T107 555Q87 555 74 567T61 599Q61 609 67 622T84 645L116 674Q166 721 202 748T264 775Q294 775 311 759T353 704Q358 697 371 677T399 639Q408 626 408 612Q408 587 390 569T348 550Q319 550 306
571Z" />
<glyph unicode="&#xef;" glyph-name="idieresis" horiz-adv-x="350" d="M98 2T81 16T64 53Q64 59 65 63L141 448Q145 475 169 491T225 508Q254 508 271 494T289 457Q289 450 288 446L208 61Q203 36 181 19T127 2Q98 2 81 16ZM63 560T45 579T26 625Q26 660 54 687T118
715Q146 715 165 696T185 650Q185 616 156 588T91 560Q63 560 45 579ZM339 560T321 579T302 625Q302 660 330 687T394 715Q422 715 441 696T460 650Q460 616 431 588T367 560Q339 560 321 579Z" />
<glyph unicode="&#xf0;" glyph-name="eth" horiz-adv-x="607" d="M543 514T558 454T574 336Q574 239 536 163T429 44T269 1Q203 1 150 28T68 102T38 207Q38 288 77 353T184 455T331 492Q365 492 392 485Q387 494 375 510Q362 528 350 540L299 514Q290 510 276
506T249 501Q230 501 216 515T202 550Q202 578 238 596L261 608L250 614Q232 623 225 631T217 653Q217 682 238 704T288 727Q312 727 345 709Q383 689 398 679L474 719Q482 723 494 723Q514 723 530 708T546 668Q546 650 538 641T505 619L481 607Q498 587 513 563Q543
514 558 454ZM345 114T383 170T428 314Q397 381 330 381Q288 381 254 358T202 296T183 216Q183 170 208 142T278 114Q345 114 383 170Z" />
<glyph unicode="&#xf1;" glyph-name="ntilde" horiz-adv-x="574" d="M448 511T492 465T536 338Q536 315 527 260T506 138Q503 115 499 94T491 51Q487 26 465 13T411 -1Q378 -1 360 14T346 51L372 208Q374 222 382 270T391 338Q391 371 379 385T342 400Q314 400
292 375T244 273Q229 227 221 180L199 51Q195 26 174 12T119 -2Q85 -2 68 13T54 51Q57 68 60 89T68 134Q72 156 84 233T105 375Q107 388 104 398T98 416T92 428Q86 442 86 452Q86 474 113 491T164 509Q190 509 208 481Q216 469 220 455T222 432L220 420Q271 511
378 511Q448 511 492 465ZM206 570T194 583T181 614Q181 638 202 659Q236 693 262 707T320 721Q344 721 369 715T414 696Q431 686 440 682T453 677Q460 677 468 685Q481 698 491 703T514 709Q532 709 546 695T560 662Q560 637 536 616Q483 570 434 570Q411 570
392 578T351 599Q349 600 335 608T310 617Q304 617 296 611T275 593Q249 570 225 570Q206 570 194 583Z" />
<glyph unicode="&#xf2;" glyph-name="ograve" horiz-adv-x="607" d="M163 -3T95 51T27 214Q27 294 66 364T176 476T335 518Q449 518 516 457T583 283Q583 203 546 138T439 35T280 -3Q163 -3 95 51ZM355 108T396 158T437 283Q437 340 412 373T335 407Q287 407 250
379T193 306T173 214Q173 160 201 134T280 108Q355 108 396 158ZM377 550T367 555T347 574L283 660Q268 680 268 702Q268 727 287 745T331 763Q346 763 357 756T380 731L438 646Q450 627 450 609Q450 585 432 568T391 550Q377 550 367 555Z" />
<glyph unicode="&#xf3;" glyph-name="oacute" horiz-adv-x="607" d="M163 -3T95 51T27 214Q27 294 66 364T176 476T335 518Q449 518 516 457T583 283Q583 203 546 138T439 35T280 -3Q163 -3 95 51ZM355 108T396 158T437 283Q437 340 412 373T335 407Q287 407 250
379T193 306T173 214Q173 160 201 134T280 108Q355 108 396 158ZM300 560T287 575T274 610Q274 637 303 659L406 737Q432 756 444 763T470 770Q490 770 502 755T515 719Q515 686 481 663L371 584Q350 569 341 565T319 560Q300 560 287 575Z" />
<glyph unicode="&#xf4;" glyph-name="ocircumflex" horiz-adv-x="607" d="M163 -3T95 51T27 214Q27 294 66 364T176 476T335 518Q449 518 516 457T583 283Q583 203 546 138T439 35T280 -3Q163 -3 95 51ZM355 108T396 158T437 283Q437 340 412 373T335 407Q287
407 250 379T193 306T173 214Q173 160 201 134T280 108Q355 108 396 158ZM450 550T437 571Q425 590 403 628Q400 632 392 646T380 661Q375 661 339 627L291 582Q274 567 263 561T238 555Q218 555 205 567T192 599Q192 609 198 622T215 645L247 674Q297 721 333
748T395 775Q425 775 442 759T484 704Q489 697 502 677T530 639Q539 626 539 612Q539 587 521 569T479 550Q450 550 437 571Z" />
<glyph unicode="&#xf5;" glyph-name="otilde" horiz-adv-x="607" d="M163 -3T95 51T27 214Q27 294 66 364T176 476T335 518Q449 518 516 457T583 283Q583 203 546 138T439 35T280 -3Q163 -3 95 51ZM355 108T396 158T437 283Q437 340 412 373T335 407Q287 407 250
379T193 306T173 214Q173 160 201 134T280 108Q355 108 396 158ZM209 570T197 583T184 614Q184 638 205 659Q239 693 265 707T323 721Q347 721 372 715T417 696Q434 686 443 682T456 677Q463 677 471 685Q484 698 494 703T517 709Q535 709 549 695T563 662Q563
637 539 616Q486 570 437 570Q414 570 395 578T354 599Q352 600 338 608T313 617Q307 617 299 611T278 593Q252 570 228 570Q209 570 197 583Z" />
<glyph unicode="&#xf6;" glyph-name="odieresis" horiz-adv-x="607" d="M163 -3T95 51T27 214Q27 294 66 364T176 476T335 518Q449 518 516 457T583 283Q583 203 546 138T439 35T280 -3Q163 -3 95 51ZM355 108T396 158T437 283Q437 340 412 373T335 407Q287 407
250 379T193 306T173 214Q173 160 201 134T280 108Q355 108 396 158ZM194 560T176 579T157 625Q157 660 185 687T249 715Q277 715 296 696T316 650Q316 616 287 588T222 560Q194 560 176 579ZM470 560T452 579T433 625Q433 660 461 687T525 715Q553 715 572 696T591
650Q591 616 562 588T498 560Q470 560 452 579Z" />
<glyph unicode="&#xf7;" glyph-name="divide" horiz-adv-x="560" d="M275 410T258 425T241 464Q241 495 267 518T325 542Q351 542 367 527T384 487Q384 455 360 433T302 410Q275 410 258 425ZM73 258T61 269T49 298Q49 316 64 335Q84 359 123 373T205 388Q233
388 267 383T320 373Q334 369 361 366T404 362Q423 362 447 372Q465 381 481 381Q501 381 514 369T527 335Q527 301 486 280Q467 270 438 265T383 260Q358 260 323 266T265 280Q234 289 192 289Q177 289 161 282T141 272Q129 267 116 263T91 258Q73 258 61 269ZM226
103T209 118T192 159Q192 191 219 214T278 237Q303 237 320 221T337 181Q337 149 311 126T253 103Q226 103 209 118Z" />
<glyph unicode="&#xf8;" glyph-name="oslash" horiz-adv-x="607" d="M583 543T592 532T602 505Q602 482 582 465L542 426Q583 370 583 283Q583 203 546 138T439 35T280 -3Q191 -3 130 28L75 -25Q64 -36 54 -40T31 -45Q14 -45 2 -33T-11 -5Q-11 5 -6 16T8 35L62
87Q27 137 27 214Q27 294 66 364T176 476T335 518Q416 518 475 486L515 525Q526 537 540 542T568 545Q583 543 592 532ZM173 201T174 195L383 397Q363 407 335 407Q287 407 250 379T193 306T173 214Q173 201 174 195ZM437 304T434 322L224 119Q245 108 280 108Q355
108 396 158T437 283Q437 304 434 322Z" />
<glyph unicode="&#xf9;" glyph-name="ugrave" horiz-adv-x="573" d="M469 114Q468 102 470 93T478 72Q486 54 486 46Q486 30 464 12T421 -6Q407 -6 390 3T362 29T350 69Q301 -2 203 -2Q129 -2 91 43T52 163Q52 211 98 454Q102 477 125 491T178 506Q208 506 227
492T242 454Q198 220 198 181Q198 149 208 129T242 109Q280 109 304 144T346 267Q365 372 379 452Q383 479 405 495T460 511Q492 511 510 494T524 452L474 162L469 114ZM344 550T334 555T314 574L250 660Q235 680 235 702Q235 727 254 745T298 763Q313 763 324
756T347 731L405 646Q417 627 417 609Q417 585 399 568T358 550Q344 550 334 555Z" />
<glyph unicode="&#xfa;" glyph-name="uacute" horiz-adv-x="573" d="M469 114Q468 102 470 93T478 72Q486 54 486 46Q486 30 464 12T421 -6Q407 -6 390 3T362 29T350 69Q301 -2 203 -2Q129 -2 91 43T52 163Q52 211 98 454Q102 477 125 491T178 506Q208 506 227
492T242 454Q198 220 198 181Q198 149 208 129T242 109Q280 109 304 144T346 267Q365 372 379 452Q383 479 405 495T460 511Q492 511 510 494T524 452L474 162L469 114ZM267 560T254 575T241 610Q241 637 270 659L373 737Q399 756 411 763T437 770Q457 770 469
755T482 719Q482 686 448 663L338 584Q317 569 308 565T286 560Q267 560 254 575Z" />
<glyph unicode="&#xfb;" glyph-name="ucircumflex" horiz-adv-x="573" d="M469 114Q468 102 470 93T478 72Q486 54 486 46Q486 30 464 12T421 -6Q407 -6 390 3T362 29T350 69Q301 -2 203 -2Q129 -2 91 43T52 163Q52 211 98 454Q102 477 125 491T178 506Q208 506
227 492T242 454Q198 220 198 181Q198 149 208 129T242 109Q280 109 304 144T346 267Q365 372 379 452Q383 479 405 495T460 511Q492 511 510 494T524 452L474 162L469 114ZM417 550T404 571Q392 590 370 628Q367 632 359 646T347 661Q342 661 306 627L258 582Q241
567 230 561T205 555Q185 555 172 567T159 599Q159 609 165 622T182 645L214 674Q264 721 300 748T362 775Q392 775 409 759T451 704Q456 697 469 677T497 639Q506 626 506 612Q506 587 488 569T446 550Q417 550 404 571Z" />
<glyph unicode="&#xfc;" glyph-name="udieresis" horiz-adv-x="573" d="M469 114Q468 102 470 93T478 72Q486 54 486 46Q486 30 464 12T421 -6Q407 -6 390 3T362 29T350 69Q301 -2 203 -2Q129 -2 91 43T52 163Q52 211 98 454Q102 477 125 491T178 506Q208 506
227 492T242 454Q198 220 198 181Q198 149 208 129T242 109Q280 109 304 144T346 267Q365 372 379 452Q383 479 405 495T460 511Q492 511 510 494T524 452L474 162L469 114ZM161 560T143 579T124 625Q124 660 152 687T216 715Q244 715 263 696T283 650Q283 616
254 588T189 560Q161 560 143 579ZM437 560T419 579T400 625Q400 660 428 687T492 715Q520 715 539 696T558 650Q558 616 529 588T465 560Q437 560 419 579Z" />
<glyph unicode="&#xfd;" glyph-name="yacute" horiz-adv-x="542" d="M118 -264T100 -249T82 -211Q82 -191 92 -175Q118 -133 155 -63T201 23Q208 39 213 48T222 64Q179 108 146 173T95 309T77 436Q77 447 78 455Q82 482 103 496T156 511Q184 511 194 500T205 467Q215
266 279 180Q310 243 357 354Q394 441 408 472Q418 494 432 503T472 513Q506 513 525 498T541 459L538 448Q473 296 368 79L332 6Q250 -164 215 -222Q202 -242 188 -253T148 -264Q118 -264 100 -249ZM268 560T255 575T242 610Q242 637 271 659L374 737Q400 756
412 763T438 770Q458 770 470 755T483 719Q483 686 449 663L339 584Q318 569 309 565T287 560Q268 560 255 575Z" />
<glyph unicode="&#xfe;" glyph-name="thorn" horiz-adv-x="605" d="M420 517T470 489T546 410T573 298Q573 206 536 139T430 35T267 -1Q194 -1 147 34Q127 -66 107 -140Q101 -164 78 -178T24 -193Q-3 -193 -20 -180T-37 -145Q-37 -135 -27 -88T-13 -20Q-6 5 2
47Q20 129 49 289L100 582L112 652Q117 680 139 696T192 713Q224 713 243 697T258 656L227 484Q284 517 353 517Q420 517 470 489ZM342 110T384 164T427 298Q427 348 401 377T329 406Q290 406 250 380T199 324L185 242L176 199Q168 158 166 143Q172 132 202 121T267
110Q342 110 384 164Z" />
<glyph unicode="&#xff;" glyph-name="ydieresis" horiz-adv-x="542" d="M118 -264T100 -249T82 -211Q82 -191 92 -175Q118 -133 155 -63T201 23Q208 39 213 48T222 64Q179 108 146 173T95 309T77 436Q77 447 78 455Q82 482 103 496T156 511Q184 511 194 500T205
467Q215 266 279 180Q310 243 357 354Q394 441 408 472Q418 494 432 503T472 513Q506 513 525 498T541 459L538 448Q473 296 368 79L332 6Q250 -164 215 -222Q202 -242 188 -253T148 -264Q118 -264 100 -249ZM162 560T144 579T125 625Q125 660 153 687T217 715Q245
715 264 696T284 650Q284 616 255 588T190 560Q162 560 144 579ZM438 560T420 579T401 625Q401 660 429 687T493 715Q521 715 540 696T559 650Q559 616 530 588T466 560Q438 560 420 579Z" />
<glyph unicode="&#x2013;" glyph-name="endash" horiz-adv-x="819" d="M212 313T111 322Q89 324 77 337T64 371Q64 399 87 420T139 439Q250 430 335 430Q379 430 424 431T488 433Q580 437 643 437L699 436Q717 435 751 435Q776 435 790 423T805 390Q805 363 782
342T730 320Q698 320 682 321L632 322Q546 322 456 317Q350 313 283 313Q212 313 111 322Z" />
<glyph unicode="&#x2014;" glyph-name="emdash" horiz-adv-x="1547" d="M277 319T208 320T107 326Q87 329 76 341T65 373Q65 401 87 422T139 442Q209 436 460 436Q547 436 633 436T805 438Q892 439 980 439T1158 440Q1258 440 1384 436Q1470 434 1491 434Q1510
434 1521 422T1532 389Q1532 359 1514 339T1470 319L1382 321Q1223 324 1187 324Q1094 324 1000 324T812 322Q621 319 432 319Q277 319 208 320Z" />
<glyph unicode="&#x2018;" glyph-name="quoteleft" horiz-adv-x="294" d="M253 627T271 612T290 564Q290 524 262 498T190 472Q155 472 136 490T116 543Q116 587 146 637T213 715Q230 729 246 729Q259 729 269 721T279 700Q279 691 274 681T263 665Q236 638 228
629Q253 627 271 612ZM232 564T226 570T209 576Q193 576 184 566T175 543Q175 524 198 524Q212 523 222 533T232 555Q232 564 226 570Z" />
<glyph unicode="&#x2019;" glyph-name="quoteright" horiz-adv-x="297" d="M265 734T287 714T310 659Q310 613 284 570T210 491Q191 477 178 477Q165 477 154 487T142 508Q142 524 155 538Q195 578 195 578Q171 581 152 596T133 643Q133 685 160 709T228 734Q265
734 287 714ZM230 630T238 640T247 662Q247 682 222 682Q209 682 201 672T192 651Q192 630 214 630Q230 630 238 640Z" />
<glyph unicode="&#x201a;" glyph-name="quotesinglbase" horiz-adv-x="297" d="M160 150T181 131T203 77Q203 33 178 -5T106 -91Q89 -108 73 -108Q58 -108 48 -101T37 -79Q37 -61 55 -43L88 -9Q63 -7 45 8T27 52Q27 95 54 122T124 150Q160 150 181 131ZM125 46T134
56T143 79Q143 98 118 98Q107 98 98 91T87 73Q85 62 90 54T109 46Q125 46 134 56Z" />
<glyph unicode="&#x201c;" glyph-name="quotedblleft" horiz-adv-x="490" d="M449 632T467 616T486 567Q486 528 459 502T389 476Q353 476 332 495T310 552Q310 628 406 717Q416 726 422 730T439 734Q453 734 464 727T475 703Q475 687 458 669Q453 664 443 654T424
635Q449 632 467 616ZM246 627T265 611T285 559Q285 520 259 496T189 472Q153 472 133 490T113 545Q113 584 136 623T208 715Q221 729 240 729Q254 729 264 721T275 699Q275 682 258 665Q255 662 243 651T221 629Q246 627 265 611ZM407 527T416 537T426 558Q426
567 421 573T404 580Q389 580 380 569T371 545Q371 528 393 528Q407 527 416 537ZM207 524T216 532T226 554Q226 576 204 576Q188 576 179 566T170 543Q170 524 193 524Q207 524 216 532Z" />
<glyph unicode="&#x201d;" glyph-name="quotedblright" horiz-adv-x="496" d="M463 734T486 715T509 661Q509 617 483 577T409 491Q390 477 377 477Q362 477 352 485T342 508Q342 526 358 541Q394 577 394 577Q369 579 351 593T332 640Q332 683 358 707T426 734Q463
734 486 715ZM264 730T285 711T307 657Q307 614 282 576T210 489Q193 472 177 472Q162 472 152 480T141 501Q141 517 159 537L192 571Q167 573 149 588T131 632Q131 675 158 702T228 730Q264 730 285 711ZM429 630T437 640T446 662Q446 682 421 682Q408 682 400
672T391 651Q391 630 413 630Q429 630 437 640ZM229 626T238 636T247 659Q247 678 222 678Q211 678 202 671T191 653Q189 642 194 634T213 626Q229 626 238 636Z" />
<glyph unicode="&#x201e;" glyph-name="quotedblbase" horiz-adv-x="507" d="M364 154T387 135T410 81Q410 34 383 -11T310 -89Q291 -103 278 -103Q263 -103 253 -95T243 -72Q243 -55 259 -39Q295 -3 295 -3Q270 -1 252 13T233 60Q233 103 259 128T327 154Q364
154 387 135ZM165 150T186 131T208 77Q208 33 183 -5T111 -91Q94 -108 78 -108Q63 -108 53 -101T42 -79Q42 -61 60 -43L93 -9Q68 -7 50 8T32 52Q32 95 59 122T129 150Q165 150 186 131ZM330 50T338 60T347 82Q347 102 322 102Q309 102 301 92T292 71Q292 50 314
50Q330 50 338 60ZM130 46T139 56T148 79Q148 98 123 98Q112 98 103 91T92 73Q90 62 95 54T114 46Q130 46 139 56Z" />
<glyph unicode="&#x2022;" glyph-name="bullet" horiz-adv-x="583" d="M285 34T258 54T232 106Q222 84 196 71T134 58Q86 58 57 88T28 169Q28 219 59 252T141 289Q126 297 117 318T107 365Q107 425 148 461T257 498Q303 498 330 476T357 417Q357 412 355 398Q371
433 399 454T457 475Q506 475 536 444T566 363Q566 309 532 273T442 232Q459 227 470 210T481 171Q481 109 440 72T330 34Q285 34 258 54ZM352 141T366 154T381 188Q381 192 375 199T359 214Q351 220 351 235Q351 253 359 266T382 283Q411 291 430 303T451 329Q452
332 452 339Q452 354 444 363T421 373Q406 373 391 362T367 332Q362 322 350 316T325 310Q309 310 299 319T290 344V356Q290 372 281 381T258 391Q240 391 227 378T213 346Q213 337 217 328T229 313Q233 309 235 303T238 290Q238 266 228 251T200 236Q177 236 163
224T148 193Q148 179 156 171T177 162Q189 162 201 169T221 190Q227 200 238 206T260 212Q275 212 284 205T294 185Q293 166 302 154T328 141Q352 141 366 154ZM270 214T258 225T245 255Q245 278 260 292T300 307Q322 307 335 296T348 267Q348 243 333 229T291
214Q270 214 258 225ZM302 247T306 251T311 264Q311 268 307 271T297 274Q290 274 286 269T281 256Q281 252 285 250T295 247Q302 247 306 251Z" />
<glyph unicode="&#x2039;" glyph-name="guilsinglleft" horiz-adv-x="375" d="M217 152T177 181T107 252T77 326Q77 362 123 409T229 490T324 525Q339 525 348 515T358 489Q358 466 348 452T315 430Q288 421 254 399T196 356T171 326Q171 314 205 286T270 247Q285
242 293 231T302 207Q302 183 285 168T248 152Q217 152 177 181Z" />
<glyph unicode="&#x203a;" glyph-name="guilsinglright" horiz-adv-x="375" d="M81 152T70 162T59 190Q59 209 73 224T109 247Q131 254 162 275T216 319T240 350Q240 361 203 388T128 430Q101 440 101 465Q101 488 116 506T152 525Q183 525 226 495T302 424T334
350Q334 315 290 268T189 187T96 152Q81 152 70 162Z" />
</font>
</defs>
</svg>
